<svg xmlns="http://www.w3.org/2000/svg" width="565" height="800" viewBox="0 0 565 800"><path d="M564.52,783c0-3.84-.2-3.84-.2-7.68s-.48-3.83-.48-7.66S565,763.79,565,760s-.49-3.83-.49-7.66.29-3.84.29-7.67-1.3-3.84-1.3-7.67,1.3-3.84,1.3-7.67-.39-3.84-.39-7.67-1-3.84-1-7.67-.14-3.84-.14-7.67,1.36-3.84,1.36-7.67.24-3.84.24-7.67-1.55-3.84-1.55-7.67,1.64-3.84,1.64-7.67-.32-3.83-.32-7.67-.32-3.83-.32-7.67.14-3.83.14-7.66-1-3.84-1-7.67-.19-3.83-.19-7.67,0-3.83,0-7.66.45-3.83.45-7.67,1.19-3.83,1.19-7.66-1.06-3.84-1.06-7.67.84-3.83.84-7.66,0-3.84,0-7.67-.14-3.83-.14-7.66-.39-3.83-.39-7.66,0-3.84,0-7.67-1-3.83-1-7.67.59-3.83.59-7.66.68-3.84.68-7.67.37-3.83.37-7.67-1.66-3.83-1.66-7.66.41-3.84.41-7.67,1.14-3.83,1.14-7.67-.1-3.83-.1-7.66-.43-3.84-.43-7.67.5-3.83.5-7.67-1.49-3.83-1.49-7.66,1.31-3.84,1.31-7.67.22-3.83.22-7.66-.25-3.84-.25-7.67-.41-3.83-.41-7.67,0-3.83,0-7.66-.42-3.83-.42-7.67-.36-3.83-.36-7.66,1.63-3.84,1.63-7.67-.51-3.83-.51-7.66-.76-3.83-.76-7.67,1.08-3.83,1.08-7.66-.83-3.84-.83-7.67.49-3.83.49-7.66-.22-3.84-.22-7.67.32-3.83.32-7.66.27-3.83.27-7.67-.81-3.83-.81-7.66-.44-3.83-.44-7.67,0-3.83,0-7.66.8-3.83.8-7.66.06-3.83.06-7.67-.86-3.83-.86-7.66,1.09-3.83,1.09-7.67-.77-3.83-.77-7.66.14-3.83.14-7.66-.67-3.83-.67-7.66,1.41-3.84,1.41-7.67-1.4-3.83-1.4-7.66.94-3.83.94-7.66.48-3.84.48-7.67.3-3.83.3-7.66-.87-3.83-.87-7.67-.68-3.83-.68-7.66.76-3.83.76-7.66-.28-3.83-.28-7.66S565,211.86,565,208s-.49-3.83-.49-7.66-.7-3.84-.7-7.67.66-3.83.66-7.66.22-3.83.22-7.67-.29-3.83-.29-7.66-.46-3.83-.46-7.66-.15-3.83-.15-7.66.15-3.83.15-7.66-.62-3.83-.62-7.66,1.33-3.83,1.33-7.66-1.08-3.83-1.08-7.66-.46-3.83-.46-7.67.27-3.83.27-7.66.72-3.83.72-7.66-.54-3.83-.54-7.66-.15-3.83-.15-7.66V77.78c0-3.83,1.47-3.83,1.47-7.66s-1.66-3.83-1.66-7.66.6-3.82.6-7.65.72-3.83.72-7.66.32-3.83.32-7.66-.09-3.84-.09-7.67-.56-3.83-.56-7.66-.16-3.83-.16-7.67-.68-3.83-.68-7.66,3-4.74.47-7.44S560.47.77,556.9.77s-3.57.68-7.14.68S546.2.11,542.63.11s-3.57,1.65-7.14,1.65-3.56-.61-7.13-.61-3.57-.8-7.13-.8-3.57.09-7.13.09-3.57.67-7.13.67-3.57-.5-7.13-.5-3.57,0-7.13,0-3.57,1.4-7.14,1.4S482,.74,478.44.74s-3.56.12-7.13.12-3.56.67-7.13.67-3.57.44-7.13.44-3.57.14-7.13.14S446.35.7,442.79.7s-3.56.47-7.13.47S432.1.94,428.53.94s-3.56.57-7.13.57-3.56-.4-7.13-.4-3.56.65-7.12.65S403.58,1.2,400,1.2s-3.56.57-7.13.57S389.33.66,385.77.66s-3.57.68-7.13.68S375.08.17,371.51.17,368,1.76,364.39,1.76s-3.56.1-7.13.1-3.56-1-7.13-1S346.57.2,343,.2,339.44,2,335.88,2s-3.57-1-7.13-1-3.56-.58-7.13-.58-3.56,1.62-7.13,1.62-3.56.12-7.13.12-3.56-.72-7.12-.72-3.57-1-7.13-1S289.54.39,286,.39s-3.56.45-7.13.45-3.56.32-7.13.32-3.56,1-7.12,1S261,1.5,257.47,1.5,253.91,1,250.34,1s-3.56.31-7.13.31-3.56-.53-7.12-.53-3.57.89-7.13.89S225.4.17,221.83.17s-3.56,1.56-7.13,1.56-3.56.31-7.12.31S204,1,200.45,1s-3.56-.69-7.13-.69-3.56,1.81-7.12,1.81-3.57-1.11-7.13-1.11S175.51,2.12,172,2.12,168.38,1,164.82,1s-3.56,1.12-7.13,1.12-3.56-.58-7.13-.58S147,2,143.44,2,139.88.79,136.31.79s-3.56-.5-7.12-.5-3.56.09-7.13.09-3.56.86-7.12.86-3.57-.81-7.13-.81-3.56.15-7.13.15-3.56.9-7.12.9S90,2,86.44,2,82.87.67,79.31.67,75.75.18,72.19.18s-3.57,1.5-7.13,1.5-3.56-.63-7.13-.63S54.37.62,50.81.62s-3.56.57-7.13.57S40.12,2,36.56,2,33,.54,29.44.54,25.88.35,22.31.35s-3.56.84-7.12.84-3.56,0-7.13,0S4.15-.8,1.63,1.92,1.08,5,1.08,8.85.83,12.69.83,16.53.18,20.37.18,24.2.05,28,.05,31.87s1.19,3.84,1.19,7.67.23,3.84.23,7.67-1,3.84-1,7.67.13,3.84.13,7.67,1.28,3.83,1.28,7.67-1,3.83-1,7.67,0,3.83,0,7.67S.58,89.39.58,93.23s1.18,3.83,1.18,7.67.16,3.83.16,7.67S.29,112.4.29,116.24s-.08,3.83-.08,7.67.12,3.83.12,7.66.27,3.84.27,7.67,1.25,3.84,1.25,7.67S.16,150.74.16,154.58s1,3.83,1,7.66S0,166.08,0,169.91s.65,3.83.65,7.67-.59,3.83-.59,7.66,1.78,3.83,1.78,7.66S.29,196.74.29,200.57s.21,3.83.21,7.66.6,3.84.6,7.67,0,3.83,0,7.66-.2,3.83-.2,7.67-.5,3.83-.5,7.66-.25,3.84-.25,7.67,1,3.83,1,7.67.1,3.83.1,7.66.42,3.84.42,7.67-1.2,3.83-1.2,7.67,1,3.83,1,7.66S.32,288.73.32,292.56s1.22,3.83,1.22,7.67-.36,3.83-.36,7.66.49,3.84.49,7.67-.18,3.83-.18,7.67-.74,3.83-.74,7.66.59,3.83.59,7.67,0,3.83,0,7.66-1,3.84-1,7.67-.29,3.83-.29,7.66,1.41,3.84,1.41,7.67-.91,3.83-.91,7.67,1,3.83,1,7.66-.09,3.83-.09,7.66-.62,3.84-.62,7.67-.68,3.83-.68,7.67,1.5,3.83,1.5,7.66-.15,3.83-.15,7.66S0,426.71,0,430.54s1.43,3.83,1.43,7.66-.09,3.84-.09,7.67S.08,449.7.08,453.53s.64,3.83.64,7.67,1,3.83,1,7.66-.82,3.83-.82,7.66.32,3.84.32,7.67S.84,488,.84,491.85s.43,3.84.43,7.67-1,3.83-1,7.66,1.09,3.83,1.09,7.66.09,3.83.09,7.66.46,3.83.46,7.67S.67,534,.67,537.83s1.23,3.83,1.23,7.67,0,3.83,0,7.66S.32,557,.32,560.82s.36,3.83.36,7.66,1,3.83,1,7.66.13,3.84.13,7.67-.35,3.83-.35,7.66S.28,595.3.28,599.13,1,603,1,606.8s-.21,3.83-.21,7.66-.41,3.83-.41,7.66,1.46,3.83,1.46,7.66S.59,633.61.59,637.44s-.08,3.83-.08,7.66.55,3.83.55,7.66v7.66c0,3.83.72,3.83.72,7.66S1,671.92,1,675.75s-.3,3.83-.3,7.66.66,3.84.66,7.67.32,3.83.32,7.66-.09,3.83-.09,7.66S.19,710.23.19,714.06s.6,3.83.6,7.66-.56,3.82-.56,7.65,1,3.83,1,7.66.12,3.83.12,7.66.37,3.83.37,7.66-.29,3.83-.29,7.66-.16,3.83-.16,7.66v7.67c0,3.83-.75,3.83-.75,7.66s1.13,3.83,1.13,7.67-3,4.74-.52,7.44,3.48,1.93,7.11,1.14,3.39-.49,7-.49,3.57-.9,7.14-.9,3.57.51,7.13.51,3.57-.58,7.14-.58,3.56-.5,7.13-.5,3.56.38,7.13.38,3.56-.14,7.13-.14,3.56,1,7.13,1,3.57-.46,7.13-.46,3.57.57,7.13.57,3.57.22,7.13.22,3.57-.25,7.13-.25,3.57.71,7.14.71,3.56-.17,7.13-.17,3.56.14,7.13.14,3.56-1.81,7.13-1.81,3.56,1.51,7.13,1.51,3.56-1.35,7.12-1.35,3.57,1,7.13,1,3.57.45,7.13.45,3.57-1.37,7.13-1.37,3.56.09,7.13.09,3.56.61,7.12.61h7.13c3.56,0,3.56-.48,7.13-.48s3.56-.2,7.12-.2,3.57.16,7.13.16,3.56.57,7.12.57,3.57-.42,7.13-.42,3.57.82,7.13.82,3.56-1.52,7.13-1.52,3.56,1.15,7.13,1.15,3.56.31,7.13.31,3.56-1.16,7.12-1.16,3.57,1,7.13,1,3.57-1,7.13-1,3.56.13,7.13.13,3.56,0,7.13,0,3.56.76,7.12.76,3.57-1,7.13-1,3.57.06,7.13.06,3.56.33,7.13.33,3.56,1.41,7.13,1.41,3.56-.75,7.12-.75,3.57.63,7.13.63,3.56-1,7.13-1,3.56.75,7.13.75,3.56-1.52,7.12-1.52,3.56.53,7.13.53,3.56.62,7.12.62,3.57-1.15,7.13-1.15,3.57-.1,7.13-.1,3.56.64,7.13.64,3.56-.21,7.12-.21,3.56.37,7.13.37,3.56-.43,7.12-.43,3.57.86,7.13.86,3.56.65,7.13.65,3.56-1.86,7.12-1.86,3.56,1.68,7.13,1.68,3.56-.3,7.12-.3,3.57-.63,7.13-.63,3.56-.52,7.13-.52,3.56-.1,7.12-.1,3.57.93,7.13.93,3.56.81,7.12.81,3.56-.79,7.12-.79,3.57.27,7.13.27,3.56-.83,7.13-.83,3.56-.09,7.12-.09,3.57,1.18,7.13,1.18,3.56-1,7.12-1,3.56-.48,7.13-.48,3.56.94,7.12.94,3.56.88,7.12.88,3.56-.62,7.13-.62,3.56-1.29,7.12-1.29,4.59,3.61,7.11.89-.91-3.82-.91-7.66S564.52,786.81,564.52,783ZM354.59,599.19c-4.81,5.31-14.11,11.16-26,15.72l-.05,0c-2.15.81-4.37,1.59-6.67,2.31l-.18.06c-1.13.35-2.27.69-3.43,1h0c-1.16.33-2.34.64-3.54.94l-.32.07c-1.12.28-2.24.54-3.38.79l-.26,0c-1.2.26-2.4.5-3.62.72l-.46.08c-1.09.2-2.2.38-3.31.55l-.49.07q-1.82.27-3.66.48l-.51.06c-1.05.11-2.11.22-3.17.31l-.83.07c-1.22.09-2.44.17-3.67.22l-.72,0c-.56,0-1.13.05-1.7.06v0a99.67,99.67,0,0,1-44.7-8.85c-44.79-20.81-44.17-62.77-42.92-84.58.32-5.7,2-11.79,4.42-18,6.24-16.24,17.3-33.48,21.9-47.54.4-1.22.76-2.42,1-3.59a44,44,0,0,0,1-15.36,73.6,73.6,0,0,0-3.79-16.08l-.87-2.5-3.63-10-1.12-5.23a24.68,24.68,0,0,1,4.85-20.66l1.36-1.66a17.48,17.48,0,0,1,22-4.63l1.79,1,21.17,9.27a12.42,12.42,0,0,0,2.15-1.81S303,389.58,303,396c0,15,.75,24.17.85,32.14,2.55,5.7,5.66,9.32,9,11.46l.35.21c.27.16.53.32.8.46s.56.29.84.42l.27.13a16.2,16.2,0,0,0,5.82,1.35,22.94,22.94,0,0,0,15.43-5.63c.17-.15.38-.32.53-.47,1.61-1.64,3.46-4.63,5.47-7.53l.5-.72.36-.49c.31-.44.62-.86.94-1.27l.18-.22c.35-.45.7-.88,1.06-1.28l.06-.08.1-.09.45-.49.18-.18c.16-.16.31-.32.47-.47l.17-.15c.16-.15.33-.29.49-.42l.16-.14.51-.37.16-.1c.17-.12.34-.22.51-.32l.15-.08c.18-.09.35-.17.53-.24l.15-.06a3.74,3.74,0,0,1,.54-.17l.13,0a5.58,5.58,0,0,1,.57-.08h.11a4.15,4.15,0,0,1,.61,0h.08a3.11,3.11,0,0,1,.66.14h0c1.4.44,2.83,1.69,4.28,4.09,4.89,16.13-1.15,20.73-4.82,36.65l0,.11c-.12.54-.24,1.09-.36,1.66a.36.36,0,0,0,0,.11c-.37,1.78-.71,3.69-1,5.77-3.12,22.49,17.1,27.52,24.26,59.07S368.59,583.75,354.59,599.19Z" style="fill:#f9b92d"/></svg>