<svg xmlns="http://www.w3.org/2000/svg" width="353.59" height="364.37" viewBox="0 0 353.59 364.37"><path d="M177.29,28s0-.44-.11-1.2c0-.38-.05-.85-.08-1.38s0-1.13-.06-1.78,0-1.37,0-2.12.07-1.54.11-2.36.09-1.66.08-2.52,0-1.73-.08-2.6-.09-1.75-.12-2.6,0-1.71-.05-2.53c0-1.63,0-3.16.06-4.47s.11-2.4.16-3.16.1-1.2.1-1.2,0,0,0,0l0,0s0,.44.1,1.2.12,1.85.16,3.16.08,2.84.06,4.47c0,.82,0,1.67-.06,2.53s-.06,1.73-.11,2.6-.07,1.74-.08,2.6,0,1.71.08,2.52.1,1.61.11,2.36,0,1.46,0,2.12,0,1.25-.06,1.78-.05,1-.08,1.38c-.06.76-.11,1.2-.11,1.2s0,0,0,0S177.29,28,177.29,28Z" style="fill:#fceaaa"/><path d="M177.29,68.32s0-.5-.11-1.38c0-.43-.05-1-.08-1.57s0-1.3-.06-2.05,0-1.56,0-2.42.07-1.77.11-2.7.09-1.91.08-2.9,0-2-.08-3-.09-2-.12-3,0-2-.05-2.89c0-1.88,0-3.63.06-5.13s.11-2.75.16-3.62.1-1.38.1-1.38,0,0,0,0a0,0,0,0,1,0,0s0,.5.1,1.38.12,2.12.16,3.62.08,3.25.06,5.13c0,.93,0,1.9-.06,2.89s-.06,2-.11,3-.07,2-.08,3,0,2,.08,2.9.1,1.84.11,2.7,0,1.67,0,2.42,0,1.44-.06,2.05-.05,1.14-.08,1.57c-.06.88-.11,1.38-.11,1.38s0,0,0,0A0,0,0,0,1,177.29,68.32Z" style="fill:#fceaaa"/><path d="M177.29,316.84l-.11-10.38c0-6.61-.07-16-.12-27.38,0-5.66-.06-11.79,0-18.28s0-13.34.08-20.42.06-14.39.09-21.82-.06-15-.08-22.54-.08-15.1-.11-22.54,0-14.75-.06-21.82,0-13.93,0-20.42,0-12.62.06-18.28c.06-11.33.11-20.77.15-27.38s.1-10.38.1-10.38a0,0,0,0,1,0,0,0,0,0,0,1,0,0s0,3.77.1,10.38.09,16,.15,27.38c0,5.66,0,11.79.06,18.28s0,13.34,0,20.42,0,14.39-.06,21.82-.07,15-.11,22.54,0,15.1-.08,22.54.06,14.74.09,21.82,0,13.93.08,20.42,0,12.62,0,18.28c-.05,11.33-.09,20.77-.12,27.38l-.11,10.38s0,0,0,0A0,0,0,0,1,177.29,316.84Z" style="fill:#fceaaa"/><path d="M177.29,354.75s0-.41-.11-1.13c0-.36-.05-.79-.08-1.29s0-1.07-.06-1.68,0-1.28,0-2,.07-1.45.11-2.21.09-1.57.08-2.38,0-1.62-.08-2.44-.09-1.64-.12-2.45,0-1.6-.05-2.37c0-1.54,0-3,.06-4.2s.11-2.26.16-3,.1-1.13.1-1.13a0,0,0,0,1,0,0l0,0s0,.42.1,1.13.12,1.75.16,3,.08,2.66.06,4.2q0,1.15-.06,2.37c0,.81-.06,1.63-.11,2.45s-.07,1.64-.08,2.44,0,1.61.08,2.38.1,1.51.11,2.21,0,1.37,0,2,0,1.18-.06,1.68-.05.93-.08,1.29c-.06.72-.11,1.13-.11,1.13s0,0,0,0A0,0,0,0,1,177.29,354.75Z" style="fill:#fceaaa"/><path d="M162.52,14a29.29,29.29,0,0,1,.55,3.28c.05.5.11,1,.14,1.6s0,1.17,0,1.8,0,1.26.08,1.91.16,1.31.26,2,.2,1.31.28,2,.15,1.28.22,1.9c.14,1.24.21,2.4.25,3.39s0,1.83,0,2.41,0,.92,0,.92a0,0,0,0,1,0,0s0,0,0,0-.07-.32-.18-.9-.24-1.39-.37-2.38-.27-2.14-.35-3.38c0-.62-.07-1.26-.11-1.91s-.06-1.32-.06-2,0-1.33-.09-2-.14-1.29-.25-1.9-.21-1.21-.27-1.78-.1-1.1-.13-1.6a30.59,30.59,0,0,1,0-3.32s0,0,0,0Z" style="fill:#fceaaa"/><path d="M165.16,44.09s.38,4,1.07,11,1.56,17,2.66,29.07c.56,6,1.16,12.53,1.71,19.42s1.19,14.17,1.82,21.69,1.28,15.3,1.94,23.19,1.45,15.92,2.17,23.94c1.47,16,2.92,32.07,4.29,47.1.66,7.52,1.29,14.79,1.9,21.69s1.13,13.41,1.63,19.43c1,12,1.82,22.07,2.4,29.09s.86,11,.86,11a0,0,0,0,1,0,0s0,0,0,0-.38-4-1.06-11-1.58-17-2.7-29.06c-.54-6-1.13-12.53-1.76-19.42s-1.24-14.16-1.9-21.68c-1.26-15.05-2.61-31.09-4-47.14-.67-8-1.35-16-2-23.95s-1.43-15.66-2.11-23.17-1.36-14.79-2-21.68-1.18-13.41-1.68-19.43c-1-12-1.84-22.06-2.43-29.08s-.85-11-.85-11,0,0,0,0S165.15,44.07,165.16,44.09Z" style="fill:#fceaaa"/><path d="M191,340s-.09-.49-.22-1.33c-.07-.42-.13-.94-.22-1.53s-.16-1.26-.24-2-.15-1.52-.21-2.35-.08-1.73-.12-2.64-.08-1.87-.17-2.82-.2-1.93-.33-2.9-.26-1.94-.37-2.9-.2-1.89-.3-2.8c-.18-1.83-.31-3.53-.38-5s-.12-2.68-.15-3.54,0-1.34,0-1.34,0,0,0,0,0,0,0,0,.08.48.21,1.33.31,2.06.47,3.51.36,3.16.5,5c.06.92.12,1.86.19,2.82s.11,1.94.14,2.92.1,1.95.17,2.91.2,1.9.33,2.8.26,1.79.34,2.63.15,1.62.2,2.35.09,1.4.11,2,.05,1.11.05,1.54c0,.86,0,1.35,0,1.35a0,0,0,0,1,0,0Z" style="fill:#fceaaa"/><path d="M150.1,29.4s-.43-1.33-.85-3.38c-.1-.51-.21-1.06-.3-1.66s-.14-1.22-.22-1.87-.14-1.31-.27-2-.28-1.35-.44-2-.33-1.35-.47-2-.27-1.33-.4-2c-.25-1.28-.44-2.48-.56-3.52s-.23-1.9-.28-2.51-.07-1-.07-1a0,0,0,0,1,0,0l0,0s.1.34.26.93.38,1.43.6,2.45.47,2.21.68,3.5c.09.64.19,1.31.29,2s.18,1.37.25,2.06.16,1.38.28,2.06a20,20,0,0,0,.43,2c.15.64.32,1.25.44,1.83s.2,1.15.28,1.66a31.91,31.91,0,0,1,.35,3.47,0,0,0,0,1,0,0Z" style="fill:#fceaaa"/><path d="M156.88,67.86s-.13-.48-.34-1.32c-.11-.42-.21-.93-.35-1.52s-.27-1.25-.41-2-.29-1.51-.43-2.35-.22-1.73-.35-2.64-.24-1.87-.41-2.82-.37-1.92-.59-2.88-.43-1.93-.63-2.88-.37-1.89-.54-2.79c-.35-1.82-.62-3.52-.82-5s-.36-2.68-.47-3.54-.13-1.35-.13-1.35,0,0,0,0a.05.05,0,0,1,0,0l.33,1.32c.2.84.49,2,.78,3.49s.64,3.14.93,5c.15.92.29,1.86.45,2.82s.27,1.93.39,2.91.27,2,.44,2.91.35,1.89.57,2.79.41,1.77.57,2.61.29,1.62.41,2.35.21,1.4.28,2,.15,1.11.19,1.54c.1.86.13,1.35.13,1.35s0,0,0,0Z" style="fill:#fceaaa"/><path d="M200.69,316.3s-.69-3.68-1.89-10.12S196,290.53,194,279.48c-1-5.52-2.09-11.5-3.16-17.84l-3.43-19.94c-1.19-6.92-2.43-14.06-3.68-21.32s-2.63-14.62-3.95-22-2.68-14.73-4-22S173.18,162,172,155.12s-2.4-13.6-3.51-19.93-2.13-12.33-3.09-17.86c-1.89-11.07-3.46-20.29-4.56-26.75s-1.69-10.15-1.69-10.15,0,0,0,0,0,0,0,0,.69,3.68,1.89,10.12,2.84,15.64,4.86,26.69c1,5.52,2.07,11.51,3.2,17.84L172.64,155c1.2,6.92,2.44,14.06,3.71,21.32l3.76,22c1.28,7.37,2.55,14.75,3.81,22s2.59,14.38,3.83,21.29,2.46,13.58,3.6,19.91,2.19,12.32,3.14,17.85c1.9,11.07,3.48,20.29,4.59,26.74l1.68,10.16s0,0,0,0S200.7,316.32,200.69,316.3Z" style="fill:#fceaaa"/><path d="M202.19,324.43s.14.49.36,1.37c.11.44.22,1,.36,1.59s.28,1.31.43,2.07.31,1.59.44,2.46.25,1.81.38,2.77.25,1.95.44,2.95.38,2,.61,3,.45,2,.65,3,.38,2,.57,2.93c.36,1.9.65,3.68.86,5.22s.38,2.81.49,3.71.15,1.42.15,1.42a0,0,0,0,1,0,0,.05.05,0,0,1,0,0s-.13-.5-.35-1.38-.5-2.14-.8-3.66-.67-3.29-1-5.2c-.15-1-.3-1.94-.46-2.94s-.3-2-.43-3.06-.28-2-.45-3-.38-2-.6-2.93-.43-1.85-.59-2.72-.3-1.7-.43-2.47-.22-1.46-.3-2.09-.16-1.17-.2-1.62c-.1-.9-.14-1.41-.14-1.41s0,0,0,0A0,0,0,0,1,202.19,324.43Z" style="fill:#fceaaa"/><path d="M141.39,49.59a26.05,26.05,0,0,1-1.06-3c-.13-.45-.27-.93-.4-1.45s-.21-1.08-.32-1.66-.23-1.17-.39-1.76-.36-1.18-.56-1.77-.41-1.18-.59-1.77l-.52-1.73c-.33-1.12-.58-2.18-.77-3.1s-.34-1.68-.43-2.22-.12-.85-.12-.85,0,0,0,0l0,0,.32.8c.19.51.46,1.25.74,2.14s.61,1.93.88,3.07c.14.57.28,1.16.42,1.75s.26,1.21.37,1.83.24,1.23.4,1.82.34,1.17.54,1.72.4,1.08.55,1.59.27,1,.38,1.46a26.83,26.83,0,0,1,.56,3.08s0,0,0,0Z" style="fill:#fceaaa"/><path d="M143.12,55.8s1,3.6,2.76,9.89L153,91.8c1.47,5.4,3.07,11.25,4.69,17.46s3.35,12.75,5.14,19.51,3.63,13.77,5.5,20.87l5.85,21.5c2,7.2,3.93,14.41,5.87,21.49l5.64,20.84L190.92,233c1.64,6.2,3.18,12.07,4.62,17.48,2.83,10.83,5.2,19.86,6.85,26.18l2.56,9.94s0,0,0,0,0,0,0,0-1-3.6-2.76-9.89-4.19-15.3-7.15-26.1c-1.46-5.41-3-11.26-4.74-17.45L185,213.65c-1.8-6.77-3.65-13.76-5.54-20.86s-3.76-14.33-5.66-21.55S170,156.8,168.13,149.7s-3.82-14.07-5.66-20.83l-5.31-19.47c-1.7-6.18-3.24-12.05-4.66-17.46-2.85-10.83-5.23-19.86-6.89-26.18s-2.55-9.94-2.55-9.94,0,0,0,0S143.12,55.78,143.12,55.8Z" style="fill:#fceaaa"/><path d="M207.69,296.77s.21.58.54,1.59c.17.5.35,1.12.57,1.83s.45,1.51.7,2.38.52,1.82.78,2.84.48,2.09.74,3.2.51,2.25.83,3.41.65,2.31,1,3.47.72,2.33,1,3.47.65,2.28,1,3.38c.62,2.19,1.14,4.25,1.56,6s.75,3.26,1,4.3l.33,1.63s0,0,0,0,0,0,0,0-.2-.57-.53-1.58-.79-2.46-1.3-4.21-1.1-3.79-1.66-6c-.28-1.1-.57-2.24-.86-3.4s-.56-2.34-.83-3.53-.55-2.36-.86-3.52-.63-2.28-1-3.37-.68-2.14-1-3.14-.52-2-.74-2.84-.43-1.69-.59-2.42-.31-1.35-.42-1.87c-.22-1-.33-1.64-.33-1.64s0,0,0,0Z" style="fill:#fceaaa"/><path d="M114.58,11.09A29.77,29.77,0,0,1,115.93,14c.17.45.36.94.54,1.47s.32,1.1.49,1.68.34,1.19.56,1.79.48,1.19.74,1.78.53,1.19.77,1.78.47,1.17.69,1.74c.44,1.13.8,2.2,1.08,3.13s.5,1.71.65,2.26.21.87.21.87,0,0,0,0a0,0,0,0,1,0,0s-.16-.29-.4-.81-.59-1.24-1-2.14-.79-1.95-1.18-3.1c-.2-.58-.39-1.17-.59-1.78s-.38-1.22-.56-1.85-.36-1.24-.58-1.84-.46-1.18-.71-1.73-.51-1.09-.71-1.61-.37-1-.53-1.47a27.93,27.93,0,0,1-.86-3.13s0,0,0,0Z" style="fill:#fceaaa"/><path d="M206.8,264.66l-3.66-9.73-9.48-25.71c-2-5.32-4.1-11.08-6.28-17.2s-4.51-12.56-6.91-19.23-4.87-13.56-7.39-20.56l-7.79-21.17c-5.23-14.19-10.45-28.38-15.35-41.68l-7-19.2L136.76,73c-3.82-10.67-7-19.57-9.23-25.8s-3.46-9.8-3.46-9.8,0,0,0,0,0,0,0,0l3.65,9.73c2.3,6.2,5.58,15.06,9.51,25.7,2,5.32,4.08,11.08,6.32,17.18s4.57,12.54,7,19.2c4.79,13.34,9.91,27.56,15,41.79l7.64,21.22,7.55,20.51c2.46,6.65,4.82,13.08,7.07,19.17s4.34,11.87,6.25,17.21l9.26,25.79,3.45,9.8a0,0,0,0,1,0,.05S206.8,264.68,206.8,264.66Z" style="fill:#fceaaa"/><path d="M210.29,274.06s.22.46.58,1.25c.18.4.37.89.61,1.45s.49,1.2.76,1.9.55,1.45.83,2.26.53,1.68.81,2.57.57,1.81.91,2.73.71,1.84,1.1,2.76.76,1.84,1.12,2.76.7,1.81,1,2.68c.67,1.75,1.24,3.39,1.7,4.82s.83,2.61,1.08,3.44.37,1.33.37,1.33,0,0,0,0,0,0,0,0l-.57-1.25c-.34-.8-.84-1.95-1.38-3.34s-1.19-3-1.8-4.78c-.3-.88-.62-1.79-.93-2.72s-.62-1.88-.91-2.83-.61-1.9-.94-2.82-.69-1.82-1.06-2.68-.73-1.69-1-2.49-.57-1.56-.82-2.27-.46-1.35-.63-1.93-.35-1.09-.46-1.51c-.25-.84-.37-1.32-.37-1.32s0,0,0,0A0,0,0,0,1,210.29,274.06Z" style="fill:#fceaaa"/><path d="M226.51,318.6s.19.38.5,1.06l.53,1.23c.21.47.42,1,.65,1.61s.48,1.23.72,1.92.44,1.43.67,2.19.47,1.55.76,2.33.61,1.57.95,2.35.66,1.56,1,2.34.6,1.54.88,2.28c.57,1.49,1.06,2.89,1.44,4.1s.69,2.23.9,2.94.3,1.13.3,1.13a.05.05,0,0,1,0,.05l0,0s-.19-.38-.5-1.06-.73-1.65-1.2-2.83-1-2.56-1.54-4.07c-.25-.75-.52-1.53-.79-2.32s-.51-1.6-.75-2.41-.51-1.62-.79-2.41-.59-1.54-.91-2.27-.64-1.43-.9-2.11-.48-1.34-.69-1.94-.38-1.15-.53-1.65-.29-.92-.38-1.28c-.2-.72-.3-1.13-.3-1.13a.05.05,0,0,1,0-.05Z" style="fill:#fceaaa"/><path d="M105.34,29.13a14.86,14.86,0,0,1,1.21,2c.16.31.33.65.49,1s.27.77.42,1.18a10.18,10.18,0,0,0,.5,1.25,12,12,0,0,0,.66,1.22c.23.4.48.8.68,1.21l.62,1.19c.39.78.71,1.53,1,2.18s.43,1.2.56,1.59.17.62.17.62a0,0,0,0,1,0,.05l0,0s-.14-.19-.36-.53-.53-.85-.86-1.46a22.33,22.33,0,0,1-1-2.13l-.52-1.24c-.18-.42-.33-.86-.48-1.3s-.32-.88-.51-1.29a10.19,10.19,0,0,0-.64-1.18c-.22-.38-.46-.73-.64-1.09s-.32-.7-.46-1a15,15,0,0,1-.75-2.21s0,0,0,0S105.33,29.12,105.34,29.13Z" style="fill:#fceaaa"/><path d="M114.21,48.15l4.84,10.12c3,6.45,7.38,15.67,12.6,26.73,2.61,5.53,5.44,11.53,8.36,17.9l9.23,20,9.89,21.39c3.42,7.27,6.89,14.65,10.35,22,7,14.75,13.89,29.51,20.4,43.34l9.31,20,8.29,17.92c5.11,11.11,9.37,20.37,12.36,26.85l4.64,10.21s0,0,0,0a0,0,0,0,1-.05,0l-4.83-10.12L207,247.81l-8.4-17.87-9.32-20-20.09-43.49c-3.43-7.4-6.85-14.8-10.22-22.08s-6.78-14.41-10-21.33-6.41-13.6-9.39-19.94-5.78-12.35-8.34-17.9L118.79,58.39l-4.64-10.21s0,0,0,0S114.2,48.14,114.21,48.15Z" style="fill:#fceaaa"/><path d="M251.46,342.65s-.33-.6-.89-1.66c-.28-.52-.6-1.17-1-1.91s-.79-1.59-1.23-2.51-.94-1.92-1.42-3-.95-2.21-1.45-3.39-1-2.39-1.6-3.61-1.17-2.44-1.79-3.65-1.24-2.44-1.83-3.64l-1.71-3.56c-1.11-2.3-2.09-4.48-2.91-6.36s-1.48-3.44-1.94-4.55-.7-1.74-.7-1.74,0,0,0,0,0,0,0,0l.89,1.66c.55,1.06,1.34,2.57,2.23,4.41s1.95,4,3,6.32l1.62,3.59c.54,1.23,1.09,2.48,1.62,3.74s1.08,2.5,1.64,3.72,1.15,2.41,1.74,3.55,1.16,2.23,1.66,3.29,1,2.07,1.38,3,.81,1.79,1.13,2.56.62,1.43.84,2c.45,1.11.69,1.75.69,1.75s0,0,0,0S251.47,342.66,251.46,342.65Z" style="fill:#fceaaa"/><path d="M101.08,51.59s-.26-.35-.69-1c-.22-.31-.46-.7-.76-1.15s-.6-1-.94-1.51-.71-1.16-1.07-1.82-.7-1.37-1.07-2.1-.76-1.48-1.2-2.22S94.46,40.33,94,39.6s-.94-1.46-1.39-2.19-.88-1.46-1.31-2.15c-.84-1.41-1.58-2.74-2.18-3.9s-1.1-2.13-1.44-2.81-.51-1.09-.51-1.09a0,0,0,0,1,0-.05,0,0,0,0,1,0,0l.69,1c.42.64,1,1.54,1.71,2.66s1.49,2.4,2.28,3.83c.4.72.8,1.46,1.22,2.21s.81,1.53,1.2,2.31.8,1.54,1.23,2.29.87,1.46,1.32,2.14.89,1.34,1.28,2,.73,1.26,1,1.83.59,1.1.83,1.58.46.88.62,1.23c.33.69.5,1.09.5,1.09a0,0,0,0,1,0,0S101.09,51.61,101.08,51.59Z" style="fill:#fceaaa"/><path d="M108.4,64.12l5.49,9.31,14.36,24.62c3,5.09,6.19,10.61,9.53,16.48s6.89,12,10.55,18.45,7.45,13,11.29,19.72L171.42,173l23.24,39.92,10.62,18.4c3.36,5.86,6.53,11.41,9.47,16.52,5.84,10.25,10.71,18.78,14.11,24.76l5.32,9.41s0,0,0,.05a0,0,0,0,1,0,0s-2-3.38-5.49-9.31l-14.38-24.6-9.57-16.46c-3.38-5.85-7-12-10.63-18.4-7.33-12.79-15.14-26.44-23-40.08l-11.67-20.36L148,133.17l-10.7-18.36c-3.42-5.83-6.58-11.38-9.51-16.5L113.65,73.57l-5.31-9.41s0,0,0,0A0,0,0,0,1,108.4,64.12Z" style="fill:#fceaaa"/><path d="M236.74,286.42a22,22,0,0,1,1.63,2.31c.22.37.46.76.69,1.18s.43.9.66,1.38.47,1,.75,1.45.59.95.91,1.41.64.94.94,1.4.58.94.86,1.39c.55.9,1,1.77,1.4,2.53s.67,1.4.88,1.85l.3.72s0,0,0,0,0,0,0,0-.18-.22-.48-.62-.7-1-1.16-1.69-1-1.54-1.49-2.47l-.77-1.44c-.26-.49-.51-1-.74-1.51s-.49-1-.77-1.5a14.65,14.65,0,0,0-.89-1.37c-.29-.43-.6-.85-.86-1.26s-.47-.81-.67-1.19a21.82,21.82,0,0,1-1.19-2.56,0,0,0,0,1,0,0Z" style="fill:#fceaaa"/><path d="M248.5,306.78a19.27,19.27,0,0,1,1.53,2.16c.21.34.44.7.65,1.1s.4.84.61,1.29a12.54,12.54,0,0,0,.7,1.36c.25.45.55.88.85,1.32s.62.86.89,1.3.54.88.81,1.3c.51.84,1,1.65,1.3,2.36s.63,1.31.81,1.74l.28.68a.08.08,0,0,1,0,0s0,0,0,0-.17-.2-.45-.58-.67-.9-1.1-1.57-.93-1.44-1.4-2.31l-.71-1.34c-.25-.46-.47-.94-.69-1.42s-.45-1-.71-1.41a14.82,14.82,0,0,0-.83-1.28c-.29-.4-.58-.79-.82-1.17s-.44-.77-.63-1.11a19.18,19.18,0,0,1-1.09-2.41,0,0,0,0,1,0-.05Z" style="fill:#fceaaa"/><path d="M87.48,55.2a21.45,21.45,0,0,1,1.8,2.14c.25.34.52.7.79,1.1s.5.85.77,1.3a13.51,13.51,0,0,0,.86,1.37c.31.45.66.88,1,1.31s.71.86,1,1.3l1,1.29c.62.84,1.16,1.65,1.59,2.37s.79,1.32,1,1.75l.36.68a0,0,0,0,1,0,0s0,0,0,0-.2-.2-.52-.57-.78-.89-1.29-1.56a28.54,28.54,0,0,1-1.69-2.31l-.88-1.35c-.29-.46-.58-.94-.86-1.42s-.57-1-.89-1.41a12.78,12.78,0,0,0-1-1.28c-.33-.4-.67-.78-1-1.17S89,58,88.81,57.67a22.09,22.09,0,0,1-1.39-2.43s0,0,0,0A0,0,0,0,1,87.48,55.2Z" style="fill:#fceaaa"/><path d="M101.46,75.17l6.22,8.7,16.29,23c3.37,4.77,7,9.93,10.82,15.44s7.84,11.29,12,17.28,8.47,12.19,12.84,18.48l13.39,19c9,12.72,17.95,25.44,26.37,37.36l12.06,17.24,10.76,15.48,16.07,23.2,6.05,8.83a0,0,0,0,1,0,0h0l-6.23-8.72c-3.93-5.55-9.56-13.49-16.3-23l-10.87-15.41c-3.84-5.48-7.88-11.26-12.07-17.23-8.33-12-17.21-24.78-26.1-37.56l-13.26-19.08-13-18.38-12.14-17.19c-3.88-5.45-7.48-10.65-10.8-15.45L107.45,84l-6-8.83s0,0,0,0S101.44,75.15,101.46,75.17Z" style="fill:#fceaaa"/><path d="M266.82,311.45s-.31-.36-.84-1c-.27-.32-.57-.73-.93-1.18s-.74-1-1.17-1.56-.87-1.2-1.33-1.88-.9-1.42-1.38-2.18-1-1.53-1.51-2.3-1.11-1.52-1.7-2.27-1.16-1.51-1.72-2.27l-1.62-2.22c-1.05-1.45-2-2.83-2.76-4s-1.4-2.21-1.84-2.92l-.67-1.13s0,0,0,0h0l.83,1c.52.65,1.26,1.58,2.11,2.73s1.84,2.49,2.85,4c.49.75,1,1.51,1.53,2.29s1,1.58,1.54,2.39,1,1.6,1.56,2.37,1.09,1.51,1.64,2.21,1.09,1.38,1.57,2,.91,1.31,1.32,1.9.75,1.14,1.06,1.63.58.92.79,1.28c.43.71.67,1.13.67,1.13a0,0,0,0,1,0,0S266.83,311.46,266.82,311.45Z" style="fill:#fceaaa"/><path d="M277.78,327.11a9,9,0,0,1-1.23-1.32,8.48,8.48,0,0,1-.5-.7c-.17-.26-.3-.56-.46-.85a6.09,6.09,0,0,0-.52-.89,7.58,7.58,0,0,0-.68-.82c-.24-.27-.49-.53-.71-.81s-.42-.55-.63-.81a14.28,14.28,0,0,1-1-1.53c-.26-.46-.46-.87-.6-1.15l-.2-.46a.08.08,0,0,1,0,0h0s.14.12.36.34.54.55.88,1a16.55,16.55,0,0,1,1.09,1.47c.18.28.36.58.55.87s.35.62.51.94a7.71,7.71,0,0,0,.55.92,6.3,6.3,0,0,0,.65.8c.23.25.46.48.65.72s.34.49.49.71a9.56,9.56,0,0,1,.81,1.61s0,0,0,0Z" style="fill:#fceaaa"/><path d="M71.36,57.34A10.72,10.72,0,0,1,69.92,56c-.19-.22-.4-.45-.6-.71s-.38-.57-.58-.87a7.08,7.08,0,0,0-.65-.9,10.45,10.45,0,0,0-.8-.83c-.29-.27-.57-.53-.83-.8l-.75-.82a15.88,15.88,0,0,1-1.23-1.54c-.34-.48-.59-.89-.77-1.18s-.26-.47-.26-.47a0,0,0,0,1,0-.05h0a4.93,4.93,0,0,1,.42.34c.25.22.62.54,1,1a15.35,15.35,0,0,1,1.31,1.47l.67.89c.23.3.44.63.65,1a10.56,10.56,0,0,0,.68.93,7.31,7.31,0,0,0,.77.8c.26.25.53.48.76.72s.41.5.59.72a10.27,10.27,0,0,1,1,1.64,0,0,0,0,1,0,.05Z" style="fill:#fceaaa"/><path d="M101.45,93.21s-.35-.34-1-1c-.3-.3-.65-.7-1.06-1.14s-.86-.94-1.35-1.5-1-1.16-1.54-1.82-1.06-1.38-1.63-2.12-1.14-1.49-1.77-2.23-1.28-1.48-2-2.2-1.34-1.46-2-2.18L87.35,76.9c-1.21-1.4-2.3-2.74-3.21-3.91S82.48,70.84,82,70.15l-.8-1.1a0,0,0,0,1,0,0,0,0,0,0,1,0,0l1,1c.59.63,1.44,1.53,2.42,2.64s2.12,2.4,3.29,3.83l1.79,2.22c.6.76,1.21,1.54,1.8,2.33s1.21,1.56,1.83,2.3,1.26,1.46,1.89,2.14,1.25,1.32,1.81,2,1.06,1.27,1.52,1.84.89,1.11,1.25,1.59.69.89.94,1.24c.51.7.79,1.11.79,1.11a0,0,0,0,1,0,0S101.47,93.22,101.45,93.21Z" style="fill:#fceaaa"/><path d="M251.74,272.32l-6.33-7.38-7.23-8.49-9.35-11-11-13.11c-3.91-4.65-8-9.6-12.2-14.71s-8.61-10.37-13.08-15.7l-13.62-16.11-13.65-16.09-13.18-15.62c-4.25-5.08-8.37-10-12.28-14.64l-10.95-13.16L112.5,106.53,106.33,99a0,0,0,0,1,0,0s0,0,0,0l6.33,7.38,16.58,19.53L140.35,139l12.28,14.64c4.25,5.08,8.64,10.34,13.1,15.69l13.47,16.23,13.51,16.21c4.47,5.33,8.89,10.57,13.19,15.61s8.46,9.91,12.36,14.57,7.6,9.06,11,13.12l9.26,11.12,7.11,8.6,6.16,7.52s0,0,0,0S251.75,272.33,251.74,272.32Z" style="fill:#fceaaa"/><path d="M272.37,296.9l-.78-.75c-.25-.25-.52-.56-.85-.9s-.69-.75-1.09-1.19-.8-.92-1.22-1.44-.84-1.11-1.28-1.7-.89-1.2-1.39-1.79-1-1.17-1.57-1.74-1.07-1.14-1.59-1.71L261.1,284c-1-1.1-1.82-2.17-2.53-3.11s-1.3-1.72-1.71-2.28l-.61-.89a0,0,0,0,1,0-.05s0,0,0,0,.29.27.77.76,1.17,1.19,1.95,2.07,1.7,1.9,2.63,3l1.41,1.77c.48.61.95,1.23,1.42,1.86s.95,1.25,1.44,1.85,1,1.15,1.51,1.68,1,1,1.45,1.55.85,1,1.22,1.46.7.89,1,1.27.54.72.73,1c.4.56.61.9.61.9a0,0,0,0,1,0,0A0,0,0,0,1,272.37,296.9Z" style="fill:#fceaaa"/><path d="M74.39,80.7a12.73,12.73,0,0,1-1.64-1.29,9.27,9.27,0,0,1-.71-.7c-.25-.26-.47-.57-.71-.87a8.34,8.34,0,0,0-.79-.9c-.29-.29-.61-.55-.93-.82s-.66-.51-1-.79l-.88-.81A16.82,16.82,0,0,1,66.31,73c-.41-.47-.72-.89-.94-1.18s-.33-.47-.33-.47,0,0,0,0a0,0,0,0,1,0,0s.18.11.48.33.7.54,1.18.94A20.28,20.28,0,0,1,68.27,74l.81.88c.27.3.53.63.79,1a10.38,10.38,0,0,0,.81.93,7.46,7.46,0,0,0,.91.79c.3.25.61.47.87.71s.49.49.7.72a11.34,11.34,0,0,1,1.28,1.64,0,0,0,0,1,0,0Z" style="fill:#fceaaa"/><path d="M85.06,91.26l8.26,8.11L115,120.87c4.49,4.44,9.35,9.26,14.43,14.41l16,16.15,17.15,17.27,17.83,17.71,35.09,34.85,16.09,16.1L246,251.82l21.48,21.69,8.11,8.26a0,0,0,0,1,0,0s0,0-.05,0l-8.25-8.11-21.69-21.47-14.46-14.38L215,221.76l-34.86-35.09-17.71-17.82L145.17,151.7c-5.6-5.56-11-10.94-16.15-16s-10-9.95-14.41-14.43L93.12,99.57,85,91.31s0,0,0,0A0,0,0,0,1,85.06,91.26Z" style="fill:#fceaaa"/><path d="M282.89,289.09s1.17.89,2.76,2.4c.39.39.82.79,1.26,1.25s.86,1,1.31,1.48.93,1,1.44,1.55,1,1,1.6,1.48,1.09,1,1.62,1.46l1.53,1.45c1,.95,1.87,1.88,2.61,2.69s1.34,1.5,1.75,2,.64.78.64.78a0,0,0,0,1,0,.05h-.05l-.78-.64c-.48-.42-1.18-1-2-1.76s-1.74-1.62-2.69-2.61l-1.46-1.53c-.49-.52-1-1.06-1.46-1.62s-1-1.09-1.48-1.6-1-1-1.55-1.43-1-.88-1.48-1.32-.86-.86-1.24-1.26a34.75,34.75,0,0,1-2.4-2.76s0,0,0-.05Z" style="fill:#fceaaa"/><path d="M36.74,65.57a22.54,22.54,0,0,1,2.39,1.67c.33.27.71.56,1.08.89s.73.72,1.12,1.1.8.77,1.24,1.14.9.71,1.37,1,1,.67,1.4,1l1.32,1c.85.68,1.61,1.35,2.24,2s1.15,1.11,1.51,1.48.54.59.54.59,0,0,0,0a0,0,0,0,1,0,0s-.25-.15-.68-.44-1-.69-1.71-1.22S47,74.74,46.21,74L45,72.9c-.42-.38-.84-.79-1.26-1.2s-.83-.81-1.27-1.17a15.67,15.67,0,0,0-1.33-1c-.45-.32-.89-.61-1.28-.92s-.74-.62-1.07-.91a23.46,23.46,0,0,1-2-2.06s0,0,0-.05Z" style="fill:#fceaaa"/><path d="M63.31,87.86l9.08,7.49L96.24,115.2c4.94,4.11,10.29,8.55,15.89,13.32l17.67,14.93,18.91,16,19.62,16.37L207,208l17.72,14.87,15.84,13.38L264.2,256.3l8.95,7.64s0,0,0,.05,0,0,0,0L264,256.51l-23.87-19.83L224.24,223.4l-17.73-14.87-38.42-32.46-19.52-16.48-19-15.84-17.78-14.81c-5.67-4.7-11-9.19-15.88-13.34l-23.69-20-8.95-7.65a0,0,0,0,1,0,0S63.29,87.85,63.31,87.86Z" style="fill:#fceaaa"/><path d="M293.61,281.19a23.18,23.18,0,0,1-2.4-1.67c-.34-.27-.71-.56-1.08-.9s-.74-.71-1.13-1.09a15.19,15.19,0,0,0-1.24-1.15c-.43-.37-.91-.71-1.38-1.05s-.95-.68-1.4-1l-1.32-1c-.85-.67-1.62-1.35-2.25-1.95s-1.15-1.12-1.51-1.48l-.55-.59s0,0,0-.05h0l.68.43c.42.29,1,.7,1.71,1.23s1.5,1.15,2.32,1.87l1.26,1.12c.42.39.84.79,1.25,1.21s.84.81,1.28,1.18a14.24,14.24,0,0,0,1.34,1c.44.32.88.62,1.27.93s.75.62,1.08.91a22.87,22.87,0,0,1,2.06,2.06,0,0,0,0,1,0,.05Z" style="fill:#fceaaa"/><path d="M39.79,87.23A7.91,7.91,0,0,1,41.3,88a7.76,7.76,0,0,1,.66.45c.23.18.44.4.68.62a4.9,4.9,0,0,0,.74.61,8.11,8.11,0,0,0,.86.51c.3.15.6.3.88.47l.82.51a13.19,13.19,0,0,1,1.37,1c.38.33.69.62.9.83l.31.35s0,0,0,.05h0l-.43-.18c-.27-.13-.65-.31-1.09-.56a12.82,12.82,0,0,1-1.42-.94l-.76-.59c-.26-.21-.51-.44-.75-.67a9.33,9.33,0,0,0-.77-.64,5.39,5.39,0,0,0-.83-.48,8.68,8.68,0,0,1-.81-.43c-.24-.15-.46-.32-.66-.47a8.18,8.18,0,0,1-1.21-1.16,0,0,0,0,1,0-.05Z" style="fill:#fceaaa"/><path d="M55.06,97.93s.39.21,1,.59c.33.19.72.45,1.17.72l1.49,1c.53.37,1.12.76,1.72,1.2s1.21.94,1.85,1.44,1.31,1,2,1.5,1.42,1,2.16,1.41,1.47.92,2.18,1.39l2.09,1.39c1.34.91,2.57,1.81,3.6,2.6s1.89,1.45,2.48,1.93.91.77.91.77a0,0,0,0,1,0,0,0,0,0,0,1,0,0l-1-.6c-.65-.39-1.58-1-2.66-1.67s-2.35-1.54-3.67-2.5l-2-1.48c-.68-.51-1.37-1-2-1.57s-1.38-1.06-2.07-1.55-1.4-1-2.1-1.37-1.36-.84-2-1.25-1.19-.83-1.71-1.21-1-.74-1.42-1.07l-1.07-.85C55.35,98.28,55,98,55,98a0,0,0,0,1,0,0A0,0,0,0,1,55.06,97.93Z" style="fill:#fceaaa"/><path d="M89.32,121.92,98,127.86l22.79,15.81c4.71,3.27,9.82,6.81,15.18,10.61l16.89,11.94L170.93,179l18.75,13,36.91,25.64,16.93,11.87,15.15,10.68,22.63,16,8.55,6.11s0,0,0,.05,0,0,0,0l-8.68-5.95-22.8-15.79-15.22-10.57-16.94-11.86L189.46,192.3,170.8,179.15l-18.16-12.62-17-11.79c-5.41-3.74-10.48-7.33-15.17-10.64l-22.64-16L89.28,122a0,0,0,0,1,0,0A0,0,0,0,1,89.32,121.92Z" style="fill:#fceaaa"/><path d="M296.33,266.87s.37.19,1,.56c.31.17.68.41,1.11.67s.9.58,1.41.91,1.07.72,1.64,1.14,1.14.89,1.75,1.36,1.23,1,1.9,1.43,1.35.91,2.05,1.34,1.4.87,2.08,1.31l2,1.32c1.28.86,2.44,1.71,3.42,2.46s1.78,1.39,2.34,1.84l.87.73s0,0,0,.05,0,0,0,0l-1-.57c-.62-.37-1.5-.9-2.53-1.57s-2.24-1.47-3.48-2.37l-1.92-1.41c-.65-.48-1.3-1-1.94-1.49s-1.3-1-2-1.48-1.33-.9-2-1.29-1.3-.79-1.89-1.18-1.12-.79-1.62-1.15-.95-.71-1.34-1-.74-.58-1-.81c-.56-.46-.87-.74-.87-.74a0,0,0,0,1,0-.05Z" style="fill:#fceaaa"/><path d="M33.47,101.4s-1.36-.55-3.28-1.58c-.48-.27-1-.55-1.53-.87s-1.08-.71-1.65-1.08-1.16-.76-1.78-1.12-1.27-.68-1.92-1-1.3-.64-1.94-1l-1.84-1c-1.2-.65-2.29-1.31-3.21-1.9s-1.67-1.09-2.2-1.45l-.82-.59a0,0,0,0,1,0,0s0,0,0,0,.34.14.92.41,1.4.66,2.36,1.17,2.09,1.11,3.26,1.81l1.79,1.09c.61.38,1.22.77,1.83,1.18s1.21.8,1.84,1.15,1.24.69,1.86,1,1.21.58,1.76.88,1.05.6,1.52.88c1.86,1.14,3,2,3,2a0,0,0,0,1,0,.05Z" style="fill:#fceaaa"/><path d="M45,107.94l11.16,6.29L85.51,131c6.07,3.46,12.65,7.2,19.57,11.23l21.81,12.62,23.32,13.5,24.15,13.78,47.56,27.14,21.84,12.55,19.55,11.3,29.22,17,11.06,6.47a0,0,0,1,1,0,.06l-11.16-6.3L263,233.58l-19.6-11.2-21.85-12.54-47.39-27.42L150.1,168.49l-23.4-13.34-21.89-12.48c-7-3.95-13.52-7.75-19.57-11.26L56,114.48,45,108s0,0,0,0A0,0,0,0,1,45,107.94Z" style="fill:#fceaaa"/><path d="M311.47,261a30.84,30.84,0,0,1,3,1.43c.44.24.91.5,1.4.79s1,.65,1.5,1,1.05.7,1.62,1,1.16.62,1.76.92,1.19.58,1.77.88l1.69.91c1.09.6,2.09,1.2,2.92,1.75s1.53,1,2,1.33l.74.55a0,0,0,0,1,0,.05h0l-.84-.37c-.53-.25-1.28-.59-2.16-1.06s-1.92-1-3-1.64l-1.64-1c-.55-.34-1.11-.71-1.66-1.08s-1.11-.74-1.67-1.06-1.14-.62-1.71-.89-1.11-.52-1.61-.79-1-.55-1.39-.81a30.71,30.71,0,0,1-2.75-1.87,0,0,0,0,1,0-.05S311.45,261,311.47,261Z" style="fill:#fceaaa"/><path d="M22.73,111.45s.4.13,1.07.38c.34.12.75.3,1.21.48s1,.41,1.56.65,1.18.52,1.81.84,1.29.68,2,1,1.39.74,2.12,1.08,1.5.66,2.26,1,1.53.62,2.28.94l2.18,1c1.41.62,2.7,1.26,3.8,1.83s2,1.06,2.64,1.41,1,.57,1,.57,0,0,0,0a0,0,0,0,1,0,0s-.39-.13-1.07-.39-1.64-.62-2.77-1.11-2.46-1.06-3.85-1.73l-2.13-1.06c-.73-.36-1.46-.75-2.18-1.14s-1.46-.76-2.2-1.11-1.46-.66-2.19-.94-1.42-.55-2.06-.83-1.25-.58-1.8-.85-1.06-.53-1.5-.78-.84-.43-1.15-.62c-.63-.35-1-.58-1-.58s0,0,0,0A0,0,0,0,1,22.73,111.45Z" style="fill:#fceaaa"/><path d="M57.43,127.63l9.9,4.5,26,12c5.39,2.48,11.23,5.17,17.37,8.09l19.35,9.11,20.68,9.74L172.2,181l42.19,19.48,19.38,9.05,17.34,8.15L277,229.93l9.82,4.68s0,0,0,0,0,0,0,0l-9.9-4.5-26.05-12-17.39-8-19.39-9-42-19.79-21.37-10-20.76-9.58-19.41-9c-6.18-2.83-12-5.58-17.36-8.11L67.21,132.39l-9.81-4.7s0,0,0,0S57.41,127.63,57.43,127.63Z" style="fill:#fceaaa"/><path d="M322.21,251.18s-.4-.13-1.08-.39c-.35-.12-.75-.29-1.22-.48s-1-.41-1.57-.65-1.18-.53-1.82-.84-1.29-.69-2-1-1.39-.75-2.13-1.09-1.51-.66-2.28-1-1.54-.62-2.29-.94l-2.19-1c-1.42-.63-2.72-1.27-3.82-1.85s-2-1.06-2.66-1.41l-1-.57s0,0,0,0a0,0,0,0,1,0,0l1.08.39c.68.26,1.65.63,2.79,1.12s2.47,1.07,3.87,1.75l2.15,1.06c.73.37,1.46.75,2.19,1.15s1.47.76,2.2,1.11,1.48.66,2.21.94,1.42.56,2.07.85,1.26.58,1.82.85l1.51.78,1.15.62c.63.36,1,.58,1,.58a0,0,0,0,1,0,0Z" style="fill:#fceaaa"/><path d="M61.31,141.39s-.37-.08-1-.25c-.32-.08-.69-.2-1.13-.33s-.93-.29-1.47-.46-1.1-.38-1.7-.61-1.22-.52-1.86-.8-1.31-.57-2-.82-1.41-.47-2.13-.68-1.43-.43-2.13-.66l-2-.69c-1.33-.46-2.55-.93-3.59-1.36s-1.9-.81-2.49-1.08l-.94-.45a0,0,0,0,1,0,0l0,0,1,.26c.63.18,1.54.43,2.6.78s2.32.75,3.63,1.26l2,.79c.69.27,1.38.56,2.06.87s1.38.58,2.07.84,1.38.47,2.06.66,1.33.38,1.94.59,1.18.42,1.7.62,1,.4,1.42.59.79.34,1.08.48c.6.28.93.45.93.45s0,0,0,.05A0,0,0,0,1,61.31,141.39Z" style="fill:#fceaaa"/><path d="M310.31,232l-10.4-3.67-27.35-9.83c-5.66-2-11.79-4.23-18.25-6.63L234,204.4l-21.75-8-22.51-8.11-44.32-16L125,164.91l-18.22-6.7L79.53,148.13l-10.32-3.87s0,0,0,0,0,0,0,0l10.4,3.68,27.36,9.8,18.27,6.58,20.37,7.41,44.21,16.26,22.45,8.26L234.1,204l20.4,7.33c6.49,2.32,12.6,4.57,18.24,6.66L300,228.08,310.33,232a0,0,0,0,1,0,.05S310.33,232,310.31,232Z" style="fill:#fceaaa"/><path d="M319.05,235.13l1.21.32,1.38.42c.53.15,1.12.35,1.77.57s1.34.46,2.06.74,1.49.62,2.27.95,1.6.67,2.44,1,1.7.59,2.57.85,1.74.54,2.59.82l2.48.85c1.61.56,3.09,1.13,4.35,1.64s2.31,1,3,1.28l1.14.52s0,0,0,.05l0,0-1.21-.33c-.76-.23-1.86-.55-3.15-1s-2.8-.93-4.39-1.54l-2.45-.94c-.83-.33-1.67-.68-2.5-1s-1.69-.69-2.52-1-1.68-.58-2.5-.82-1.6-.48-2.34-.74-1.43-.51-2.06-.76-1.22-.47-1.73-.69-1-.4-1.32-.57l-1.13-.53a0,0,0,0,1,0,0S319,235.12,319.05,235.13Z" style="fill:#fceaaa"/><path d="M0,136l1.12.19c.35.06.78.16,1.27.26s1,.23,1.64.37,1.25.31,1.93.5,1.38.45,2.12.69,1.49.49,2.27.69,1.58.39,2.39.56,1.61.34,2.4.52l2.31.57c1.49.37,2.88.77,4.05,1.14s2.16.69,2.84.93,1.06.39,1.06.39,0,0,0,0,0,0,0,0l-1.12-.19c-.71-.14-1.72-.33-2.92-.62s-2.6-.61-4.09-1L15,140.4c-.77-.23-1.56-.48-2.34-.74s-1.56-.5-2.34-.72-1.56-.39-2.32-.54-1.49-.29-2.18-.46-1.32-.36-1.92-.52-1.13-.34-1.6-.5-.9-.29-1.24-.42L0,136.11s0,0,0-.05A.05.05,0,0,1,0,136Z" style="fill:#fceaaa"/><path d="M280,211.12l-10.68-2.75L241.19,201c-5.82-1.53-12.12-3.18-18.77-5l-20.92-5.69-22.37-6.09L156,178.06l-45.55-12L89.5,160.41l-18.75-5.09-28-7.67-10.63-3s0,0,0,0,0,0,0,0l10.68,2.76,28.12,7.38,18.78,5,20.94,5.61,45.47,12.36,23.1,6.27,22.41,5.92,21,5.53c6.66,1.74,13,3.45,18.75,5l28.05,7.65,10.63,3s0,0,0,0S280,211.13,280,211.12Z" style="fill:#fceaaa"/><path d="M316,220.76l-1.32-.24-1.5-.32c-.59-.12-1.24-.28-1.95-.45s-1.47-.37-2.27-.6-1.65-.52-2.52-.79-1.77-.57-2.69-.81-1.88-.47-2.83-.67-1.9-.42-2.84-.64l-2.73-.68c-1.77-.45-3.4-.91-4.8-1.35s-2.56-.8-3.37-1.06l-1.26-.45s0,0,0,0,0,0,0,0l1.32.24c.84.18,2,.42,3.45.76s3.08.74,4.84,1.24l2.7.78c.92.27,1.85.56,2.78.86s1.86.57,2.78.83,1.84.47,2.74.65,1.76.37,2.57.57,1.57.42,2.27.62,1.35.39,1.91.58,1.06.33,1.46.47c.81.28,1.27.46,1.27.46s0,0,0,0S316,220.76,316,220.76Z" style="fill:#fceaaa"/><path d="M23.18,156.37a29.83,29.83,0,0,1,3.39.33c.51.08,1.05.16,1.63.28s1.16.28,1.78.43a19.38,19.38,0,0,0,1.93.42c.65.12,1.33.2,2,.27s1.35.15,2,.24l2,.29c1.26.2,2.43.43,3.42.66s1.82.44,2.4.59l.9.26a0,0,0,0,1,0,.05l0,0-.94-.06c-.59-.06-1.44-.13-2.45-.27s-2.19-.3-3.44-.55l-1.93-.39c-.65-.15-1.32-.3-2-.47s-1.32-.32-2-.43-1.31-.21-1.95-.27-1.25-.11-1.83-.2-1.12-.2-1.62-.3a29.23,29.23,0,0,1-3.3-.84s0,0,0,0S23.17,156.36,23.18,156.37Z" style="fill:#fceaaa"/><path d="M53.42,161.7l11.14,1.85,29.34,5c6.07,1,12.64,2.17,19.59,3.44L135.33,176l23.36,4.2,24.15,4.18,47.55,8.22,21.86,3.86L271.82,200l29.29,5.32,11.1,2.06s0,0,0,0,0,0,0,0l-11.14-1.87-29.34-5-19.6-3.39-21.86-3.85-47.48-8.54-24.12-4.33-23.39-4-21.88-3.77c-7-1.18-13.52-2.37-19.58-3.47l-29.3-5.29-11.1-2.07s0,0,0,0S53.4,161.69,53.42,161.7Z" style="fill:#fceaaa"/><path d="M323.79,209.37l1.06.08c.34,0,.75.08,1.22.13s1,.13,1.58.21,1.19.19,1.85.32,1.33.31,2,.47,1.44.34,2.19.47,1.52.24,2.29.32,1.54.18,2.3.29l2.21.34c1.44.22,2.77.49,3.9.74s2.08.48,2.74.65,1,.29,1,.29,0,0,0,0l0,0-1.07-.08c-.67-.07-1.64-.17-2.79-.33s-2.49-.36-3.92-.64l-2.2-.44c-.74-.15-1.5-.33-2.25-.51s-1.52-.34-2.27-.48-1.49-.24-2.22-.31-1.42-.15-2.08-.25-1.27-.23-1.84-.34-1.1-.22-1.55-.34-.87-.2-1.2-.29l-1-.29a.08.08,0,0,1,0-.05Z" style="fill:#fceaaa"/><path d="M28.69,170.61H27.46c-.39,0-.86,0-1.41,0l-1.82-.09c-.67,0-1.39-.1-2.15-.18s-1.57-.21-2.39-.33-1.69-.23-2.57-.3-1.76-.12-2.65-.15-1.79-.07-2.67-.12l-2.57-.17c-1.67-.12-3.22-.28-4.55-.46s-2.43-.32-3.2-.44-1.22-.21-1.22-.21,0,0,0,0,0,0,0,0H1.5c.78,0,1.9,0,3.23.12s2.9.17,4.56.34l2.57.28c.87.1,1.75.22,2.64.35s1.77.23,2.64.31,1.74.13,2.58.15,1.64,0,2.41.09,1.48.13,2.15.2,1.27.14,1.81.22,1,.14,1.4.21c.77.12,1.21.21,1.21.21s0,0,0,0S28.71,170.61,28.69,170.61Z" style="fill:#fceaaa"/><path d="M314.31,195.6l-11.84-.93-31.21-2.61c-6.46-.54-13.45-1.12-20.84-1.81l-23.26-2.12-24.87-2.26L176.6,183.7,126,179.45l-23.27-2-20.84-1.88-31.18-2.88L38.92,171.5s0,0,0,0,0,0,0,0l11.84.93L82,175l20.85,1.76,23.27,2,50.54,4.59,25.68,2.33,24.88,2.09,23.28,1.95c7.4.6,14.38,1.25,20.84,1.84l31.18,2.85,11.83,1.14s0,0,0,0S314.33,195.6,314.31,195.6Z" style="fill:#fceaaa"/><path d="M335.47,197.45a8.73,8.73,0,0,1-1.79.1c-.27,0-.56,0-.86-.07a8.81,8.81,0,0,1-.94-.2,5.71,5.71,0,0,0-1-.16,7.49,7.49,0,0,0-1.06,0c-.36,0-.72,0-1.07,0l-1,0a14.58,14.58,0,0,1-1.81-.21c-.53-.09-1-.2-1.27-.28l-.47-.14a.05.05,0,0,1,0-.05l0,0,.5-.06c.31,0,.76-.05,1.29-.05a13.4,13.4,0,0,1,1.82.11l1,.14c.34.05.69.13,1,.2a7.69,7.69,0,0,0,1.05.18,7.1,7.1,0,0,0,1,0c.33,0,.66,0,1,0s.6.05.86.08a9.05,9.05,0,0,1,1.74.41.05.05,0,0,1,0,.05Z" style="fill:#fceaaa"/><path d="M52.37,183.61a25.38,25.38,0,0,1-3,.26c-.45,0-.94,0-1.46,0s-1.07-.08-1.64-.12-1.15-.08-1.74-.08-1.2,0-1.81.09-1.21.08-1.8.11l-1.75.05c-1.13,0-2.19,0-3.1-.05s-1.66-.12-2.19-.16-.83-.11-.83-.11,0,0,0,0l0,0s.3-.05.83-.11,1.29-.12,2.19-.16,2-.08,3.1-.05l1.75.05c.59,0,1.2.06,1.8.11s1.21.09,1.81.09,1.18,0,1.74-.08,1.12-.11,1.64-.12,1,0,1.46,0a23,23,0,0,1,3,.26s0,0,0,0A0,0,0,0,1,52.37,183.61Z" style="fill:#fceaaa"/><path d="M328.41,183.61l-11.48.11-30.25.12c-6.26,0-13,.06-20.21,0l-22.56-.08-24.13-.08-24.9.08-49,.16H123.29l-20.22-.07-30.25-.15-11.47-.1s0,0,0,0,0,0,0,0l11.47-.11,30.25-.15,20.22-.06h22.56l49,.16,24.9.08,24.13-.08,22.56-.09c7.17,0,13.95,0,20.21,0l30.25.13,11.48.11a0,0,0,1,1,0,.06Z" style="fill:#fceaaa"/><path d="M353.56,183.61a21.35,21.35,0,0,1-2.76.26c-.41,0-.86,0-1.34,0s-1-.08-1.49-.12-1.05-.08-1.6-.08-1.09,0-1.65.09-1.1.08-1.64.11l-1.6.05c-1,0-2,0-2.83-.05s-1.52-.12-2-.16l-.76-.11a0,0,0,0,1,0,0l0,0,.76-.11c.49-.05,1.18-.12,2-.16s1.79-.08,2.83-.05l1.6.05c.54,0,1.09.06,1.64.11s1.11.09,1.65.09,1.08,0,1.6-.08,1-.11,1.49-.12.93,0,1.34,0a19.36,19.36,0,0,1,2.76.26s0,0,0,0S353.58,183.61,353.56,183.61Z" style="fill:#fceaaa"/><path d="M6.88,198.46s.48-.1,1.32-.23c.42-.07.93-.13,1.51-.21s1.25-.16,2-.24,1.5-.16,2.33-.21,1.71-.08,2.62-.12,1.84-.07,2.79-.16,1.91-.2,2.87-.33,1.92-.26,2.87-.37l2.78-.3c1.8-.18,3.49-.3,4.94-.37s2.66-.12,3.51-.15h1.33s0,0,0,0,0,0,0,0l-1.32.21c-.84.13-2,.31-3.48.47s-3.12.36-4.93.49l-2.79.19c-.95.06-1.92.1-2.89.14s-1.93.09-2.88.17-1.88.19-2.78.32-1.77.26-2.59.34-1.61.14-2.34.2-1.39.09-2,.1l-1.52.06H6.89a0,0,0,0,1,0,0S6.87,198.46,6.88,198.46Z" style="fill:#fceaaa"/><path d="M77.24,192.37s-.46.09-1.28.22c-.4.07-.9.13-1.47.21s-1.21.15-1.91.23-1.47.16-2.28.21-1.66.07-2.54.11-1.8.07-2.72.16-1.86.19-2.79.32-1.87.26-2.79.36l-2.71.29c-1.76.18-3.4.3-4.81.37s-2.59.11-3.42.13l-1.29,0a0,0,0,0,1,0,0,0,0,0,0,1,0,0l1.28-.22c.82-.12,2-.29,3.39-.46s3-.34,4.8-.47l2.72-.19c.92-.05,1.86-.1,2.81-.13s1.88-.09,2.8-.16,1.83-.19,2.71-.32,1.72-.25,2.52-.33,1.57-.14,2.28-.19,1.35-.09,1.92-.1,1.07-.05,1.49-.05c.82,0,1.3,0,1.3,0s0,0,0,0A0,0,0,0,1,77.24,192.37Z" style="fill:#fceaaa"/><path d="M90.67,191.13l9-.9,10.29-1L123.27,188c4.89-.45,10.19-.93,15.79-1.4s11.53-.93,17.65-1.43,12.44-1,18.86-1.58L195,181.84,214.49,180l18.85-1.71L251,176.79l15.81-1.32,23.66-1.92,9-.69a0,0,0,0,1,0,0s0,0,0,0l-9,.89L266.83,176,251,177.48,233.4,179l-18.86,1.59-19.48,1.59-19.47,1.63c-6.42.56-12.74,1.13-18.85,1.72s-12,1.16-17.63,1.65-10.9,1-15.79,1.38L110,189.7l-10.3.82-9,.67s0,0,0,0A0,0,0,0,1,90.67,191.13Z" style="fill:#fceaaa"/><path d="M309.26,172a10.9,10.9,0,0,1,2-.43c.29,0,.61-.07.95-.09s.71,0,1.08,0a7.38,7.38,0,0,0,1.15,0c.39,0,.79-.11,1.18-.18s.78-.17,1.17-.22l1.14-.15a17,17,0,0,1,2-.13c.6,0,1.1,0,1.45,0l.55,0s0,0,0,0,0,0,0,0l-.54.15c-.34.08-.83.2-1.42.29a18,18,0,0,1-2,.23l-1.15.05c-.39,0-.79,0-1.19,0a9.42,9.42,0,0,0-1.19,0,6.83,6.83,0,0,0-1.13.18c-.37.07-.73.16-1.06.21s-.67,0-1,.07a11,11,0,0,1-2-.08s0,0,0,0Z" style="fill:#fceaaa"/><path d="M43.53,207.21a12.32,12.32,0,0,1-2,.61c-.31.06-.64.14-1,.18s-.73.06-1.13.09a7.1,7.1,0,0,0-1.2.13,10.68,10.68,0,0,0-1.21.3c-.4.11-.81.24-1.21.32l-1.18.27c-.76.16-1.49.25-2.11.32s-1.15.08-1.52.1h-.58s0,0,0,0,0,0,0,0l.55-.2c.35-.12.85-.28,1.46-.43a21,21,0,0,1,2.1-.42l1.2-.16c.41-.05.82-.07,1.24-.1a10,10,0,0,0,1.24-.14,7.53,7.53,0,0,0,1.18-.29c.38-.1.74-.23,1.09-.3s.69-.13,1-.17a12.49,12.49,0,0,1,2.1-.11s0,0,0,0Z" style="fill:#fceaaa"/><path d="M53.63,205.35l11.7-2.17,30.87-5.56c6.38-1.16,13.3-2.41,20.63-3.65l23-4,24.64-4.26,25.41-4.56,50-9,23-4.06,20.65-3.58,30.91-5.29,11.74-2s0,0,0,0a.05.05,0,0,1,0,0l-11.7,2.16-30.86,5.6-20.62,3.69-23,4.07L190,181.53l-25.44,4.41-24.62,4.43-23,4.14c-7.32,1.34-14.25,2.53-20.64,3.63l-30.91,5.32-11.73,2s0,0,0,0S53.62,205.36,53.63,205.35Z" style="fill:#fceaaa"/><path d="M352.08,152.8a15.63,15.63,0,0,1-2.3.66,10.88,10.88,0,0,1-1.13.21c-.4.06-.84.08-1.29.11a13.22,13.22,0,0,0-1.36.16c-.46.08-.92.21-1.38.33s-.92.26-1.38.36l-1.35.29c-.87.18-1.69.29-2.4.37s-1.31.12-1.73.14h-.66s0,0,0,0,0,0,0,0l.62-.21c.4-.12,1-.29,1.67-.46s1.51-.35,2.39-.48l1.36-.18c.47-.07.94-.1,1.42-.14s.95-.08,1.41-.16a11.39,11.39,0,0,0,1.34-.32c.43-.12.85-.25,1.25-.34s.78-.13,1.13-.19a16.17,16.17,0,0,1,2.39-.16s0,0,0,0Z" style="fill:#fceaaa"/><path d="M29.63,223.19a32.9,32.9,0,0,1-3.26,1.14c-.5.14-1,.3-1.61.44s-1.19.24-1.83.37-1.29.26-1.94.44-1.31.39-2,.61-1.31.44-1.95.64l-1.91.57c-1.25.36-2.42.64-3.43.86s-1.86.38-2.45.49l-.95.15,0,0s0,0,0,0l.89-.34c.57-.21,1.38-.5,2.37-.81s2.14-.66,3.39-1l1.94-.47c.66-.15,1.34-.29,2-.42s1.35-.27,2-.45,1.3-.38,1.91-.6,1.2-.42,1.77-.59,1.11-.3,1.61-.42a34,34,0,0,1,3.4-.65,0,0,0,0,1,0,0S29.65,223.18,29.63,223.19Z" style="fill:#fceaaa"/><path d="M66.48,213.32s-.41.16-1.13.41c-.36.13-.81.27-1.31.43s-1.08.35-1.71.53-1.31.38-2,.56-1.51.32-2.31.5-1.62.34-2.45.57-1.67.48-2.5.76l-2.48.78-2.42.7c-1.58.45-3.06.82-4.34,1.11s-2.34.51-3.09.66l-1.19.21s0,0,0,0a.05.05,0,0,1,0,0l1.13-.4c.72-.25,1.76-.6,3-1s2.72-.81,4.3-1.21l2.45-.6c.84-.2,1.69-.39,2.55-.56s1.7-.38,2.53-.6,1.64-.47,2.42-.73,1.53-.51,2.25-.72,1.41-.38,2-.54l1.74-.4c.52-.1,1-.21,1.35-.27.75-.15,1.19-.21,1.19-.21s0,0,0,0A.05.05,0,0,1,66.48,213.32Z" style="fill:#fceaaa"/><path d="M77.12,210.39l9.76-2.72,11.22-3.09,14.56-4L129.91,196c6.12-1.64,12.59-3.3,19.27-5s13.6-3.57,20.61-5.44L191,179.72l21.22-5.81,20.58-5.56,19.25-5.16,17.26-4.56,25.85-6.77,9.82-2.53s0,0,0,0,0,0,0,0l-9.77,2.72-25.77,7.06-17.23,4.68L233,169l-20.6,5.46-21.28,5.59-21.27,5.61c-7,1.89-13.91,3.75-20.57,5.59s-13.1,3.63-19.22,5.27l-17.25,4.61L98.22,205,87,207.94l-9.82,2.52s0,0,0,0S77.1,210.4,77.12,210.39Z" style="fill:#fceaaa"/><path d="M336.73,140.9a29.81,29.81,0,0,1-3.14,1.11c-.48.13-1,.29-1.55.42s-1.15.23-1.76.35-1.24.25-1.87.42-1.26.38-1.89.6-1.26.42-1.88.62l-1.84.54c-1.19.35-2.32.63-3.3.83s-1.79.36-2.36.47l-.91.13s0,0,0,0,0,0,0,0l.86-.34c.55-.19,1.33-.48,2.28-.77s2.06-.64,3.27-.94l1.86-.44c.64-.15,1.29-.28,1.94-.41s1.31-.25,1.93-.43,1.25-.36,1.84-.57,1.15-.41,1.7-.57,1.07-.29,1.55-.41a30.56,30.56,0,0,1,3.27-.61s0,0,0,0S336.74,140.9,336.73,140.9Z" style="fill:#fceaaa"/><path d="M42.37,232.73a10.86,10.86,0,0,1-1.76.92c-.27.11-.56.23-.89.33s-.67.17-1,.25a7.6,7.6,0,0,0-1.1.32,9.23,9.23,0,0,0-1.07.48c-.35.17-.7.36-1.06.5l-1.05.44a17.12,17.12,0,0,1-1.91.64c-.57.16-1.05.26-1.39.33s-.55.09-.55.09a0,0,0,0,1,0,0,0,0,0,0,1,0,0l.47-.28c.31-.17.75-.4,1.28-.65a17.67,17.67,0,0,1,1.88-.73l1.08-.34c.37-.12.76-.2,1.14-.29a9.88,9.88,0,0,0,1.13-.33,7,7,0,0,0,1-.46c.33-.17.65-.34,1-.47s.62-.23.9-.32a10.7,10.7,0,0,1,1.93-.43s0,0,0,0S42.38,232.73,42.37,232.73Z" style="fill:#fceaaa"/><path d="M280.74,146l-9.52,3.58-10.94,4.07-14.21,5.24L229.23,165c-6,2.17-12.29,4.4-18.82,6.73s-13.28,4.76-20.12,7.25l-20.72,7.62-20.71,7.66-20.08,7.36L110,208.46l-16.86,6.07-25.25,9-9.59,3.38s0,0,0,0,0,0,0,0l9.52-3.58L92.94,214l16.81-6.19L128.54,201l20.11-7.26,20.79-7.45,20.77-7.48c6.84-2.49,13.57-5,20.07-7.38s12.78-4.77,18.76-6.94l16.83-6.12,14.25-5.12,11-3.92,9.6-3.38s0,0,0,0S280.76,146,280.74,146Z" style="fill:#fceaaa"/><path d="M287.73,143.36l1.44-.64,1.67-.69c.64-.27,1.38-.56,2.18-.87s1.67-.63,2.6-.95,1.92-.63,2.94-1,2.08-.67,3.14-1.06,2.12-.81,3.18-1.25,2.12-.86,3.17-1.27l3.09-1.18c2-.76,3.9-1.42,5.53-2s3-1,4-1.26l1.51-.45s0,0,0,0,0,0,0,0l-1.44.63c-.92.39-2.24.95-3.84,1.57s-3.47,1.35-5.5,2.06l-3.12,1.08c-1.07.36-2.16.72-3.25,1.06s-2.18.72-3.24,1.1-2.09.78-3.08,1.2-1.95.82-2.87,1.17-1.8.65-2.61.94-1.55.53-2.22.73-1.24.41-1.72.55c-1,.29-1.52.43-1.52.43s0,0,0,0S287.71,143.37,287.73,143.36Z" style="fill:#fceaaa"/><path d="M21.23,256.33a29.77,29.77,0,0,1,2.92-1.64c.45-.22.94-.47,1.47-.7s1.1-.43,1.68-.66,1.19-.46,1.79-.74,1.18-.6,1.77-.92,1.17-.64,1.76-.94l1.73-.87c1.12-.55,2.19-1,3.12-1.4s1.72-.67,2.27-.87.87-.3.87-.3l0,0a.05.05,0,0,1,0,0l-.79.48c-.51.3-1.23.72-2.13,1.17s-1.93,1-3.08,1.5l-1.77.77c-.61.26-1.23.5-1.85.74s-1.25.49-1.85.77a18.38,18.38,0,0,0-1.71.89c-.55.3-1.08.61-1.59.86s-1,.48-1.47.68a29.54,29.54,0,0,1-3.14,1.18s0,0,0,0S21.22,256.34,21.23,256.33Z" style="fill:#fceaaa"/><path d="M309,122.22l-10.72,5.11-28.35,13.36c-5.86,2.76-12.21,5.75-19,8.85l-21.21,9.8-22.67,10.48-23.35,11L137.8,202.4l-21.18,9.87-19,8.79-28.46,13.1-10.81,4.93a0,0,0,0,1,0,0,0,0,0,0,1,0,0l10.73-5.11,28.33-13.38,18.94-8.9,21.17-9.88,46.09-21.31L207,169.62,229.6,159l21.14-10c6.71-3.18,13.09-6.12,19-8.83l28.45-13.13L309,122.15s0,0,0,0S309,122.21,309,122.22Z" style="fill:#fceaaa"/><path d="M338,108.7a32.49,32.49,0,0,1-3,1.7c-.47.22-1,.48-1.52.71s-1.14.45-1.75.69-1.23.49-1.85.78-1.23.62-1.84,1-1.22.66-1.82,1l-1.8.9c-1.16.57-2.28,1.06-3.24,1.45s-1.78.7-2.35.92l-.91.31,0,0s0,0,0,0,.29-.19.82-.5,1.28-.74,2.21-1.21,2-1,3.19-1.55l1.84-.8c.63-.27,1.28-.53,1.93-.77s1.29-.51,1.91-.8,1.21-.6,1.78-.92,1.11-.63,1.65-.9,1.05-.49,1.52-.7a32.1,32.1,0,0,1,3.25-1.23,0,0,0,0,1,.05,0S338,108.69,338,108.7Z" style="fill:#fceaaa"/><path d="M39.27,263.25a18.47,18.47,0,0,1,2.21-1.57c.34-.21.72-.45,1.13-.67s.86-.41,1.32-.63a13,13,0,0,0,1.39-.71c.46-.26.91-.57,1.35-.88s.89-.61,1.34-.9l1.33-.83c.86-.53,1.69-1,2.42-1.33s1.35-.65,1.78-.84.69-.28.69-.28a0,0,0,0,1,.05,0,.06.06,0,0,1,0,0l-.59.45c-.39.28-.94.69-1.62,1.12s-1.48.95-2.37,1.44l-1.38.73-1.45.71c-.49.23-1,.46-1.44.73a15.53,15.53,0,0,0-1.31.85c-.42.29-.81.59-1.21.83s-.78.45-1.13.65a20.5,20.5,0,0,1-2.47,1.13s0,0,0,0S39.26,263.26,39.27,263.25Z" style="fill:#fceaaa"/><path d="M83.05,238.05s-.33.25-.92.65c-.29.21-.65.44-1.07.71s-.89.57-1.41.89-1.09.66-1.7,1-1.28.65-2,1-1.38.7-2.07,1.11-1.39.84-2.07,1.28-1.36.9-2,1.32l-2,1.22c-1.31.79-2.55,1.48-3.64,2s-2,1-2.64,1.34l-1,.47s0,0,0,0,0,0,0,0l.92-.65c.59-.4,1.43-1,2.47-1.62s2.25-1.39,3.59-2.13l2.06-1.13c.71-.38,1.44-.76,2.17-1.12s1.44-.75,2.14-1.14,1.37-.82,2-1.25,1.25-.84,1.85-1.2,1.18-.68,1.71-1,1-.55,1.48-.77.83-.43,1.15-.58l1-.46s0,0,0,0S83.06,238,83.05,238.05Z" style="fill:#fceaaa"/><path d="M289.65,118.77l-8.62,5.1-9.91,5.82-12.89,7.5L243,146c-5.42,3.13-11.17,6.37-17.1,9.75s-12.06,6.88-18.27,10.46L188.8,177.17c-6.29,3.67-12.57,7.35-18.77,11l-18.2,10.58-17.05,9.84-15.31,8.76L96.53,230.38,87.8,235.3a0,0,0,0,1,0,0s0,0,0,0l8.62-5.09,22.79-13.33,15.25-8.88,17-9.84,18.26-10.48,18.88-10.78L207.48,166c6.21-3.58,12.31-7.13,18.2-10.59s11.57-6.81,17-9.94L258,136.7l12.94-7.4,10-5.68,8.73-4.91s0,0,0,0S289.67,118.76,289.65,118.77Z" style="fill:#fceaaa"/><path d="M315.09,104.08a31.08,31.08,0,0,1-2.77,1.89c-.43.26-.89.54-1.39.82s-1.06.52-1.62.8a18.7,18.7,0,0,0-1.71.9c-.57.32-1.13.69-1.69,1.06s-1.11.75-1.67,1.1l-1.64,1c-1.07.65-2.1,1.21-3,1.66s-1.65.82-2.18,1.07l-.84.37a0,0,0,0,1,0,0s0,0,0,0l.75-.54c.48-.34,1.16-.82,2-1.35s1.84-1.16,2.94-1.76l1.69-.92c.59-.31,1.18-.61,1.79-.9s1.2-.59,1.76-.92,1.12-.68,1.63-1,1-.7,1.51-1,1-.56,1.4-.8a33.09,33.09,0,0,1,3-1.45s0,0,.05,0S315.1,104.07,315.09,104.08Z" style="fill:#fceaaa"/><path d="M27,288.83s.51-.42,1.42-1.13c.46-.36,1-.77,1.66-1.26s1.38-1,2.18-1.59,1.67-1.21,2.61-1.85,2-1.28,3-1.95,2.11-1.37,3.17-2.12,2.12-1.53,3.18-2.33,2.11-1.58,3.16-2.35L50.4,272c2-1.44,3.92-2.74,5.57-3.83s3-2,4-2.61l1.54-.95s0,0,0,0,0,0,0,0l-1.43,1.12c-.92.71-2.22,1.71-3.82,2.88s-3.47,2.52-5.51,3.92l-3.15,2.14c-1.08.73-2.18,1.45-3.29,2.17s-2.2,1.45-3.27,2.19S39,280.6,38,281.35s-1.93,1.48-2.85,2.14-1.81,1.26-2.63,1.82-1.56,1.07-2.24,1.5-1.26.82-1.75,1.12c-1,.62-1.55,1-1.55,1a0,0,0,0,1,0,0S26.94,288.84,27,288.83Z" style="fill:#fceaaa"/><path d="M261.17,124.91,253,130.75l-9.37,6.66L231.46,146,217,156.15c-5.13,3.59-10.58,7.32-16.2,11.21s-11.42,7.91-17.3,12l-17.77,12.54L148,204.49l-17.22,12.13-16.14,11.29L100.12,238,78.39,253l-8.26,5.66s0,0,0,0,0,0,0-.05l8.15-5.83,21.55-15.27,14.43-10.18L130.35,216l17.29-12,17.88-12.38,17.86-12.42c5.88-4.11,11.65-8.18,17.22-12.14s10.94-7.8,16.07-11.39l14.47-10.11,12.25-8.51,9.47-6.53c5.26-3.61,8.27-5.66,8.27-5.66a0,0,0,0,1,.05,0S261.18,124.9,261.17,124.91Z" style="fill:#fceaaa"/><path d="M292.92,102.68s-.32.29-.89.76c-.29.24-.65.51-1.06.83s-.87.67-1.38,1-1.07.78-1.68,1.19-1.27.8-1.94,1.22-1.37.86-2.06,1.34-1.36,1-2,1.52-1.34,1-2,1.55l-2,1.45c-1.29.93-2.52,1.76-3.59,2.44s-2,1.25-2.61,1.64-1,.58-1,.58,0,0,0,0,0,0,0,0l.9-.76c.58-.46,1.4-1.13,2.43-1.89s2.21-1.65,3.53-2.54l2-1.37c.7-.45,1.42-.91,2.14-1.35s1.44-.92,2.12-1.39,1.35-1,2-1.47,1.22-1,1.81-1.41,1.16-.81,1.69-1.17,1-.67,1.46-.94l1.14-.71c.64-.37,1-.57,1-.57s0,0,.05,0A.06.06,0,0,1,292.92,102.68Z" style="fill:#fceaaa"/><path d="M302.17,96.12s.29-.27.81-.7c.26-.23.59-.47,1-.77s.8-.62,1.26-1,1-.71,1.54-1.08,1.16-.73,1.78-1.11,1.26-.78,1.88-1.22,1.25-.91,1.85-1.4,1.23-1,1.84-1.42l1.8-1.33c1.18-.86,2.31-1.61,3.29-2.24s1.82-1.13,2.4-1.48l.93-.53s0,0,.05,0a0,0,0,0,1,0,0l-.81.7c-.53.43-1.28,1-2.21,1.74s-2,1.52-3.23,2.33l-1.87,1.24c-.64.42-1.3.83-2,1.24s-1.32.83-1.94,1.26-1.23.89-1.8,1.35-1.11.9-1.65,1.3-1.06.74-1.54,1.07-.94.61-1.34.85-.76.48-1.05.64c-.59.34-.94.52-.94.52s0,0,0,0A.06.06,0,0,1,302.17,96.12Z" style="fill:#fceaaa"/><path d="M63.84,278.76A8.08,8.08,0,0,1,65,277.47c.19-.17.39-.36.62-.54s.51-.32.78-.5a5.41,5.41,0,0,0,.81-.57,7,7,0,0,0,.72-.72c.23-.25.46-.51.7-.74s.49-.45.72-.67a13.9,13.9,0,0,1,1.37-1.08c.42-.29.79-.51,1.06-.66l.42-.23a0,0,0,0,1,0,.05s-.1.15-.29.38-.48.56-.84.92a11.89,11.89,0,0,1-1.3,1.16l-.79.6c-.27.2-.56.38-.85.56a7.27,7.27,0,0,0-.83.59,5.71,5.71,0,0,0-.7.69c-.22.24-.42.48-.63.68s-.44.37-.64.52a7.92,7.92,0,0,1-1.47.9s0,0,0,0A0,0,0,0,1,63.84,278.76Z" style="fill:#fceaaa"/><path d="M100.35,248.21s-.34.36-1,1c-.31.31-.71.66-1.15,1.07s-1,.86-1.51,1.36-1.17,1-1.84,1.55-1.39,1.07-2.13,1.63-1.5,1.15-2.24,1.79-1.49,1.29-2.22,2-1.46,1.34-2.19,2l-2.17,1.88c-1.4,1.22-2.75,2.32-3.93,3.23s-2.16,1.67-2.86,2.19l-1.11.8s0,0,0,0a0,0,0,0,1,0-.05l1-.95c.63-.6,1.53-1.45,2.65-2.44S82,263,83.48,261.86l2.23-1.8c.76-.61,1.55-1.22,2.34-1.82s1.57-1.21,2.32-1.84,1.47-1.26,2.15-1.9,1.33-1.25,2-1.81,1.27-1.07,1.84-1.54,1.12-.89,1.6-1.25.9-.7,1.25-1l1.12-.79a0,0,0,0,1,0,0S100.36,248.2,100.35,248.21Z" style="fill:#fceaaa"/><path d="M260.42,113.9,254,119.47l-7.46,6.36-9.7,8.22c-3.56,3-7.41,6.26-11.51,9.67s-8.45,7-12.93,10.71-9.12,7.55-13.8,11.48l-14.15,12-14.13,12-13.71,11.58-12.87,10.78c-4.08,3.44-8,6.65-11.56,9.62l-17.34,14.36-6.61,5.41a0,0,0,0,1,0,0,0,0,0,0,1,0,0s2.35-2,6.48-5.57l17.14-14.59c3.55-3,7.4-6.28,11.49-9.71l12.85-10.79,13.79-11.5,14.27-11.83,14.25-11.85c4.68-3.93,9.28-7.82,13.7-11.6s8.7-7.44,12.79-10.87,7.95-6.68,11.53-9.66l9.78-8.13,7.56-6.24,6.61-5.4s0,0,0,0S260.43,113.89,260.42,113.9Z" style="fill:#fceaaa"/><path d="M292.77,86.75s-.38.39-1.06,1c-.34.33-.77.7-1.25,1.15s-1,.94-1.65,1.47-1.28,1.1-2,1.69-1.5,1.16-2.3,1.78-1.63,1.26-2.44,1.94-1.62,1.4-2.41,2.13-1.59,1.46-2.39,2.16l-2.36,2c-1.53,1.32-3,2.51-4.26,3.51s-2.35,1.82-3.1,2.39l-1.2.87a0,0,0,0,1-.05,0s0,0,0,0l1.07-1c.69-.64,1.67-1.57,2.88-2.64s2.64-2.31,4.2-3.59l2.42-2c.83-.66,1.68-1.33,2.54-2s1.7-1.33,2.52-2,1.59-1.37,2.33-2.06,1.46-1.36,2.16-2,1.38-1.16,2-1.67,1.21-1,1.73-1.37,1-.76,1.35-1l1.21-.87s0,0,0,0A0,0,0,0,1,292.77,86.75Z" style="fill:#fceaaa"/><path d="M90.56,270.39s-.51.58-1.43,1.58c-.45.5-1,1.09-1.66,1.78s-1.39,1.45-2.2,2.28-1.68,1.73-2.63,2.65-2,1.88-3,2.88-2.13,2-3.21,3.1-2.15,2.19-3.21,3.31-2.12,2.25-3.18,3.34l-3.12,3.2c-2,2.07-4,4-5.63,5.56s-3.08,2.92-4.08,3.84l-1.57,1.43a0,0,0,0,1,0,0,0,0,0,0,1,0,0L57,303.72c.92-1,2.24-2.41,3.85-4.07S64.33,296,66.4,294l3.19-3.12c1.09-1.06,2.21-2.12,3.34-3.18s2.24-2.13,3.32-3.2,2.11-2.15,3.1-3.21,1.93-2.09,2.87-3,1.83-1.83,2.66-2.64,1.58-1.55,2.27-2.19,1.28-1.22,1.78-1.67c1-.92,1.58-1.43,1.58-1.43s0,0,0,0A0,0,0,0,1,90.56,270.39Z" style="fill:#fceaaa"/><path d="M242.78,118.17l-6.08,6.23-7,7.12-9.13,9.21c-3.34,3.37-7,7-10.83,10.85s-8,7.85-12.18,12-8.58,8.48-13,12.89L171.26,189.9,158,203.34l-12.9,13L133,228.42l-10.89,10.8c-6.76,6.67-12.39,12.22-16.33,16.12l-6.23,6.08h0a0,0,0,0,1,0-.05l6.09-6.22,16.12-16.34,10.8-10.88,12.09-12.11,13-12.9L171,189.64l13.42-13.31c4.4-4.4,8.72-8.75,12.88-13s8.18-8.33,12-12.18,7.48-7.48,10.85-10.83l9.2-9.12,7.12-7,6.23-6.08a0,0,0,0,1,.05,0S242.8,118.16,242.78,118.17Z" style="fill:#fceaaa"/><path d="M282.71,78.24s-.5.57-1.38,1.54c-.44.49-1,1.06-1.62,1.73s-1.35,1.41-2.13,2.21S276,85.4,275,86.3s-1.93,1.82-2.95,2.79-2.07,2-3.12,3-2.08,2.13-3.11,3.22-2.06,2.19-3.08,3.25l-3,3.1c-2,2-3.85,3.85-5.48,5.4s-3,2.84-4,3.73l-1.53,1.39a0,0,0,0,1,0,0s0,0,0,0l1.38-1.53c.89-1,2.17-2.34,3.73-4s3.39-3.51,5.4-5.48l3.1-3c1.07-1,2.15-2.07,3.25-3.09S267.75,93,268.8,92s2.06-2.08,3-3.12,1.88-2,2.79-2.94,1.77-1.78,2.58-2.56,1.54-1.51,2.21-2.13l1.73-1.62c1-.89,1.54-1.38,1.54-1.38s0,0,0,0A0,0,0,0,1,282.71,78.24Z" style="fill:#fceaaa"/><path d="M305.07,55.88A21.89,21.89,0,0,1,303.28,58c-.29.31-.6.64-.95,1s-.75.64-1.15,1a15,15,0,0,0-1.2,1.08c-.39.39-.76.82-1.12,1.24s-.73.85-1.1,1.26l-1.11,1.18c-.72.76-1.43,1.43-2.06,2s-1.17,1-1.55,1.32-.61.47-.61.47a0,0,0,0,1-.05,0s0,0,0,0l.47-.62c.31-.38.75-.93,1.32-1.55s1.23-1.34,2-2.06l1.17-1.11c.41-.37.83-.74,1.26-1.09s.86-.73,1.24-1.13a15,15,0,0,0,1.09-1.19c.34-.4.66-.81,1-1.15s.67-.67,1-.95a21.28,21.28,0,0,1,2.15-1.8s0,0,.05,0A0,0,0,0,1,305.07,55.88Z" style="fill:#fceaaa"/><path d="M78.36,301.46s.26-.38.74-1c.23-.33.54-.72.88-1.17s.73-.95,1.16-1.5.92-1.12,1.44-1.72,1.11-1.21,1.7-1.85,1.2-1.29,1.78-2,1.15-1.42,1.71-2.17,1.12-1.47,1.69-2.19,1.14-1.4,1.68-2.08c1.1-1.35,2.16-2.57,3.1-3.6s1.72-1.88,2.28-2.47l.89-.91h0s0,0,0,0l-.75,1.05c-.48.65-1.16,1.58-2,2.67s-1.87,2.36-3,3.67l-1.76,2c-.6.68-1.23,1.37-1.86,2s-1.25,1.38-1.84,2.07-1.15,1.4-1.66,2.1-1,1.37-1.52,2-1,1.19-1.45,1.71-.88,1-1.27,1.41l-1,1.07c-.57.59-.91.91-.91.91h0S78.35,301.48,78.36,301.46Z" style="fill:#fceaaa"/><path d="M103.5,271.51l6.89-8.38,18.29-22c3.78-4.55,7.88-9.48,12.27-14.64l13.78-16.29c4.77-5.65,9.71-11.48,14.72-17.42l15.08-18.08,29.67-35.62,13.71-16.34,12.33-14.6c7.66-9,14-16.54,18.5-21.81l7.05-8.25a0,0,0,0,1,0,0,0,0,0,0,1,0,0L259,86.51l-18.27,22L228.44,123.2l-13.7,16.34L184.81,175l-15.19,18L155,210.46l-13.65,16.39c-4.32,5.23-8.46,10.12-12.29,14.63-7.64,9-14,16.56-18.48,21.83l-7,8.25h0A0,0,0,0,1,103.5,271.51Z" style="fill:#fceaaa"/><path d="M285.62,54.57a29.93,29.93,0,0,1-1.9,2.66c-.31.39-.64.8-1,1.22s-.8.84-1.22,1.28-.87.9-1.28,1.39-.8,1-1.18,1.55l-1.17,1.56-1.17,1.48c-.77,1-1.52,1.81-2.19,2.53s-1.24,1.3-1.65,1.71l-.65.62a0,0,0,0,1-.05,0,.09.09,0,0,1,0,0l.5-.75c.33-.47.8-1.14,1.4-1.92s1.3-1.67,2.11-2.59l1.25-1.41c.43-.48.88-1,1.34-1.42s.9-1,1.31-1.44.8-1,1.16-1.5.69-1,1-1.42.7-.84,1-1.21a30.58,30.58,0,0,1,2.3-2.33s0,0,.05,0A0,0,0,0,1,285.62,54.57Z" style="fill:#fceaaa"/><path d="M77.3,326.37a25.84,25.84,0,0,1,1.58-2.7c.26-.39.54-.82.86-1.25s.69-.86,1.06-1.32a18.07,18.07,0,0,0,1.11-1.43c.35-.5.67-1,1-1.58s.64-1.07,1-1.59l1-1.51c.65-1,1.3-1.86,1.88-2.59s1.08-1.35,1.43-1.77.58-.64.58-.64a0,0,0,0,1,0,0,.06.06,0,0,1,0,0l-.41.76c-.28.48-.66,1.16-1.17,1.95s-1.1,1.71-1.79,2.66l-1.08,1.44q-.57.74-1.17,1.47c-.39.49-.78,1-1.13,1.48a16.84,16.84,0,0,0-1,1.52c-.31.51-.58,1-.88,1.45s-.6.86-.88,1.24a27.24,27.24,0,0,1-2,2.41s0,0,0,0S77.29,326.39,77.3,326.37Z" style="fill:#fceaaa"/><path d="M94.81,301.36l6.44-9.38,17.09-24.63c3.54-5.09,7.37-10.62,11.48-16.41l12.89-18.27,13.78-19.53,14.1-20.26L198.32,153l12.83-18.31,11.54-16.37L240,93.83l6.61-9.26s0,0,0,0a0,0,0,0,1,0,0L240.23,94l-17.08,24.65c-3.54,5.09-7.38,10.6-11.43,16.44L198.9,153.38l-28,39.71-14.22,20.17L143,232.89l-12.76,18.37c-4,5.84-7.92,11.33-11.49,16.4l-17.3,24.48-6.61,9.26a0,0,0,0,1-.05,0S94.8,301.37,94.81,301.36Z" style="fill:#fceaaa"/><path d="M250.53,79a32.88,32.88,0,0,1,1.78-3c.29-.43.6-.9,1-1.38s.76-1,1.17-1.47.83-1,1.22-1.6.75-1.15,1.12-1.75.72-1.18,1.09-1.76L259,66.35c.72-1.08,1.44-2.06,2.09-2.88s1.18-1.5,1.57-2l.63-.73a0,0,0,0,1,.05,0,.06.06,0,0,1,0,0l-.47.84c-.3.53-.74,1.28-1.31,2.16s-1.22,1.89-2,2.94l-1.2,1.62c-.41.54-.84,1.09-1.28,1.63s-.87,1.09-1.25,1.65-.76,1.12-1.09,1.69-.65,1.11-1,1.6-.67,1-1,1.37a32.33,32.33,0,0,1-2.2,2.7h-.05S250.52,79,250.53,79Z" style="fill:#fceaaa"/><path d="M111.14,298.29s-.16.37-.45,1c-.14.32-.34.69-.55,1.12s-.47.9-.75,1.42-.59,1.08-.94,1.66-.76,1.16-1.17,1.78-.82,1.25-1.2,1.93-.75,1.37-1.1,2.07-.71,1.41-1.08,2.09-.73,1.35-1.09,2c-.71,1.29-1.42,2.47-2.06,3.47s-1.18,1.81-1.57,2.38-.62.89-.62.89,0,0,0,0a0,0,0,0,1,0,0s.15-.37.45-1,.73-1.51,1.28-2.55,1.21-2.26,2-3.52l1.18-1.94c.41-.66.84-1.32,1.27-2s.86-1.32,1.25-2,.74-1.34,1.07-2,.63-1.31,1-1.9.66-1.14,1-1.65.59-1,.86-1.36.49-.75.69-1c.4-.57.64-.88.64-.88a0,0,0,0,1,0,0A0,0,0,0,1,111.14,298.29Z" style="fill:#fceaaa"/><path d="M116.42,289s1.66-3,4.58-8.16c1.47-2.59,3.26-5.74,5.3-9.35l6.92-12.09c2.54-4.43,5.29-9.23,8.23-14.28s6.07-10.38,9.3-15.88,6.55-11.2,9.9-17l10.09-17.64L180.8,177c3.33-5.81,6.61-11.53,9.79-17.06l9.2-15.93,8.3-14.25,12.47-21.29,4.76-8.06a0,0,0,0,1,.05,0s0,0,0,0l-4.59,8.15L208.58,130l-8.18,14.3-9.2,15.94-9.89,17L171.06,194.8c-3.43,5.88-6.85,11.76-10.22,17.55s-6.63,11.53-9.78,17.08-6.18,10.92-9.1,16-5.69,9.86-8.25,14.27-4.93,8.45-7,12L121.25,281c-3,5.12-4.77,8.05-4.77,8.05a0,0,0,0,1,0,0A0,0,0,0,1,116.42,289Z" style="fill:#fceaaa"/><path d="M228.37,95.1s.23-.49.65-1.34c.21-.43.48-.94.79-1.53s.66-1.24,1.05-2,.82-1.48,1.3-2.28,1-1.62,1.57-2.48,1.1-1.74,1.63-2.67,1-1.88,1.55-2.84,1-1.92,1.52-2.86,1-1.85,1.52-2.74c1-1.77,2-3.4,2.82-4.78s1.59-2.53,2.11-3.33.83-1.24.83-1.24a0,0,0,0,1,0,0s0,0,0,0l-.66,1.34c-.43.85-1,2.06-1.82,3.48s-1.69,3.1-2.73,4.84c-.53.87-1.07,1.77-1.61,2.69s-1.13,1.83-1.72,2.74S236.08,82,235.54,83s-1,1.85-1.5,2.76-.91,1.78-1.36,2.59-.91,1.57-1.32,2.27-.81,1.33-1.17,1.89-.66,1.05-.92,1.44c-.53.79-.84,1.23-.84,1.23a0,0,0,0,1-.05,0S228.36,95.11,228.37,95.1Z" style="fill:#fceaaa"/><path d="M251.79,54.53s.18-.4.51-1.1c.16-.35.38-.76.62-1.24s.53-1,.85-1.59.66-1.2,1-1.85.84-1.3,1.29-2,.91-1.41,1.33-2.16.85-1.53,1.24-2.31.81-1.57,1.22-2.33.82-1.5,1.22-2.23c.8-1.43,1.59-2.75,2.3-3.87s1.3-2,1.73-2.67.69-1,.69-1a0,0,0,0,1,.05,0s0,0,0,0-.18.4-.51,1.09-.83,1.68-1.46,2.84-1.35,2.51-2.2,3.93c-.43.7-.87,1.43-1.31,2.17s-.93,1.48-1.41,2.21-.95,1.49-1.38,2.23-.84,1.5-1.2,2.24-.73,1.45-1.09,2.11-.74,1.27-1.07,1.84-.66,1.08-1,1.52-.54.85-.76,1.16c-.44.64-.7,1-.7,1h0S251.79,54.55,251.79,54.53Z" style="fill:#fceaaa"/><path d="M103.79,341.2s.29-.74.82-2c.28-.64.61-1.42,1-2.31s.84-1.89,1.33-3,1-2.27,1.62-3.5,1.25-2.52,1.92-3.86,1.35-2.72,2-4.14,1.31-2.88,1.94-4.34,1.27-2.93,1.91-4.36,1.28-2.83,1.89-4.2c1.24-2.71,2.45-5.23,3.5-7.37s2-3.92,2.59-5.17l1-1.94a0,0,0,0,1,0,0s0,0,0,0l-.83,2c-.55,1.28-1.32,3.12-2.3,5.3s-2.11,4.73-3.4,7.42c-.64,1.35-1.31,2.74-2,4.15s-1.39,2.84-2.11,4.26-1.42,2.86-2.08,4.28-1.3,2.83-1.88,4.2-1.14,2.71-1.72,3.95-1.12,2.42-1.64,3.49-1,2.07-1.43,2.93-.82,1.63-1.14,2.25c-.64,1.24-1,1.94-1,1.94a0,0,0,0,1,0,0S103.78,341.21,103.79,341.2Z" style="fill:#fceaaa"/><path d="M141.9,259.63s-.13.4-.39,1.09c-.12.34-.3.75-.48,1.23s-.42,1-.67,1.58-.53,1.19-.85,1.84-.69,1.31-1.06,2-.75,1.41-1.09,2.16-.67,1.52-1,2.3-.63,1.55-.95,2.31-.66,1.49-1,2.21c-.64,1.44-1.28,2.75-1.86,3.87s-1.07,2-1.43,2.68-.58,1-.58,1,0,0,0,0a0,0,0,0,1,0,0s.14-.4.4-1.09.63-1.66,1.13-2.82,1.08-2.49,1.76-3.91l1.07-2.17c.37-.73.76-1.47,1.16-2.21s.78-1.49,1.13-2.23.67-1.49,1-2.22.56-1.45.85-2.1.59-1.27.87-1.84.54-1.07.78-1.52.45-.84.63-1.16c.37-.64.59-1,.59-1a0,0,0,0,1,0,0S141.9,259.61,141.9,259.63Z" style="fill:#fceaaa"/><path d="M143.53,256s1.23-2.72,3.37-7.48l3.9-8.56,5.11-11.09c1.87-4.06,3.9-8.46,6.09-13.09s4.51-9.51,6.91-14.56,4.87-10.27,7.35-15.59l7.45-16.16,7.42-16.18,7.24-15.64c2.36-5.07,4.65-10,6.81-14.61s4.24-9,6.16-13.06c3.84-8.08,7-14.81,9.27-19.53L224.17,83a0,0,0,0,1,.05,0,0,0,0,0,1,0,0l-3.37,7.47-9,19.65c-1.86,4.07-3.88,8.47-6.05,13.12L199,137.92l-7.34,15.59c-2.51,5.31-5.06,10.7-7.62,16.08s-5.09,10.79-7.59,16.1-4.9,10.56-7.22,15.65-4.54,10-6.71,14.65-4.21,9-6.11,13.09l-5.21,11c-1.57,3.27-2.93,6.13-4.05,8.49L143.59,256s0,0,0,0A0,0,0,0,1,143.53,256Z" style="fill:#fceaaa"/><path d="M227.67,75.52s.23-.6.64-1.63c.21-.51.48-1.13.78-1.85s.65-1.51,1-2.37.81-1.82,1.29-2.8,1-2,1.55-3.06,1.1-2.15,1.62-3.29,1-2.3,1.53-3.47,1-2.33,1.5-3.48,1-2.26,1.5-3.34c1-2.17,1.94-4.17,2.8-5.87s1.57-3.12,2.09-4.11l.83-1.53s0,0,0,0,0,0,0,0l-.65,1.63c-.42,1-1,2.5-1.79,4.24s-1.67,3.77-2.7,5.91c-.52,1.08-1.06,2.18-1.6,3.31s-1.12,2.25-1.7,3.38-1.14,2.27-1.68,3.4-1,2.26-1.48,3.36-.89,2.16-1.34,3.15-.9,1.93-1.32,2.78-.79,1.65-1.15,2.33-.65,1.3-.92,1.78c-.52,1-.83,1.54-.83,1.54s0,0-.05,0A.05.05,0,0,1,227.67,75.52Z" style="fill:#fceaaa"/><path d="M135,300a36.21,36.21,0,0,1-1,3.54c-.18.52-.37,1.09-.6,1.67s-.52,1.2-.79,1.83-.56,1.29-.8,2-.46,1.38-.67,2.09-.42,1.41-.65,2.09l-.67,2c-.45,1.3-.91,2.5-1.34,3.51s-.8,1.86-1.06,2.45-.45.92-.45.92,0,0,0,0,0,0,0,0,.08-.36.25-1,.42-1.51.76-2.56.74-2.27,1.23-3.55l.78-2c.27-.67.56-1.35.86-2s.58-1.35.82-2,.47-1.36.66-2,.36-1.3.57-1.9.42-1.16.61-1.67c.81-2.05,1.5-3.36,1.5-3.36a0,0,0,0,1,.05,0S135,300,135,300Z" style="fill:#fceaaa"/><path d="M221.16,63.25l-3.49,9.9L208.32,99.2c-1.93,5.39-4,11.22-6.31,17.37s-4.67,12.65-7.14,19.37l-7.63,20.7c-2.54,7.08-5.13,14.26-7.72,21.44-5.16,14.37-10.33,28.73-15.18,42.2l-7.06,19.39c-2.27,6.16-4.41,12-6.38,17.35-4,10.74-7.29,19.69-9.61,26s-3.69,9.83-3.69,9.83l0,0a0,0,0,0,1,0-.05s1.27-3.6,3.5-9.89,5.46-15.28,9.32-26.06l6.26-17.4c2.25-6.16,4.61-12.66,7.06-19.39,4.94-13.43,10.22-27.76,15.49-42.09,2.64-7.16,5.28-14.33,7.87-21.38s5.05-14,7.47-20.76l7-19.42c2.2-6.19,4.35-12,6.33-17.37,4-10.75,7.27-19.7,9.58-26l3.69-9.82a0,0,0,0,1,0,0S221.16,63.23,221.16,63.25Z" style="fill:#fceaaa"/><path d="M224.58,53.65s.15-.57.44-1.54c.15-.49.34-1.07.56-1.75s.47-1.43.75-2.26.59-1.71.95-2.64.77-1.91,1.18-2.91.84-2.06,1.22-3.13.76-2.18,1.11-3.29.71-2.21,1.08-3.29.74-2.15,1.1-3.18c.72-2.05,1.44-3.95,2.09-5.57s1.19-3,1.59-3.9.64-1.47.64-1.47a0,0,0,0,1,.05,0s0,0,0,0l-.45,1.53c-.3,1-.72,2.36-1.28,4s-1.22,3.58-2,5.62c-.39,1-.79,2.06-1.19,3.13s-.85,2.15-1.3,3.22-.86,2.16-1.26,3.23-.75,2.14-1.07,3.18-.64,2-1,3-.66,1.83-1,2.64-.6,1.56-.88,2.21-.49,1.23-.7,1.7c-.4.93-.65,1.46-.65,1.46s0,0,0,0A0,0,0,0,1,224.58,53.65Z" style="fill:#fceaaa"/><path d="M139.54,324.73s-.19,1.49-.71,3.65c-.14.54-.28,1.12-.46,1.73s-.41,1.25-.63,1.91-.45,1.34-.63,2.05-.34,1.43-.49,2.16-.3,1.45-.47,2.16l-.5,2.08c-.33,1.35-.7,2.6-1,3.66s-.63,1.94-.85,2.55-.36,1-.36,1,0,0,0,0,0,0,0,0,.06-.37.17-1,.29-1.55.54-2.63.54-2.35.93-3.69c.19-.66.4-1.35.6-2.05s.44-1.41.69-2.11.46-1.41.65-2.12.35-1.4.48-2.09.25-1.34.4-2,.32-1.2.48-1.73a34.66,34.66,0,0,1,1.2-3.51,0,0,0,0,1,.05,0S139.54,324.72,139.54,324.73Z" style="fill:#fceaaa"/><path d="M141.52,317.07s1-4,2.84-11,4.48-17,7.64-29c1.58-6,3.29-12.5,5.18-19.36s3.83-14.09,5.87-21.58,4.13-15.21,6.27-23.07,4.19-15.87,6.31-23.87c4.23-16,8.45-32,12.42-47l5.79-21.6c1.86-6.86,3.62-13.35,5.25-19.34,3.27-12,6-21.94,7.9-28.92s3-11,3-11a.05.05,0,0,1,.05,0,.08.08,0,0,1,0,0s-1,4-2.85,11-4.46,17-7.61,29l-5.13,19.37c-1.84,6.87-3.77,14.11-5.78,21.6-4.07,15-8.4,30.93-12.74,46.9-2.17,8-4.33,16-6.47,23.82l-6.1,23.12c-2,7.5-3.9,14.75-5.71,21.62s-3.56,13.37-5.2,19.35c-3.26,12-6,21.95-7.88,28.94s-3,10.95-3,10.95a.05.05,0,0,1,0,0S141.52,317.09,141.52,317.07Z" style="fill:#fceaaa"/><path d="M216.76,36.53a17.38,17.38,0,0,1-.43,2.58c-.09.38-.18.8-.31,1.23s-.31.87-.48,1.33a13.29,13.29,0,0,0-.47,1.43c-.13.5-.23,1-.32,1.53s-.18,1-.29,1.53-.23,1-.34,1.47c-.23.95-.5,1.83-.74,2.57s-.49,1.35-.65,1.78-.29.67-.29.67a0,0,0,0,1,0,0s0,0,0,0,0-.26.08-.72.17-1.1.33-1.87.36-1.65.65-2.59l.44-1.45c.14-.49.33-1,.51-1.47s.35-1,.48-1.48a13.53,13.53,0,0,0,.32-1.48c.08-.48.15-1,.25-1.39s.22-.84.33-1.22a18.62,18.62,0,0,1,.93-2.45s0,0,0,0S216.76,36.51,216.76,36.53Z" style="fill:#fceaaa"/><path d="M154.22,314.83s-.09.78-.27,2.15c-.09.68-.22,1.5-.35,2.45s-.31,2-.51,3.18-.39,2.42-.65,3.75-.55,2.72-.84,4.16-.59,2.94-.86,4.46-.51,3.08-.74,4.63-.46,3.11-.7,4.64-.5,3-.74,4.48c-.48,2.91-1,5.61-1.45,7.92s-.86,4.24-1.15,5.58l-.47,2.12s0,0-.05,0,0,0,0,0,.1-.78.27-2.14.46-3.31.83-5.64.81-5,1.35-7.94c.27-1.45.55-2.94.84-4.46s.6-3.06.92-4.6.62-3.08.9-4.61.51-3,.71-4.48.4-2.87.63-4.2.45-2.59.67-3.75.42-2.22.62-3.16.35-1.75.51-2.42c.29-1.35.48-2.11.48-2.11s0,0,0,0S154.22,314.81,154.22,314.83Z" style="fill:#fceaaa"/><path d="M202.64,40.23s-.68,4.05-1.86,11.13l-5.05,29.33c-1,6.06-2.17,12.64-3.44,19.58s-2.57,14.26-3.93,21.83l-4.2,23.35L180,169.59c-2.79,16.18-5.59,32.35-8.21,47.52-1.34,7.57-2.63,14.9-3.86,21.85s-2.42,13.5-3.51,19.56c-2.2,12.11-4,22.21-5.32,29.28S157,298.89,157,298.89s0,0,0,0,0,0,0,0,.68-4.05,1.86-11.13,2.94-17.19,5-29.33c1-6.06,2.19-12.63,3.39-19.59s2.51-14.27,3.85-21.85c2.72-15.14,5.63-31.3,8.53-47.46,1.45-8.07,2.91-16.15,4.33-24.11s2.73-15.79,4-23.38,2.57-14.91,3.77-21.86,2.37-13.52,3.47-19.57c2.18-12.12,4-22.22,5.28-29.28l2.07-11.1s0,0,0,0S202.64,40.21,202.64,40.23Z" style="fill:#fceaaa"/><path d="M204.6,28.7a27.1,27.1,0,0,1,.29-3.13c.07-.47.15-1,.26-1.5s.26-1.08.41-1.65.29-1.17.39-1.78.17-1.23.24-1.86.13-1.25.22-1.86.17-1.22.26-1.8c.18-1.16.4-2.24.61-3.16s.41-1.68.56-2.21.25-.84.25-.84l0,0s0,0,0,0,0,.31,0,.86-.11,1.34-.24,2.27-.27,2-.5,3.18c-.12.58-.25,1.18-.37,1.78s-.28,1.22-.44,1.83-.3,1.22-.41,1.83-.18,1.21-.23,1.8-.1,1.16-.18,1.69-.19,1-.28,1.5a27.69,27.69,0,0,1-.79,3,.05.05,0,0,1,0,0A.05.05,0,0,1,204.6,28.7Z" style="fill:#fceaaa"/><path d="M167.84,292.35s0,.71-.06,2c0,.63-.07,1.39-.12,2.25s-.12,1.85-.19,2.92-.16,2.23-.29,3.45-.29,2.51-.45,3.84-.31,2.7-.44,4.1-.21,2.83-.29,4.26-.16,2.85-.26,4.25-.2,2.78-.3,4.12c-.21,2.67-.45,5.16-.7,7.29s-.45,3.9-.61,5.14-.27,1.95-.27,1.95,0,0,0,0,0,0,0,0,0-.71.07-2,.14-3,.29-5.18.32-4.63.58-7.29c.14-1.33.28-2.71.42-4.11s.31-2.82.48-4.24.32-2.84.45-4.24.22-2.78.29-4.12.12-2.63.22-3.85.21-2.38.32-3.45.2-2,.31-2.9.19-1.62.28-2.24c.16-1.24.27-2,.27-2s0,0,0,0S167.84,292.33,167.84,292.35Z" style="fill:#fceaaa"/><path d="M168.4,285.14s.27-3.44.73-9.47c.24-3,.53-6.67.86-10.87s.75-8.92,1.18-14.08.93-10.76,1.45-16.67,1.13-12.14,1.73-18.59,1.22-13.11,1.82-19.88,1.14-13.66,1.71-20.54,1.13-13.77,1.69-20.55,1.14-13.44,1.68-19.89,1.12-12.69,1.64-18.6l1.52-16.66c1-10.31,1.77-18.91,2.33-24.93s.93-9.45.93-9.45a0,0,0,0,1,0,0,0,0,0,0,1,0,0s-.27,3.44-.73,9.47l-2,25c-.44,5.17-.9,10.76-1.4,16.67s-1.06,12.15-1.62,18.6-1.18,13.11-1.8,19.89-1.26,13.64-1.9,20.52l-1.88,20.53c-.59,6.77-1.15,13.44-1.66,19.89s-1,12.7-1.52,18.61-1,11.5-1.47,16.66-.91,9.89-1.29,14.08-.75,7.85-1,10.85c-.6,6-.94,9.46-.94,9.46a0,0,0,0,1,0,0S168.4,285.16,168.4,285.14Z" style="fill:#fceaaa"/><path d="M191.22,25.17a26.76,26.76,0,0,1,0,3.07c0,.46-.06,1-.12,1.47s-.17,1.07-.26,1.64a16.38,16.38,0,0,0-.24,1.75c-.05.6-.06,1.21-.07,1.83s0,1.22-.05,1.82-.07,1.2-.1,1.77c-.07,1.14-.19,2.21-.33,3.11s-.26,1.67-.35,2.2-.18.83-.18.83,0,0,0,0,0,0,0,0,0-.31,0-.85,0-1.3,0-2.22.09-2,.22-3.12c.06-.57.13-1.16.2-1.76s.17-1.2.28-1.81.19-1.21.24-1.81.07-1.19.07-1.76,0-1.13,0-1.66.09-1,.14-1.47a24.6,24.6,0,0,1,.52-3s0,0,0,0A0,0,0,0,1,191.22,25.17Z" style="fill:#fceaaa"/></svg>