<svg xmlns="http://www.w3.org/2000/svg" width="400" height="395.37" viewBox="0 0 400 395.37"><path d="M198.84,395.37A198.57,198.57,0,0,1,0,196.53,196.27,196.27,0,0,1,196.53,0,194,194,0,0,1,390.75,194.22a191.67,191.67,0,0,1-191.91,191.9A189.36,189.36,0,0,1,9.25,196.53,187.06,187.06,0,0,1,196.53,9.25a184.73,184.73,0,0,1,185,185A182.41,182.41,0,0,1,198.84,376.87,180.11,180.11,0,0,1,18.51,196.53a177.8,177.8,0,0,1,178-178A175.49,175.49,0,0,1,372.24,194.22a173.19,173.19,0,0,1-173.4,173.4A170.86,170.86,0,0,1,27.76,196.53,168.55,168.55,0,0,1,196.53,27.76,166.24,166.24,0,0,1,363,194.22,163.94,163.94,0,0,1,198.84,358.36,161.64,161.64,0,0,1,37,196.53,159.34,159.34,0,0,1,196.53,37,157,157,0,0,1,353.74,194.22a154.7,154.7,0,0,1-154.9,154.89A152.42,152.42,0,0,1,46.26,196.53,150.08,150.08,0,0,1,196.53,46.26a147.75,147.75,0,0,1,148,148A145.47,145.47,0,0,1,198.84,339.86,143.13,143.13,0,0,1,55.52,196.53a140.82,140.82,0,0,1,141-141,138.52,138.52,0,0,1,138.7,138.7A136.21,136.21,0,0,1,198.84,330.6,133.91,133.91,0,0,1,64.77,196.53,131.61,131.61,0,0,1,196.53,64.77,129.31,129.31,0,0,1,326,194.22,127,127,0,0,1,198.84,321.35,124.66,124.66,0,0,1,74,196.53,122.36,122.36,0,0,1,196.53,74a120.15,120.15,0,0,1,120.2,120.2A117.82,117.82,0,0,1,198.84,312.1,115.5,115.5,0,0,1,83.27,196.53,113.22,113.22,0,0,1,196.53,83.27a110.88,110.88,0,0,1,110.94,111A108.57,108.57,0,0,1,198.84,302.85,106.27,106.27,0,0,1,92.53,196.53a103.93,103.93,0,0,1,104-104A101.62,101.62,0,0,1,298.22,194.22a99.32,99.32,0,0,1-99.38,99.37,97,97,0,0,1-97.06-97.06,94.71,94.71,0,0,1,94.75-94.75A92.39,92.39,0,0,1,289,194.22a90.07,90.07,0,0,1-90.13,90.12A87.76,87.76,0,0,1,111,196.53a85.46,85.46,0,0,1,85.5-85.5,83.14,83.14,0,0,1,83.18,83.19,80.83,80.83,0,0,1-80.87,80.87,78.51,78.51,0,0,1-78.55-78.56,76.17,76.17,0,0,1,76.24-76.24,73.88,73.88,0,0,1,73.93,73.93,71.58,71.58,0,0,1-71.62,71.62,69.27,69.27,0,0,1-69.3-69.31,67,67,0,0,1,67-67,64.63,64.63,0,0,1,64.68,64.68,62.33,62.33,0,0,1-62.37,62.36,60,60,0,0,1-60.05-60,57.7,57.7,0,0,1,57.74-57.74A55.41,55.41,0,0,1,252,194.22a53.09,53.09,0,0,1-53.12,53.11,50.77,50.77,0,0,1-50.8-50.8A48.54,48.54,0,0,1,196.53,148a46.23,46.23,0,0,1,46.17,46.18,43.91,43.91,0,0,1-43.86,43.86,41.59,41.59,0,0,1-41.54-41.55,39.28,39.28,0,0,1,39.23-39.23,37,37,0,0,1,36.92,36.92,34.64,34.64,0,0,1-34.61,34.6,32.33,32.33,0,0,1-32.29-32.29,30,30,0,0,1,30-30,27.7,27.7,0,0,1,27.67,27.67,25.38,25.38,0,0,1-25.36,25.35,23.07,23.07,0,0,1-23-23,20.75,20.75,0,0,1,20.73-20.73A18.44,18.44,0,0,1,215,194.22a16.12,16.12,0,0,1-16.11,16.1,13.8,13.8,0,0,1-13.78-13.79,11.48,11.48,0,0,1,11.47-11.47,9.17,9.17,0,0,1,9.16,9.16,6.86,6.86,0,0,1-6.85,6.85,4.54,4.54,0,0,1-4.53-4.54,2.22,2.22,0,0,1,4.44,0,.09.09,0,0,0,.09.09,2.41,2.41,0,0,0,2.41-2.4,4.73,4.73,0,0,0-4.72-4.72,7,7,0,0,0-7,7,9.35,9.35,0,0,0,9.34,9.34,11.67,11.67,0,0,0,11.66-11.65,14,14,0,0,0-14-14,16.29,16.29,0,0,0-16.28,16.28,18.62,18.62,0,0,0,18.59,18.6,20.93,20.93,0,0,0,20.91-20.91A23.25,23.25,0,0,0,196.53,171,25.57,25.57,0,0,0,171,196.53a27.88,27.88,0,0,0,27.85,27.85A30.2,30.2,0,0,0,229,194.22a32.52,32.52,0,0,0-32.48-32.48,34.83,34.83,0,0,0-34.79,34.79,37.14,37.14,0,0,0,37.1,37.1,39.46,39.46,0,0,0,39.42-39.41,41.78,41.78,0,0,0-41.73-41.73,44.09,44.09,0,0,0-44,44,46.4,46.4,0,0,0,46.35,46.35,48.72,48.72,0,0,0,48.67-48.66,51,51,0,0,0-51-51,53.34,53.34,0,0,0-53.29,53.29,55.67,55.67,0,0,0,55.6,55.61,58,58,0,0,0,57.92-57.92A60.3,60.3,0,0,0,196.53,134,62.62,62.62,0,0,0,134,196.53a64.94,64.94,0,0,0,64.86,64.86A67.25,67.25,0,0,0,266,194.22a69.56,69.56,0,0,0-69.49-69.49,71.88,71.88,0,0,0-71.8,71.8,74.19,74.19,0,0,0,74.11,74.11,76.51,76.51,0,0,0,76.43-76.42,78.83,78.83,0,0,0-78.74-78.74,81.14,81.14,0,0,0-81,81.05,83.46,83.46,0,0,0,83.36,83.37,85.78,85.78,0,0,0,85.68-85.68,88.09,88.09,0,0,0-88-88,90.4,90.4,0,0,0-90.3,90.3,92.72,92.72,0,0,0,92.61,92.62,95,95,0,0,0,94.93-94.93A97.36,97.36,0,0,0,196.53,97,99.67,99.67,0,0,0,97,196.53,102,102,0,0,0,198.84,298.4,104.31,104.31,0,0,0,303,194.22a106.62,106.62,0,0,0-106.5-106.5A108.93,108.93,0,0,0,87.72,196.53,111.25,111.25,0,0,0,198.84,307.65,113.56,113.56,0,0,0,312.28,194.22,115.87,115.87,0,0,0,196.53,78.47,118.19,118.19,0,0,0,78.47,196.53,120.51,120.51,0,0,0,198.84,316.91,122.83,122.83,0,0,0,321.53,194.22a125.14,125.14,0,0,0-125-125A127.47,127.47,0,0,0,69.21,196.53c0,71.48,58.16,129.63,129.63,129.63,72.76,0,132-59.19,132-131.94,0-74-60.23-134.26-134.26-134.26C121.23,60,60,121.23,60,196.53c0,76.58,62.3,138.88,138.88,138.88,77.86,0,141.2-63.34,141.2-141.19,0-79.13-64.38-143.51-143.51-143.51-80.41,0-145.82,65.41-145.82,145.82,0,81.68,66.45,148.14,148.13,148.14,83,0,150.45-67.5,150.45-150.45,0-84.24-68.53-152.76-152.76-152.76C111,41.46,41.46,111,41.46,196.53c0,86.78,70.6,157.39,157.38,157.39,88.06,0,159.7-71.64,159.7-159.7,0-89.34-72.67-162-162-162C105.92,32.2,32.2,105.92,32.2,196.53c0,91.89,74.76,166.64,166.64,166.64,93.16,0,169-75.79,169-169C367.8,99.78,291,23,196.53,23,100.82,23,23,100.82,23,196.53c0,97,78.91,175.89,175.89,175.89,98.27,0,178.21-79.94,178.21-178.2,0-99.54-81-180.52-180.52-180.52C95.72,13.7,13.7,95.72,13.7,196.53c0,102.09,83.05,185.15,185.14,185.15,103.37,0,187.46-84.1,187.46-187.46C386.3,89.58,301.17,4.44,196.53,4.44,90.61,4.44,4.44,90.61,4.44,196.53c0,107.19,87.21,194.4,194.4,194.4,108.47,0,196.72-88.25,196.72-196.71a2.22,2.22,0,1,1,4.44,0A200.89,200.89,0,0,1,198.84,395.37Z" style="fill:#fff"/></svg>