<svg xmlns="http://www.w3.org/2000/svg" width="256.97" height="202.02" viewBox="0 0 256.97 202.02"><path d="M81.45,44.14c1.16-.66,1-2.18.94-3.16s0-.6,0-.6a11.24,11.24,0,0,0,4.37,1.19c2.67.21,2-.9,2-.9l-.88-2.8a14.59,14.59,0,0,0,6.05,2.73c4.06.95,4,1.17,4.13.65s-.72-1.65-.72-1.65.63.87,4.78,1.82,5.11.15,5.12-1.31,0-2.79,0-2.79a6.73,6.73,0,0,0,4.33,5.39A45.58,45.58,0,0,1,119,46.78l.68-2.18s2.58,2.33,5.67,5.16a83.47,83.47,0,0,0,7.56,5.94s5.43,1.22,8.69,0a13.27,13.27,0,0,0,5.48-4.32s-.55,3.32,1.11,3.28S153.9,52,153.9,52l1.76,1s.6.37,1.64-.71a2.69,2.69,0,0,0,.57-2.55,2.36,2.36,0,0,1,1.69,1.54c.41,1.28.17,1.52.17,1.52s2.44-.89,2.62-1.5.78,1.28,1.15,1.29,6.07.42,7.59-.6a7,7,0,0,0,1.66-1.27s-.83,2.16-.88,2.55,2.49.45,4.37.28a11.54,11.54,0,0,0,4-1.42l0,2.31s2.17,1.48,3.93,1.31,4.22-2.57,4.22-2.57-.57,2.18-.27,2.79,1.18.91,2.48,1.24,7.12-8.33,7.12-8.33l-.45,2.73,2.58-3.74s.66,3.23.34,2.92,8.32-6.92,8.83-9.11,1.66-2.17,1-4.3-.65-2.2-.65-2.2,3.21,2.89,3.79,2.27-14.83,29.38-14.83,29.38-50.21,5-55.94,4S72.34,53.3,81.45,44.14Z" style="fill:#231f20;fill-rule:evenodd"/><path d="M2.45,147c-.05.76-.8,11.43,2.25,21s8.46,13,8.85,13.06,1.47-5,2.83-8.84,6.8-16.39,7.6-18.05S17.41,141.54,2.45,147Z" style="fill:#231f20;fill-rule:evenodd"/><path d="M25.54,151.67s-7.44,15.57-8.29,18.22c-.44,1.37.18,4.64,1.63,8.82,2.33,6.72,9.2,16.71,15.47,20.77s12.11,2.22,11.83,1.34c-2.14-6.64.23-17.53,2.09-21.94A94.61,94.61,0,0,0,53.49,162S51.06,148.91,25.54,151.67Z" style="fill:#231f20;fill-rule:evenodd"/><path d="M57.35,159.26s-3.07,7.87-.94,15.61,9,18.29,13.93,20.47a7.73,7.73,0,0,0,8.39-1.21s1.41-4.42,5.17-13.6a65.17,65.17,0,0,1,8.88-15.36S81.71,151.7,57.35,159.26Z" style="fill:#231f20;fill-rule:evenodd"/><path d="M95.33,162.66s3.75,19.17,7.69,22.87a83,83,0,0,0,10.8,8.16c.79.44,4.51-2.65,7.66-6.66s3.89-7.39,4.38-11.54a112.32,112.32,0,0,0,.27-12S120.07,153.5,95.33,162.66Z" style="fill:#231f20;fill-rule:evenodd"/><path d="M130,159.06s-3.41,6.48,2.74,18.15,15,14.82,15,14.82a28.11,28.11,0,0,0,10.74-10.19c4.14-7,3.38-23.23,3.38-23.23S148.64,145.18,130,159.06Z" style="fill:#231f20;fill-rule:evenodd"/><path d="M165.24,155.92s4.91,3.05,5.42,12.87-1.48,14.5,3.08,15.52,12.59-3.77,18.73-11.78,5.81-24.27,5.81-24.27S189.29,139.83,165.24,155.92Z" style="fill:#231f20;fill-rule:evenodd"/><path d="M201.12,146.05s6.21,1.55,7,7.92-4.74,12.5-1.4,14.42,18-3.4,20.46-8.95-.66-15.28-.66-15.28S214.79,133.74,201.12,146.05Z" style="fill:#231f20;fill-rule:evenodd"/><path d="M225.83,143.09c-.23.33,1.79,2.57,2.14,7.74s-1.31,20.19-2.86,25.24-.07,7.19,8.11,4.73,14.48-15.31,16.13-22.08.59-15,.59-15S242.94,132.06,225.83,143.09Z" style="fill:#231f20;fill-rule:evenodd"/><path d="M36.3,63.78,9.85,120.31s-.18,1.88,4.82,4.53,8.53,2.92,12.5,5.06a73.61,73.61,0,0,1,8,5.2l1.62-2.7s8.22,5.66,11.62,6.88a68.44,68.44,0,0,0,12.2,3.27c3.44.43,5-.4,5-.4l-2-3.06s10.5,5.91,14.17,6.26,7-.23,6.13-1.22,3.56-.66,6.19.81,3.93,3.47,5.43,3.81,13.79-.29,17.86,0,12.86,2.08,12.86,2.08,16.79-2,21.3-2.57,7.52,1.16,15.71-1.45,11.21-5.52,12.14-5.55,3.32,1.29,9-.77a22.23,22.23,0,0,0,8.56-5.28s6.27.74,8.43.2,12.45-5.72,18.38-5.91,7.77-.88,16.72-3.83a72,72,0,0,1,18.61-3.12,126.72,126.72,0,0,0-7.34-17.08c-4.66-8.89-4.39-5.56-5.55-7.79s-1.95-2.2-1.92-1.35-2.49-6.86-2.49-6.86S233.62,78.24,234.34,79a24.42,24.42,0,0,1,1.71,2.13l-2.76-8.19s-3.83-9.64-3.85-10.26a26.1,26.1,0,0,1-1.67-13.25c1.07-7.68,1.52-10.42,2.72-14.45a51.2,51.2,0,0,0,1.6-8.57s-2.31,2.05-2.33,1.35,1.16-8.08,1.14-11,0-2.89,0-2.89-2.7,8.29-3.6,9.49-.76-4.35-.76-4.35l-7.9,11.43s-2.48,2.28-7,6.92c-2.15,2.19-4.73,5.44-7.76,8.24C194.37,54.3,195.9,55.39,192,55.9s-14.91-6-29.35-4.74c-5.39.47-10.48,0-14.75.56a35.75,35.75,0,0,0-16.2,6.66s.06-3.48-9.67-10-32.2-10.63-37.93-9.19-11.73,3.66-11.73,3.66-2.75,1.81-8.7-8.15A136.4,136.4,0,0,1,54.5,16.38l-1.08,5s-7.67-5.53-9.88-11.24-1.83-8.06-1.83-8.06S38.3,14.57,38.2,16.37s.34,8,.34,8-1.7-1.67-1.74-3.07-1.4,7.46-2.4,15S35.65,60.19,36.3,63.78Z" style="fill:#455160;fill-rule:evenodd"/><path d="M11.61,113.23,9,118.78s-.18,1.88,4.83,4.53,8.52,2.92,12.49,5.05a74.59,74.59,0,0,1,8.05,5.21L36,130.86s8.22,5.67,11.62,6.88A69.33,69.33,0,0,0,59.83,141c3.44.43,5-.4,5-.4l5,.32A17,17,0,0,0,77,143.81c3.68.35,10.92,2.23,10,1.24s1.43-1.44,4,0,2.17,1.78,3.67,2.13,13.79-.3,17.86,0,12.86,2.08,12.86,2.08,16.79-2,21.3-2.58,7.52,1.16,15.71-1.45,11.21-5.52,12.14-5.55,3.32,1.3,9-.76a53.35,53.35,0,0,1,10.29-2.64,68.43,68.43,0,0,1,6.7-2.45c2.17-.54,14.4-4.48,20.32-4.67s5.83-2.12,14.78-5.07,20.71-1.45,20.71-1.45-3.18-6.53-6.87-13.76c-1.13,2.14-2.78,5.09-3.61,5.82-1.35,1.18-2.29-.86-2.29-.86s-.13,1-2.07,3.74-8.47,5.66-13.11,6.91-4.76-.16-4.33-1.11-1.48-2.37-2.42-.16-7.44,3.92-8.52,4.26-3-4.82-3-4.82-2.82,6.58-8.32,7.77-8.3,1.52-7.87.49-.51-3.81-.51-3.81a34.13,34.13,0,0,0-1.85,3.19c-1.17,2.22-9.86,6.22-9.65,5.31s-.1-2.77-.25-2.57a21.79,21.79,0,0,1-3.23,3.58c-1.45,1.14-7.14,2.46-6.89,1.67s-.12-1.16-1.07-.39-7.4,3.79-10.14,3.49-2.59-.38-3.12.11-6.11,1.68-7.14.93-1.77.84-5.87,2a27.93,27.93,0,0,1-11,.28c-2-.32-2.75,1.65-4,1.85s-4.62-3-5.48-3-.81,1.35-3.56.66-6.2-.88-11.38-1.45-20.27-7.12-19.92-6,.27,3.43-7-.24-12.27-7.88-12.54-6.77,1.8,2.75,3.43,4.73,3.23,3.33-4.63,1.71a41.79,41.79,0,0,1-13-4.89s3.91,5-2.09,2.88-18.16-11.27-18.16-11.27l3,6.77s-4.38-2.82-8.93-5.95-6.76-6.27-6.32-4.87a27.91,27.91,0,0,0,1.39,4.4c.58,1-8.11-7.15-10-9.67Z" style="fill:#231f20;fill-rule:evenodd"/><path d="M36,61.66,9.54,118.19s-.17,1.88,4.83,4.53l.27.14A23.59,23.59,0,0,1,12.83,118a9.16,9.16,0,0,1-.22-1.28s3.91.34,4.7.47-.68-6.23-.68-6.23l3,1.62.32-4.69s-2.38,3.67,2-6.63a108.32,108.32,0,0,1,7.91-15.72L32,90.59,33.4,74.93l2.76,3.19a18.79,18.79,0,0,0,0-4c-.16-2.66,1-5.15,3.9-9.55C44.35,58,44.39,58,44.39,58L39,60.06s-1.75-5.76-2.33-7.93L36,49.65l1.14,1.53S35.6,42.13,35.7,38a33.35,33.35,0,0,1,.62-6.31L37,34.12l.76-7.91,1.87,1.34s-.5-11.86-.06-15A31.59,31.59,0,0,1,41,6.69s3.22,6.5,4.08,7.76.86,1.3.86,1.3l.52-.8s5.69,8.4,6.25,8.62,1.77.57,1.8.37.17-3.32.17-3.32S58.62,30.21,61,34s9.3,9.85,10.62,9.65a38.1,38.1,0,0,0,4.71-1.48,38,38,0,0,0-2.07,3.66c-.14.55,1.36-1.38,4.39-1.94a9.9,9.9,0,0,0,4.29-1.64L82.82,45a12.26,12.26,0,0,1,5.61-3.25c3-.57,11.15.59,10.89,2.24a9.86,9.86,0,0,1-2.06,3.74s6.08-2.54,6.54-2.87-1.65,4.43-1.65,4.43,7.19-4.22,8.69-3.88,4.89,1.79,5.72,3.09.82-1.12.82-1.12,3.44,2.62,3.72,4,1.34-2,1.34-2,4.08,4.24,4.94,6.79,2.88,4.75,2.83,5.42a1.75,1.75,0,0,0,.35,1.16l1.48.1a27.86,27.86,0,0,0,1.79-2.59c.77-1.32,4.36-4,5.76-4.1s.83,1.62.83,1.62,0,.54.94,0a42.35,42.35,0,0,1,4.44-2.65,33.64,33.64,0,0,1,5.74-.81L150,56.74l8.68-2.94s5.33-.48,7.82-.56a13.64,13.64,0,0,1,4.23.48s-2.29,1.56-1.9,1.55a26.14,26.14,0,0,1,8.79-.68c5.25.45,12.54,1.54,12.59,3A4.86,4.86,0,0,1,189,60.47s4.41-1,5-1a19.6,19.6,0,0,1,2.27.24l-3-1.93s4.43-5.34,6.32-7.2,2.76-3.72,2.78-3.25a5.36,5.36,0,0,0,.31,1.28s3.63-4.69,4.67-6.33,1,3,1.07,3.18,3.52-3.6,3.52-3.6l.49.72S222.13,28.91,222.53,28s1.72-5.82,1.72-5.82l1.94,2.2,2.25-2.85s-.52,9.19-.48,10.21,1.57-1.85,1.57-1.85-1.39,5.2-1.78,7.32.05,1.72.05,1.72l1.12-1.44s-2.53,8.51-2.37,10.93-2,13-1.77,15,.41,3,.41,3l1.37-.91s2.21,7.82.07,6.64-4.38-2.67-3.57-1.83S230.37,77,230.37,77l.64-1.9,2.16,4s4.68,9.28,5.58,11.82c-.6-1.76-1.17-3.52-1.17-3.52S233.31,76.12,234,76.88A24.42,24.42,0,0,1,235.74,79L233,70.82s-3.83-9.64-3.85-10.26A54.26,54.26,0,0,1,229.39,47c1.08-7.69,2.2-16.39,3.39-20.42s1.19-4.1,1.19-4.1-3.15,3.7-3.18,3-.18-8-.2-10.93,0-2.89,0-2.89S227.88,20,227,21.19s-.77-4.35-.77-4.35l-5.56,10.62c-5.43,6.91-12.62,11.81-17.13,16-9.47,8.75-9.16,11-13,11.52S174.3,49.08,157,50.58s-25.59,3.89-25.59,3.89-2-1.58-11.76-8.14S89.53,35.6,83.81,37,72.07,40.7,72.07,40.7s-2.75,1.81-8.69-8.15A135,135,0,0,1,54.2,14.26l-1.09,5s-7.67-5.53-9.88-11.24S41.4,0,41.4,0,38,12.45,37.89,14.25s.34,8,.34,8-1.69-1.67-1.74-3.07-1.39,7.46-2.4,15S35.34,58.07,36,61.66ZM247.35,121.8a65,65,0,0,1,9.62.33s-4.79-9.85-9.44-18.74-4.39-5.56-5.55-7.79-1.86-2.2-1.92-1.47c2.49,5.87,7.48,17.27,8.06,19.86C248.46,115.51,247.29,118.51,247.35,121.8Z" style="fill:#231f20;fill-rule:evenodd"/><path d="M74.11,81.58a9.78,9.78,0,0,0,1.44,1.85,23.28,23.28,0,0,1-.8-3.63c-.22-2.1.07-1.56.2-1.29a63.12,63.12,0,0,0,2.2,6.34c3,2.35,7.19,4.14,10.22,3.87,4.36-.37,6.27-3.87,5.35-8.21s-5.21-4.9-8.66-5.57a13.33,13.33,0,0,1-4.82-2.13,4.58,4.58,0,0,0-1.13,1c0,.15-1.22-.84-1.5-1.94-.34-.33-.11-4.29-2.46-1.91A18.93,18.93,0,0,0,74,72.57c0,.62-.44,0-.86-.86A12.23,12.23,0,0,0,74.11,81.58Z" style="fill:#231f20;fill-rule:evenodd"/><path d="M170.05,83.75a7.14,7.14,0,0,1,1.54-8.88c1.67-1.23,9.55-2.24,13.26-3.78,1.49-.63-.76,3.1-.25,2.78.66-.41,3.41-4.06,3.75-4.39a2.77,2.77,0,0,0,.76-1.66c3.91,3.71,2.56,10.45-1.38,14.36C185.61,84.28,177.23,88.52,170.05,83.75Z" style="fill:#231f20;fill-rule:evenodd"/><path d="M118.44,145.89c-3.78.51-10.87.22-16.77-12.18s-.33-22.15,4.86-27.56,18.3-14.59,25-14c9.49.81,31.87,13.2,34.76,23,1.62,5.45,3.36,10.64-2.13,19.08s-10.95,9.41-10.95,9.41,1.4-1,1.53-5.3-6.45-8.06-8.27-5.7-3.64,8.89-5.48,10.72c-3.75,3.73-10.4,2.36-13.41-1.29-1.91-2.31-3-5.3-4.85-6.94-2.83-2.53-6.84-5-9.46-.87s.48,8.51,1,8.95S118.44,145.89,118.44,145.89Z" style="fill:#231f20;fill-rule:evenodd"/><path d="M49.67,53.7a45.75,45.75,0,0,1-1.26-6.47s-.63,1.46-.74.62a87.2,87.2,0,0,1,1.17-10.73,52,52,0,0,1,1.55-5.46,26.53,26.53,0,0,0,2.18,6c1.15,1.78,0-2.32,0-2.32a24.68,24.68,0,0,0,2.38,4.36c1,1.19,1.24,1.61,1.14,1.14A12.45,12.45,0,0,1,56,39a13.18,13.18,0,0,0,1.9,4A11.54,11.54,0,0,0,60,45.29l2.28,2.16A16.63,16.63,0,0,0,58.41,50,3.61,3.61,0,0,1,55.8,51.3l-2.56.39-.66,1.91S50,54.92,49.31,55.36,49.67,53.7,49.67,53.7Z" style="fill:#231f20;fill-rule:evenodd"/><path d="M198.84,64c.43-1.27,4.87-8.44,4.87-8.44s.69,2,1.47,2,3.27-5.1,5.18-8.6.85,2,.85,2l2-4.75A106.79,106.79,0,0,1,215,58.44c.71,7.47-2.62,15.39-2.62,15.39Z" style="fill:#231f20;fill-rule:evenodd"/><path d="M70,60.55c1.68,1.27,6.65,5.25,6.31,4.48s-1.63-2.13-1.24-2,9.23,5.24,9.23,5.24l-1.08-1.76,7,3.29S83.18,63.17,70,60.55Z" style="fill:#231f20;fill-rule:evenodd"/><path d="M76.71,68.73a22.6,22.6,0,0,1,2.1,1c1.25.65,4.55,3,4.58,2.9s-.36-.89-.18-.87a8.16,8.16,0,0,1,2.87,1.76c.65.84.64.76.64.76s-.47-.9-.89-1.63S79.4,68.54,76.71,68.73Z" style="fill:#231f20;fill-rule:evenodd"/><path d="M164.93,119.45c.16.85.32,2-.15,5.38a35.29,35.29,0,0,1-2.37,7.69s1.49-6.54.85-5.87a14.9,14.9,0,0,0-1.55,2.67s2.77-7.43,1.94-10.88a26.15,26.15,0,0,0-2.7-6.53A15.91,15.91,0,0,1,164.93,119.45Z" style="fill:#2d323c;fill-rule:evenodd"/><path d="M110.36,137.45c-2.32-3-3.4-7.83-3.64-7.23s-1,1.48-1.1.5-.57-9.56-.92-10.33-1.2,1.61-1.34,1.29a17.31,17.31,0,0,1,1.09-5c.77-2.45,1.13-3.31,1.13-3.31s-3.31,5-3.68,7.53a9.26,9.26,0,0,0,.27,4.25l-1.43-1.59s1.93,5,2.62,6.14-.22,1.25-.22,1.25S109.58,137.41,110.36,137.45Z" style="fill:#2d323c;fill-rule:evenodd"/><path d="M133.1,95.47c-6.31,3.14-11.62,7.79-10.76,6.56a8.79,8.79,0,0,0,1.13-2s-9.68,9.23-10,9.43,3.71-5.18,3.71-5.18-4.21,4-5.2,4.76S111.83,101.78,133.1,95.47Z" style="fill:#2d323c;fill-rule:evenodd"/><path d="M15.37,119.82s-6-.66-8.12,4.48a13.81,13.81,0,0,0,.33,10.22s-4.66-1.88-5.84,2.62S-1,145.19.81,147s4.59-.47,9.21-.07,9.9,2.25,11.63,5.09,1.66,3.14,3.53,3.08.23-2.58,5.05-3.05,19.58,4.67,20.74,6.66,2,3.84,3.45,3.17,6.09-4.65,15.24-4.09,18.89,2.66,21,4.78,1.44,3.23,4,2.52.54-4.86,8.39-5.74,15.89-.91,18.83.79,2.33,4.38,4.94,3.12,3.11-2.75,3.11-2.75.33-1.81,5.49-3.93,15-2.6,18.41-2.17,5.75,4.11,8.1,4.19,3.16-1.2,4.13-2.32,10.17-6.43,14.25-8,10.82-3.32,14.37-1.87,3.83,2.29,4.44,1.88.87-1.9,4.54-4.05,8.68-4.34,13.69-3.81,7.69,3.89,9.24,3.69,2-2.34,2-2.34a38.32,38.32,0,0,1,7.49-2.35c2.95-.41,7.22-.78,9.94,1.16s3.07,3.26,4.16,3.07,4.81-3.13,4.82-5.32-2.36-5.31-2.36-5.31,3.38-9.11,2.86-10.45-14.9-5.62-14.74-4c0,.34-5.35-1.67-16,2.47C186.36,136,93.68,167,15.37,119.82Z" style="fill:#d6265c;fill-rule:evenodd"/><path d="M6.46,130.08a14.46,14.46,0,0,0,1.12,4.44s-4.66-1.88-5.84,2.62S-1,145.19.81,147s4.59-.47,9.21-.07,9.9,2.25,11.63,5.09,1.66,3.14,3.53,3.08.23-2.58,5.05-3.05,19.58,4.67,20.74,6.66,2,3.84,3.45,3.17,6.09-4.65,15.24-4.09,18.16,3.35,20.26,5.47,2.16,2.54,4.71,1.83S97,161.89,104.81,161s13.75-2,16.69-.34,2.68,3.86,5.29,2.6,3.11-2.75,3.11-2.75.33-1.81,5.49-3.93,15-2.6,18.41-2.17,5.75,4.11,8.1,4.19,3.16-1.2,4.13-2.32,10.17-6.43,14.25-8,10.82-3.32,14.37-1.87,3.83,2.29,4.44,1.88.87-1.9,4.54-4.05,8.68-4.34,13.69-3.81,7.69,3.89,9.24,3.69,2-2.34,2-2.34a38.32,38.32,0,0,1,7.49-2.35c2.95-.41,7.22-.78,9.94,1.16s3.07,3.26,4.16,3.07a7.17,7.17,0,0,0,2.55-1.67c-4.7-2.91-8.74-4.74-9.78-4.81-3.05-.22-7.58-.23-10,1.18a21.89,21.89,0,0,1-5.5,2.06l-2,.76a18.4,18.4,0,0,0-5.62-2.47c-2.59-.46-9.28.15-16.06,2.71s-5.67,4.7-5.67,4.7a31.56,31.56,0,0,0-6.1-1.89c-2.35-.31-9.94,1.42-14.26,3a64.68,64.68,0,0,0-12.48,7.13c-1.06,1-3.38,2-4.48,1.24s-4.57-3.76-6.39-4.32-10.16.33-12.39.17a20.4,20.4,0,0,0-9.63,2.7c-2.56,1.64-4.86,5.11-5.89,5.81s-3.73-3-4.14-3.65-1.11-.51-2.52-.7-1.16.27-2.12-.4-4.62-.71-10.78-.35-13.09,6-14.56,5.48-6.39-4.64-8.77-5.73-5.58-1.3-11.42-.88-11.1.52-13.51,1.85-3.17,2-4.21,1.39-3.09-3.85-5.59-5.33-8.37-2.93-13-3.17-4.17,1.16-5,1.5a7.37,7.37,0,0,1-4.24-.84c-.41-.46-1.7.6-3.11.41s-2.66-2.72-5.69-4.65-4.65-1.57-8.24-1.45-5.95,1.68-6.47.13.89-6.2,1.09-7.18,1.1-1,3-.41,4.34-.81,4.34-.81A29.83,29.83,0,0,0,6.46,130.08Z" style="fill:#231f20;fill-rule:evenodd"/><path d="M15.37,119.82s-6-.66-8.12,4.48a13.81,13.81,0,0,0,.33,10.22,6.1,6.1,0,0,0-1.26-.32,12.31,12.31,0,0,1,2.29.72c.91.77.39,1,1.24,1a3.09,3.09,0,0,0,1.69-.71l-2.3-2.38a15.21,15.21,0,0,1,.3-6.3,9.69,9.69,0,0,1,3.93-5.13c.45-.18,2.53-.16,2.76.93s.23,2.3,1.6,2.25,2.34-1.21,3-.14-.09,1.61.9,2S23,125.7,24,126.1s2.52.65,2.78,1.66.52,1.39,1.46,1.48,1.26-.67,2.11.09S30.83,131,31,132s1.36-.12,2.68-.28,2,.2,1.75,1.07-1,1.52-.09,1.8,1.35-.24,1.92-.88,3.75.23,6.71,1.18,4.14,1.35,4.51,2,.61.8.61.8a3.58,3.58,0,0,1,2.46.08c1.66.49,4.06.23,4.78,2.55s4.25,2.74,6.42,2.36,3.38-1.44,4.57-1.09,1.91,1.19,3.33,1.61,1.65-.86,3-.37,5.82,1.41,8.49,2,2.25-.23,3.82,0A11.57,11.57,0,0,1,90,146.36c1.19.58,2.6.69,3.43,2.23s2,2.6,3.53.66,4-2.63,6.15-2.85,6.83.54,9.54.86,2.71-.72,4.59-.39,2.85,1.16,4.16.8a4.5,4.5,0,0,1,4.11,1.67c1.06,1.21,3,.37,3.95-1s4-3.21,6-2.75a25.67,25.67,0,0,0,6.27.55c1.94-.06,3.3-1.44,5.49-1.27s3.08,1,4.33,1,.95-1.91,2.9-2a10.61,10.61,0,0,1,5.35,1.39c1.74.88,2.92,1.23,4.52,0s1.07-2.07,2.39-3.2,11.71-2.53,14.4-2.36,4.25.19,5.08-.7,3.8-1,3.8-1a6,6,0,0,1,2.95-2.5c1.72-.45,5.24.2,7.74.2s2.91-1.5,5.23-2.2,11-5.13,14.6-4.46,3.38-2.27,4.39-2.23,1.7-2.21,2.73-4.28,6.2,1.87,9.54,1.14,3.65-3.26,7.87-.83a6.33,6.33,0,0,1,3.41,6.46s3.93,1,3.41,1.76,1.27,1.87,1.27,1.87,2.95-9.07,2.43-10.4c-.38-1-6-4-8.47-5.14-27.07-12.94-62.59,21-123.16,26.13-32.84,2.78-80-6.81-108.51-23.79Zm230,20.4h0c.3-2.62,4-2.12,5.88-4.45,1.58-2,1.48-2.54,1.41-2.67.25.33,2.34,3.22,2.34,5.28s-3.74,5.12-4.82,5.32-1.44-1.13-4.16-3.07A7.14,7.14,0,0,0,245.38,140.22Z" style="fill:#231f20;fill-rule:evenodd"/><path d="M9.66,136c2.64-.24,10.46,1.36,12.72,3.86s2.24.3,1.81-.78-5.78-3.72-10.1-4.55S9.08,135.14,9.66,136Z" style="fill:#231f20;fill-rule:evenodd"/><path d="M27.51,142.87c.72,1.72.48,5.59.49,6s1.18-.84,2.4-1.76,2.89-1.75,3.19-2.13.2-.48-1.13-.61a6.31,6.31,0,0,1-3-1.11C28.92,142.87,27.48,142.46,27.51,142.87Z" style="fill:#231f20;fill-rule:evenodd"/><path d="M34.09,136.37s-3.36,3.59-3.27,4.42,1.9,1,2.53-.12a15.83,15.83,0,0,0,1.28-4.38C34.6,135.92,34.54,136,34.09,136.37Z" style="fill:#231f20;fill-rule:evenodd"/><path d="M36.33,145c2.61-.44,10.53.58,13,2.9s2.25.14,1.75-.91-6-3.27-10.41-3.79S35.69,144.2,36.33,145Z" style="fill:#231f20;fill-rule:evenodd"/><path d="M54.65,150.54c.84,1.65.89,5.54.93,6s1.12-.92,2.27-1.93,2.74-2,3-2.37.17-.48-1.17-.52a6.27,6.27,0,0,1-3-.89C56.05,150.43,54.58,150.13,54.65,150.54Z" style="fill:#231f20;fill-rule:evenodd"/><path d="M60.72,143.56s-3.08,3.83-2.93,4.66,2,.83,2.51-.31a16.16,16.16,0,0,0,1-4.46C61.2,143.08,61.14,143.11,60.72,143.56Z" style="fill:#231f20;fill-rule:evenodd"/><path d="M63.92,149.32c-.05.94,1.49.34,5.46.05s14.43-.2,15.83.73,4.53,5.21,5.1,4.72a2.08,2.08,0,0,0,.62-1.31s-1.07-2.89-6-4.37-14.27-1.06-15.71-1S64.16,148.37,63.92,149.32Z" style="fill:#231f20;fill-rule:evenodd"/><path d="M91.89,156.56c.65.72,1.23,5.47,1.72,4.87s.83-3.19,1.26-4.3-1.15-.91-2-.56S91.89,156.56,91.89,156.56Z" style="fill:#231f20;fill-rule:evenodd"/><path d="M97.57,154.85c-.28-1.31,11.64-6.78,17.92-5.34s8.1,4.34,7.72,4.51-6.15-4.33-9.18-3.84-10.16,1.66-11.77,2.65S98.08,156.09,97.57,154.85Z" style="fill:#231f20;fill-rule:evenodd"/><path d="M125.19,156.1s1.08,4.49,1.3,3.94,1.17-3.47,1-3.9S125.19,156.1,125.19,156.1Z" style="fill:#231f20;fill-rule:evenodd"/><path d="M129.67,153.65a19.22,19.22,0,0,1,11.47-4.59c7.09-.39,14.92.37,16.61,1.95s3.57,1.92,3.07.76-11.8-6.72-19.9-4.27-10.56,3.39-10.92,4.11A5.28,5.28,0,0,0,129.67,153.65Z" style="fill:#231f20;fill-rule:evenodd"/><path d="M165.77,150.59c.66,1,4.77-4.53,12.66-6.42s12.82-1.52,14.09-1.09.83-.73-.05-1.56-10.39-.36-15.63,1.53-9.46,4.29-10.06,5.09S163.63,149.42,165.77,150.59Z" style="fill:#231f20;fill-rule:evenodd"/><path d="M192.73,137.53c1.58.73,3.33,4.26,3.53,3.16s1.52-3.64,1.2-4S195.33,136,192.73,137.53Z" style="fill:#231f20;fill-rule:evenodd"/><path d="M200.05,141.9s7.21-6.09,13.43-6.61,10.43,4,10.54,2.7a3.48,3.48,0,0,0-2.93-4c-2.68-.61-8.76-.57-12.45,1s-8.27,4.8-8.72,5.51A1.13,1.13,0,0,0,200.05,141.9Z" style="fill:#231f20;fill-rule:evenodd"/><path d="M196.64,142.71c.17.47,1.48,4.72,1.66,3.07s.35-3.52.35-3.52S199.92,140.57,196.64,142.71Z" style="fill:#231f20;fill-rule:evenodd"/><path d="M226.23,136.2c.17.54.71,5.05.71,5.05s1.85-3,2.6-4-.93.19-1.27-.74S226,135,226.23,136.2Z" style="fill:#231f20;fill-rule:evenodd"/><path d="M232.42,134.67c2.5-2.19,6.52-3.18,10.52-2.61s6.88,2.9,7.16,1.8-1-1.84-3.12-2.4-7.91-1.07-10.31-.29S231.05,133.46,232.42,134.67Z" style="fill:#231f20;fill-rule:evenodd"/><path d="M222.07,85.34c6-3.41,4.29-7.2,5.48-10.86.19-.58,4.31-.08,3.33,1S228.73,84,225.36,85.7s-4,1.54-4,1.54l-6.24-.66Z" style="fill:#231f20;fill-rule:evenodd"/><path d="M102.46,89.64c3-3.23,8.26-5,10.59-5.35a22.82,22.82,0,0,1,4.67-.23,4.91,4.91,0,0,0-4-.88,17.49,17.49,0,0,0-3.64.82,15.14,15.14,0,0,1,6.55-2.32l3.43-.19s-1.36-1-7.11-.16S100.07,88.15,102.46,89.64Z" style="fill:#231f20;fill-rule:evenodd"/><path d="M147.85,84.56c7.69,1.15,12.65,5.13,13.23,6s.38-.09-1.71-2a21.62,21.62,0,0,0-2.49-2.18l3.4,1.29s-.72-2.79-6.93-4.22-8.54-1.21-8.54-1.21,4.4,1,6.13,1.52S145.16,83.24,147.85,84.56Z" style="fill:#231f20;fill-rule:evenodd"/><path d="M169.65,73.77c.81-1.43,4-2.71,6.69-3s2.71-.4,2.71-.4.07-.47-2-.56S167.81,72.42,169.65,73.77Z" style="fill:#231f20;fill-rule:evenodd"/><path d="M171.53,69.34c1.67-1.31,4.86-1.8,6.89-1.64s-.27-.92-.65-.91,5.77.12,5.77.12-3-1.77-4.58-1.65S165.81,68.74,171.53,69.34Z" style="fill:#231f20;fill-rule:evenodd"/><path d="M47.11,76.45c.59,3.73,8,15.36,7.63,13.81s-1.12-5.59-1.12-5.59S55.32,89,61,96.61s2.61-1.17,2.61-1.17,10,13.57,10.78,14.8a17.09,17.09,0,0,0,3.53,3l-3.6-1.91L65,103.67l.88,3.1L52.48,91.94l.89,4.14S46.08,92.73,47.11,76.45Z" style="fill:#231f20;fill-rule:evenodd"/><path d="M185.63,104.46A16.51,16.51,0,0,0,191,96.79l1.48,2.29a19.84,19.84,0,0,0,5.37-7.36c1.73-4.43,1.87-4.74,1.87-4.74l2.42,2.42s4.05-5,4.91-7.35,1-1.91,1-1.91-3.36,11.67-4.85,13.75a12.24,12.24,0,0,0-1.49,2.24L206.48,93S195.24,107.43,185.63,104.46Z" style="fill:#231f20;fill-rule:evenodd"/><path d="M46,56.57c1.91-1.15,1.26-2.07,4.41-3.5s3.15-1.59,3.15-1.59l-.73-.6s1.14-1.13,2-1a3.39,3.39,0,0,1,1.1.28s.18-1.81.24-2.28,2.3,1.26,2.3,1.26L59.75,48s-.49-.69-1.06-1.53,3.54,1,3.54,1L67.4,45.8A27.13,27.13,0,0,1,63,48.52a1.6,1.6,0,0,0-1.24,1.56,2.07,2.07,0,0,0-1.26-.46,3.8,3.8,0,0,0-1.43.59L60.27,52s-.47-1.35-2.76-1A10.21,10.21,0,0,0,53,53.34l-1.53.71,1.45,1.4s.33-.6-1.74-.49A17.57,17.57,0,0,0,46,56.57Z" style="fill:#231f20;fill-rule:evenodd"/><path d="M194,62.75c.54,0,3.25.63,3,.37s-2.2-1.77-2.2-1.77l3.85,2.22L198,62.46s3.93,3,4.92,3.74,1.84,1.23,1.84,1.23l1.54-.52,0,1.21s0,1.64,2.43,1.41,3.8,1.9,4.2,2.12,2.17,1.81,2.17,1.81l.43-1.11s2.84,3.27,3.65,4.33,1.87,2.21,1.46,1.75-4-3.15-4.48-3.52a28.9,28.9,0,0,1-3.66-2.23c-1.21-1.05-1.86-1.81-3.41-1.53s-2.79.41-2.79.41l-.87-2.71-1.56.05a11.68,11.68,0,0,1-3.27-2.23c-2.33-2-2.88-2.09-2.88-2.09Z" style="fill:#231f20;fill-rule:evenodd"/><path d="M78.8,91.35a17.77,17.77,0,0,0,6.78-.15l-1.2,1.37s1.05,1.06,4.73-.7S93.54,89,93.54,89s-2.38,3.44-3.77,4,3.45.44,4.64-1.24,2.13-6.63,2.22-6.25,2,6-2.31,8.28S77.69,95.45,78.8,91.35Z" style="fill:#231f20;fill-rule:evenodd"/><path d="M167.84,86.13a4.53,4.53,0,0,0,2.39,5.35c2.55,1.4,4.12,1.86,6.52,1.39a32,32,0,0,0,5.48-1.82,16.37,16.37,0,0,1-4.46.62,12.63,12.63,0,0,1-3.4-.17l2.35-.78a4.81,4.81,0,0,1-3.08.07,6.08,6.08,0,0,1-1.63-.93,13.67,13.67,0,0,0,1.8-.1c.19-.08-.77.54-2.36-.31a4.69,4.69,0,0,1-2.09-2.12S168.87,85.51,167.84,86.13Z" style="fill:#231f20;fill-rule:evenodd"/><path d="M80.74,73.72a5.43,5.43,0,0,0-1.82,3.56,10.46,10.46,0,0,0,.39,1.81,9.47,9.47,0,0,0,1,2.35s-.71.29-1.48-1.48a5.62,5.62,0,0,0,.78,2.62c1.51,2.33,2.23,2.81,4.69,2.81s4.83-2.66,5.19-3.53a3,3,0,0,0,.16-.74c-.81,1-2.39,2.23-2,2s2-3.81,2-4a6.31,6.31,0,0,0-.83-3C87.31,75.21,80.74,73.72,80.74,73.72Z" style="fill:#d6265c;fill-rule:evenodd"/><path d="M81.86,75.08a5.32,5.32,0,0,0-1.23,3,3.91,3.91,0,0,0,.59,2.48,21.86,21.86,0,0,1,.5-3.57,9.64,9.64,0,0,1,.92-1.79Z" style="fill:#fff;fill-rule:evenodd"/><path d="M87.57,76.85a12.75,12.75,0,0,1-.84,5.3c-.29.59,1.49-1,1.56-2.28S88.5,76.66,87.57,76.85Z" style="fill:#fff;fill-rule:evenodd"/><path d="M174.94,75.48c-1.19,1.65-.57,3.82.59,5.5a10.55,10.55,0,0,1-.15-2.86,5.88,5.88,0,0,1,.22-1.38s.57,3.85,1,5.48a6,6,0,0,0,1.31,1c2.11,1.14,5.14-.44,5.87-1.83s1.32-1.49,1-3.74a5.35,5.35,0,0,0-1-2.12,28.48,28.48,0,0,1-.66,3.53,38.83,38.83,0,0,0-1-5.12C180.36,72.77,177.84,72.55,174.94,75.48Z" style="fill:#d6265c;fill-rule:evenodd"/><path d="M176.9,75.39a6.89,6.89,0,0,0-.06,2.85c.21.48.15-.94.46-2.2s.32-1.38.32-1.38S176.49,75.23,176.9,75.39Z" style="fill:#fff;fill-rule:evenodd"/><path d="M180,82a3.86,3.86,0,0,0,2.69-1.69c.05-.14.16-.49.17-.12a2.57,2.57,0,0,1-1.29,1.74C180.74,82.31,179.33,82.77,180,82Z" style="fill:#fff;fill-rule:evenodd"/><path d="M160.85,152.94c1.37,3.47.91,4.93,1.67,3.23s1.07-1.95,1-2.42S163,152.75,160.85,152.94Z" style="fill:#231f20;fill-rule:evenodd"/><path d="M22,110.47a21.76,21.76,0,0,0,1.34,5.18c.49.69.18-1.41,1-.34s5.29,6.7,6.16,7.22,4.15,2.75,4.15,2.75-3.52-5.19-3.85-5.65,1.86.18,1.27.58,10.85,5.19,10.45,4.89-.89-1.22-1.92-4a26.37,26.37,0,0,0-1.36-3.31s4.24,3,7.2,5.23,5.43,3.89,5.43,3.89S43,118.45,40.76,111.34a96.54,96.54,0,0,1-2.83-10.22s-1.62,2.86-1.66,1.77a98.23,98.23,0,0,1,.58-11c.4-1.89-1.81,1.93-1.84,1.15s1.22-10.5,1.22-10.5-2.74,6.88-3.73,10-.83,5.81-.93,5-1.84-6-1.84-6-.35-1.32-1.86,2.79-2.81,9.47-3.24,10.65-1.42-.5-1.42-.5a38.62,38.62,0,0,0,.57,5.37C24.24,112,22,110.47,22,110.47Z" style="fill:#231f20;fill-rule:evenodd"/><path d="M44,99.36s.61,4.35,6.94,12.11,7.45,8.19,7.45,8.19l-2.58-7.41s7,5.71,11.94,7.27,17,5.06,17,5.06-16.36.54-19.07-1.25a12.61,12.61,0,0,1-3.21-2.55l4.42,6.42S44.41,122.93,44,99.36Z" style="fill:#231f20;fill-rule:evenodd"/><path d="M41.09,86.8c-.67-2.48-1.57-3.81-1.62-6.47s0-2.81,0-2.81.84,2,.87,1.61a7.58,7.58,0,0,1,.27-4.89c1.07-3.12,1.11-3.12,1.11-3.12l.09,1.8s-.3-1,2-4.29,2.35-3.31,2.35-3.31L45.47,67s3.65-2.82,3.76-3a10.45,10.45,0,0,0-3.37,5.5C45,73.05,45,73.12,45,73.12l2.17-2.92s-1.59,2.85-2.68,5.2a17.43,17.43,0,0,0-1.15,5.47c0-.27-.36-3.81-.36-3.81s-1.47.16-1.58,2.86a23.24,23.24,0,0,0,.57,5.37c-.09-.31.05-3.2.05-3.2a37.45,37.45,0,0,0,1.4,6.08C44.2,90.25,41.09,86.8,41.09,86.8Z" style="fill:#231f20;fill-rule:evenodd"/><path d="M99.2,95.05c-1,2-2.58,2.2-3.92,4s-2.06,4-3.67,4.73l-4.7,2a9,9,0,0,0,5.44-.73c2.69-1.33,4.05-5,4.05-5s3.92-4.11,4.27-5.22S99.2,95.05,99.2,95.05Z" style="fill:#231f20;fill-rule:evenodd"/><path d="M89,111.44c1.62.61,2.89,4.71,3,5s-.22-4.06-.22-4.06.94,3.45,2.1,6.73,1.32,3.59,1.32,3.59-1.89-7.79-.37-10.26a16.84,16.84,0,0,1,3-3.73l-4.5,3.15v-1.4l-1.28-1-.64,2.06S88,110.42,89,111.44Z" style="fill:#231f20;fill-rule:evenodd"/><path d="M168.72,100.05a21.92,21.92,0,0,0,6,4c.87.2-1.5-3-1.9-3.38s-.59-1.3,1.66.65a12.8,12.8,0,0,0,7.42,2.73l1.4-.13s-3.84,1.69-5,1a15,15,0,0,0,3.49,1.91c1.42.35,2.53.86,1.27.43S171.62,110.1,168.72,100.05Z" style="fill:#231f20;fill-rule:evenodd"/><path d="M5.42,149.59c-.74,1.2-2,3.43-1.14,8s1.84,11,2.44,10.31,2.19-2.18,2.63-.71-.29,5.55,1.37,6.2.79-2,1.81-1.93,1.06,1.29,1.51.81.2-5.94.37-7.82,1.13-6,1.5-6.46.63,2.56,1,3.72,1.22-.9,1.49-2.16,1.45-6,1.45-6S12.5,146.7,5.42,149.59Z" style="fill:#f7efe0;fill-rule:evenodd"/><path d="M26.17,156.64A22.66,22.66,0,0,0,22,166.15c-1.21,6,.48,14.83,3.27,18.95s7,8.68,7.3,8.51-.24-2.33-.12-3.59,3.57,4.1,6.12,5.89,1.36-1.45,1.3-3.32-1.13-5.44-1.06-8.4,3.26-.42,4.06.18-.74-3.57-.23-7,3.13.05,3.72-.9,1.4-5,1.48-7.24a9.87,9.87,0,0,0-1.24-4.49s3.27-.26,3.08-1.35-3.87-3.62-4.73-3.75-2,1.94-3.55,1.21-2.18-2.35-4.48-3.52-3.4-1.22-5-.46a3.09,3.09,0,0,1-3.2-.21C27.87,156.27,27.91,159.87,26.17,156.64Z" style="fill:#f7efe0;fill-rule:evenodd"/><path d="M58,162.32c-.28.94-1.24,5.19-.53,7.75s1.55,6.82,2.57,9.44,1.86,4.24,1.92,3.69a6.8,6.8,0,0,1,.71-1.69s2.26,6.75,4.43,8.78a11.91,11.91,0,0,0,3.6,2.54,31.7,31.7,0,0,1,0-3.59c.13-.55,1.22,1.6,2.65,2.33s1.57-2,1.63-2.39,1.13.9,1.76,1.34-.9-1.53-.23-4.91,1.36-8.4,1.75-8.49,1.59,3.54,1.71,2.36.25-4.3,1.81-6.77,1.89-1.78,1.89-1.78.34,3.27.71,2.55.89-3.78,1.66-6.54-4.84-4.91-5.86-5.11-1.28,1.44-3.11.41-4.77-.31-7.76-1.07-3.22-.6-4.37-.1a4.13,4.13,0,0,1-2.73.17C61.58,161.11,60.58,164.19,58,162.32Z" style="fill:#f7efe0;fill-rule:evenodd"/><path d="M99.13,164.41s-.77,5,.19,8.12,3,7.87,3.13,7.47a4.64,4.64,0,0,1,.59-1s3.63,5.9,4.92,7.18a4,4,0,0,0,2.3,1.34l-.15-2.34s1.32,2.14,2.42,2.42,2.21-1.56,2.21-1.56l2-1.7-.2,3.36s4.46-4.17,5.3-7.14a35.59,35.59,0,0,0,.76-8s.35,1.16,1.11.66-.25-3-.38-4.59a17.63,17.63,0,0,0-.74-3.49,13.28,13.28,0,0,0-2.75-3c-1.52-1.12-4.42-1.49-5.09-.69a2.7,2.7,0,0,0-.49,2,1.49,1.49,0,0,1-2,.22c-1.12-.82-2.32-1.95-2.87-1.94s-1.06.9-1.61.92a8.52,8.52,0,0,1-2.13-.79,1.61,1.61,0,0,0-2,.76C103,163.89,98,163,99.13,164.41Z" style="fill:#f7efe0;fill-rule:evenodd"/><path d="M131.39,160.94a27.77,27.77,0,0,0,1.16,9.17c1.49,4.95,2.34,7,2.39,6.41s1.15-.67,1.15-.67a11.08,11.08,0,0,0,2.1,6.73,48,48,0,0,0,7.25,7.18v-2.34l.81-1.59s2.15,1.26,2.62,1.56,2.4-3.21,2.66-4.62,1.17,0,1.17,0,2.08-.69,2.59-2a22.84,22.84,0,0,0,.71-4.47l1.72,0a28.23,28.23,0,0,0-.47-7,17.71,17.71,0,0,0-.88-3l2.52.54s1-3.7-.19-5.85a23.4,23.4,0,0,0-3.11-4.19,8.1,8.1,0,0,1-4.21.06,4.53,4.53,0,0,0-3.9,0c-1.31.51-3.89.28-6.38.28s-2.26.08-3.87,1S133.06,161.82,131.39,160.94Z" style="fill:#f7efe0;fill-rule:evenodd"/><path d="M168.53,156.36c.25.38,3.08,5.92,3.75,9.49a60.88,60.88,0,0,1,.62,9.43c0,1.56-1.25,3.3.17,3.23a1.89,1.89,0,0,0,1.77-1.19L176,175.8s.54,2,.8,3,2-.46,4-2.63,4-7.55,4.45-6.79,1.12,3.09,2.33,1.8,3.74-4.88,3.3-8.77-1.82-5.41-1.82-5.41,1.67.8,2.36.47,2-2.49-.23-4.6a23.84,23.84,0,0,0-2.65-2.34s1-2.22-2.47-1.56S169.07,154.18,168.53,156.36Z" style="fill:#f7efe0;fill-rule:evenodd"/><path d="M204.62,146a7.24,7.24,0,0,1,4.62,5.23c.64,2.72,1,4.19.61,6.55s-2.35,7-1.73,6.69a9.81,9.81,0,0,0,1.73-1.7s-.37,2.91.42,3.27,2.83-1.73,2.83-1.73l.82,1a13.33,13.33,0,0,0,4.39-4,12.41,12.41,0,0,0,1.66-6.45s1.91,1.18,2.37.78,1.82-4,.57-6.42a21.77,21.77,0,0,0-1.74-3.07l1.56.18S216.9,139.55,204.62,146Z" style="fill:#f7efe0;fill-rule:evenodd"/><path d="M229.5,144.76c.83,1.69,1.51,8.15,1.06,13.32s-2,14.76-2.61,15.63-1.93,2.95-.37,3,4.42-3.94,4.49-3.27-.5,1.34,1.53,1.36,6.3-5.44,6.81-8.9-.06-6.48,1.29-5.82,3.28.28,3.35-2.37-1.69-6.43-1.44-8.39,2.72-.32,1.61-3.26-4.32-3.13-4.67-2.11-4-1-5.48-.6S231.28,142.13,229.5,144.76Z" style="fill:#f7efe0;fill-rule:evenodd"/><path d="M232,78.61c.42.92,2.94,9.06,2.95,12.55s1.08,3.74.55,3.73.27-1.42.88-1.66,1.67,3.46.12,8.43-2.23,6-2.78,5.79-.53,2.91,1.8,2.44,2.61-1.26,2.61-1.26-1.89,5.29-4.25,7.67-2.05,2.53-2.05,2.53,13.68-5.16,15.54-7.17-5.12-17.85-6.7-20.92-4.61-9.61-4.61-9.61-3.16-5.74-2.61-5.93S232,78.61,232,78.61Z" style="fill:#231f20;fill-rule:evenodd"/><path d="M198.93,119.88c5-4.06,10.31-17.62,10.31-17.62l3.38,3.17a15.09,15.09,0,0,0,3.48-8.08c.77-5.34.38-7.67.38-7.67l3.19,2.09a11.06,11.06,0,0,0,6.11-4c2.7-3.37,3-4.32,3-4.32s.91,8.87-.9,10.81l-4.07,4.35s7.34.23,8.66-2.31-1.69,5.36-5.95,8.63a57.15,57.15,0,0,1-7.49,4.93l11-2.31S209.37,117.26,198.93,119.88Z" style="fill:#231f20;fill-rule:evenodd"/><path d="M7.13,151.88c-1.2,1.44.15,9.21.49,10.06s.82-1.28.82-1.28,1.54,6.59,2.22,6.1-1.6-8.54-1.31-11.52S12.11,151.25,7.13,151.88Z" style="fill:#fff;fill-rule:evenodd"/><path d="M26.12,162.35s-1.41,2-.49,8.92,3.29,12.15,3.19,11.53.11-.92.86-1.85,3.5,6.31,5.17,7.27S30.16,181.9,30,175.3c-.1-4,1.5-7,1.67-8.26.11-.83-1.21-.7-1.21-.7s-1.92,3-2,.54a10.6,10.6,0,0,1,1-4.64S28.87,160.46,26.12,162.35Z" style="fill:#fff;fill-rule:evenodd"/><path d="M60.58,164.5c-.12,1.25-.63,9.47,2,14.38s1.83,4.26,1.83,3.46-.41-3.11.14-2.74,3,5.45,4,5.88c.69.29-3.22-6.18-5.51-12-1.12-2.85-1-5-1.42-7.21C61.47,165.19,61.23,164.41,60.58,164.5Z" style="fill:#fff;fill-rule:evenodd"/><path d="M102.11,167.2A35,35,0,0,0,105.35,178c1.67,3.54,1.74,3.3,1.74,3.3l.87-2.13s2.9,5.37,3.34,4.42-3.28-5-3.2-7.24a11.9,11.9,0,0,0-.44-3.81s-1.49,1.92-1.63.13-.4-5-.4-5-1.12,1.37-1.53.76-.8-3-1.2-3.16S101.74,165.42,102.11,167.2Z" style="fill:#fff;fill-rule:evenodd"/><path d="M134.68,163.72s-.07,2.65,2.21,8,5.73,10.51,5.64,10.05-.21-3.9-.21-3.9,1.3,4,2.8,4.51.17-.9-.1-2.55-4.35-7-4.41-8.94-.55-2.48-.55-2.48-1,1.6-1.4.13-1.44-5.81-1.76-6.27S134.5,160.07,134.68,163.72Z" style="fill:#fff;fill-rule:evenodd"/><path d="M174.29,172.54c.66-3.54,1-6.28.51-8.22s-2.92-5.84-3.27-6.92-.25-2.8,1-1.83a12.45,12.45,0,0,1,2.53,3.43s-.21-1.71.48-2.05,2,2.83,2.14,5.79-.41,4.08-.41,4.08S179,165,179,165.67,176.62,174.8,174.29,172.54Z" style="fill:#fff;fill-rule:evenodd"/><path d="M210.23,146.88a7.43,7.43,0,0,1,2,5.24c-.25.87-.66.18-1.17.12s1.57,3.85.56,6.27-1.75,2.52-1.16,2.77,2.74-2.08,3-3.11a18,18,0,0,0,0-3.9.5.5,0,0,0,.73.3c.58-.25,1.6-4.13,1.24-5.48a.93.93,0,0,0-1.5-.62S213.38,145.21,210.23,146.88Z" style="fill:#fff;fill-rule:evenodd"/><path d="M232.07,147.8c.89.91,1.64,7.37,1,12s-2.75,8.91-2.12,9,2.15-3.59,2.71-5.32,0-4.85,1-3.86,1.41-4.5.71-7S234.29,146.56,232.07,147.8Z" style="fill:#fff;fill-rule:evenodd"/><path d="M114.51,67.47c4,3,5.94,4.34,7.49,6l1.56,1.65s-1.54-3.36-1.75-3.72A19.93,19.93,0,0,1,124,73.26,6,6,0,0,0,122,70a4.24,4.24,0,0,0-3-1.38s-5-3.12-6.66-4.27S109.61,64.79,114.51,67.47Z" style="fill:#231f20;fill-rule:evenodd"/><path d="M139.16,75c.15-.85,2.67-3.61,3.31-4.18s.85.65.85.65,4.66-3.09,5-3.38.06,1.14.06,1.14a27.43,27.43,0,0,1,5.36-1.59c1.71-.12.35.79-.87,1a30.57,30.57,0,0,0-7.22,2.72C143.88,72.52,140.08,75.62,139.16,75Z" style="fill:#231f20;fill-rule:evenodd"/><path d="M174.11,123.36a20.21,20.21,0,0,0,7.35-6.1l-.14,2.86s5.61-2.46,8.37-5.29,2.88-3.4,2.88-3.4S188.34,126.34,174.11,123.36Z" style="fill:#231f20;fill-rule:evenodd"/><path d="M131.28,82.81c3.2-.89,6.49.17,7.86.41s1.14.47,1.14.47a23.36,23.36,0,0,0-4.11.13c-1.37.27,2.73.77,2.73,1.22s-3.31.32-3.31.32a10.54,10.54,0,0,0-3,.08c-2.05.27-2.11.1-2.11.1s3.15-1.06,3.6-1.17-5.12-.79-5.12-.79S129.28,82.9,131.28,82.81Z" style="fill:#231f20;fill-rule:evenodd"/><path d="M160.41,91.06c.79.24,2.82,2.65,3.83,4.83a25.29,25.29,0,0,1,1.45,3.89l1.07,7.31a24.56,24.56,0,0,1-3.57-2.54c-1.47-1.32-5.84-3.25-6.8-3.94s-.56-.92,1.66-.38a15.08,15.08,0,0,1,3,.94s.47-1.31-2.42-3a33.36,33.36,0,0,0-4-2.09,11.09,11.09,0,0,1,4.27.66,16.3,16.3,0,0,1,2.56,1.17s1.31-.62-.21-1.83-1.93-1.5-1.93-1.5l1.93.53s.13-1.6-2.08-2.93a23.7,23.7,0,0,1-2.6-1.68Z" style="fill:#231f20;fill-rule:evenodd"/><path d="M102.61,76.73c.45.58,4.06,4.49,4.06,4.49l4-2.25-4,0S106.15,76,102.61,76.73Z" style="fill:#231f20;fill-rule:evenodd"/><path d="M158,80.65l4.35-2.36s-.46,3.71-.4,3.42,1.88-2.78,1.88-2.78l.21,3.69,1.84,2.55S158.22,84.08,158,80.65Z" style="fill:#231f20;fill-rule:evenodd"/><path d="M47.21,58.32c-.57-.81-1.16-11-1.16-11L48,51.48a104.8,104.8,0,0,1-1.16-11,17.53,17.53,0,0,0-.19-4s1.18,2.57,1.79,3.95.23-6,.23-6L50,40.25l.58,5.26.82-2.33s-.07,7.07.49,8.67S47.21,58.32,47.21,58.32Z" style="fill:#231f20;fill-rule:evenodd"/><path d="M51.43,53a33.7,33.7,0,0,1-.91-4.66s-.45,1.05-.53.44A62.19,62.19,0,0,1,50.83,41,38.07,38.07,0,0,1,52,37.07a19.38,19.38,0,0,0,1.57,4.31c.83,1.28,0-1.68,0-1.68a17.58,17.58,0,0,0,1.71,3.15c.73.86.89,1.16.82.82a9.23,9.23,0,0,1,0-1.31,9.21,9.21,0,0,0,1.37,2.88,8.29,8.29,0,0,0,1.48,1.66l1.64,1.56a12.15,12.15,0,0,0-2.75,1.86,2.62,2.62,0,0,1-1.88.91L54,51.51l-.48,1.38s-1.85,1-2.36,1.27S51.43,53,51.43,53Z" style="fill:#d6265c;fill-rule:evenodd"/><path d="M203.13,64.45c.21-.64,2.46-4.27,2.46-4.27s.35,1,.75,1S208,58.6,209,56.83s.43,1,.43,1l1-2.4a52.83,52.83,0,0,1,.92,6.21A18.7,18.7,0,0,1,210,69.44Z" style="fill:#d6265c;fill-rule:evenodd"/><path d="M220.16,28.18c3.58-4.33,3.45-9.36,2.77-10.16a4.14,4.14,0,0,0-1.13-1S225,18.72,225,18.15a7.29,7.29,0,0,0-3.48-5c-2.73-1.62-3.07-1.86-3.07-1.86s.59-1.36,4.79.5,6.28,1.12,6.58,4.53-2,15.8-2.21,16.65c-.12.42.09-8.56-2.15-7.52C223,26.52,220.5,30.17,220.16,28.18Z" style="fill:#231f20;fill-rule:evenodd"/><path d="M101.07,96.31c-.11.62-.84,7.44-.56,8.53s1.33-.36,1.33-.36l2.55,0-2.42-1.1S102.09,96.08,101.07,96.31Z" style="fill:#231f20;fill-rule:evenodd"/></svg>