<svg xmlns="http://www.w3.org/2000/svg" width="565" height="342.95" viewBox="0 0 565 342.95"><path d="M0,58,28,40.44,29.9,73.65c.06,1.17,9-6.74,13.54-10.3l.6,1.78-3.32,5.38,4.36-2.25,3.28,9.85,9.48-31.85c6.36-13.81,23-23.46,19.57,4.22L90.28,72.41c11.46-35.94,2.74-19.67,18.46-45l20.52,24.92L160.76,0,148.45,52.58l11.92-32.35,3.79,4.57,6.36-2.74-3,24.8,11.89-24.65,2.8,6.93-1.13,16.73L215.6,65.38l39.87-16.31,3.7,7.38,8.54,29.48L285,73.82l9.14,6.77,3.12-1-2.81-8.46,21,2.34,3.17-26.79,8.75,17,4.1-16.93,2.34,28.12,22-19.58,15.84,4.43,15.63-6.48c6.54-2,.27-11.9,3.23-16L397,43.72l3.7-5.13,4.52,9.35,18-4.83L439,62.82l11.58-5.36-4.32-34.09s10.82,21.1,10.82,18.25-2.1-20-2.1-20,6.72,33.61,8.36,34.28c.4.16.25,1.55-.21,3.54l.81.35c1.94-4.79,3.65-8.91,3.65-8.91L473.77,64l8.64-12.88L526.77,72,528,43.74l26.5,16.08L565,55.63V343H0Z" style="fill:#001c36;fill-rule:evenodd"/></svg>