<svg xmlns="http://www.w3.org/2000/svg" width="565" height="800" viewBox="0 0 565 800"><path d="M0,0V800H565V0ZM540.77,632.34c-43.3,12.55-338.43,55.88-390.85,55.88S32.56,628.92,23.44,610.68s-5.05-32.5-14.24-53.6,1.71-44.47,2.28-62.71S14.32,467,12.05,451s-10.26-26.22-4-30.78S25.72,418,18.88,405.42,8.63,394.59,8.06,383.76,2.93,157.4,5.21,128.9s6.84-41.06,19.37-59.3-6.84-44.47-6.84-44.47S163,8,191.52,11.44s14.81,13.69,53,8,35.9-6.28,79.77-6.28,111.1,6.28,144.14,0,66.66-1.14,70.65,0,11.67,120.88,18.8,154-2.28,116.31-2.28,190.43-1.14,118.59-1.14,136.84,11.4,63.85,0,94.64S584.07,619.8,540.77,632.34Z" style="fill:#001c36;fill-rule:evenodd"/></svg>