<svg xmlns="http://www.w3.org/2000/svg" width="450" height="420.22" viewBox="0 0 450 420.22"><path d="M108.17,254.77c-16.11-15.05-33.88-45-41.86-60S47,144.85,47,144.85c3.79,2.5,7.92,3.45,7.52,1.69-1.35-5.81-.17-20.47.79-33.18,2.56-33.85,16.81-64.44,16.81-64.44S69.55,85,74.79,104.05s7.9,24.46,7.9,24.46,11.8,25.87,11.82,24.07-2.84-10.19-2.83-11.31.87,3.16,5.75,11.56,15.36,22.26,15.36,22.26l-2.64-7.93s12.25,16.14,25,27.09a82.33,82.33,0,0,0,7.36,5.69c7.57,5.17,11,5.18,11.47,6.44C154.53,208,146,265.05,108.17,254.77Z" style="fill:#231f20;fill-rule:evenodd"/><path d="M95.44,226.33,51.53,167.47l4.18,15.19L50,178.52s16.61,26.91,24.17,38.82c2.52,4-12.28-6.73-11.15-5.4l22.85,27Z" style="fill:#231f20;fill-rule:evenodd"/><path d="M71.14,123.38s-2.89-12.89-2.88-14.1,0-28.27,0-28.27l4.78,32.05,10.47,35.73-1-14.72,10.35,25.35s1.9,1.14,2.23,0-.92-4.64-.09-4.4c1.19.34,7.42,13.56,11.87,19.48a16.15,16.15,0,0,1,1.92,2.9c.94,2.65,17.39,15.79,17.39,15.79l2.63,2.05-25.1-14.28,17.7,22.53h0l-11.37-5.15,7,8.59c-.33.25-.68.53-1,.83-4.69-2.95-12.53-7.92-13.19-8.76-.45-.58,4.37,5.43,9.55,11.89-1.81,1.68-10.26,6.57-9.49,7.6.43.59-7.58-6.76-13.29-15.76-4.3-6.79-6.66-15.81-6.66-15.81s12.89,9.86,12.42,8.65-16.75-28.66-16.75-28.66L92,176.53l-9.66-19.37s-8.77-14-7.58-12.58c.48.59,3.09,5.2,2.6,2C76.67,141.8,72.46,128,71.14,123.38Z" style="fill:#455160;fill-rule:evenodd"/><path d="M368.66,387c-74.78-29.32-199.33-56.8-319.08,13.49,18.68,11.27,39.42,19.71,58.36,19.71C140.24,420.22,272.87,402.3,368.66,387Z" style="fill:#231f20;fill-rule:evenodd"/><path d="M163.5,129.69S161,151.16,156,164.62s-16.12,31.69-22.92,35.69,63.89,18.19,76.07,17.4,144.5,3.31,141.71-9.11-34.3-35-30.72-75.6S226.28,165,163.5,129.69Z" style="fill:#231f20;fill-rule:evenodd"/><path d="M393.23,8.39a51.11,51.11,0,1,1-45,56.53A51.05,51.05,0,0,1,393.23,8.39Z" style="fill:#231f20;fill-rule:evenodd"/><path d="M395.16,100.45s-12.69,7-28.63-9.62-13.37-36.46-9.24-37.16a2.16,2.16,0,0,1,1.88.37c.2,7.06,5.13,20,19.11,29,8.5,5.52,15.34,6.73,20.33,6.35C399.11,93.4,397.9,98.34,395.16,100.45Z" style="fill:#455160;fill-rule:evenodd"/><path d="M414.13,15.28c-19.18-5.6-39.95,4.11-48.7,12s-3.18,18.93,4.76,10.66,36.38-15.31,51.05-10.1S433.31,21.37,414.13,15.28Z" style="fill:#455160;fill-rule:evenodd"/><path d="M441.92,47.14c2.67,5.89,4.9,29.18-7.9,38.75-9.82,7.35-14.68,7.11-17.69,5.7,3.08.13,7.55-1.27,14.51-6.47,12.12-9.07,10.76-30.45,8.31-37.68A3.68,3.68,0,0,1,441.92,47.14Z" style="fill:#455160;fill-rule:evenodd"/><path d="M395,0h0a5.77,5.77,0,0,1,6.24,5.2L411,112.84a5.75,5.75,0,0,1-5.18,6.24h0a5.75,5.75,0,0,1-6.24-5.2L389.77,6.27A5.76,5.76,0,0,1,395,0Z" style="fill:#231f20;fill-rule:evenodd"/><path d="M396.3,5.37l9.86,106.68a1.9,1.9,0,0,1-3.78.35L392.51,5.72A1.9,1.9,0,0,1,396.3,5.37Z" style="fill:#455160;fill-rule:evenodd"/><path d="M396.66,9.33l3.41,36.85a1.9,1.9,0,0,1-3.79.35l-3.4-36.85A1.9,1.9,0,0,1,396.66,9.33Z" style="fill:#fff;fill-rule:evenodd"/><path d="M108.05,61.25,366.4,26.4l8.89,71.71L114.63,115.46c-6.44.43-16.66-7.68-19.85-17.73C90,82.57,95.37,63,108.05,61.25Z" style="fill:#231f20;fill-rule:evenodd"/><path d="M106.66,64.25,356.2,29.83l5.88,55.69-244.27,18c-6.24.46-8.16.68-13.17-4.15C98.87,93.85,93.63,82.94,106.66,64.25Z" style="fill:#455160;fill-rule:evenodd"/><path d="M110.2,77.18c-1.31,4.37-2.06,15.24,5.28,23.8s10.58,3.2,10.58,3.2-9.48-5.27-12-12.78S113.73,76.93,110.2,77.18Z" style="fill:#231f20;fill-rule:evenodd"/><path d="M136,84.33c-.53,4.54.61,15.37,9.33,22.53s11,1.3,11,1.3-10.24-3.53-14-10.51S139.44,83.47,136,84.33Z" style="fill:#231f20;fill-rule:evenodd"/><path d="M165.22,74.64c-1,4.44-1.1,15.34,6.76,23.42s10.75,2.52,10.75,2.52-9.79-4.65-12.72-12S168.73,74.16,165.22,74.64Z" style="fill:#231f20;fill-rule:evenodd"/><path d="M195.21,77c-.67,4.52.14,15.38,8.63,22.81s10.92,1.64,10.92,1.64-10.14-3.85-13.66-10.94S198.67,76.26,195.21,77Z" style="fill:#231f20;fill-rule:evenodd"/><path d="M219,74.86c-.31,4.56,1.37,15.32,10.44,22s11,.76,11,.76-10.41-3-14.49-9.8S222.4,73.83,219,74.86Z" style="fill:#231f20;fill-rule:evenodd"/><path d="M246.44,76.66c.06,4.56,2.6,15.15,12.18,21.11s11-.14,11-.14S259,95.47,254.43,89,249.73,75.36,246.44,76.66Z" style="fill:#231f20;fill-rule:evenodd"/><path d="M277.8,73.62c-.45,3.95.6,13.39,8.22,19.59s9.56,1.09,9.56,1.09-8.94-3-12.23-9.1S280.78,72.86,277.8,73.62Z" style="fill:#231f20;fill-rule:evenodd"/><path d="M307.75,63.19c-1.35,4.35-2.2,15.22,5.06,23.85s10.54,3.29,10.54,3.29S313.92,85,311.52,77.44,311.28,63,307.75,63.19Z" style="fill:#231f20;fill-rule:evenodd"/><path d="M337.85,62.92c-1.35,4.36-2.2,15.22,5.06,23.85s10.54,3.29,10.54,3.29S344,84.71,341.62,77.17,341.38,62.7,337.85,62.92Z" style="fill:#231f20;fill-rule:evenodd"/><path d="M121.37,89.23c.2,1.28,1.21,7.74,5.46,12.35s2.39,1.37,3.73,1.52,4.42.59,4.37-.1-6.32-3-8.82-7.58C125.31,94,122.89,86.25,121.37,89.23Z" style="fill:#231f20;fill-rule:evenodd"/><path d="M149.1,94.26c.42,1.22,2.54,7.41,7.52,11.21s2.58.93,3.93.85,4.46-.18,4.29-.86-6.75-1.88-10-5.93C153.79,98.23,150.08,91.06,149.1,94.26Z" style="fill:#231f20;fill-rule:evenodd"/><path d="M177.12,86c.28,1.26,1.7,7.65,6.22,12s2.47,1.21,3.82,1.28,4.45.32,4.35-.38-6.49-2.62-9.27-7C181.35,90.43,178.45,82.9,177.12,86Z" style="fill:#231f20;fill-rule:evenodd"/><path d="M208,87.34c.38,1.23,2.3,7.48,7.16,11.44s2.56,1,3.91,1,4.46,0,4.31-.72-6.69-2.1-9.81-6.24C212.56,91.45,209.07,84.18,208,87.34Z" style="fill:#231f20;fill-rule:evenodd"/><path d="M232.59,84.12c.48,1.2,2.9,7.28,8.06,10.83s2.63.8,4,.65,4.45-.4,4.24-1.07S242,93,238.58,89.11C237.47,87.85,233.41,80.88,232.59,84.12Z" style="fill:#231f20;fill-rule:evenodd"/><path d="M260.71,84.79c.57,1.15,3.48,7,8.91,10.14s2.69.58,4,.32,4.4-.76,4.14-1.41-6.94-1-10.68-4.57C265.88,88.11,261.26,81.49,260.71,84.79Z" style="fill:#231f20;fill-rule:evenodd"/><path d="M291,80.16c.42,1.22,2.57,7.4,7.57,11.18s2.59.92,3.93.83,4.46-.2,4.29-.88-6.76-1.85-10-5.88C295.69,84.11,291.94,77,291,80.16Z" style="fill:#231f20;fill-rule:evenodd"/><path d="M318.81,75.34c.19,1.28,1.14,7.75,5.34,12.4s2.38,1.39,3.71,1.56,4.42.63,4.38-.07-6.29-3.08-8.75-7.65C322.7,80.1,320.36,72.38,318.81,75.34Z" style="fill:#231f20;fill-rule:evenodd"/><path d="M348.91,75.07c.19,1.28,1.14,7.75,5.34,12.4S356.63,88.86,358,89s4.42.63,4.38-.06-6.29-3.09-8.75-7.66C352.8,79.83,350.46,72.11,348.91,75.07Z" style="fill:#231f20;fill-rule:evenodd"/><path d="M120.68,80.25c-.44,1.62,1.07,5.94,1.78,5.1s-.52-4-.52-4.67S121.39,79.62,120.68,80.25Z" style="fill:#231f20;fill-rule:evenodd"/><path d="M146.86,85.53c-.15,1.67,2.09,5.67,2.64,4.72s-1.2-3.81-1.32-4.51S147.45,84.78,146.86,85.53Z" style="fill:#231f20;fill-rule:evenodd"/><path d="M175.87,77c-.34,1.64,1.44,5.87,2.1,5s-.77-3.92-.81-4.63S176.54,76.36,175.87,77Z" style="fill:#231f20;fill-rule:evenodd"/><path d="M206,78.55c-.2,1.66,1.91,5.73,2.5,4.79s-1.09-3.84-1.19-4.54S206.63,77.82,206,78.55Z" style="fill:#231f20;fill-rule:evenodd"/><path d="M229.91,75.52c-.06,1.68,2.37,5.56,2.88,4.58s-1.39-3.75-1.55-4.44S230.47,74.74,229.91,75.52Z" style="fill:#231f20;fill-rule:evenodd"/><path d="M257.35,76.43c.07,1.68,2.81,5.35,3.24,4.33s-1.69-3.62-1.9-4.3S257.84,75.61,257.35,76.43Z" style="fill:#231f20;fill-rule:evenodd"/><path d="M288.7,71.44c-.15,1.68,2.11,5.67,2.66,4.71s-1.22-3.81-1.34-4.5S289.28,70.7,288.7,71.44Z" style="fill:#231f20;fill-rule:evenodd"/><path d="M318.2,66.35c-.45,1.62,1,6,1.74,5.12s-.49-4-.48-4.67S318.92,65.73,318.2,66.35Z" style="fill:#231f20;fill-rule:evenodd"/><path d="M348.3,66.08c-.45,1.62,1,6,1.74,5.12s-.49-4-.48-4.67S349,65.46,348.3,66.08Z" style="fill:#231f20;fill-rule:evenodd"/><path d="M116.05,84.59s.17,4.74,2.12,7.72-1.29-5-1.27-7.79a42.16,42.16,0,0,0-.24-5S114.89,80.76,116.05,84.59Z" style="fill:#231f20;fill-rule:evenodd"/><path d="M143.06,90.61s1,4.63,3.42,7.24-2.13-4.66-2.6-7.45a43.16,43.16,0,0,0-1.1-4.91S141.25,87,143.06,90.61Z" style="fill:#231f20;fill-rule:evenodd"/><path d="M171.53,81.66s.46,4.72,2.59,7.58-1.6-4.87-1.75-7.7a43.27,43.27,0,0,0-.55-5S170.13,77.91,171.53,81.66Z" style="fill:#231f20;fill-rule:evenodd"/><path d="M202.06,83.5s.85,4.67,3.2,7.35-2-4.73-2.37-7.53a44.66,44.66,0,0,0-.95-4.94S200.36,79.88,202.06,83.5Z" style="fill:#231f20;fill-rule:evenodd"/><path d="M226.37,80.78s1.22,4.58,3.78,7.06-2.36-4.55-3-7.31a43.76,43.76,0,0,0-1.34-4.84S224.39,77.31,226.37,80.78Z" style="fill:#231f20;fill-rule:evenodd"/><path d="M254.24,82s1.59,4.47,4.34,6.73-2.72-4.34-3.55-7a43.59,43.59,0,0,0-1.73-4.72S252,78.66,254.24,82Z" style="fill:#231f20;fill-rule:evenodd"/><path d="M284.92,76.54s1,4.63,3.46,7.23-2.16-4.65-2.64-7.44a43.57,43.57,0,0,0-1.13-4.9S283.09,73,284.92,76.54Z" style="fill:#231f20;fill-rule:evenodd"/><path d="M313.54,70.65s.12,4.74,2,7.74-1.25-5-1.19-7.8a42.57,42.57,0,0,0-.2-5S312.41,66.81,313.54,70.65Z" style="fill:#231f20;fill-rule:evenodd"/><path d="M343.64,70.38s.12,4.74,2,7.74-1.25-5-1.2-7.8a41.45,41.45,0,0,0-.19-5S342.51,66.54,343.64,70.38Z" style="fill:#231f20;fill-rule:evenodd"/><path d="M110.54,101.58a19.24,19.24,0,0,1-5.49-8.18c-.75-2.73-.72-5.17.75-5,.29,0,.39,3.16,1.6,5.89.83,1.87,2.72,3.34,3.45,4.41C112.66,101.38,112.37,102.3,110.54,101.58Z" style="fill:#231f20;fill-rule:evenodd"/><path d="M140.58,108.3a19.31,19.31,0,0,1-6.84-7.1c-1.2-2.56-1.6-5-.11-5,.29,0,.93,3,2.6,5.52,1.14,1.69,3.25,2.82,4.16,3.74C142.63,107.74,142.5,108.69,140.58,108.3Z" style="fill:#231f20;fill-rule:evenodd"/><path d="M167.09,99a19.23,19.23,0,0,1-6-7.82c-.91-2.67-1-5.11.44-5,.29,0,.59,3.12,2,5.78.95,1.81,2.92,3.16,3.72,4.18C169.19,98.64,169,99.57,167.09,99Z" style="fill:#231f20;fill-rule:evenodd"/><path d="M199,101.11a19.28,19.28,0,0,1-6.61-7.31c-1.12-2.59-1.45-5,0-5,.3,0,.84,3.07,2.43,5.6,1.09,1.73,3.16,2.92,4,3.87C201.1,100.61,200.94,101.56,199,101.11Z" style="fill:#231f20;fill-rule:evenodd"/><path d="M224.77,98.57a19.2,19.2,0,0,1-7.18-6.75c-1.32-2.49-1.84-4.88-.36-5,.29,0,1.08,3,2.87,5.39,1.23,1.63,3.39,2.65,4.34,3.53C226.79,97.91,226.71,98.87,224.77,98.57Z" style="fill:#231f20;fill-rule:evenodd"/><path d="M254.08,99.82a19.22,19.22,0,0,1-7.69-6.15c-1.53-2.37-2.24-4.71-.77-4.94.29,0,1.32,2.89,3.3,5.13,1.35,1.54,3.59,2.38,4.61,3.17C256,99,256,100,254.08,99.82Z" style="fill:#231f20;fill-rule:evenodd"/><path d="M282.52,94.24a19.27,19.27,0,0,1-6.87-7.06c-1.21-2.55-1.62-5-.14-5,.3,0,.95,3,2.63,5.5,1.15,1.69,3.27,2.81,4.18,3.73C284.57,93.67,284.45,94.63,282.52,94.24Z" style="fill:#231f20;fill-rule:evenodd"/><path d="M307.87,87.58a19.07,19.07,0,0,1-5.42-8.23c-.72-2.73-.68-5.17.79-4.93.29,0,.36,3.15,1.55,5.9.82,1.87,2.68,3.36,3.41,4.44C310,87.41,309.69,88.32,307.87,87.58Z" style="fill:#231f20;fill-rule:evenodd"/><path d="M338,87.31a19.07,19.07,0,0,1-5.42-8.23c-.72-2.73-.68-5.17.79-4.93.29,0,.36,3.15,1.55,5.9.82,1.87,2.68,3.37,3.41,4.44C340.08,87.14,339.78,88.05,338,87.31Z" style="fill:#231f20;fill-rule:evenodd"/><path d="M105.34,79.86c0,.78-1.23,4.23-.07,4.42s1.69-3.66,1.52-4.51S106.52,78.53,105.34,79.86Z" style="fill:#231f20;fill-rule:evenodd"/><path d="M131.69,87.81c.13.77-.48,4.38.69,4.37s1-3.9.72-4.71S132.62,86.3,131.69,87.81Z" style="fill:#231f20;fill-rule:evenodd"/><path d="M160.54,77.61c0,.78-1,4.3.2,4.42s1.46-3.76,1.24-4.6S161.63,76.21,160.54,77.61Z" style="fill:#231f20;fill-rule:evenodd"/><path d="M190.79,80.36c.1.77-.62,4.36.55,4.38s1.15-3.86.87-4.68S191.76,78.87,190.79,80.36Z" style="fill:#231f20;fill-rule:evenodd"/><path d="M214.88,78.56c.17.76-.27,4.4.91,4.32s.83-3.95.48-4.74S215.73,77,214.88,78.56Z" style="fill:#231f20;fill-rule:evenodd"/><path d="M242.61,80.67c.23.74.09,4.41,1.25,4.24s.52-4,.1-4.76S243.33,79.05,242.61,80.67Z" style="fill:#231f20;fill-rule:evenodd"/><path d="M273.54,73.8c.13.77-.47,4.39.71,4.36s1-3.9.7-4.71S274.46,72.28,273.54,73.8Z" style="fill:#231f20;fill-rule:evenodd"/><path d="M302.87,65.82c0,.78-1.27,4.22-.11,4.41s1.72-3.64,1.56-4.49S304.06,64.5,302.87,65.82Z" style="fill:#231f20;fill-rule:evenodd"/><path d="M333,65.55c0,.78-1.28,4.22-.12,4.42s1.73-3.65,1.57-4.5S334.16,64.23,333,65.55Z" style="fill:#231f20;fill-rule:evenodd"/><path d="M115.71,106.78c1.25,2.84,1.11,2.84,6.47,2.61s10.16-1.32,8.61-.63-2.56,2.38-.59,2.11,217-15,219.74-16.83-.39-4.24-.39-4.24Z" style="fill:#455160;fill-rule:evenodd"/><path d="M99.34,90.87c82.6-11,189.92-25.8,259.8-33.19,1.63-.18,2.69,24.4,2.94,27.84s-251.62,19.9-253.59,19.32S97.9,98,99.34,90.87Z" style="fill:#231f20;fill-rule:evenodd"/><path d="M235.88,127.94a31.63,31.63,0,0,0,2.87,6s-.31-3.17-.24-4.13S236.4,126,235.88,127.94Z" style="fill:#231f20;fill-rule:evenodd"/><path d="M251.25,140.68c-1.75,2.47-5.38,6-4.27,6.3S255.45,142,251.25,140.68Z" style="fill:#231f20;fill-rule:evenodd"/><path d="M267.38,125c0,1.92-2.08,4.84-1.17,4.29a7.17,7.17,0,0,0,2.17-3.26C269,124.67,269.87,124.34,267.38,125Z" style="fill:#231f20;fill-rule:evenodd"/><path d="M282,125.58c.91-.78,5.6-8,5.13-5.72S285,127.8,282,125.58Z" style="fill:#231f20;fill-rule:evenodd"/><path d="M289,128.13c.68-.44,2.65-5.51,3.56-6.86s1.56,2.5.31,3.84S291.48,130.08,289,128.13Z" style="fill:#231f20;fill-rule:evenodd"/><path d="M301.65,127.8c.8-.9,2.2-5.75,3.34-6.87s3.38-.31,2.36.92S304.69,129.07,301.65,127.8Z" style="fill:#231f20;fill-rule:evenodd"/><path d="M317.72,122.85c.35-2,.93-2.93,1.26-2S318.27,124,317.72,122.85Z" style="fill:#231f20;fill-rule:evenodd"/><path d="M169.86,129.55c2.47,1.61,3,2.12,3.64,2.18s.07-1.07-1.17-1.59A8.35,8.35,0,0,0,169.86,129.55Z" style="fill:#231f20;fill-rule:evenodd"/><path d="M182.75,132.1c-.33-.12-3.7-2.47-2.06-2.17s3.75,2.41,3.75,2.41S184.38,133,182.75,132.1Z" style="fill:#231f20;fill-rule:evenodd"/><path d="M194.28,130.51s-2.52-2.46-2.63-3.08,2.76,1.21,3.15,1.5a8.11,8.11,0,0,1,1.11,1.31S196,131,194.28,130.51Z" style="fill:#231f20;fill-rule:evenodd"/><path d="M200,129.65c-.39-.4-2.12-2.84-2.12-2.84s3.05-.09,3.32.48,3.39,6.31,2,5.67S199.63,130.78,200,129.65Z" style="fill:#231f20;fill-rule:evenodd"/><path d="M212.18,128.4c.62.18,2,2.91,3.57,3.83s1.59-.89,1.59-.89S215.28,128.38,212.18,128.4Z" style="fill:#231f20;fill-rule:evenodd"/><path d="M222.48,130.65c.84.34,3.7,3,5.1,3.49s-1.78-2.95-1.78-2.95,3.65,2,3.43,1.33a8,8,0,0,0-1.33-1.88C227.56,130.18,224.52,129.42,222.48,130.65Z" style="fill:#231f20;fill-rule:evenodd"/><path d="M179.83,190.34s-20.68-7-53.35,14.88-21.82,18.78-34,24.09C77,236,39.61,337.07,39,353.05c-.7,18.52.75,32.36,2.89,42.6,20.55,13.61,44.46,24.57,66,24.57,40.85,0,242.22-28.68,326.52-44.4-5.44-29.24-14.75-77.2-21.73-102.52-10.48-38-71.26-80-71.26-80Z" style="fill:#231f20;fill-rule:evenodd"/><path d="M367.13,387.26a59.12,59.12,0,0,0,.88-10.43c-.31-16.26-5.54-42.16-5.54-42.16l-1.35,50.58-4.9-7.27-1.12,11.18Z" style="fill:#455160;fill-rule:evenodd"/><path d="M110.41,340.59c0,3.62-6.6,30.86-3.13,46.7s13.91,26.19,13.93,29.58a16,16,0,0,0,1.26,2.7q3.94-.29,8.49-.67l-6.66-17.14,10.12-33.43-16,24.29,1.08-40.6s-7.8,14.84-6.41,10.78,12.84-57,12.84-57Z" style="fill:#455160;fill-rule:evenodd"/><path d="M153.59,149.46l8.67-17.12,1.2-2.36s4.88,14.77,38.54,16.59c32.1,1.74,79,2.82,109.24-9.59,5.39-2.21,8.87-4,8.87-4s18.18,32.18,24.05,49.55c2.12,6.29-2.08,10.6-2.69,10.8q-2.89,1-5.89,1.84c-68.26,20-174.14,5.84-189.86-4.63C136.08,184.14,150.88,156.55,153.59,149.46Z" style="fill:#231f20;fill-rule:evenodd"/><path d="M159.71,154.39l5.22-10.28L166,142s12.67,8.46,43.06,10.11c29,1.57,69.46,3.87,96.81-7.34,4.86-2,8-3.59,8-3.59s12.71,26.9,18,42.59c1.91,5.68-1.87,9.57-2.43,9.75-1.74.58-3.51,1.14-5.31,1.66-61.64,18-157.34,5.81-171.54-3.64C143.9,185.71,157.27,160.8,159.71,154.39Z" style="fill:#d6265c;fill-rule:evenodd"/><path d="M169.83,149.77s-73.34-15.94-75-12.73,56.76,47.55,62.39,46.4S176.12,164.31,169.83,149.77Z" style="fill:#231f20;fill-rule:evenodd"/><path d="M165.47,152.72s-58.82-14.65-59.85-12.63,46.46,37.11,50,36.38S169.45,161.91,165.47,152.72Z" style="fill:#fff;fill-rule:evenodd"/><polygon points="105.62 140.09 166.54 174.6 169.29 168.76 105.62 140.09" style="fill:#231f20;fill-rule:evenodd"/><path d="M306.65,149.87s73.61-14.62,75.19-11.38-57.6,46.52-63.22,45.27S300.1,164.29,306.65,149.87Z" style="fill:#231f20;fill-rule:evenodd"/><path d="M319.09,150.71S370,139.3,371,141.35s-39.18,31.6-42.73,30.8S315,159.83,319.09,150.71Z" style="fill:#fff;fill-rule:evenodd"/><polygon points="371.02 141.34 320.48 175.46 311.73 157.87 371.02 141.34" style="fill:#231f20;fill-rule:evenodd"/><path d="M203.15,156.68s-1.93,0-5,.06c-10.82.18-35.65.88-36.65,3.51-1.27,3.36,19.91,30.7,32.79,31.27,7.24.32,15.74-6,18.07-14.26C214.21,170.84,212.29,163.24,203.15,156.68Z" style="fill:#231f20;fill-rule:evenodd"/><path d="M198.32,160.73c-9.68-.13-31.88-.23-32.51,1.43-.81,2.13,26.71,26.46,30.16,25.35,1.95-.63,8.24-5.28,9.84-11.19C207.67,169.42,205.92,160.82,198.32,160.73Z" style="fill:#fff;fill-rule:evenodd"/><polygon points="165.81 162.16 203.56 183.69 207.84 172.88 165.81 162.16" style="fill:#231f20;fill-rule:evenodd"/><path d="M271.42,157.9s1.92,0,4.95.15c10.81.37,35.63,1.52,36.58,4.17,1.21,3.38-20.45,30.34-33.34,30.67-7.25.19-15.63-6.28-17.82-14.58C260.1,171.86,262.15,164.3,271.42,157.9Z" style="fill:#231f20;fill-rule:evenodd"/><path d="M276.16,162c9.69.05,31.89.35,32.49,2,.76,2.14-27.18,26-30.62,24.8-1.93-.66-8.14-5.42-9.62-11.36C266.67,170.56,268.57,162,276.16,162Z" style="fill:#fff;fill-rule:evenodd"/><polygon points="308.65 164.05 270.52 184.9 266.44 174.02 308.65 164.05" style="fill:#231f20;fill-rule:evenodd"/><path d="M236.75,158.77a19.3,19.3,0,1,1-19.43,19.12A19.27,19.27,0,0,1,236.75,158.77Z" style="fill:#231f20;fill-rule:evenodd"/><path d="M236.67,161.41a16.35,16.35,0,1,1-16.47,16.2A16.34,16.34,0,0,1,236.67,161.41Z" style="fill:#fff;fill-rule:evenodd"/><polygon points="222.82 191.93 236.77 177.17 246.58 192.63 238.64 195.53 222.82 191.93" style="fill:#231f20;fill-rule:evenodd"/><path d="M228.33,160.62s9,18.38,8.79,18.1-3.82-19.67-3.82-19.67Z" style="fill:#231f20;fill-rule:evenodd"/><polygon points="246.83 161.28 236.19 178.1 253.98 169.61 246.83 161.28" style="fill:#231f20;fill-rule:evenodd"/><path d="M93.29,81.65S48.68,91,45.27,94.09a5,5,0,0,0,2.85,8.83c4.51.27,48.87-.21,48.87-.21Z" style="fill:#231f20;fill-rule:evenodd"/><path d="M89.64,85.05c-10,2.13-40.3,8.42-36.13,9.86,0,0,37.94-4,38.07-5.2S93.1,84,89.64,85.05Z" style="fill:#455160;fill-rule:evenodd"/><path d="M47.28,98c-.36,1.35,3.36,2.07,3.36,2.07s43.33-.18,43.11-.75-.65-3.06-.65-3.06Z" style="fill:#455160;fill-rule:evenodd"/><path d="M144,193.8l-24,22.64s-12,10.87-17.25,16.37-7.51,7.47-7.51,7.47l7.24-4.1s-13.87,11.49-20.2,20.33-5,12.65-3.82,11.22,13.8-12.45,13.8-12.45-15.55,20.43-23.85,35.28C59.67,306.23,53.78,319.2,53.62,337c0,1.57-1.06-2.42-1.06-2.42L51.45,351.7s-1.79-2.42-2-9.54c-.05-2.06-.1-4-.15-5.8-.38,1.11-.76,2.25-1.16,3.42-5.88,17.49-1.25,46.72,1.58,60.84l1.2.71c-.26-4.43-.29-8.85.82-6.89.38.68,1.57,4.12,3.23,9.23,1.36.76,2.74,1.51,4.12,2.24-4.49-17.68-8-32.19-8-34.2,0-5.53.08-8.9.08-8.9l11.11,19.35s-3.08-31.78-.28-48.36a202.67,202.67,0,0,1,8-31l3.06,7.48,3.3-20.41,5.86-10.78,13.82-14.31s5.47,6.55,5.49,4.14,3.11-24.75,3.11-24.75S129,214,127.51,212.42,144,193.8,144,193.8Z" style="fill:#455160;fill-rule:evenodd"/><path d="M328.44,228.3s16,33,15.33,31.77-7.17-4.87-7.17-4.87L359.34,291l-34.68-43.14,4.1-1.64L311.7,219.61,331,240Z" style="fill:#455160;fill-rule:evenodd"/><path d="M165.2,137.76s6.58-1.66,7-2.71,9.75,7.85,23.44,8.94,86.19-4.82,95.95-6.54a90.7,90.7,0,0,0,18.32-5.14c1-.47,10.29-.63,10.29-.63a39.49,39.49,0,0,0,8.19-7.76c3.16-4.32,2.66-1.67,2.66-1.67l-6.24,12,5.41.05L322,139.53l-3.47-1-1.1,1.19s-9-.56-8.41-.32,7.05,4.89,7.05,4.89-8.58-1.84-8.29-1.16-1.47,3.36-1.47,3.36l-9.49-1.29.92,5.07-6.29-1-8,2.72s-3.62-2.8-3.47-1.71-3.05,4.67-3.05,4.67l-6-4.52L264,157.58l-3.66-6.67-6.92,2.42-4.82,5.57-3.8-5.5-10.09-1.63-6.29,5.13s-5.2-6.13-5.25-5.12-6.55,6.34-6.55,6.34l-7.53-6-11.2,2.37L193,148.74l-14.33,2-.24-3.64-11.86-2-5.31-1L155,138l-2.95-6.3,8.84,6.35-2.21-7.37Z" style="fill:#231f20;fill-rule:evenodd"/><path d="M158.6,142.1c-1.8.23-10.3-3.89-10.3-3.89s4.77,4.08,5.07,4.39-5.58-1.86-5.58-1.86a33.13,33.13,0,0,0,7.58,5.21C158.91,147.45,160.74,143.63,158.6,142.1Z" style="fill:#231f20;fill-rule:evenodd"/><path d="M147,186.36c-5.66,1.34-11.41-1.24-11.41-1.24l3.27,4.67-5-3.66s3.32,4.79,3.62,5.57-4.38-1.54-4.38-1.54l6.42,8.56S151.24,192.25,147,186.36Z" style="fill:#231f20;fill-rule:evenodd"/><path d="M154.54,199.76s-2.91-6.44-3.86-6.82-5.61.24-4.49-.61,9.23-3.19,9.52-2.09.49-1.68.49-1.68l8.56,7.45-.83-6.24s7.63,8.58,8.78,8.8,3.15-2.84,3.15-2.84,3.54,3.37,6.15,3.78,10.82,7.34,12.16,6.15,11.51-9.42,11.51-9.42l3,9.43,4.37-4.42s11.69,9.87,11.23,8.18-3.4-9.68-3.4-9.68l10.26,8.17s11.48-5.68,13.3-7.72,3.33,4.22,3.33,4.22,6.51,12,7,10.22,8.2-15.12,8.2-15.12l3.66,6.91,18.54-7.27,5,9.43s7-11.39,7.29-9.56,5.21,8.71,6.9,7.28,11.36-9.45,11.4-11.44,5.45,8,5.45,8,5-13.7,4.91-11.74,6.13-6,6.13-6l6.82,5-12.51,32.53S138.21,224.3,154.54,199.76Z" style="fill:#231f20;fill-rule:evenodd"/><path d="M334.89,204.78c1.41.54,21.27,11.49,18.44,5.45s17.9-13.79,17.9-13.79l-21.09-5.24,14.68-2.51-15.6-1.83,13.25-4.69-17.83,2.54S327.72,200,334.89,204.78Z" style="fill:#231f20;fill-rule:evenodd"/><path d="M184.2,213.86s-20.89,25.35-20.87,23.66,2.49-9.84,2.49-9.84l-15.33,21,1.27-7s-23.52,50.79-24,55.83,12.17-17.93,12.17-17.93l10-15.79-1.79,12,9-18.7,7.77-8.82s-.62,15.87-.61,14.67a94.76,94.76,0,0,1,5.49-21.88C175.18,228,183.49,215.75,184.2,213.86Z" style="fill:#455160;fill-rule:evenodd"/><path d="M295.4,215.85s-11.08,3.75-15.45,8.53-5.12,8.37-5.12,8.37l-3.05-8.21s-9.28,3-7.49,13.84-5,.07-5,.07L259.2,261l-5.4-13.28s-8.68,30.23-9.46,36.48S237.1,261,237.1,261l-6.27,3.07.61-14.43s-5.75-2.22-7.22.9,2.27-11.77,2.27-11.77-2.64,0-6.27,3.07.07-7.7.07-7.7-5-3.41-8.41-.07-4.59,3.32-4.59,3.32l2.47-8.15s-.45-2.65-4.32-.52-5-2.93-5-2.93v-4.26l-5.28-1.3-5.07-7.12s10.64,3.58,17.27,3.78,19.82,13.51,19.84,15.51-.27-15,1.9-15,6.18,7.94,6.18,7.94l5.83-7.73.36,13.8s8.29-13.68,10.69-13.65,3,14.26,2.53,9.6,7.05-6.81,12.36-9.42S295.4,215.85,295.4,215.85Z" style="fill:#455160;fill-rule:evenodd"/><path d="M91.41,235.15S72.61,254,70.67,255.93a57.83,57.83,0,0,0-5.1,6.69l5.88-.95L59.89,278.93l-1.46,2.88,5-2L52.36,308Z" style="fill:#231f20;fill-rule:evenodd"/><path d="M44.91,343.27s-6.36,12.45-10.48,16.27-6.28,4-4.36,4,5.76.53,5.76.53-3.46,10.55-6.12,13.18S27,380.16,27,380.16l12.08-6.85Z" style="fill:#231f20;fill-rule:evenodd"/><path d="M358.13,211.37c18.38,13.15,43.79,18.19,43.79,18.19l-5.3,1.64s-.5,2.4,6.2,6.07a83.55,83.55,0,0,0,14.12,5.9l-11.77-.11s5.61,16.89,9.43,20.06,10.92,13.33,10.92,13.33-11.68-9-18.6-14.13S357.8,221.47,358.13,211.37Z" style="fill:#231f20;fill-rule:evenodd"/><path d="M421,336.62c19.91,30.51,16.95,27,22.7,27.8l5.76.77-8,5.94a2.84,2.84,0,0,0,1,3.16c-4.4.85-9.21,1.75-14.4,2.7C427.15,370.46,421,336.62,421,336.62Z" style="fill:#231f20;fill-rule:evenodd"/><path d="M347.73,293.06s8.19,20.24,8.76,26.54.63,7.53.63,7.53l-7.67-13s1.71,21.88.77,28.07-2.68-32.8-6.8-42.43-7.26-15.3-7.26-15.3l8.37,10.81Z" style="fill:#455160;fill-rule:evenodd"/><path d="M310.76,261.54c.31,1.19-1.35,24-1.35,24s-.6-6.14-3.58-10.57-3.19-4.86-3.19-4.86,3.32,17.13,2.08,26.05-2.33,10.53-2.33,10.53-3.28-22.51-5.62-26.18-3,4.17-3,4.17L277.56,262.6s16,8.35,15,5.48-3.68-11.86-3.68-11.86l7.93,2.53,6.18-8.13,4.83,15.85Z" style="fill:#455160;fill-rule:evenodd"/><path d="M215.29,285.51c0-1.92,3.47-11.52,3.47-11.52l-7,2.59,1.28-9.13L202,271.92l.77-5.77L199.11,268,197,257.68l-.41-7s-12.59,10.23-16,20.3-5.17,14.39-5.17,14.39L186.1,273s-2.52,12.48-2.59,20.42.38,11.55.15,10.35,7.11-15.81,7.11-15.81l.59,13.95,6.38-14.61,5.62,15.92,3-13.44L212,305.93Z" style="fill:#455160;fill-rule:evenodd"/><path d="M273.45,282.12s4.47,10.63,3.71,15.19a51.28,51.28,0,0,0-.78,7.21l-1.85-8.67-6.65,18.7-1.06-16.13L261.69,308l-3.41-21.44s4.28,5.09,4.06,3.16-.88-9.63-.88-9.63L266,284.7l3.2-8.39Z" style="fill:#455160;fill-rule:evenodd"/><path d="M162.65,290.8c0-2.14-4.75,5.31-4.75,5.31l2.67-11.31S148,309.28,147.33,308.42s.54-13.26.54-13.26c-6.64,9.6-10.3,21.23-10.89,28.11-.47,5.48,5.52,23.38,5.52,23.38l-.71-15.4s6.31,10.32,5.9,8.39S147,324,147,324l3.82,3c.67-6.4,3-10.78,4.82-17.11C156.87,305.49,162.55,301.9,162.65,290.8Z" style="fill:#455160;fill-rule:evenodd"/><path d="M181.55,311l5.53,19S196,345.09,198.82,350s5-8.78,5-8.78,11.7,11.55,15.52,16.11c-1.4-9-6.36-16.56-6.58-17.71-.32-1.72-1.85-8.64-2.62-12.53l-1.14-.83-.91,5.16-3.86-8.7c-2.35-1.79-3.2,8.28-4.45,6.82S181.55,311,181.55,311Zm38.22,22.67c-.14.17,21.29,58.28,23.65,52,6.15-16.39,7.85-19.43,21.05-30.17,1.07-2.39,5.52-8.68,5.52-8.68s-7,5.86-6.71,4.57,5.18-14.42,5.18-14.42l-5.75,5.91,1.09-5.33c-1.18-3.12-1.57-12.05-1.57-12.05l-11.08,7.17-8-28.89s-5.59,30.57-6.86,28.49-5.86-11.47-5.86-11.47l-.33,8-6.48-3.65,9.7,28.22-13.53-19.71Zm51,21.59c5.62-2,16.59-6,17.18-7.51.8-2.07,9.28-23.78,4.95-2.55s-5.9,22-5.9,22,13.58-11.81,15.2-19.32,3-17.86,3-17.86l4-11.64-8.92,12.11-6-20.29s-4.17,23-7.49,26.66-3.7,6.08-5.41,7.76c-.53,3.39-3.93-8.57-4.44-7.88S273.51,350,270.74,355.23Z" style="fill:#455160;fill-rule:evenodd"/><path d="M352.39,214.82c5.65,5.5,20.77,17.37,20.77,17.37l7,6.73,5,4.79L406,257.81l-9.21.21s14.57,33.09,16,50.23,1.31,27.52,1.31,27.52c6-6.21,4.23-7.85,4.77-3.89,1.05,7.55,2.49,47.72,2.8,43.33L423.41,350s1.31,9.39,2.76,20.81l-1,6.76c-3.27.58-6.67,1.19-10.2,1.8-.37-5-.69-9-1-10.41-.94-4.42,4.33,8.08,4.33,8.08l-7-29.89,4.38,2.37-11.14-28.63s6.53,7.12,8,7.08-17.36-57.22-17.36-57.22L382.07,255l7.22,3.7Z" style="fill:#455160;fill-rule:evenodd"/><path d="M158,381.14a5.68,5.68,0,0,0,.12.9c.78,4.09,5,18.79,6.42,20.69,1.54,2.09-8-7.34-8-7.34s7.34,11.07,13.37,19.46l4.23-.49a33.6,33.6,0,0,1-2.81-5.56c-2.21-5.75-4.77-13.37-5-14.28s-1.08-9.37-1.08-9.37l-1.32,3.11Z" style="fill:#455160;fill-rule:evenodd"/><path d="M202.56,404.63c.73.87,2.57,3.35,4.3,5.7l2.15-.27-.78-2.79-.42-8.28L205,404.62l-5.37-8.17S199.49,402.36,202.56,404.63Z" style="fill:#455160;fill-rule:evenodd"/><path d="M309.79,396.05c0-.2,0-.39.06-.58.18-3.28,1.08-1.66,1.82.3l-1.88.28Zm8.12-1.2.76-.59-.36.53Z" style="fill:#455160;fill-rule:evenodd"/><path d="M44.94,101c-14.8,3-24,9-30.59,17.5A48.65,48.65,0,0,0,5,141.91a83.25,83.25,0,0,0,1.29,27.85c5.32,26.13,20.75,52.28,37.09,65,42.94,33.37,104.51,40.54,165.93,47.7,51.92,6,103.73,12.08,144.62,33.86,26.68,14.22,54,35.94,72.09,61.07l-5.05.91c-16.89-23.74-42.62-44.06-69.07-58.15-40.19-21.41-91.58-27.4-143.09-33.4-62-7.22-124.19-14.47-168.08-48.58C23.62,224.88,7.53,197.7,2,170.62a87.56,87.56,0,0,1-1.33-29.3,52.94,52.94,0,0,1,10.25-25.5c7.22-9.31,16.86-16,32.76-19.26Z" style="fill:#d6265c"/><path d="M47.08,102.76c-14.79,3-25.54,9.41-32.14,17.93a48.65,48.65,0,0,0-9.39,23.44A83.25,83.25,0,0,0,6.85,172c5.31,26.13,20.74,52.28,37.08,65,42.94,33.37,104.51,40.54,165.93,47.7,51.92,6,103.74,12.08,144.62,33.87,25.95,13.82,52.51,34.75,70.58,59l-5,.88c-17.42-22.75-42.5-42.67-67.64-56.07C312.27,300.94,260.87,295,209.37,289c-62-7.22-124.2-14.46-168.09-48.58C24.21,227.1,8.12,199.93,2.61,172.84a87.56,87.56,0,0,1-1.33-29.3A53,53,0,0,1,11.53,118c7.22-9.31,17.09-16.06,33-19.31Z" style="fill:#231f20"/></svg>