<svg xmlns="http://www.w3.org/2000/svg" width="565" height="651.92" viewBox="0 0 565 651.92"><path d="M48.87,429.61c11.38-9-14.13-26-23-39s-15.15-37-16.29-77.45-5.22-50.92,1-94.29,5.16-54.42,1-58.78S2.09,151,2.09,151C2.14,152.93,0,157.94,0,169.94,0,242,4.45,464.71,48.87,429.61Z" style="fill:#001c36;fill-rule:evenodd"/><path d="M541,31.92c-6,12.76-9.77,16.67-6.32,17.25s4.88-8.41,7.18-6.52,5-3,4.31-6.09S541,31.92,541,31.92Zm-1.87-9.71c-4.6,2.76-6.75,4.64-2.58,5.22s6.89-7,2.58-5.22Zm-21.69.73c-8,5.22-14.94,9-10,11s9.48-4.63,10.34-2.89,5.46-2.32,6.61-6.09-6.9-2-6.9-2Z" style="fill:#001c36;fill-rule:evenodd"/><path d="M66.87,31.6c1.9,3.3,1.49,9.23-2.52,6.54s2.52-6.54,2.52-6.54ZM68.43,25c-2.94-5.05,7.38-5.56,12.1-2.43s-.84,8.15-12.1,2.43ZM41.72,14.11c6.64.91,16.7,16.19,17.07,10.67S51.94,6.13,54.64,7.65s2.52,7.27,10,9.71S62.56,4.15,61.28.72,40.64,6.79,41.72,14.12Z" style="fill:#001c36;fill-rule:evenodd"/><path d="M547.6,141.21c-.68,5.48-1.7,13.68-.34,22.92s1.35,22.23,1.35,42.75,0,27.7,1.36,33.17,7.46,3.76,6.44-9.58,3.42-26.72,3.14-30.85S551.26,127.88,547.6,141.21Z" style="fill:#001c36;fill-rule:evenodd"/><path d="M34.78,30.49c0,12.75,7.47,26.09,10.34,20.87s.29-8.41,4.31-11.6,3.16-4.92-2.3-4.92S39.09,27.59,34.78,30.49Z" style="fill:#001c36;fill-rule:evenodd"/><path d="M15.44,450.42c-3.75,12.1-3,4.56-3,17S-2.69,576.34,21.84,590.67s130.55,25.31,170-4S265,530.8,261.43,521.05s1.36-7.71-21.34-1.93-14.78,21.15-37.47,18-34.11-22.62-46.38-4.57S174.45,569.91,124,558s-48.21-11.92-63.2-18.72-34.72,39-32.47,11.05-16-67.88-16.42-79.22A54.94,54.94,0,0,1,15.44,450.42Z" style="fill:#001c36;fill-rule:evenodd"/><path d="M38,469.91c1.15,27.24,1.15,46.95,24.13,58s21.26-16.24,27.58-8.7,21.26,5.8,19-4.06-5.74,2-11.78-.58-6.6-6.66-7.75-9.56-.87-.87-5.17,6.08-19,17.69-26.44,1.74-8-41.44-11.2-46.66S37.12,462.66,38,469.91Z" style="fill:#001c36;fill-rule:evenodd"/><path d="M560.92,416.93c-.3,50.5-1,82.26-1,97.06,0,18.55,11.49,64.93,0,96.23-4.22,11.5-1.31,18.77,1.9,24-19.46,30.17-64.3,16.19-105.33-.75-49.84-20.58-36.72-12.14-40.37-31.6s16.67-46.37,20.11-36.52,23.2,18.37,47.7-7,.57-29,7.47-33.63,17.81,13.34,35,0S547.1,498.11,554,434.34c-17.24-.58-15.52-18.55-11.49-22S558,411.15,560.92,416.93Z" style="fill:#001c36;fill-rule:evenodd"/><path d="M37.62,512s-5.74-17.39-5.17-18.84,2.3-9.85,2.3-9.85l5.46,7.82,13.22-31-2,43.77Z" style="fill:#001c36;fill-rule:evenodd"/><path d="M116.19,396.05c2.3,3.91,6,.72,5.75-.87S119.49,389.53,116.19,396.05Z" style="fill:#001c36;fill-rule:evenodd"/><path d="M33.15,475.33c2-15.36,2.44-31.73,3.44-34.2s1.15-4.05,1.15-2.61,0,5.94,1.15,3.48,7.62-16.67,7.62-16.67-1,2.88-2.28,6.63c-2,5.81-4.7,13.72-5.48,16.27C37.46,452.44,36.16,476.06,33.15,475.33Z" style="fill:#001c36;fill-rule:evenodd"/><path d="M529.24,486.34c8.62,2.61,9.91.87,10.63-.29s.86,5.07,4.17,3.91,6.89-11.45,8.18-10-5.88,12.32-8.76,12.61-3.45-4.93-4.88-3.33S527.37,492,529.24,486.34Z" style="fill:#001c36;fill-rule:evenodd"/><path d="M362.27,516.4c2.76-1.72-.53-12.69,2-9.41s5.3,8,4.91,5.5-1.81-18.69-1-19,5.74,22.32,5.74,22.32l1.65-5.8,6.15,7.59Z" style="fill:#001c36;fill-rule:evenodd"/><path d="M473.05,500.08c0,.41-.17,4.11-1.21,2-.4-.8-.49.05-.4.26s3,3.22,3,3.22-1.06-8.44-1.06-9.5S473.05,500.08,473.05,500.08Z" style="fill:#001c36;fill-rule:evenodd"/><path d="M487.15,487.71c1,5.08,3.59,3.77,4.6,5.22s2.15-3.77,1.58-4.93-2.73,2.18-3.16.44S485.86,484,487.15,487.71Z" style="fill:#001c36;fill-rule:evenodd"/><path d="M506.79,501.73c1.74-2-2.89-8-1.54-9.53,4.28-5,12.71-3.26,12.41-.23-.41,4-3.62,6.59-3.89,8.83s-3.31,7.6-3.55,5.62.42-4.19-1.87-2.21S504.42,502.14,506.79,501.73Z" style="fill:#001c36;fill-rule:evenodd"/><path d="M106.17,438.92c15.23,22,18,26.81,19.39,29.27s5.34,8.9,5.34,8.9-4.76-12.59-5.55-14.48,3.16,3.77,3.16,3.34-5.1-7.83-7.76-12.11-13-16.81-11.63-15.07a21.53,21.53,0,0,1,2.87,5.51C112.06,444.79,106.17,438.92,106.17,438.92Z" style="fill:#001c36;fill-rule:evenodd"/></svg>