<svg xmlns="http://www.w3.org/2000/svg" width="565" height="247.78" viewBox="0 0 565 247.78"><path d="M15.52,4.83c3.89,14.1,14.94,34.2,14.64,18S24.78,8,22.54,6.78,17.76.48,17,0,15.52,4.83,15.52,4.83Z" style="fill:#3c7065;fill-rule:evenodd"/><path d="M560.3,135.78a71.31,71.31,0,0,1-2.32,7.6c-12,32.4,31.08,32.4-14.34,45.6s-355,58.8-410,58.8S10.5,185.38.93,166.18c-4.25-8.53,7.45-9.24,6.23-17.11,7.05-.7-.22-8.53,2.14-11.69,3.59-4.8,0-3.6,9.57,2.4S64,73.63,65.61,64.4s4.36,39.38,2.27,47.18S88.8,67.18,88.8,67.18s-15,60-17.34,88.5,13.48-9.75,20.19-19.87,6.41-.53,14.48,5.77,28.09-47.4,31.68-41.7,4,7.28,8.43,7.09,14-18.49,16.37-15.49,12.25-.6,16.44,1.2a41.36,41.36,0,0,0,10.16,2.4s118.31,46.39,129.53,33.39,16.61-27.39,18.1-26.49,2.69,23.1,7.47,30.9,18.83-1.8,18.83-1.8-3.89,8.1,2.69,13.5,18.31,18.84,34.56,7.92,15.05-22.32,22.82-10.92,21.11,28.68,21.11,28.68,49.12,16.71,51.36-3.89-22.49-41.49,6.42-20S560.15,135.94,560.3,135.78Z" style="fill:#3c7065;fill-rule:evenodd"/><path d="M95.18,74.38c.3-13.79,8.07-12.59,9-10.49s6.27-3.3,4.48.74S101.91,76.48,95.18,74.38Z" style="fill:#3c7065;fill-rule:evenodd"/><path d="M40.27,34.55c16.44,22.37,19.41,27.24,21,29.75s5.8,9,5.8,9-5.31-12.89-6.18-14.82,3.39,3.81,3.38,3.36-5.53-8-8.41-12.3-14-17-12.51-15.27a22.34,22.34,0,0,1,3.14,5.62C46.56,40.46,40.27,34.55,40.27,34.55Z" style="fill:#3c7065;fill-rule:evenodd"/><path d="M14,27.48c-2.84,9-.6,13.65,1.64,11.4S18.51,26,14,27.48Z" style="fill:#3c7065;fill-rule:evenodd"/></svg>