<svg xmlns="http://www.w3.org/2000/svg" width="187.32" height="83.44" viewBox="0 0 187.32 83.44"><path d="M13.05,48.9c-.48,5.78,5.11,18.27,11.84,23.46s25.45,10,58,11,89.92-10.49,95.35-17.25,6.09-29.8,6.09-29.8l.61-3Z" style="fill:#455160;fill-rule:evenodd"/><path d="M13.05,48.9c-.48,5.78,5.11,18.27,11.84,23.46s25.45,10,58,11c29.83.89,80.6-8.68,93-15.49,2.55-2.46,3.39-3.24,4.4-5.51,1.93-4.32,2.56-10.26,3.43-17h0c0,.09-6,10.75-6.92,12.41s-3.45,3.67-4.52,2.22a8.38,8.38,0,0,1-1.29-3.57s-5.06,6.75-12.16,9.84-3.17-.85-4.1-2.06-3-2.12-3.54-.84S143,68.52,142,68.19s1.15-7.45,1.15-7.45a54.18,54.18,0,0,1-4.83,3.74c-3.38,2.42-4.89,2.24-4.89,2.24S135,63.13,135,62.38s-7.31,6.49-13.22,5.89-2-4.3-2.75-5.39-2.76,5-7.64,7.63-10.44,1.25-16.46.78-6.09-2.1-6.09-2.1.46,4.62-5.48,3.14S75,66.21,75,67.59s1.33,4.32-.93,4-4.33-4.3-8.32-6.87S60,64.54,60,64.54s2.61,7.77-1.61,5.59-5-4.28-5.56-3.87,2.09,4.53-1.87,2.72-9-8.23-9-8.23a9.16,9.16,0,0,0-1.2,3.69c-.5,2.78,3.17,6.37-.35,5.91s-4.52-3.17-6.3-3.84-1.52,2.33-5.16,1.87-7-3.55-7.76-5.52c0,0-5.31-10.59-5.66-12.83a2.63,2.63,0,0,0-.7-1.28Z" style="fill:#231f20;fill-rule:evenodd"/><path d="M15.3,47.47c-1.38,1.35.76,9.1,4.28,12.19s1.79,2.28,3.92,2.71c1.54.32,2.75-.28,4.87-.12.83.07,2.22,1.46,3.18,1.25,3.43-.75,9.75-8,15.93-6.77S55.91,60.6,60,60.4s4.17-1.7,7.32-1.22,2,2.79,11,2.49S92,58.27,92.39,57.62s9.16,3.58,14.37,2.71,4.78-4.74,9.89-4.85a44.52,44.52,0,0,1,10.13.45c1,.16,2,1.46,3.22,1.55,6,.47,10.63-7.77,15.34-8.49s9.83,4.3,14,2.72,2.1-3.11,4.49-2.84-5.13,2.94,5.62,2.94,14.05-4.9,14.05-4.9,2.47-5.6,2.74-7.87-1.29-5.74-2.15-5.67Z" style="fill:#d6265c;fill-rule:evenodd"/><path d="M20.82,55.86C14.24,54,2.76,43.93.71,32.12s.94-14.57,1.6-13.85,4.43,9.31,11,14.39S29,40.86,31,44,35.24,56.81,20.82,55.86Z" style="fill:#231f20;fill-rule:evenodd"/><path d="M42.87,49.45s-3.66-1.1-4.47-7.83,1.1-5.81,1.85-5.85,6.9-2.08,6.9-2.08S56.59,41.62,56.52,45,46.18,50.67,42.87,49.45Z" style="fill:#231f20;fill-rule:evenodd"/><path d="M65.39,46.93c-2-1.72-5.5-9.33-5.65-12.45s0-6.33.76-7.87a4.83,4.83,0,0,1,3.65-2.11c.56,0,2.11,1,2.6.94s1.93,1,3.14,2.92,11,9.94,12.26,11,3.27,3,1.78,5.81S73.1,51.39,65.39,46.93Z" style="fill:#231f20;fill-rule:evenodd"/><path d="M93.27,45.93c-.92-1-5.47-3.5-5.3-10.4s1.09-11.39,1.71-12.93.9-2.1,1.82-2.52,4.62-1.35,6-.54,2,.53,2.76,2.94,3,10.13,4.8,13,3.66,3.4,2.08,5.66S104.77,48.58,93.27,45.93Z" style="fill:#231f20;fill-rule:evenodd"/><path d="M112.4,43.4c-.57-1.54-1.91-4.8-.55-6.3s5.92-3.1,7.18-5.42,1.27-10.39,1.65-12.79,2.33-3.74,5.69-3.9,7,.79,8.43,3.86,2,6.55,2.67,11.59.61,9-.06,10.71S129.6,53.18,112.4,43.4Z" style="fill:#231f20;fill-rule:evenodd"/><path d="M141.34,40.91c2.17-1.73,5.34-11.28,6.15-15.45s.65-4.67,1-5.44,3.34-.78,6.46,1.95,4.14-2.45,5.23,7.52.08,12.28-2.4,12.77S150.32,45.87,141.34,40.91Z" style="fill:#231f20;fill-rule:evenodd"/><path d="M161.1,41.35c-.54-1-1.34-4.69,2.52-7.63s7.47-5.87,10.24-13.52,1.29-15.09-.59-17.89,0-3,3.45-.91,8.48,10.12,9.8,17-.24,16.52-1.34,19.36S182.87,51.63,161.1,41.35Z" style="fill:#231f20;fill-rule:evenodd"/><path d="M21.55,58.14c1.88,1.29,11.06-1.4,12.24-2.89s1.9-.84,1.13.13-5.57,3.84-8.75,4S19.85,60.22,21.55,58.14Z" style="fill:#231f20;fill-rule:evenodd"/><path d="M37.48,54c1.16-1.94.43-5.41,1.14-5a18.18,18.18,0,0,1,3.44,4.23c0,.43-1.45.88-1.91,1.9S39.77,53.65,37.48,54Z" style="fill:#231f20;fill-rule:evenodd"/><path d="M45.25,53.14a16.84,16.84,0,0,0,9.61-.26c4.24-1.46,3.66-5.81,4.38-5.1s1.2,1.51,0,3.45S51.45,57.84,45.25,53.14Z" style="fill:#231f20;fill-rule:evenodd"/><path d="M63.21,49.79c.19,1.37.31,5.18,8.59,5.86S87,53.18,87.7,51s2-5.73.8-6.93-2.2-1.65-2.37.18-.34,4.71-1.93,5.54,2.11.84-4.8,2.73-14.87-1.3-14.91-2.18S63.26,50.15,63.21,49.79Z" style="fill:#231f20;fill-rule:evenodd"/><path d="M93.43,49.24c4.67,1,12.88-1,14.18-2.73s1.29-5.83,2.06-3.92,3,5-.91,7.18S92,53.82,93.43,49.24Z" style="fill:#231f20;fill-rule:evenodd"/><path d="M117.47,48.92c-.34,2,4.37,2.62,7.5,2.78S136.09,49,137.4,47.55s2.43-4.19,2.2-5S133.22,53.07,117.47,48.92Z" style="fill:#231f20;fill-rule:evenodd"/><path d="M142.24,42.87c-.73.47-2,3.35,4.06,3.88s9.14.32,11.15-.78,2.94-2.52,2.3-2.8,1.07,0-3.18,1.53S144.3,46.43,142.24,42.87Z" style="fill:#231f20;fill-rule:evenodd"/><path d="M161.38,44.6c2.66,1.94,7,4,10.32,4.15s9.17-1.56,9.7-2.34-3,.71-8.87.11S162.78,42.12,161.38,44.6Z" style="fill:#231f20;fill-rule:evenodd"/><path d="M18.14,50.72C17,50.15,11.75,47.77,10,45.91s-6-8.49-6.45-11A27.64,27.64,0,0,1,3,31.58s1,2.08,1,1.7S2.35,25.84,2.33,24l0-1.82s4.76,7,5.62,8,.89.21.89.21,3,4.8,4.13,5.63,1-.87,1-.87.8,2.41,5.32,4.33,3.61,2.33,3.61,2.33A2.85,2.85,0,0,1,24,45.56C22.94,48,24.57,52,18.14,50.72Z" style="fill:#f7efe0;fill-rule:evenodd"/><path d="M39.81,37.17a20.06,20.06,0,0,0,1,7.41c1.08,3,2.4,3.33,5,3.21s7.06-1.8,7-2.15a22.38,22.38,0,0,0-2-3.73c-.54-.73-.22,2-.9.92S47.27,39,46.74,38.41s-.57,1.09-1,.61-1.45-1.68-1.45-1.68S43.72,34.8,39.81,37.17Z" style="fill:#f7efe0;fill-rule:evenodd"/><path d="M61.59,28.63a24.45,24.45,0,0,0,.77,9.61c1.22,3.51,4.94,8,7.08,8.37s8.2-.92,8-3-.92-1.67-2.11-3-1.43-1.25-.61-1,4,1.69,3,.93-5.32-4.2-7-6.57-2.27-3-1.44-2.68-2.39-3-2.39-3l-2-1.23S62.09,27.29,61.59,28.63Z" style="fill:#f7efe0;fill-rule:evenodd"/><path d="M90.44,22.31A22.8,22.8,0,0,0,89,32.78c.7,5.42,2.3,8.85,3.84,9.78s6.21.55,8.64-1a3.69,3.69,0,0,0,1.38-5.08,27.73,27.73,0,0,1-1.56-2.81s-1.87-2.35-2-3.73c-.09-1-.52-.44-.69-3.91-.14-3.06-.24-3.94-.1-3.63s-.32-.17-1.87-1.1-2.37.05-2.87.13S92.3,19.15,90.44,22.31Z" style="fill:#f7efe0;fill-rule:evenodd"/><path d="M114.86,37.14c3.56-1.35,5.84-6,6.59-11.15s.24-6.9.71-7.67,1.52-.89,2.94-1.27a1.75,1.75,0,0,1,2,.59,5.64,5.64,0,0,1,.68-1.59c.3-.27,1.94,1.41,2,1.72s.88-1.05.88-1.05a3.05,3.05,0,0,1,1.35.63c.65.53,2.41,2.08,2.64,5.76s.79,10.12-.12,13.29-4.72,5.93-4.68,5.49a14.85,14.85,0,0,1,.42-1.72s-3.21.91-5.68,1.59a16.46,16.46,0,0,1-4.28.64l2.84-2.14S114.13,41.75,114.86,37.14Z" style="fill:#f7efe0;fill-rule:evenodd"/><path d="M145.32,39.22a61.74,61.74,0,0,0,3.18-9.55,50.51,50.51,0,0,0,.7-6.24s.92,2.15,1,1.52.11-3,.4-3.4,1.31-.19,2.78.68,2,1.29,3,1.43a3.34,3.34,0,0,1,1.8,1.1,17.78,17.78,0,0,1-.29,4.53c-.44,1.21-.64-.47-.68-1.22s-.33,6.21-.44,6.53a12.33,12.33,0,0,0,.87-1.42,6.68,6.68,0,0,1,.06,3.88c-.58,2.41-2,3.36-3.3,2.92s-1.93.21-2.35-.71-.63-.22-1.93.16S146.21,40.8,145.32,39.22Z" style="fill:#f7efe0;fill-rule:evenodd"/><path d="M165.71,34.31c-.6,1.84-3.38,5.11,1.69,6.75s9.67,1,13.28-1.88,2.12-14.82,1.84-19.38a41.75,41.75,0,0,0-1.22-7.4c.21.36,2.83,3.06,2.28,2a30.22,30.22,0,0,0-3.26-5.55,56.39,56.39,0,0,0-3.95-4.26s1.07,6.72,1,7-1.06-2.64-1-2a36.55,36.55,0,0,1-1.55,12.23C173,27.32,165.71,34.31,165.71,34.31Z" style="fill:#f7efe0;fill-rule:evenodd"/><path d="M18.11,56.73a56.16,56.16,0,0,0,4.09,4.52s2,1,3.2.41,1.36-.31,4,.13a4.69,4.69,0,0,0,5-1.87c1.06-1.36,1.07-.5,2.91-.64S39,57,40.76,56.05s1.2.06,6.26.8,5.38,1,6.54.35-1.05.18,2.1.84,3.05-1.71,4-2.5.58.35,3.13,1.48A48.48,48.48,0,0,0,72.8,59.74c2.83.43.55-.34,4.84-.73s1.54-.45,6.18-.17,7.79-1.68,7.2-3.59,2.87-.14,4.83,1.52,3.36-.28,10.5.26,6.8-4.33,6.89-5.08.71,1.84,8.38,2.73,6.58.51,7.92-.25,3.07.23,4.26.24,5.47-2,6.1-4.42.59-3.41,3.44-2.61,5.93,2.42,9.63,2.87,5.81-2.78,6.94-2.77,5,1.63,8.24,2.68,4.45,1.13,6.61.56a22.65,22.65,0,0,0,7.83-3.68c2.72-2.06,2.26-9.54,2.88-11.34.28-.82,2.2,2,1.79,4.62C187,42.28,187.07,45,186,47c-.88,1.65-2.9,2.65-3.3,3.32-1.63,2.74-12.34,4.84-15.53,3.24s-3.39-2.85-4.38-1.36-10,1-12.36.33-5.15-3.33-7.65-.7-7.77,6.31-10.7,6.33-4.29-1.9-7.76-1.38-9.32,3.56-9.85,3-3.6.35-6.54,1.87-11.25-.09-12.55-1.1-4.57-1.6-5.55.08S88.5,64,87.71,63.11s-1.63-1.3-3.66-.77S72.8,63.75,70.54,62s-2.56-2.51-4.88-1.4-6.46,1.83-7.46.73-1.69-2.62-4.08-1.69-7.07,1.21-8.18.2-4.57-2.72-5-1.74-2.66,3.1-2.52,3.47-2.32,1.17-2.58.94-3.38,2.51-4.22,1.89-2.47-2.21-3.32-1.54a6.32,6.32,0,0,1-4.67.35c-1-.52-7.66-5.07-7.93-7.84s.35-3.3.54-2.84S18.11,56.73,18.11,56.73Z" style="fill:#231f20;fill-rule:evenodd"/><path d="M5.74,32.76C5.6,33.9,4.9,36.12,7.83,40s5,6.53,4.73,6.23,2.74,1.24,3-.65-5-3.64-5.94-5.29S7.41,32.37,5.74,32.76Z" style="fill:#fff;fill-rule:evenodd"/><path d="M40.76,38c-.21.29.45,6.25,1.6,7.6s4.07,1.13,4,.72a3.81,3.81,0,0,0-1.11-1.67c-.36-.23-1,.58-1.46.16s-.69-1.37-.91-1.36S41.1,38,41.1,38,41.12,37.64,40.76,38Z" style="fill:#fff;fill-rule:evenodd"/><path d="M62.56,31.24a24.65,24.65,0,0,0,1.63,7.54c1.18,2.42,1.46,3,1.66,2.62s.78.56,1.73,1.51a5,5,0,0,0,3,1.24c.06-.16-3.85-3.64-4.21-4.54a4.77,4.77,0,0,0-1.33-1.72C64.76,37.56,63.42,29,62.56,31.24Z" style="fill:#fff;fill-rule:evenodd"/><path d="M91.18,23.91s-1.42,7.15-.51,10.55,2.51,6.51,3,6.47.49-1.5.8-1.51,1.73,1,2,.85-1.7-.3-3-5.44-1.69-7.94-1.5-9.26S93,23.33,91.18,23.91Z" style="fill:#fff;fill-rule:evenodd"/><path d="M118.62,36.15c2.69-1.25,4.26-7.78,4.76-11.75s-.68-5.23.36-4.21.8,2.28,1.22,2,.68-2.91.77-2.35,1.17,7.78.64,9.68A19.16,19.16,0,0,1,124.08,34s1.73-1.58,1.6-.57S122.71,40.33,118.62,36.15Z" style="fill:#fff;fill-rule:evenodd"/><path d="M148.2,36.63s1.11-5.5,1.58-4.89,1-.11,1.5-2.64a34.09,34.09,0,0,0,.56-5.29,16,16,0,0,1,.88,5.41,7.22,7.22,0,0,1-1.75,3.9S150.77,38.08,148.2,36.63Z" style="fill:#fff;fill-rule:evenodd"/><path d="M168.32,36.69c-.56-2.54,0-2.25,2.46-4.88s4.49-8.1,4.65-7.3,1.84-.71,2.28-2-.18-7.83-.18-7.83,2.51,6.78,1.12,9.16-3,5-3,5a9.17,9.17,0,0,1-1.75,4C172.52,34.42,171,37.19,168.32,36.69Z" style="fill:#fff;fill-rule:evenodd"/><path d="M27.14,45.41c.09,2-2.57,6.58-1.47,6s1.48-1.76,2.43-2.87S28.79,44.65,27.14,45.41Z" style="fill:#fff;fill-rule:evenodd"/><path d="M97.06,25.18c0,.7-.1,5.31.74,7.23s1.36,1.29,1.24.79a49.37,49.37,0,0,1-1.15-6.36C97.87,25.39,97.06,25.18,97.06,25.18Z" style="fill:#231f20;fill-rule:evenodd"/><path d="M79.65,43.94c1.32-.61-.52-3.53-.86-4.42s1.86.26,2.37,1.54S81.33,44.71,79.65,43.94Z" style="fill:#f7efe0;fill-rule:evenodd"/><path d="M47,35.85c0,.46,3.59,3.95,3.59,3.95A16.16,16.16,0,0,0,49,37.07C48.24,36.2,49.08,34.86,47,35.85Z" style="fill:#f7efe0;fill-rule:evenodd"/><path d="M133,41.92c1.85-2.09,2.58-6.06,2.65-5.28s1,2.81.14,4.1S133.1,43.17,133,41.92Z" style="fill:#f7efe0;fill-rule:evenodd"/><path d="M103.94,41.87c1-1.56-.28-6-.28-6.56s2,1.56,2.15,3.24S106,42.72,103.94,41.87Z" style="fill:#f7efe0;fill-rule:evenodd"/><path d="M155.89,41c2.09-1.15,2.42-3.83,2.76-5s.58,2.83-.41,4S158.58,42.88,155.89,41Z" style="fill:#f7efe0;fill-rule:evenodd"/><path d="M177.71,42.61a12.42,12.42,0,0,0,5.58-5.76c.34-1.22-1.41,5.23-3.12,6a6.8,6.8,0,0,1-2.52.73C175.54,43.38,176.74,43,177.71,42.61Z" style="fill:#f7efe0;fill-rule:evenodd"/><path d="M183.62,17.29s.6,8.49.84,11.48.2,3.3.2,3.3.52-4.88.66-7.34a31.32,31.32,0,0,0-.48-5.85l.8-.13S184.47,15.24,183.62,17.29Z" style="fill:#f7efe0;fill-rule:evenodd"/></svg>