<svg xmlns="http://www.w3.org/2000/svg" width="140" height="130" viewBox="0 0 140 130"><path d="M2.89,7.71,0,11.28l2.8,8.88L0,40H2.89V7.71ZM0,0H2.89V4.51C1.88,6.1.9,7.64,0,9.08V0ZM5.73,4.22V25.89c-1.05,1.43-2.67,3.6-2.67,3.6l2.67-1.92V40H2.89V7.71L5.73,4.22ZM2.89,0V4.51C3.81,3.07,4.76,1.58,5.73.09V0ZM5.73,40H121.38c2.11-1,4.37-2,4.65-1.92.54.18.18,1.66,1.62,1.11s8.6-2.78,8.6-2.78-1.84,2-3.36,3.59H140l-1.45-15.26L136,16.27,140,0H73.13V15.78L66.92,0H38.51a3.52,3.52,0,0,0-1.25,2.08c0,1.23-2-.48-3.67-2.08H9.14L5.73,4.22V25.89c.44-.61.77-1.08.85-1.22L8.4,20.6l-.19,5.18L5.73,27.57V40Zm0-40h0l0,.09Z" style="fill:#001d36;fill-rule:evenodd"/><path d="M0,90H21.61c3.25,2,5.8,3.43,5.8,3.43s4-1.88,7.82-3.43H45.36c5.36,1.65,15.17,3.26,15.17,1.89,0-.52,1.22-1.19,3-1.89h45c.53,2.62,1.2,5.74,1.35,5.36L112,90h28v27l-8.21-4.07L140,124.18V130H104.35l5.21-5.48-9,5.48H3l-3-6.32v-7.16L2.82,107S1.28,102.8,0,98.85Z" style="fill:#001d36;fill-rule:evenodd"/></svg>