<svg xmlns="http://www.w3.org/2000/svg" width="613.66" height="194.98" viewBox="0 0 613.66 194.98"><path d="M482.65,27.73a1.33,1.33,0,0,0-.45.06l-.14,0a1.66,1.66,0,0,0-.27.13,2.39,2.39,0,0,0-.34.21h0l6.42-.41h-.14C486,27.66,484.34,27.76,482.65,27.73Z" style="fill:#fff"/><path d="M488.45,27.73a0,0,0,0,1,0,0h0Z" style="fill:#fff"/><polygon points="213.88 120.6 213.88 120.6 213.88 120.6 213.88 120.6" style="fill:#fff"/><polygon points="466.68 33.57 466.68 33.57 466.68 33.57 466.68 33.57" style="fill:#fff"/><path d="M481.27,28.29h0l.06,0Z" style="fill:#fff"/><path d="M464.14,33.56h0Z" style="fill:#fff"/><path d="M559.83,36.44h1.59A14,14,0,0,0,559.83,36.44Z" style="fill:#fff"/><path d="M453.57,78.58h0v-.32C453.58,78.38,453.58,78.48,453.57,78.58Z" style="fill:#fff"/><polygon points="219.57 135.23 219.57 135.23 219.57 135.23 219.57 135.23" style="fill:#fff"/><polygon points="279.63 111.66 279.63 111.66 279.63 111.66 279.63 111.66" style="fill:#fff"/><path d="M165.46,141.07c-.33,0-.65,0-1,0h-.06a2.44,2.44,0,0,0-.66.08,1.2,1.2,0,0,0-.34.17c-.15.14-.13.28.34.23s1-.25,1.7-.45Z" style="fill:#fff"/><path d="M165.74,143.94h0Z" style="fill:#fff"/><polygon points="165.73 141.08 165.73 141.08 165.74 141.08 165.73 141.08" style="fill:#fff"/><path d="M613.3,32.83c-2.53-3.53-6.61-4.76-10.31-6.55-2.23.56-4-1.18-5.94-1.33-1.59-.11-2.45-1.32-3.76-1.52a33,33,0,0,0-4.34-.07c-.45,0-1.09-.06-1.28-.34-1.73-2.54-5.45.45-7-2.55a25.19,25.19,0,0,0-5.07.07c-2.13.43-3.24-1.55-5.22-1.62-3-.09-6.25,1.28-8.84-1.36-1.93,0-4-.36-5.79.09-2.41.6-3.77-1.63-5.95-1.6-3,0-6.18.83-8.84-1.39h-5.08c-1.45,0-3-.31-4.34.07-2,.57-2.64-1.92-4.51-1.58a24.24,24.24,0,0,1-4.35.06,20.26,20.26,0,0,0-4.34.06c-1.74.38-2.31-1.54-3.77-1.52s-2.9,0-4.35,0a26.76,26.76,0,0,0-5.07.07c-1.76.35-2.26-1.61-3.77-1.54-1.93.09-3.87,0-5.81,0-2.18,0-4.37-.15-6.53,0-2,.18-2.92-2.19-5.24-1.62s-4.81.13-7.23.13a75.79,75.79,0,0,0-8,.06c-2.48.27-4.47-1-6.69-1.41-2.58-.45-5.31-.11-8-.11-2.42,0-4.92-.39-7.24.1-2.84.61-4.86-1.51-7.4-1.54-1.7,0-3.39,0-5.09,0h-5.81c-1.69,0-3.52-.4-5.05.1-2.3.75-3.28-1.77-5.24-1.57-1.2.12-2.42,0-3.63,0-2.42,0-4.86.19-7.25,0s-5.14.91-7.66-.8c-2.07-1.41-4.66-.33-7-.62a2,2,0,0,1-1.23-.49c-1.34-1.6-3.22-.47-4.68-1C385,.88,383.49-.4,381.46.12a4.3,4.3,0,0,1-.72,0c-.82.07-1.3.48-1.25,1.35.09,1.47-1.19,2-2,2.77-1.1,1-.52,1.47.24,2.1.36.31.65.72,1,1,.76.57.27.92,0,1.57-1.14,2.87-1.13,6.57.22,8.75.83,1.35.6,2.19-.46,3-.56.44-.57.65.05,1.06.9.58,1.44,1.77.75,2.39C378,25.29,378.19,26.59,378,28c-.5,3.45,1.46,7.18-1.14,10.42-.1.11.27.72.54,1,.79.78,1,1.67.25,2.47a3.16,3.16,0,0,0-1.09,2.48c.09,2.42.12,4.85,0,7.26,0,.55-1.38,1.21-1.27,1.53.27.82,1.46,1.16,1.35,2.35-.07.83.5,1.48,1.28,1.25,1.91-.55,2.93,1.32,4.5,1.46s3.38,0,5.08,0h4.35c2.56,2.87,5.89,1.1,8.85,1.4s5.78.09,8.68.15c.17,0,.51.43.48.47-.22.32-.49.84-.77.85a41.86,41.86,0,0,1-6.53,0c-2.26-.28-4,1.2-5.95,1.42-3.11.34-6.28.07-9.43.1-.93,0-2.31-.21-2.72.29-1.36,1.68-3.07,1.09-4.66,1.13a87.41,87.41,0,0,1-9.44-.05c-1.68-.14-2.41,1.38-3.76,1.5s-2.93-.16-4.35.07c-2.71.42-5.82-1.36-8.13,1.39-1.93,0-3.87-.07-5.79,0-1.63.09-3.56-.75-4.83.51-1.73,1.71-3.66.68-5.47.86-2.39.24-4.82.09-7.23.11-1.31,2.09-3.48,1.59-5.22,1.3-2.15-.37-3.18,1.67-5.22,1.66-3.44,0-7.14-1.13-10.29,1.34-3,.2-6.18-.77-8.84,1.46-2.18,0-4.44.36-6.51-.1-2.42-.55-3.85,1.44-5.95,1.6-2.49.2-5.35-1.22-7.39,1.4a24.47,24.47,0,0,1-5.07-.07c-2.13-.45-3.21,1.7-5.23,1.6s-4.34-.76-6.24.6-4.16.46-6.22.78c-.22,0-.52.08-.62.23C256.31,83,252.6,80,251,82.83c-1.68,0-3.45.43-5,0-2.21-.58-3.26,1.58-5.23,1.62-2.28,0-4.69-1-6.89.86-1.78,1.48-4.85-.63-6.43,2-1.8.26-3.91-.86-5.32,1.17-1.9.09-3.8.18-5.69.29-.7,0-1.75-.12-2,.26-1.28,1.74-3,1.13-4.63,1.16s-2.54,2-4.51,1.59c-.87-.18-1.95,1.07-3,1.3-2.22.47-4.86-1-6.65,1.49a22.54,22.54,0,0,1-4.35,0c-1.72-.36-2.24,1.48-3.76,1.58-2,.13-4.15-.83-6.13,1-1.46,1.36-4.33-.7-5.82,1.63-1.67.06-3.35,0-5,.22s-3.08,2.2-5.22,1.46a2.23,2.23,0,0,0-2.53.87c-.93,1.14-2.4.07-3.36.61s-1.64,1.54-3.07,1.44c-2.07-.14-4.09-.27-6,1.29-.89.72-2.77.21-4.2.26-1.35,2.07-3.72.62-5.2,1.43a9.28,9.28,0,0,1-5.28,1.35c-.43,0-1.1,0-1.28.32-1,1.55-2.6,1.3-3.91,1-1.74-.34-2.33,1.5-3.77,1.53-1.85,0-3.9-.57-5.2,1.45-2.09,0-4.11-.22-6,1.34-.89.72-2.77.21-4.2.26-1.36,2.07-3.72.61-5.2,1.43a9.3,9.3,0,0,1-5.28,1.35c-.43,0-1.1.05-1.28.32-1,1.55-2.92.52-3.84,1.22a5.16,5.16,0,0,1-4.56,1.29c-1.74-.43-2.25,1.58-3.76,1.53-1.86-.06-3.85-.4-5.21,1.43-2.08,0-4.31-.48-5.93,1.45-2.67-.57-4.64,2.27-7.4,1.51-.5-.13-1.21.51-1.82.78-2.06.93-3.9,2.54-6.4,2.07-1.09,1.75-2.86,1.73-4.47,1.4-1.9-.39-2.5,2.14-4.51,1.56-2.61-.74-4.64,1.67-7.26,1.78-1.38.06-2.6,1.85-4.06,2.35s-3.39-.2-4.42,1.62c-1.69-.14-3.35-.15-4.47,1.46-2.1-.8-3.45,1.07-5.21,1.43-1.56.32-3.21-.44-4.67,1.14-1,1.07-3.33-.32-4.43,1.57-.15.25-1.55.19-1.85-.16-1.56-1.85-3.59-.82-5.4-1.07-1.31,2-3.36,1.46-5.2,1.41-.93,0-1.23.63-1.75,1.07a12.39,12.39,0,0,0-1,1c-1.89,2-2.21,3.41-1.6,6.86.16.89-.24,1.85.64,2.65,1.43,1.3,2.71,2.76,4.14,4.08s1.07,3.6,3.05,4.58c2.47,1.22,2.31,4.56,4.6,6.1.61.41.49,1.94,1.11,2.34,1.22.8.57,2.31,1.5,3.06,2.09,1.66,2.6,4.26,3.93,6.35,1.83,2.87,2.42,6.48,5.27,8.75.41.34.35,1.29.47,2,.41,2.27,1.61,3.57,3.56,3.49,1.63-.06,3.56.74,4.84-.49,1.72-1.65,3.67-.48,5.43-1,.21-.06.38-.31.52-.5a2.24,2.24,0,0,1,2.53-.88c1.45.32,2.12-1.6,3-1.38,2.82.7,4.9-1.28,7.41-1.61,1-.14,2.06-1.37,3-1.3,2.59.19,4.69-.34,6.28-2.51a1.42,1.42,0,0,1,1.22-.45c2.11.59,3.33-1.38,5.14-1.76,1-.21,1.79-1.43,3.11-1.18,3,.55,5.4-.85,7.75-2.3,1.16-.72,2.77-.58,3.58-2,.12-.22.94-.18,1.38,0,2.06.58,3.56-1.32,5.21-1.32,2.09,0,3.26-1.66,5.15-1.83.72-.07,1.22-1.47,2.36-1.23,2.91.63,5.47-.76,8.09-1.52a48.76,48.76,0,0,0,5.73-1.92,8.26,8.26,0,0,1,3.25-.94c.43,0,1.2-.28,1.21-.46.11-2.88,2.16-2.43,4-2.43,5,0,5.07.12,9.25-2.18a7.35,7.35,0,0,1,3.35-.72c1.17-.09,2.35-.15,3.53-.22,1-2.29,3.44-.67,5-2a10.26,10.26,0,0,1,7.78-2.24c2.36.28,2.28-.28,5.24-1.27,1.73-.58,1-1.86,1.67-2.67,1.63-2.06,2.55-2.28,5.49-1.07.34.14.86.48,1,.36.75-.61,1.37-1.36,2.09-2s1.38-.87,2.43,0a4.47,4.47,0,0,0,2.54,1c1.46.2,2-1.21,3-1.44a26.34,26.34,0,0,1,4.28-.23c.18,0,.51-.34.49-.49-.31-2.89,1.78-2.21,3.33-2.24,2.42,0,4.84,0,7.26,0a1.14,1.14,0,0,0,1.13-1.45c-.06-.48,0-1,0-1.45a1.11,1.11,0,0,1,1.19-1.38c.59,0,1.67.58,1.65.82-.21,2.39,1.42,2,2.83,2,1.26,0,1.49-.63,1.64-1.73.26-1.87,1-.75,1.72-.21,1,.73,1.72.74,2.43-.13a5.85,5.85,0,0,1,5.6-2.35c1.11.13,2.44.5,3.31-.71.63-.86,1.11-.4,1.54.15.73,1,1.76.48,2.66.61s1.55-.29,1.54-1c0-1.65.76-2.06,2.21-1.91,1.69.19,3.36.19,4.48-1.44,2.09-.05,3.6-2.25,5.95-1.5a13.85,13.85,0,0,0,2.89.06c1.61.13,2.13-.62,2-2.12,0-.16.88-.54.89-.53,1.18,1.83,3,1,4.62,1.19s2-1.17,2.82-1.91c.09-.08-.19-.69-.4-1-.09-.12-.46,0-.7,0a8.76,8.76,0,0,1-1.45,0c-.43-.08-1.16-.28-1.19-.49-.1-.89.59-.91,1.29-1a4.14,4.14,0,0,0,1.21-.57c-.28-.28-.55-.81-.83-.82-1.91,0-3.83.07-5.74.13-1.36,2.05-3.47,1.07-5.28,1.29-.69.08-1.74-.09-2,.29-1.61,2.26-4.41.12-5.9,1.56-1.95,1.89-4.13.56-6.13,1.08a4.54,4.54,0,0,0-1.78.93c-1.44,1.24-4-.55-5,1.86-.79-1-1.3-1.25-2.66-.3-1.17.81-3.16.47-4.78.64-1.15,1.87-3,1-4.59,1.2-.92.11-2.21-.12-2.69.4-1.64,1.78-3.61.8-5.42,1-1.31,2-3.36,1.39-5.21,1.45-1,0-1.93,0-2.9,0-.16.4-.2,1-.49,1.16-1.76,1-4.21-.8-5.7,1.39l-5.43.35v0h-.17a.26.26,0,0,1,.1.14v0a.29.29,0,0,1,0,.09.34.34,0,0,1,0,.1v.09a1.29,1.29,0,0,1,0,.25c-.05.31-.63.71-1,.74a15.29,15.29,0,0,1-2.7-.11c-.18,0-.49-.41-.47-.44.23-.32.47-.77.78-.83a3.5,3.5,0,0,1,.48-.06h0c.54,0,1.19,0,2.21,0l.07,0c.8-.41.95-1.14,1.13-1.15a3.65,3.65,0,0,0,1.3-.26l.1-.05.08,0c.59-.4.13-1-2.16-1.35h-.25a8.43,8.43,0,0,1-1.71.45c-.3.07-.55.11-.77.15-.25.27-.49.58-.74.82-.22-.35-.44-.68-.62-1a.75.75,0,0,1-.07-.12c-.29-.59-.55-1.2-.8-1.8-.13-.33-.4-.88-.3-1,.85-.7,2.31-.24,2.94-1.49a1.52,1.52,0,0,1,1,.27c1,1,1.87,1.15,3,.16a5.23,5.23,0,0,1,1.78-.79c.17-.06.43.07.62.17.65.32.71.76.08,1-.91.3-.54,1.62-1.68,1.81a.65.65,0,0,0-.23.09l-.08.06-.13.11-.1.1-.09.11-.25.3,1.61-.54c0-.1,0-.19,0-.3.64,0,1.59-.23,2,0a.36.36,0,0,1,.12.08c1.21,1.61,2.82,1.48,4.48,1.41.72,0,1.43,0,2.15,0,.16-.4.21-1,.49-1.15a13.31,13.31,0,0,1,1.94-.32,17.84,17.84,0,0,0,1.83-.61,4.8,4.8,0,0,0-1.54-.79c-1.29-.17-1.39-1.05-1.23-2a1.21,1.21,0,0,1,1.48-1,9.21,9.21,0,0,0,1.39,0c0-.72,0-1.45,0-2.17.06-2.38.66-2.7,3-1.33.52.3.74.66,1,.21.66-.93,1.22-1.16,2.11-.12a2,2,0,0,0,1.88.4,8.37,8.37,0,0,0,2.08-2c1.38-1.64,1.69.91,2.7.66a3.94,3.94,0,0,0,1.3-.33,12.43,12.43,0,0,0,1.56-1.52c1.36-1.36,1.4-1.41,3.48,0,.51.33.77.53,1-.15s.16-1.51.58-1.89a2,2,0,0,1,1.88-.25c1.15.61,0,1.07-.34,1.47-1,1.13.24,1.16.68,1.2,1.09.08,1.83.35,1.74,1.63a3.24,3.24,0,0,0,.6,2.65c.29-.29.78-.55.81-.86.15-1.42.1-2.86.27-4.27,0-.23.75-.49,1.17-.54,1.48-.15,2.06,2,3.75,1.56.06,0,.38,1.21.68,1.81a2.79,2.79,0,0,0,.86.81s.47-.32.47-.49c0-2.25-.09-4.5,3.33-3.75.31.07,1.11-.5,1.08-.68-.32-2.27,1.1-2.22,2.66-2.21a5.22,5.22,0,0,0,3.35-.71,4.6,4.6,0,0,1,5.81.21c.52.45,1,.67,1,0,.16-2.16,1.33-2.77,3.26-2.43a5.93,5.93,0,0,0,6.21-2.59c.6-.79,2.61.21,2.45-1.77a14.87,14.87,0,0,0-3-1.4,22.27,22.27,0,0,0-3.57-.12c-.18,0-.52-.42-.49-.48.19-.33.59-.9.69-.86,2.38,1,3.73-1.7,5.91-1.54a30.07,30.07,0,0,0,5.69-.19c.26,0,.47-1.19.54-1.84,0-.17-.58-.41-.89-.62-.92,2-2.21-.36-3,.22s-1.29,1.22-2.12.09a2,2,0,0,0-1.21-.51c-.11,0-.24,0-.36,0a2.9,2.9,0,0,0-1.1.32,1.16,1.16,0,0,1,0,.36c0,.3-.6.56-1,.76l-.1,0a2.73,2.73,0,0,1-.57,0l-1.11-.6c.48-.29.95-.78,1.44-.79l.17,0,.05,0,.23-.06,0,0,.25,0,.1,0h.19l.09,0,.07.06s.05,0,.06.06h0c.14-.13.3-.25.45-.38a11,11,0,0,1,4.09-2.47H246a1.09,1.09,0,0,1,.37,0c2,.58,2.59-2,4.51-1.6,1.38.31,2.89-.07,4.32.09,2.19.23,3.57-2.57,5.92-1.49,1-1.81,3-1.07,4.39-1.64,1-.42,1.64-1.61,2.61-.07,2.13.09,4.27.29,6.41.23,1.8-.06,3.89.81,5.29-1.21.1-.14.4-.17.62-.21,2.06-.32,4.22.64,6.21-.78s4.16-.7,6.22-.6,3.08-2,5.21-1.6a24.39,24.39,0,0,0,5.06.07c1.31-2,3.34-1.41,5.19-1.42a3.54,3.54,0,0,1,1.24.48c-.21.31-.5.93-.6.9-1.68-.52-2.22,1.82-3.76,1.48s-2.52,1.11-3.76,1.37a28.54,28.54,0,0,1-5.78.1,46.39,46.39,0,0,0-5.78.06c-1.29.16-2.47,1.11-3.76,1.34a26.16,26.16,0,0,1-4.34,0c-2.11,2.24-4.85,1.26-7.36,1.45-1.86,2.11-4.4,1.1-6.63,1.53-1.74.34-3.11,1.86-5.22,1.44a23,23,0,0,0-5.05,0,1.78,1.78,0,0,0-1.23.49c-1,1.36-3.07.91-4.11,2.49-.67,1,.07,1.22.45,1.55.85.76.38,1.69,3.3,2.73h3.7s.07,0,.07,0,.3.3.45.44a2,2,0,0,1,0,.47s0,0,0,0a9.27,9.27,0,0,0-1.94.56c-.77.45-1.21,1.71-2.31,1.31a9.41,9.41,0,0,1-2.22-1.62,1.46,1.46,0,0,1-.5-.52c0-.08-.06-.16-.08-.23a1.11,1.11,0,0,1,0-.17h0a.35.35,0,0,1,.08-.24c-1.78-.1-2.63,0-2.86,1v0c0,.15,0,.32,0,.51,0,1.39-.69,1.26-1.56.41-1.12-1.09-2.48-.72-3.74-.3-.26.08-.33.75-.48,1.14a4,4,0,0,1,3.26,1c1,.92.88,2.09,1.5,3a1.52,1.52,0,0,0,.94-.27c.08-1.24.12-2.37,1.88-2.26a39.09,39.09,0,0,0,4.33,0c1.59-.09,3.42.64,4.56-1.2,1.19.47,2.14,1.73,3.63,1.2a12.49,12.49,0,0,0,1.57-.84,9.52,9.52,0,0,0-1.2-.59c-1.75-.59-1.73-.56-.88-1.45s1.61-1.8,3-1.47c2.15.51,3.68-.43,4.92-2.09.45-.6.9-.86,1.54-.1,1.88,2.25,3.88,3.55,6.51.86.36-.37,1.38-.14,2.09-.11,1.29.07,1.57-.68,1.57-1.76a11.12,11.12,0,0,1,.22-2.08.7.7,0,0,1,.49-.48c.16,0,.4.26.5.46.37.79.57,2.17,1.08,2.29a11.79,11.79,0,0,0,4.27,0c.32,0,.41-1.2.71-1.79a2.93,2.93,0,0,1,.85-.83s.48.33.47.49a3.3,3.3,0,0,0,1.56,3,2.52,2.52,0,0,0,1,.44c.11,0,.42-.33.42-.51,0-1.68,0-3.37,0-5.06,0-1.41-1-1.26-1.93-1.42-.74-.12-1.08-.76-1-1.58s.48-1.33,1.32-1.27,2.05,0,2.67.45c.88.71,1.38,1.13,2.11,0,.12-.19.33-.43.53-.45,2.08-.22,4.43.69,6.23-.62,2-1.48,4.14-.49,6.17-.85.23,0,.61,0,.66-.1.27-.61.72-1.32.59-1.88s-.95-1-1.3-1.61a1.51,1.51,0,0,1,1-2.21,29,29,0,0,1,3.61,0c1.35.13,1.17,1.22,1.14,2.16,0,.24,0,.48,0,.72,1.14-.17,1.38,1.21,2.14,1.36,2.4.46,4.42,0,5.13-2.81-1.69,0-3.38,0-5.06,0-.27,0-.64-.67-.72-1.08a2.49,2.49,0,0,1,.26-1.32c.27-.59.61-.48,1,.11.25.36.71.85,1.06.83a7.19,7.19,0,0,0,1.9-.59l-.87-1-.5-.51c.38-.24.87-.77,1.13-.67,1.93.69,3.72,1.93,5.92,1.38a3.65,3.65,0,0,0,1.78-.88c.91-1,1.06.24,1.57.4s1.73.65,1.89.44c1-1.35,2.32-1.46,3.81-1.41,1.8,0,3.7.36,5.18-1.22a11.49,11.49,0,0,1,1.47,1c.17-.65.31-1.32.53-2a1,1,0,0,1,.5-.49c.12-.06.48,0,.48.11.14,1.13.25,2.27.31,3.41,0,.16-.3.46-.49.48-.7.1-1.41.11-2.12.14l-7.08.37c-2,2.22-4.55.59-6.78,1.11-.87.21-1.09,1.64-2.3,1.43.91,1.58,1.46,2,2.34,1.18,1.06-1,1.59-1.07,2.58,0,.62.69,2.47-.17,2.35,1.71.56-.33,1.12-.67,1.7-1,.39-.2.8-.33,1.2-.49.17-.4.32-1.16.5-1.17a62.25,62.25,0,0,1,6.26,0c.69,0,.4.46.05,1-1.58,2.44-1.37,3.52.54,5.4.46.46.75.68,1,.22A2.66,2.66,0,0,1,346,104l.08-.1a.77.77,0,0,1,.12-.13l.12-.11.05,0a.71.71,0,0,1,.94.11,8.35,8.35,0,0,0,1.11,1,.58.58,0,0,0,.61,0c-.07-1.41,1.26-1.84,2-2.59.15-.15,1.27.93,2,1.09.94.21,1.85-.08,1.75-1.4a1.13,1.13,0,0,1-1.43-1.15c-.07-1.08-.29-1.75-1.59-1.79-1,0-2.53.68-2.79-1.22-.19-1.35.31-1.64,3.11-1.66,1.19,0,2.92.39,3.46-.22,1.63-1.83,3.55-1,5.36-1.22,1.17-.11,2.35-.14,3.53-.21,1.23-2.33,2.15.18,3.23.23,1.47.06,1.92-1.25,2.8-2,.06-.05-.3-.92-.47-.92l-2.52,0a82.56,82.56,0,0,0-9.77.55l0,.12a.86.86,0,0,1-.46.49l-.38.06c-.75.12-1.48.2-2,.27a19.07,19.07,0,0,1-2-.14,1.86,1.86,0,0,1-.34-.07,1.26,1.26,0,0,1-.59-1.08c.11-.59.39-1.44.82-1.62a3.52,3.52,0,0,1,.67-.18l.21,0a3,3,0,0,1,.42,0l.24,0,.36.07.24.07.35.13.23.1.35.18.21.11.39.23.68.4a4.65,4.65,0,0,1,1-.87,1.37,1.37,0,0,1,.32-.16l.05,0a3.44,3.44,0,0,1,.38-.11c2.7-.55,5.72,1.17,8.23-1.26.33-.32,1,1.68,2.58.37,2.1-1.8,5.62.72,7.78-1.88,1.11,1.83,2.93,1.2,4.54,1.32s1.95-.79,2-2.19c0-.25,1.46-.87,1.75-.66a5.47,5.47,0,0,0,4.53,1.39c2.93-.57,6.23,1.4,8.91-1.36.33-.35.65,1.86,2,.82a22.57,22.57,0,0,1,3-1.58c.4-.22.74-.72,1.13-.75,1.2-.1,2.43,0,3.63-.06,1.36-.12,2.88.59,4.05-.71,1.37-1.53,1.76.63,2.71.85,2.2.51,3.25-1.74,5.24-1.66.78,0,.46-.85,0-1.45a3.88,3.88,0,0,1-.64-1.89c0-.22.53-.51.83-.77.9,1.52,2.38,1.26,3.81,1.33A1.16,1.16,0,0,1,426,81.53c-.16,1.2,1.07,1.48,1.55,2.26.37.6.67.66,1,.19,1.15-1.47,2.33-1.51,3.49,0,.39.5.55.29,1.07-.11.88-.67,2.05-.95,2.94-1.61a3.26,3.26,0,0,1,4.48,0c.26.21.92.42,1,.34,1.24-1.78,3.08-1,4.66-1S449,81.4,450,80.09c.28-.35,1.38,0,2.11,0,0-1,.45-1.49,1.45-1.78v-.32c.29-.23.72-.7.84-.64.87.52.28.93-.2,1.27-.15.1-.42,0-.64,0,0,0,0,.06,0,.09s0,.09,0,.13a1.22,1.22,0,0,1-.45,1,1.08,1.08,0,0,1-.28.16l-.09,0a2.27,2.27,0,0,1-.61.07c.17.41.3,1.15.51,1.18,1.41.18,2.83.15,4.24.3.36,0,.67.5,1,.76-.17.17-.33.48-.51.49-1.89.12-3.28,1.45-4.89,2.17-1,.43-1.21.73-2.15,0a3.07,3.07,0,0,0-3.87.07,4,4,0,0,1-1.8.85c-1.93.11-3.86,0-5.78,0h-5.79c-1.92,0-4-.39-5.75.11s-3.19,1.65-5.21,1.39a42.85,42.85,0,0,0-5.78,0c-1.43,0-3.06-.35-4.23.23s-1.49,1.22-2.71.1c-.54-.5-1.46,1.42-2.83,1.16a19.63,19.63,0,0,0-3.6,0H391.41c-.72,0-1.7-.3-2.13,0-3.4,2.8-7.35.91-11,1.37-1.66.21-3.37,0-5.06.08a1.37,1.37,0,0,0-1,.84,2,2,0,0,0,1.1,2.39c.44.27.52,1.53,1.53.63a3.15,3.15,0,0,1,1.75-1c3.13-.1,6.26-.1,9.39,0a4.61,4.61,0,0,0,2.51-1,5,5,0,0,1,5.26.18c1.22.74,1.4-.09,2.14-.32a9,9,0,0,1,3.37-.09l.06,0a.62.62,0,0,1,.09.12c.13.24.24.73.37,1l.17,0h0c.69.07,1-.46,1.4-.89.06-.06.11-.12.17-.17,1.37-1.28,2.59-3.29,4.55-.69a.51.51,0,0,0,.48,0c1.17-1.84,3-1.11,4.6-1.16a87,87,0,0,1,9.42,0c1.69.14,2.4-1.39,3.76-1.5s2.93.17,4.34-.07c3.18-.54,6.75,1.55,9.59-1.36a1.92,1.92,0,0,1,.49.43c.76,1.17,1.37.77,2.09-.08.23-.27,1.42.53,2,1.27.15.19.33.35.49.52a9.24,9.24,0,0,1-1.16.71c-2.66,1.18-5.21,2.59-7.83,3.85s-5.54,2.23-7.49,4.66c-2.07.15-3.45,2.4-5.86,1.74-1-.29-2.3.17-3.45.33-.08,0-.22.36-.16.48s.3.48.49.5c.71.07,1.44,0,2.15.09a6.09,6.09,0,0,1,1.26.44c-.16.34-.31.69-.49,1-1,1.8-3.38,1.39-4.58,3a35.94,35.94,0,0,1-4,4.14l-4.1,4.11a46.44,46.44,0,0,0-2.5,5.49c-.51,2.18.54,3.63,2.1,5a2.81,2.81,0,0,1,.78,1.82c.09,2.17.1,4.35,0,6.52-.07,1.7.83,2,2.22,1.92.11,0,.47.84.36.94-.67.68-1.17,1-.26,2.14,1.2,1.48,1.92,5,2.06,7.1.08,1.16.51,1.29,2,1.42,2.19.19,3.55-2.55,5.95-1.55.18.08.73-.53,1-.9a2.05,2.05,0,0,1,.27-.25l.18-.11.05,0c.69-.33,1.49.05,2.2-.11,0-1.92,1.48-1.3,2.52-1.46s1.65,1,2.34,1.1c.9.1,1.87-1,2.84-1,1.61-.08,2.44-.24,2.63-2.25.11-1.23,2-.7,3.1-.69a.78.78,0,0,1,.22,0,1.08,1.08,0,0,1,.88,1.39c.73,0,1.84.29,2.12-.06,1.05-1.32,2.33-1.4,3.82-1.44s2.92.66,4.1-.57,3.14-.93,4.07-2.53c.31-.54,1.18-1.24,1.63-1.14,2.38.52,3.5-1.16,4.82-2.49,1-1,1,.43,1.55.55s1,.53,1.26.37c2.68-1.71,6.07-1.68,8.67-3.63,2-1.49,4.71-1.7,6.49-3.59,3,.34,5.17-1.52,7.51-2.91,2.13.92,3.39-1.52,5.21-1.4a8.29,8.29,0,0,0,5.23-1.47,8.28,8.28,0,0,1,5.91-1.49,3.47,3.47,0,0,0,3.76-1.45c3.41-.34,5.83-4,9.7-3,.3.08.74-.47,1.14-.66.61-.28,1.28-.44,1.87-.76,1.07-.59,2.08-2.11,3.18,0,.89-1.55,2.89-1.21,4-2.43s3.28.37,4.5-1.51c.5-.77,2-.71,3-1.51.76-.63,2.49-.07,3.27-.69a4,4,0,0,1,3.22-1.06c1.54.21,2.08-2.07,3.76-1.47,2.75,1,4.62-2.4,7.37-1.49,1.08-2.44,3.84-.87,5.59-2.43a9.56,9.56,0,0,1,6.29-2.19c.7-1.48,2.65-.77,3.52-2s2.64-.08,4-1c2.78-1.89,6-3,8.93-4.68a91.56,91.56,0,0,1,9-4.51c2.87-1.2,5.26-3.74,8.73-3.5.36,0,1.11-.58,1.07-.7-.62-2.09,1.34-3.53,1.38-5.23a15.43,15.43,0,0,1,1.57-5.93c.54-1.23,1.84-2.09,1.5-3.76s2.07-2.54,1.45-4.49c-.46-1.48,1.86-2,1.46-3.75a4.38,4.38,0,0,1,1.93-5,10,10,0,0,0,2-2.06c.11-.14-.23-.66-.37-1-.84-2-.84-2,1.51-4.44l2.11-4.94c.2-2-.71-4.28,1.38-6C613.79,35.21,613.76,33.48,613.3,32.83ZM90.37,163.58a4.56,4.56,0,0,1-1,.45c-.12,0-.31-.29-.47-.45a4.29,4.29,0,0,1,1-.46.11.11,0,0,1,.1,0,3.19,3.19,0,0,1,.38.42Zm7.78-3.85-.52-.51a5.11,5.11,0,0,1,1-.46c.12,0,.31.3.48.46Zm10.17-17.43-.52-.52h0a4.52,4.52,0,0,1,1-.45c.12,0,.31.29.48.45ZM110,158.49c-.17-.32-.35-.63-.51-.94L110,157a4.77,4.77,0,0,1,.46,1C110.46,158.13,110.14,158.33,110,158.49Zm2.7-17.64-.52-.52a4.84,4.84,0,0,1,1-.46c.12,0,.31.3.48.46Zm1.66,4.56a4.25,4.25,0,0,1-.45-1c0-.12.29-.32.45-.48l.52.94ZM117.25,157a5.11,5.11,0,0,1-.46-1c0-.12.3-.31.46-.48l.51.94Zm2-17.93a1.59,1.59,0,0,1-2.4,0,.54.54,0,0,1,0-.48,1.57,1.57,0,0,1,2.39,0C119.23,138.73,119.18,138.94,119.2,139.11Zm2.41,3.4c.16.16.48.36.45.48a4.72,4.72,0,0,1-.45,1c-.17-.16-.33-.32-.52-.52C121.26,143.14,121.43,142.82,121.61,142.51Zm.21,12.86-.94-.51c.16-.16.36-.48.48-.46a4.77,4.77,0,0,1,1,.46Zm0-5.84c0,.06-.36.05-.47,0-.73-.54-.74-2.09.05-2.33.23-.08.72.65,1,.94C122.17,148.75,122,149.15,121.82,149.53Zm6.05-7.49a1.59,1.59,0,0,1-2.4,0c0-.16,0-.37,0-.49a1.58,1.58,0,0,1,2.39,0A.54.54,0,0,1,127.87,142Zm105.61-11.15a4.72,4.72,0,0,1,.45,1c0,.12-.29.32-.45.48a4.16,4.16,0,0,1-.46-1C233,131.24,233.31,131.05,233.48,130.89Zm-5.82,1.45c.17.16.48.36.46.48a4.29,4.29,0,0,1-.46,1l-.51-.52ZM219,135.26l.13,0a.41.41,0,0,1,.16,0q.16-.25.36-.6a1.65,1.65,0,0,1,2-.73l.26.07a1,1,0,0,1,.46.45c-.21.31-.44.77-.74.83a9.09,9.09,0,0,1-2,0,.18.18,0,0,0,0-.05.2.2,0,0,0,0-.07l-.08.13.08,0a.6.6,0,0,1,0,.61,5,5,0,0,1-.82.7,4.6,4.6,0,0,1-.44-.43,0,0,0,0,1,0,0A3,3,0,0,1,219,135.26Zm-10.18,1.46c.94-.05,1.88,0,2.82,0a26.5,26.5,0,0,1,2.82,0c.23,0,.45.57.57.91,0,.09-.27.41-.47.47a10.5,10.5,0,0,0-1.91.51c-2.23,1.23-2.22,1.28-3.92-.51a1.86,1.86,0,0,1-.4-1C208.35,137,208.68,136.73,208.86,136.72Zm-16,4.35a.33.33,0,0,1,.12,0l.16,0h0a3.59,3.59,0,0,1,.44-.72c.22-.56.79-.7,1.42-.67l.3,0a2,2,0,0,1,.37.09l.06,0a1.65,1.65,0,0,1,.32.18h0a1,1,0,0,1,.36.68c.45-.11,1-.25,1.6-.43a2.11,2.11,0,0,0,.19-.23l.12-.15.06-.06c.1-.13.21-.25.32-.37l.09-.11q.18-.19.36-.36l0,0a4.25,4.25,0,0,1,.43-.31l.13-.07.38-.17.16-.05a2.68,2.68,0,0,1,.6-.1,1.26,1.26,0,0,1,.67.09c.2.1.34.32.67.65-1.09,1-2.17,2-3.29,2.92-.22.21-.48.43-.75.65s-.87-.08-1.3-.2c-.78-.23-.81-.41.23-1.2l.23-.2c-.29,0-.6.11-.95.19h-2.91l0,0a.6.6,0,0,1,0,.61,5,5,0,0,1-.82.7c-.17-.17-.48-.41-.45-.46A3.08,3.08,0,0,1,192.89,141.07Zm-13.47,3.14c1.73-2.18,4-1.86,6.29-1.5.19,0,.34.32.5.48-.13.17-.27.48-.41.48-2.06,0-3.81,1-5.64,1.73-.16.06-.43-.08-.62-.17C178.9,144.91,179,144.7,179.42,144.21Zm-5.26,2.93c.12,0,.31.29.47.45l-.93.52-.52-.52A4.8,4.8,0,0,1,174.16,147.14Zm-4.61-.27a4.25,4.25,0,0,1,.45,1c0,.12-.29.32-.45.48a4.13,4.13,0,0,1-.45-1C169.07,147.23,169.39,147,169.55,146.87Zm-4.11,1.72c.12,0,.32.3.48.46a5.06,5.06,0,0,1-1,.45c-.12,0-.31-.29-.48-.45A5.11,5.11,0,0,1,165.44,148.59Zm-.94-21.3c2.06-.69,3.67-2.68,6.12-2.19.4.08.74.46,1.11.7-.17.17-.3.41-.5.49-2,.81-4.22,1.28-5.83,2.92-.08.07-.32,0-.49-.06-.15-.17-.4-.33-.42-.52C164.43,128.17,164.36,127.34,164.5,127.29Zm-12.27,2.19c1.75.21,3.05-.82,4.54-1.33s2.25-1.64,3.4-2.37a3,3,0,0,1,1.87-.65c1.22.25,1,1.39,1,2.31a2.16,2.16,0,0,1,0,.72c-.17.41-.39,1.11-.64,1.14-1.43.13-3.14-.36-4.24.26-1.26.71-2.28,1.59-3.83,1.33a4.33,4.33,0,0,0-.72,0,10,10,0,0,1-1.45,0c-.19,0-.52-.38-.49-.47C151.77,130,152.06,129.46,152.23,129.48Zm-1.36,6,.52.52a4.6,4.6,0,0,1-1,.46c-.12,0-.31-.3-.47-.46Zm-1.4,8.24c-.11.08-.44.09-.47,0-.2-.38-.35-.79-.62-1.42.31-.3.8-1,1-1C150.2,141.6,150.2,143.14,149.47,143.69Zm-9-11.27c2.75,1,4.51-2.62,7.19-1.53a11.56,11.56,0,0,1,1.45,0c.19,0,.52.28.51.4a2.2,2.2,0,0,1-.37,1c-1.38-.23-2,1-3,1.43s-2.33,0-3.49.13a3.35,3.35,0,0,0-1.73.91c-1,1-1.22-.18-1.21-.57A5.14,5.14,0,0,1,140.46,132.42ZM142.65,144a.6.6,0,0,1,0,.61,5.6,5.6,0,0,1-.82.7,3.54,3.54,0,0,1-.44-.44v0A3,3,0,0,1,142,144a.33.33,0,0,1,.12,0l.15,0c.11-.18.23-.38.36-.62h0a5.37,5.37,0,0,1,.82-.67.29.29,0,0,1,.19-.05c.6,0,1.44.19,1.71.61a1.92,1.92,0,0,1-.15,1.78c-.76,1-1.16-.27-1.34-.58a.43.43,0,0,0-.15-.15l0,0c-.35-.19-.92-.08-1.05-.45l-.11.19A.16.16,0,0,1,142.65,144Zm.3-6.82a1.57,1.57,0,0,1,2.39,0,.54.54,0,0,1,0,.48,1.59,1.59,0,0,1-2.4,0C142.91,137.49,142.86,137.28,143,137.17Zm-11.17,4.06c-.68-.23-1.31-.43-1.93-.67a.59.59,0,0,1,0-.47,3.8,3.8,0,0,1,3.83,0c.09.07.06.45,0,.47C133.08,140.8,132.45,141,131.78,141.23Zm1.9,2.25c0,.12-.29.32-.45.48-.18-.31-.35-.63-.52-.93l.52-.52A4.25,4.25,0,0,1,133.68,143.48Zm-4.06,2.64c.38-.24.73-.61,1.13-.67a17.77,17.77,0,0,1,2.64,0,5.08,5.08,0,0,1,1.5.28c.28.12.41.74.51,1.16.2.87-.43,1.54-1.06,1.41a20.17,20.17,0,0,1-3.66-1.41A5.72,5.72,0,0,1,129.62,146.12Zm3.66,6.56a3.78,3.78,0,0,1-1.39,0c-.35-.15-.81-.65-.79-1a7.61,7.61,0,0,1,.6-1.84,8.25,8.25,0,0,1,1,.86c.86,1,1.17-.13,1.46-.46.47-.54.72-.64,1,0C135.89,151.88,135.24,152.69,133.28,152.68Zm4.24-17.48c-1.67-.07-3.15,0-4.44,1.42-.43.47-1.81.1-2.76,0-.17,0-.37-.28-.48-.48s0-.46,0-.48c2.14-.49,3.76-2.7,6.23-1.92a10.16,10.16,0,0,1,1.47,0c.19,0,.51.37.48.47C138,134.63,137.69,135.21,137.52,135.2Zm.28-7.43-.94-.52c.16-.16.36-.48.48-.45a4.72,4.72,0,0,1,1,.45Zm2.44,26.09c-.12,0-.31-.29-.47-.45l.93-.52.52.52A4.56,4.56,0,0,1,140.24,153.86Zm17.69-4.09c-.18-.31-.35-.63-.52-.93.19-.2.36-.36.52-.52a4.13,4.13,0,0,1,.45,1C158.41,149.42,158.09,149.61,157.93,149.77Zm2.14-3.78a1.51,1.51,0,0,1-.93.84,21.75,21.75,0,0,1-2.8,0h-2.53a1.1,1.1,0,0,0-.26,0l-.32,0h0l-.23,0h-.1a.25.25,0,0,1,.1.24h0a.55.55,0,0,1,0,.17,0,0,0,0,1,0,0,2,2,0,0,1-.1.23c-.19.35-.78.77-1.09.71-1.81-.39-3,.95-4.46,1.43-1.3.41-3.21-.24-4.07.49-1.31,1.13-2.57,1-3.94,1-.19,0-.41-.2-.56-.36s-.26-.45-.22-.48c1.05-.85,2.41-1.07,3.57-1.91s3.4.55,4.68-.67,2.61-.78,4-.92h1.44a1.49,1.49,0,0,1,.39,0h0a.49.49,0,0,1,.27.06h0s0,0,0,0,0,0,0,0h.08a.24.24,0,0,1-.11-.09h0a.16.16,0,0,1,0-.12v0a.78.78,0,0,1,0-.14.09.09,0,0,1,0-.05,2.08,2.08,0,0,1,.1-.24,1.6,1.6,0,0,1,1-.73c.92-.11,1.87,0,2.8-.06a4.55,4.55,0,0,0,1.82-.63c.53-.34,1-1,1.48-.12A1.85,1.85,0,0,1,160.07,146Zm14.07-6.73a4.11,4.11,0,0,1-1.4-.85c-1.09-1-1.06-1-.05-1.95.65-.62,1.22-1.51,2.26-1.18.51.17.88.75,1.15,1C176.16,138,174.86,138.45,174.14,139.26Zm2.58-8.39a.63.63,0,0,1-.61,0c-.11-.11,0-.41,0-.62l-.05,0-.53.46a2.6,2.6,0,0,0,.58.16c-.17.41-.23,1-.53,1.19a17.08,17.08,0,0,1-2.44,1l-.75.28c-.79-.43-1.51-1.14-2-1a12.11,12.11,0,0,0-4.21,1.94c-1.44,1.22-2.34,1.14-3.56-.15a1.54,1.54,0,0,0-2.44.23c-.48.54-1,1-1.52.1-.1-.18,0-.48,0-.71a1.15,1.15,0,0,1,1.11-1.45c1.19-.11,2.85.47,3.52-.13,1.85-1.66,3.91-1.23,6-1.39.73-.06.95-.73,1.08-1.52.18-1,1.35-1.64,1.92-1.36a3,3,0,0,1,.48.31l.13.1.33.29.08.09a7.88,7.88,0,0,0,2.1,1.9l.67-.39c.19-.17.33-.29.45-.38a1.66,1.66,0,0,1,.33-.25c.05,0,.09,0,.1,0C177.8,130.12,177.2,130.53,176.72,130.87Zm-.67-4.34c-.24,0-.48,0-.72,0a4.21,4.21,0,0,0-.71,0c-.9.16-1.28-.4-1.43-1.13-.22-1.07.35-1.72,1.49-1.77.47,0,.95.05,1.42,0,.91-.13,1.28.4,1.43,1.14C177.75,125.82,177.19,126.46,176.05,126.53Zm14.84-12.61a1.57,1.57,0,0,1,2.39,0,.56.56,0,0,1,0,.49,1.59,1.59,0,0,1-2.4,0C190.86,114.24,190.81,114,190.89,113.92Zm-8.18,8.29a4.08,4.08,0,0,1,1.4,0,9.58,9.58,0,0,1,1.42,0c.19,0,.5.37.47.47-.11.34-.32.89-.54.92a17.83,17.83,0,0,1-2.83,0c-.18,0-.51-.37-.47-.47C182.26,122.79,182.44,122.31,182.71,122.21Zm6.44,5.84c-.14.41-.31,1.12-.54,1.15-1.39.19-2.8.22-4.17.3-1.19-.1-2.35-.18-3.5-.32a.68.68,0,0,1-.45-.48.72.72,0,0,1,.47-.49,34.74,34.74,0,0,1,4.2-.2,3.33,3.33,0,0,0,3.09-1.23,3,3,0,0,1,.89.58C189.26,127.48,189.22,127.84,189.15,128.05Zm6.77-1.77a41.78,41.78,0,0,1-4.18.21c-.38,0-.75-.45-1.12-.69.37-.24.72-.63,1.13-.69a17.77,17.77,0,0,1,2.64,0c.18,0,.86.1,1.53.25.2,0,.47.31.47.48A.67.67,0,0,1,195.92,126.28Zm1.46-5.81c-2.24.22-3.81,3-5.61,1.86-1.73-.18-2.65-.26-3.55-.4a.7.7,0,0,1-.47-.49c0-.16.27-.4.47-.49,2.91-1.35,5.88-2.4,9.15-1.45.2.06.47.32.47.49A.66.66,0,0,1,197.38,120.47Zm1.23,6.06a7.13,7.13,0,0,1-.68-1.81c0-.34.43-.73.68-1.1.24.37.71.76.67,1.1A7.1,7.1,0,0,1,198.61,126.53Zm2.16-5.85a4.06,4.06,0,0,1-1.39-.74c-.21-1.48.33-2.06,1.42-2.15a1.2,1.2,0,0,1,1.42,1.14C202.44,120.06,201.86,120.81,200.77,120.68ZM210.4,122s0,0,0,0c-1.59-.36-2.24,1.33-3.53,1.57-.39.08-1.07,0-1.21-.29a6.55,6.55,0,0,1-.47-1.89,2.8,2.8,0,0,1,0-.58l-.45-.07a1,1,0,0,1-.27,0,4.87,4.87,0,0,1-.65-1,.28.28,0,0,1,0-.15c0-1,1.63-3.08,2.38-3.21a5.77,5.77,0,0,1,.72,0c2.31-.08,4.77.59,6.65-1.46,1.45,0,2.9.08,4.35,0a3.12,3.12,0,0,0,1.83-.75c.7-.68,1.09-.49,1.45.21.1.19,0,.48,0,.72a1.18,1.18,0,0,1-1.3,1.3c-1.21,0-2.42,0-3.62,0-.68,0-1.74,0-2,.42-1.16,2.11-3.94-.08-5,2-.09.18-.33.29-.5.43-1.82-2.64-2.56,0-3.52.85a.3.3,0,0,0-.07.11s0,0,0,0a1,1,0,0,0,0,.1c.52.15,1.24.32,2.21.53s2.19.13,3.28.22c.1,0,.19.3.28.47C210.7,121.7,210.52,122,210.4,122Zm1.53,4.26a4.77,4.77,0,0,1-1-.46l.51-.52.94.52C212.25,126,212.05,126.28,211.93,126.26Zm12.76-7.08a.18.18,0,0,1-.08.06c-2.43,1.05-2.49,1.07-1.14,3,.35.51.66.75.14,1a2.35,2.35,0,0,1-1.28.3,1.8,1.8,0,0,1-1.13-.66c-1.5-2.22-1.62-2.41-2.92-1.46s-2.57.75-3.92.45a.83.83,0,0,1-.48-.49c-.28-.71,0-1,.69-.71l.31.09h.1l.18,0h.11l.15,0,.11,0,.13,0,.1,0,.13-.07.09,0,.13-.08.09-.07.12-.09.07-.06.14-.12-2.65.44a.19.19,0,0,1,0,.09.22.22,0,0,1-.11,0h-.16l-.36,0c-.2-.27-.6-.64-.61-.79a0,0,0,0,1,0-.05l.18-.26.06,0a.53.53,0,0,1,.12-.1l.06,0,.1,0h.07l.09,0,.07,0,.08,0,.07.06a.46.46,0,0,0,.07.07l.08.09a.18.18,0,0,0,.05.07l.09.13h0c.69,0,1.76-.14,3.4-.36l.23-.14,0,0,.19-.09.07,0,.2,0H218a1.42,1.42,0,0,1,.29,0c1.16.08,2.27.17,3.19-1s2.22-.31,3.34-.41c.16,0,.34.31.53.5A3.49,3.49,0,0,1,224.69,119.18Zm2.72,2.72c-.11,0-.31-.3-.47-.46l.93-.51.52.51A4.6,4.6,0,0,1,227.41,121.9Zm7.69-8.73c-.64.55-1.76.55-2.37,1.12-.82.75-1.06.08-1.59-.24-1.36-.82-2.15-.87-2.41-.16a3.12,3.12,0,0,0-.09,1.93c.21.62,1,1.08,1.13,1.68a2,2,0,0,1-.77,1.68c-.5.19-1.79-.24-1.81-.49-.15-1.64-.74-2.5-2.54-2.57-.31,0-.55-1.59-.87-2.59.45-.56.78-1.39,1.24-1.46a19.64,19.64,0,0,1,3.6-.07c1.88,0,3.73.16,5.23-1.4.18-.18,1.5.27,1.72.72A2,2,0,0,1,235.1,113.17Zm24.8,0a5.67,5.67,0,0,1-2.41-1.92c0-.15.29-.46.47-.47.63-.06,1.47-.26,1.85.06s.41,1.18.52,1.82C260.35,112.81,260.05,113,259.9,113.18Zm8.44-1.18c-.24-.37-.71-.76-.67-1.1a7.1,7.1,0,0,1,.67-1.81,7.13,7.13,0,0,1,.68,1.81C269.06,111.24,268.59,111.63,268.34,112Zm12.09,0a2.44,2.44,0,0,1-.74-.24l-.06,0c-.62-.18-1.65-.44-3.28-.81-3.27-.28-4.11-.28-4.94-.34-.26,0-.51-.54-.69-.88,0,0,.28-.36.48-.48.77-.46,1.26-2.44,2.51-.5.35.54.64.49,1-.12.78-1.24,2.09-.67,3.17-.94a18.22,18.22,0,0,0,3-1.39,1,1,0,0,1,.65.11c.62.32.57.58.24,1-.83,1.08-2.42,1.57-2.53,3.22H275l1.38.3,2.88.27c-.09-.29-.09-.48,0-.57h0a.48.48,0,0,1,.23-.07,1.4,1.4,0,0,1,.41.07c.61.16,1.25.23,1.87.4.11,0,.15.3.23.46C281.9,111.87,281.19,112.09,280.43,112Zm8.64-4.76c-.09.26-.76.33-1.18.44a2.73,2.73,0,0,1-.7,0c-1.81,0-2.23-.35-2.14-1.81.05-.73.59-1,1.24-.59a6.84,6.84,0,0,0,1.73.91C288.66,106.31,289.4,106.26,289.07,107.19Zm58.47-5.35c-1.25.07-1.55-.73-1.44-1.74,0-.39.42-.75.64-1.12a4.66,4.66,0,0,1,.49.39,8.33,8.33,0,0,1,1,1,5.78,5.78,0,0,1,.53,1Zm62.79-20.38a2.32,2.32,0,0,1-1.1-.08,1.38,1.38,0,0,1-.24-.14,1.59,1.59,0,0,1-.45-1.18c.15-.4.3-.8.46-1.2a4.52,4.52,0,0,1,1,.45,10.16,10.16,0,0,1,1,1c.16.16.31.33.47.5C411.07,81,410.72,81.41,410.33,81.46Zm16.37-4.33c-.16-.16-.48-.36-.45-.48a4.72,4.72,0,0,1,.45-1l.52.51ZM449.22,75l-.93.52-.52-.52a4.13,4.13,0,0,1,1-.45C448.86,74.47,449.06,74.79,449.22,75Zm-1.45-36.32a4.13,4.13,0,0,1-1,.45c-.12,0-.31-.29-.47-.45a4.25,4.25,0,0,1,1-.45.13.13,0,0,1,.11,0c.11.09.25.3.37.42Zm-.24-6a.56.56,0,0,1,0,.49,1.6,1.6,0,0,1-2.41,0c0-.17,0-.38.05-.49A1.57,1.57,0,0,1,447.53,32.59Zm-1.68-2.23c-.11.09-.44.1-.47,0-.2-.38-.35-.79-.61-1.42.3-.3.79-1,1-.95C446.58,28.28,446.58,29.82,445.85,30.36Zm-.63-5.48c.34,0,.73.43,1.1.67l-1.1.73-1.81-.73A7.49,7.49,0,0,1,445.22,24.88Zm-2.53,7.21.51.94-.51.52a4.57,4.57,0,0,1-.46-1C442.2,32.45,442.52,32.25,442.69,32.09ZM433.88,80a.63.63,0,0,1-.61,0,.18.18,0,0,1,0-.15,1.19,1.19,0,0,0-.09.15l.09,0a.6.6,0,0,1,0,.61,5,5,0,0,1-.82.7,3,3,0,0,1-.44-.43s0,0,0,0a3.08,3.08,0,0,1,.66-.86.33.33,0,0,1,.12,0l.16,0c.11-.17.22-.36.35-.59a7.81,7.81,0,0,1,.74-.61s.08,0,.1,0C435,79.27,434.36,79.68,433.88,80Zm1.29-3.16c-.12,0-.31-.29-.48-.46a5.06,5.06,0,0,1,1-.45c.12,0,.32.29.48.45A4.57,4.57,0,0,1,435.17,76.86Zm1.46-49.4c-.12,0-.32-.29-.48-.45l.93-.52.52.52A4.25,4.25,0,0,1,436.63,27.46Zm13.21,51.08a13.85,13.85,0,0,1-2.14,0c-1.84,0-3.8-.44-5.19,1.42-.17.22-.91,0-1.5,0-1.36.38-1.94-.87-2.83-1.58-.55-.43-.69-.74-.15-1a2.23,2.23,0,0,1,1.3-.29c2.66.63,2.66.65,3.69-.36l2-2c.17-.17.32-.44.51-.48s.48.26.48.41c.08,2.8,2,2.51,3.91,2.45.16,0,.51.38.48.48C450.3,78,450.09,78.5,449.84,78.54Zm1.07-45.49c0-.17,0-.38,0-.49a1.57,1.57,0,0,1,2.39,0,.56.56,0,0,1,0,.49A1.59,1.59,0,0,1,450.91,33.05Zm1.7,42.36c-.12,0-.32-.3-.48-.46l.93-.52.52.52A4.77,4.77,0,0,1,452.61,75.41Zm-23.09,64.18a.63.63,0,0,1-.61,0,.18.18,0,0,1-.05-.15h0l-.09.15.09,0a.6.6,0,0,1,0,.61,5.6,5.6,0,0,1-.82.7,3.56,3.56,0,0,1-.44-.44s0,0,0,0a3,3,0,0,1,.66-.86.33.33,0,0,1,.12-.05.44.44,0,0,1,.16,0c.11-.17.23-.37.35-.59h0a7.53,7.53,0,0,1,.74-.61c.05,0,.08,0,.1,0C430.59,138.84,430,139.25,429.52,139.59Zm4.66-3.1-.94-.52c.16-.16.36-.48.48-.45a4.25,4.25,0,0,1,1,.45ZM444,135c-1.15-.67.06-1.12.41-1.41.55-.47.65-.74,0-1a5.72,5.72,0,0,0-1.31-.24c-.68-.08-1.36-.11-2-.24a.71.71,0,0,1-.47-.48c0-.15.27-.45.45-.48,1.13-.14,2.28-.22,3.31-.31a18.09,18.09,0,0,1,2.87.24c.66.15.71.7.16,1-1.3.6-.6,2.22-1.5,2.89A2,2,0,0,1,444,135Zm2.84,2.93-.51-.52a4.72,4.72,0,0,1,1-.45c.12,0,.32.29.48.45Zm3.33-5.81-.94-.52c.16-.16.36-.48.48-.45a4.52,4.52,0,0,1,1,.45C450.51,131.77,450.35,131.94,450.16,132.13Zm4.15-14.32c-.18-.31-.35-.63-.52-.94l.52-.51a4.25,4.25,0,0,1,.45,1C454.79,117.45,454.47,117.65,454.31,117.81Zm0-7.26a5.11,5.11,0,0,1-.46-1c0-.12.3-.32.46-.48a4.52,4.52,0,0,1,.45,1C454.79,110.19,454.47,110.38,454.31,110.55ZM456,33.82c.12,0,.32.29.48.45a5.11,5.11,0,0,1-1,.46c-.12,0-.31-.3-.48-.46A4.52,4.52,0,0,1,456,33.82Zm4.11,47.67a4.13,4.13,0,0,1-.45-1c0-.12.29-.31.45-.47l.52.93Zm14.6,30.59s.44.3.45.47c0,.63.2,1.47-.13,1.85s-1.21.39-1.85.48c-.14,0-.32-.3-.73-.71C473.21,113.46,474,112.75,474.72,112.08Zm-.59-12.64.52-.52a4.52,4.52,0,0,1,.45,1c0,.12-.29.31-.45.48Zm.14,18.37-1.8-.73a7.49,7.49,0,0,1,1.81-.67c.33,0,.73.43,1.09.67C475,117.33,474.64,117.57,474.27,117.81Zm5.21-44.06c-.13.12-.27.31-.4.41a.35.35,0,0,1-.13,0c-2.41,0-4.83.15-7.23,0a3.28,3.28,0,0,0-3,1.6c-2.35,2.85-2.33,2.78-4.51,2.83-1.6,0-2.06-.62-2-2.12,0-.26-1.09-.75-1.69-.76s-1.22.51-1.16,1.42c0,.4-.29,1.15-.49,1.17-.86.06-1-.61-.93-1.31a1.15,1.15,0,0,0-1.27-1.32c-.71,0-1.36-.09-1.41-.9,0-.16.74-.53,1.15-.54,2.41,0,4.82,0,7.23,0,1.61,0,2.51-2,4.48-1.51a23.51,23.51,0,0,0,5,.07c1.69,0,3.38,0,5.06,0a3.53,3.53,0,0,1,1.25.47.15.15,0,0,1,0,.07C479.51,73.43,479.48,73.63,479.48,73.75ZM465.2,33.55h0a.18.18,0,0,1,.1.09h0a.34.34,0,0,1,0,.12v0a.77.77,0,0,1,0,.15.09.09,0,0,0,0,.05,2.35,2.35,0,0,1-.11.24,1.49,1.49,0,0,1-1,.73c-1.38,0-2.76,0-4.14-.1-.17,0-.49-.43-.47-.45.24-.31.49-.77.8-.83a12,12,0,0,1,2.08,0c2.4-.62,2.81-1.19,3.46-1.19h0l.29,0c.24.06.33.75.49,1.16l0,0,0,0,.08,0,.14,0h0a.57.57,0,0,1,.31.07,5.59,5.59,0,0,1,.7.83,4.6,4.6,0,0,1-.43.44h0a2.9,2.9,0,0,1-.85-.66.59.59,0,0,1-.07-.16h0a1.34,1.34,0,0,1,0-.2h0A3.54,3.54,0,0,0,465.2,33.55Zm11.63,6.53a4.72,4.72,0,0,1,1-.45.11.11,0,0,1,.1,0,3.83,3.83,0,0,1,.38.41h0a4.16,4.16,0,0,1-1,.46C477.19,40.56,477,40.24,476.83,40.08Zm5.81,75.55a4.84,4.84,0,0,1-1,.46c-.12,0-.31-.3-.47-.46a4.25,4.25,0,0,1,1-.45.13.13,0,0,1,.1,0,5.31,5.31,0,0,1,.38.42Zm.52-66.31-.52-.52a4.25,4.25,0,0,1,1-.45c.12,0,.32.29.48.45Zm-4.11-14c-5.54-.34-7.14-.34-8.73-.38-.17,0-.48-.91-.46-.92.94-.54,1.39-2.94,3.11-.82.31.39,1.32.3,2,.31,2.66,0,5.32,0,8,0a1.56,1.56,0,0,1,1.12.71c.36.66,0,.77-.69.74-2.18-.09-4.35,0-6.53,0l2.21.34,5.05.32h0c-.18-.48-.1-.72.24-.73a1.52,1.52,0,0,1,.43.07c.61.17,1.25.24,1.87.4.11,0,.16.3.23.46-.16.63-1.33.8-2.33.31C485.45,36.61,486.51,36.5,479.05,35.34Zm7.74,33.59-.52.94c-.16-.16-.48-.36-.45-.48a4.52,4.52,0,0,1,.45-1C486.43,68.58,486.59,68.74,486.79,68.93Zm-.73,31.24c-.19-.2-.35-.36-.52-.52a4.52,4.52,0,0,1,1-.45c.12,0,.32.29.48.45Zm1.87,13.07-.93-.51c.16-.17.36-.49.47-.46a4.16,4.16,0,0,1,1,.46Zm-6.66-84.95-.15.13-.26.21a4.61,4.61,0,0,1-.38.28l-.06,0a2.58,2.58,0,0,1-.37.19l-.07,0a2.11,2.11,0,0,1-.45.1h-.1a2.13,2.13,0,0,1-.55,0,20.25,20.25,0,0,0-4.34-.06h-4.35v-.06c-2.66,0-5.32,0-8,0l-2.14,0c-.23,0-.58-.72-.63-1.13a3.75,3.75,0,0,1,.32-1.3,8.57,8.57,0,0,1,1,.3c.36.15.89.61,1,.51a15.2,15.2,0,0,0,2.07-2c.8-.93,1.08-.2,1.35.39s.51,1.8.71,1.79c3.07-.14,6.3.94,9.17-.47,1.07-.52,1.31-.51,2.15.15s1.18-1,2.1-1c2.66,0,5.32,0,8,0a1.57,1.57,0,0,1,1.12.72,1.65,1.65,0,0,1,.11.26.13.13,0,0,1,0,.06.33.33,0,0,1,0,.17v0c0,.11-.12.17-.27.2h0l.17,0a9.12,9.12,0,0,1,1.65,0,1,1,0,0,1,.29.07c.44.2.65.91,1,1.4,2.82-1.46,2.82-1.47,5.93-1.45,1.86,0,3.59-.08,5.28,1.36,1.48,1.27,1.91,1.25,1.89,2.93,0,.88-.37,1.36-1.12,1.49a5.47,5.47,0,0,1-2.17,0c-1.86-.49-.55-1.16,0-1.77a3.1,3.1,0,0,0,.27-.51c-.4-.2-.89-.66-1.19-.55a29.72,29.72,0,0,0-3,1.4l0,0a.63.63,0,0,1,0,.61,5.69,5.69,0,0,1-.83.7,3.4,3.4,0,0,1-.43-.43l0,0a3.13,3.13,0,0,1,.66-.86l.11,0,.12,0h0a1.64,1.64,0,0,0,0-1s-.07-.1-.12-.11c-1.3-.4-2.62-.67-3.85.38A3.56,3.56,0,0,1,491,32c-.34.05-.74-.41-1.11-.65a3,3,0,0,0,.44-.5c.34-.56.66-1.13,1-1.7a5.25,5.25,0,0,1-1.95-.06.89.89,0,0,1-.29-.23l-.05-.09c-.23-.3-.4-.72-.61-1C487.21,27.84,485.06,28,481.27,28.29Zm23.16,13.25-.93.51-.52-.51a4.29,4.29,0,0,1,1-.46C504.07,41.06,504.27,41.37,504.43,41.54Zm-1.75-6c.08.23-.65.72-.95,1-.63-.26-1-.41-1.42-.61-.06,0-.05-.36,0-.47C500.89,34.74,502.43,34.73,502.68,35.52Zm-10.13,57.1c-.61.24-1.24.44-1.92.67-.68-.23-1.31-.43-1.92-.67a.55.55,0,0,1,0-.47,3.82,3.82,0,0,1,3.84,0A.55.55,0,0,1,492.55,92.62Zm-.47-56.19c-.17,0-.5-.37-.47-.47.11-.35.33-.89.56-.92A27.06,27.06,0,0,1,495,35a9.62,9.62,0,0,1,1.42,0c.19,0,.51.37.47.47-.11.34-.34.91-.55.92C494.93,36.49,493.51,36.47,492.08,36.43Zm3.16,57.86a4.13,4.13,0,0,1-1-.45l.52-.52.93.52C495.55,94,495.36,94.32,495.24,94.29Zm1.7-3.13a1.59,1.59,0,0,1-2.4,0,.54.54,0,0,1,0-.48,1.58,1.58,0,0,1,2.39,0C497,90.79,496.92,91,496.94,91.16Zm-1-49.39c-.05,0-.08-.4,0-.47a3.8,3.8,0,0,1,3.83,0c.08.07.06.45,0,.47-.61.24-1.24.44-1.92.67C497.22,42.21,496.59,42,496,41.77Zm6.28,55.7-.52-.52.52-.93c.16.16.48.36.46.48A4.77,4.77,0,0,1,502.25,97.47Zm1.1-8.74a18.34,18.34,0,0,1-2.64,0c-.17,0-.86-.06-1.53-.19a.76.76,0,0,1-.48-.49c0-.12.23-.46.37-.47,1.44-.08,2.36-1.18,3.56-1.68.44-.18,1.21.39,1.79.68.09.05,0,.45,0,.68A1.18,1.18,0,0,1,503.35,88.73Zm43.88-47.91.72.32a.51.51,0,0,1,0-.18l0-.07a.24.24,0,0,1,.08-.09l.12,0,.12,0a1.61,1.61,0,0,1,.39.06c.61.17,1.25.24,1.86.4.11,0,.16.3.24.46-.13.49-.86.7-1.64.54a1.42,1.42,0,0,1-.31-.08h0l-.38-.15a1,1,0,0,1-.5-.79,13.84,13.84,0,0,1-1.46-.37c-.92-.08-1.36-.48-1.39-1.3a2.16,2.16,0,0,1,0-.36,1.18,1.18,0,0,1,1.25-1.24c1.06,0,1.81.33,1.62,1.51C547.91,39.89,548.67,40.91,547.23,40.82Zm-8.12-8.7a6.27,6.27,0,0,1,1.44,0c2.3-.65,3.86,2.09,6.14,1.65h.06a4.75,4.75,0,0,0,.46-.14,2.53,2.53,0,0,1,.55.92c0,.09-.31.46-.49.47-1.69,0-3.37,0-5.06,0a3.86,3.86,0,0,0-.07-.41c-.07.11-.14.22-.21.35h0l.14,0a.23.23,0,0,1,.11.05.63.63,0,0,1,0,.61,5.59,5.59,0,0,1-.83.7c-.16-.16-.43-.37-.44-.44s0,0,0,0l0,0a10.59,10.59,0,0,0-.19-2.31c-.33,0-.68.06-1,.09h-.45a1.29,1.29,0,0,1-.4-.08,3.59,3.59,0,0,1-1-.78A5.41,5.41,0,0,1,539.11,32.12Zm.18,8.81s0-.08,0-.12c.22,0,.5-.09.63,0a4.6,4.6,0,0,1,.7.82,3,3,0,0,1-.43.44s0,0,0,0a2.9,2.9,0,0,1-.85-.66.22.22,0,0,1-.05-.11v-.15c-.18-.11-.38-.24-.62-.37h0a7.54,7.54,0,0,1-.6-.74.11.11,0,0,1,0-.1c.51-.87.93-.27,1.26.2a.65.65,0,0,1,0,.62.33.33,0,0,1-.15.05Zm-1.72-5.46c.08.11,0,.32,0,.49a1.59,1.59,0,0,1-2.4,0,.54.54,0,0,1,0-.48A1.57,1.57,0,0,1,537.57,35.47Zm-12.78-3.71a11.08,11.08,0,0,1,.71-1.12c.24.37.62.72.69,1.12a6.29,6.29,0,0,1,0,2.12c-.07.4-.45.75-.69,1.12a4.5,4.5,0,0,1-.7-1.13,5.5,5.5,0,0,1,0-1.41A1.82,1.82,0,0,1,524.79,31.76Zm.71,54.09.51.51c-.16.31-.34.62-.51.94-.16-.16-.48-.36-.46-.48A4.77,4.77,0,0,1,525.5,85.85Zm-.52-47,.52-.94c.16.17.48.36.45.48a4.52,4.52,0,0,1-.45,1Zm-3.59-6.48c.12,0,.31.3.48.46a4.52,4.52,0,0,1-1,.45c-.12,0-.32-.29-.48-.45A5.11,5.11,0,0,1,521.39,32.36Zm-14.95-3c1.65-.12,3.31-.18,3.53-.19,3.12,0,4.8,0,6.47,0,.84,0,2.36,1.95,2.51,3.06a1,1,0,0,1-.12.67c-.67,1-1.71.52-2.61.61-1.21.11-1.52-.56-1.67-1.67a1.68,1.68,0,0,0-2-1.23H512a23,23,0,0,0-1.86,1.46.44.44,0,0,1,.07.22v0a1.5,1.5,0,0,1,0,.41c-.05.31-.6.56-1,.77a.33.33,0,0,1-.14,0,4.78,4.78,0,0,1-.53,0l-1.1-.61c.17-.1.33-.22.5-.34a5,5,0,0,1,.52-.33h0a16.85,16.85,0,0,0,.85-1.63h-.94c-.68-.09-1.37-.15-2-.29-.17,0-.42-.35-.39-.48S506.26,29.39,506.44,29.38Zm2.09,72c-.61.25-1.24.45-1.92.67-.68-.22-1.31-.42-1.92-.67-.06,0-.08-.39,0-.47a3.84,3.84,0,0,1,3.84,0C508.61,100.94,508.59,101.31,508.53,101.33Zm-2.37-14.51a4.25,4.25,0,0,1,.45-1l.52.51-.52.94C506.45,87.14,506.13,86.94,506.16,86.82Zm2.37-49.41c-.61.24-1.24.44-1.92.67-.68-.23-1.31-.43-1.92-.67-.06,0-.08-.4,0-.47a3.82,3.82,0,0,1,3.84,0C508.61,37,508.59,37.39,508.53,37.41Zm.78,57-.52-.52a4.6,4.6,0,0,1,1-.46c.11,0,.31.3.47.46Zm1-57.28c.17-.17.34-.48.5-.47a7.54,7.54,0,0,0,5-1.57c.66-.51,1.63.32,1.64,1.46,0,.43.75,1.5-.65,1.41-.93,0-1.87,0-2.81,0l1.9.44,1.66.22,0,0c-.11-.13,0-.42,0-.64.21,0,.5-.08.63,0a5.12,5.12,0,0,1,.7.83c-.16.16-.37.43-.44.44s0,0,0,0S518.13,39,518,39a16.56,16.56,0,0,0-2.1-.62c-3.2-.41-4-.39-4.69-.47C510.89,37.83,510.63,37.35,510.34,37.08Zm3.78,15.08a4.72,4.72,0,0,1-1-.45c.16-.17.32-.33.52-.52l.93.52C514.44,51.87,514.24,52.19,514.12,52.16Zm1-8.65L514.6,43a4.6,4.6,0,0,1,1-.46c.12,0,.31.3.47.46Zm2.86-1a4.6,4.6,0,0,1,1,.46l-.52.52-.93-.52C517.67,42.83,517.87,42.51,518,42.53Zm3.08,38.92a19.08,19.08,0,0,1-2.83,0c-.17,0-.5-.37-.47-.47.11-.35.29-.82.56-.92a4.07,4.07,0,0,1,1.4,0,9.62,9.62,0,0,1,1.42,0c.18,0,.5.36.47.47C521.5,80.87,521.29,81.42,521.06,81.45Zm1-42c-.63-.27-1-.42-1.42-.62-.06,0,0-.36,0-.47.54-.73,2.08-.73,2.33.05C523.1,38.66,522.37,39.15,522.07,39.46Zm1-9.32a1.59,1.59,0,0,1-2.4,0,.58.58,0,0,1,0-.48,1.57,1.57,0,0,1,2.39,0C523.13,29.77,523.08,30,523.09,30.14Zm1.33,64.38c-.34,0-.73-.44-1.1-.68.37-.24.76-.72,1.1-.68a7.46,7.46,0,0,1,1.8.68A7.46,7.46,0,0,1,524.42,94.52Zm2.74-50.6.52.52a5.11,5.11,0,0,1-1,.46c-.12,0-.31-.3-.48-.46Zm1.42,37.4h0a2.9,2.9,0,0,1-.85-.66.23.23,0,0,1-.06-.13.59.59,0,0,1,0-.14h0c-.17-.11-.36-.23-.59-.35h0a7.25,7.25,0,0,1-.6-.74s0-.08,0-.1c.51-.87.92-.28,1.26.2a.63.63,0,0,1,0,.61.18.18,0,0,1-.15,0l.15.09a.73.73,0,0,1,.05-.09.63.63,0,0,1,.61,0,5.59,5.59,0,0,1,.7.83A3.64,3.64,0,0,1,528.58,81.32ZM531.1,92.9l-.52-.51h0a4.57,4.57,0,0,1,1-.46c.12,0,.31.29.48.46Zm-.31-52.61c.17-.3.34-.62.52-.93.16.16.48.35.45.47a4.13,4.13,0,0,1-.45,1Zm1-6.74-.14,0a1.85,1.85,0,0,1-1-.75,1.13,1.13,0,0,1-.09-.2.68.68,0,0,1,0-.17h0l-.55-.31h0a7.23,7.23,0,0,1-.6-.75s0-.07,0-.08c.52-.88.93-.28,1.27.2a.63.63,0,0,1,0,.61h0l.09,0a.83.83,0,0,1,.26-.06h0a2.52,2.52,0,0,1,.39,0c1.39.11,2.79,0,4.18.07.29,0,.56.51.79.82,0,0-.29.44-.47.46-.91.1-1.82.12-2,.14A16.84,16.84,0,0,1,531.8,33.55Zm1.42,44.06a4.77,4.77,0,0,1-.46,1l-.52-.51c.17-.31.35-.62.52-.94C532.92,77.29,533.24,77.49,533.22,77.61Zm1,14-.51-.52.51-.93c.17.16.49.35.46.47A4.16,4.16,0,0,1,534.21,91.66Zm-.08-5.83a.65.65,0,0,1-.62,0,.26.26,0,0,1,0-.15l-.09.16a.19.19,0,0,1,.09,0,.6.6,0,0,1,0,.61,5.12,5.12,0,0,1-.83.7,3.4,3.4,0,0,1-.43-.43s0,0,0,0a2.74,2.74,0,0,1,.66-.85.23.23,0,0,1,.12-.06l.16,0c.1-.17.22-.36.35-.59h0a6.52,6.52,0,0,1,.74-.6.09.09,0,0,1,.1,0C535.2,85.08,534.6,85.5,534.13,85.83Zm1.33-45.23c-.2-.19-.36-.36-.52-.52a4.56,4.56,0,0,1,1-.45c.12,0,.31.29.47.45Zm1.41,49.33c-.12,0-.31-.29-.48-.45a4.52,4.52,0,0,1,1-.45c.12,0,.32.29.48.45A4.52,4.52,0,0,1,536.87,89.93Zm1.7,4.63-.51-.93.51-.52a4.84,4.84,0,0,1,.46,1C539.05,94.21,538.73,94.4,538.57,94.56Zm11.61-20.44c-.53.32-1.39.08-2.1.11-1.84.07-3.82-.54-5.24,1.4-.25.34-1.38.05-2.1.05-.57.2-1,.37-1.47.5,0,.06,0,.1,0,.17,0,.3-.61.56-1,.76-.17.1-.44,0-.67,0l-1.1-.6c.47-.28.94-.77,1.43-.79s1.39-.64,1.32.43h0c.68-.46.35-.44,0-.51-.61-.15,0-.9,1.12-1.44a15.74,15.74,0,0,1,3-1.39c1.15-.25,2.43.12,3.59-.12.82-.17,1.48-1,2.31-1.36a1.11,1.11,0,0,1,1.52,1A2.24,2.24,0,0,1,550.18,74.12Zm2.92,10.27a4.25,4.25,0,0,1-.45-1c0-.12.29-.32.45-.48a4.84,4.84,0,0,1,.46,1C553.58,84,553.26,84.23,553.1,84.39ZM553,35a19.1,19.1,0,0,1-2.83,0c-.18,0-.51-.37-.47-.47.1-.35.28-.82.55-.92a4.08,4.08,0,0,1,1.4,0,9.58,9.58,0,0,1,1.42,0c.19,0,.5.36.47.47C553.46,34.38,553.25,34.93,553,35Zm6.06,5.68h0a2.9,2.9,0,0,1-.85-.66.23.23,0,0,1-.06-.13.59.59,0,0,1,0-.14h0c-.17-.11-.36-.23-.59-.35h0a7.25,7.25,0,0,1-.6-.74s0-.08,0-.1c.51-.87.92-.28,1.26.2a.63.63,0,0,1,0,.61.18.18,0,0,1-.15.05l.15.09a.73.73,0,0,1,.05-.09.63.63,0,0,1,.61,0,5.59,5.59,0,0,1,.7.83A3.64,3.64,0,0,1,559.09,40.64Zm15.47-1.32a18.41,18.41,0,0,1-2.69,0c-.15,0-.7-.08-1.28-.19l-.27-.05a.27.27,0,0,1-.14-.07l-.09-.06-.05-.05a.76.76,0,0,1-.11-.14h0a1.09,1.09,0,0,1-.08-.15h0c-1.93-.69-3.14-1.06-4.05-.35l0,0a2.4,2.4,0,0,0-.35.36c-.6.76-1,.41-1.44-.12s-1.59-1-1.42-2.13h-.06a.79.79,0,0,1-.25,0h0a2.24,2.24,0,0,1-.35,0l-.35,0c-2.51,0-3.68,0-4.45,0h-.17a6,6,0,0,1-.64-.05c-.31,0-.57-.51-.81-.82,0,0,.3-.45.47-.46,1.86-.07,3.72-.13,5.57-.1a1.49,1.49,0,0,1,1,.74,2.29,2.29,0,0,1,.11.23.09.09,0,0,0,0,0,.77.77,0,0,1,0,.15v0a.36.36,0,0,1,0,.11v0a.27.27,0,0,1-.1.08h4.82c.51,0,1,0,1.44.05a1.1,1.1,0,0,1,1,1.41v0c.13-.11.36-.12.72,0s1.25.21,1.39,0c1.2-1.85,2.15-1.07,3.12.18a6.26,6.26,0,0,0,.51.52C575.23,38.83,574.92,39.26,574.56,39.32Z" style="fill:#fff"/><path d="M561.47,36.45h0Z" style="fill:#fff"/><polygon points="530.53 32.08 530.53 32.08 530.53 32.08 530.53 32.08" style="fill:#fff"/><path d="M358.32,99a.91.91,0,0,1,.22-.11c.6-.18,1.43.39,2.06,1.46.57.32,1.12.67,1.7,1,.39.2.8.33,1.2.49a1.12,1.12,0,0,1,1.15-1.43c5.53-.05,11.07,0,16.61-.06,1.34,0,1.16-1.21,1.13-2.15,0-.24,0-.48,0-.72h0a13.61,13.61,0,0,0-2.88-1.3l-.08,0a2,2,0,0,0-.34-.06,13.24,13.24,0,0,0-1.84-.07,22.7,22.7,0,0,0-4.29.07c-.89.18-.48.94,0,1.47.22.23.22.66.31,1-.43.12-1,.49-1.26.32-1.47-1-3.39-1.21-4.72-2.57a1.86,1.86,0,0,0-1.84,0,3.69,3.69,0,0,1-3.15,1.17c-2.15-.08-4.31-.08-6.46,0-.73,0-1.19.57-1.11,1.46s0,1.91,0,2.87C356.53,101.6,357.09,99.9,358.32,99Zm20.44-1.56a4.13,4.13,0,0,1,.45,1c0,.12-.29.31-.45.47a4.25,4.25,0,0,1-.45-1C378.28,97.83,378.6,97.63,378.76,97.47Z" style="fill:#fff"/><path d="M416.21,96c2.14-.1,4.27-.18,6.41-.3.14,0,.4-.36.36-.48s-.3-.48-.48-.5c-.94-.1-1.9-.06-2.83-.21-.31,0-.55-.54-.82-.83a13.35,13.35,0,0,1,1.21-.57c.21-.08.57.08.7,0a2.43,2.43,0,0,0,.61-.93c0-.1-.31-.47-.48-.48-1.45,0-2.9,0-4.35,0-1.53,2.27-3.87,1.37-5.91,1.41-1.5,0-2.18.41-2.17,2,0,.3-1,.83-1.58.89-.89.09-1.94.37-2.62-.6a2.16,2.16,0,0,0-2.55-.76,1.49,1.49,0,0,1-.44.06h-.11a1.07,1.07,0,0,1-.27-.07.56.56,0,0,1-.17-.09,2,2,0,0,1-.56-.55l-.28-.36-.17-.18a1.2,1.2,0,0,0-.21-.17l-.08,0a1.08,1.08,0,0,0-.32-.09,3.42,3.42,0,0,0-1.43,0c-.24.09-.52.85-.42.94,1.1,1.05,1.57,1.8-.56,2-.4,0-.78.42-1.17.64.34.26.67.73,1,.75h.75c1.68,0,3.36,0,5,0h6.52C411,95.33,413.69,96.14,416.21,96Z" style="fill:#fff"/><path d="M314.78,97.53c-.23.38-.61.76-.64,1.16-.09,1.18,0,2.38-.07,3.57,0,.36-.6,1-.78,1-2.58-.65-3.83,1.22-5.42,2.59-.71.62-1-.58-1.49-.82-1.2-.56-1.47-.47-1.73,1.28a.86.86,0,0,1,.16.18c.16.18.31.38.46.57a3.48,3.48,0,0,1-.42.43s0,0,0,0a2.9,2.9,0,0,1-.85-.66.23.23,0,0,1-.06-.13.25.25,0,0,1,0-.09s0,0,0-.06a.58.58,0,0,1,.06-.28c-.62-.31-.94-.42-1.23-.59a9.3,9.3,0,0,1-1-.85c-1,1.85-2.92,1.12-4.43,1.55-.69.19-.68.65-.12,1,1.13.71.94,1.38-.05,2-.48.32-.41.72.22,1a1.56,1.56,0,0,0,2.25-.88c.26-1.11,0-2.8,1.77-.94a2,2,0,0,0,1.24.46c1.2.05,2.58.36,3.55-.12s1.7-1.56,3.09-1.32c1.54.25,2-.51,2.08-2,.07-.94,1.28-1.27,2.27-.65,1.2.75-.17,1.11-.48,1.47s-.52.87.17,1a7.83,7.83,0,0,0,2.81.14c.64-.09,1.06-.5.36-1.36-1-1.24-.9-1.36.61-1.49h.24c.4,0,.81,0,1.21,0,.1-1.35-.85-1.27-1.79-1.49-1.33-.31-1.48-1.31-.65-2.61.35-.55.66-1.14,1-1.71a7.56,7.56,0,0,1-1.21-.51A7.76,7.76,0,0,1,314.78,97.53Z" style="fill:#fff"/><path d="M304.65,106.29h0a.27.27,0,0,0-.08-.07S304.62,106.27,304.65,106.29Z" style="fill:#fff"/><path d="M334.51,102.32a5,5,0,0,1-.06-1.94c-.71,0-1.74-.3-2.06.05a4.24,4.24,0,0,1-3.7,1.43c-2.11-.12-4.24-.06-6.36,0-.29,0-.57.52-.85.79.17.17.33.48.5.48,2.34.07,4.68,0,7,.17l.2,0a1.09,1.09,0,0,1,.89,1.39c1.6,0,3.2.08,4.78,0a1.11,1.11,0,0,0,1-1.42C335.42,103,334.7,102.76,334.51,102.32Z" style="fill:#fff"/><path d="M258.44,125.36c-.9-.16-1.82-.26-2-.29a28.19,28.19,0,0,1-2.85,0c-1.77-.21-2.4,1.3-3.34,2.25-.47.48-.05.82.68.69H251a2.3,2.3,0,0,1,.69,0h0a2.37,2.37,0,0,1,1.33.63l0,0a3.61,3.61,0,0,1,.35.33l0,0c.31.33.6.69.9,1l.09.09a4,4,0,0,0,.42.4c.43.36.7.4,1-.22a1.1,1.1,0,0,0,.12-.66,4.52,4.52,0,0,0-.36-1.27c-.85-1.65-.87-1.65.66-1.82.68-.08,1.38-.09,2.06-.2a.76.76,0,0,0,.48-.49C258.85,125.72,258.6,125.39,258.44,125.36Z" style="fill:#fff"/><path d="M200.86,131.57c-1.19,1-2.06,2.52-3.93,2.47a.67.67,0,0,0-.47.48c0,.16.28.43.47.48a14.22,14.22,0,0,0,1.51.24c1.22,0,1.93.06,2.62,0a1.17,1.17,0,0,0,1.19-1.36c0-.46,0-.94,0-1.4a6.92,6.92,0,0,0-.38-1.25A2.72,2.72,0,0,0,200.86,131.57Z" style="fill:#fff"/><path d="M310.39,116.4c-2.87-.06-5.74-.05-8.61,0-.18,0-.52.36-.49.46.12.35.34.91.56.93,1.19.09,2.39,0,3.58,0,1.68,0,3.35,0,5,0,.17,0,.51-.37.48-.47C310.83,117,310.59,116.4,310.39,116.4Z" style="fill:#fff"/><path d="M393.28,94.61a12.21,12.21,0,0,0-2.1,0,11.19,11.19,0,0,0-2.09,0c-.29,0-.75.63-.69.83a2.75,2.75,0,0,0,4.35,1.11,3.48,3.48,0,0,0,.95-1A1,1,0,0,0,393.28,94.61Z" style="fill:#fff"/><path d="M275,122.31a.38.38,0,0,0-.09-.09,1.29,1.29,0,0,0-.69-.08c-1.87.09-3.75,0-5.62.07-.29,0-.56.51-.8.82,0,0,.29.44.47.46.92.09,1.84.12,2.06.13,1.64,0,2.58.07,3.51,0a1.59,1.59,0,0,0,1.05-.74,1.12,1.12,0,0,0,.14-.4.25.25,0,0,0,0-.13Z" style="fill:#fff"/><path d="M265.66,123.87c-.65-.15-1.32-.22-1.49-.25a20.93,20.93,0,0,0-2.61,0,3.8,3.8,0,0,0-1.14.63,4.28,4.28,0,0,0,.95.77c.4.16.93,0,1.31.2,1.74.81,1.9.82,3-.4.15-.18.33-.34.49-.5C266,124.18,265.86,123.92,265.66,123.87Z" style="fill:#fff"/><path d="M244.38,128.6c0-.2,0-.41,0-.62h-.69l-2.18,4.88a2.72,2.72,0,0,0,.37.56l0,0a1.43,1.43,0,0,0,.41.18c.7-.68,1.74-1.25,2-2.05a4.29,4.29,0,0,0,.15-.81,1.93,1.93,0,0,1,0-.24c0-.21,0-.43,0-.65v-.17C244.43,129.33,244.4,129,244.38,128.6Z" style="fill:#fff"/><path d="M321.62,106.19c.22,0,1.14,0,2.05-.14.18,0,.49-.43.47-.45-.24-.31-.51-.81-.79-.83-1.39-.08-2.8,0-4.18-.07a2.52,2.52,0,0,0-.39,0h0a.9.9,0,0,0-.27.06.28.28,0,0,0-.14.21.62.62,0,0,0,0,.18v0a1.6,1.6,0,0,0,.11.25,1.86,1.86,0,0,0,1,.74l.14,0A16.84,16.84,0,0,0,321.62,106.19Z" style="fill:#fff"/><path d="M348.1,108.89a.86.86,0,0,0,.33-.11,4.25,4.25,0,0,0,2-2.91h0a9.65,9.65,0,0,0-.52-.9.72.72,0,0,0-.23-.2l-.24-.11h-.22l-.08,0,0,0s-.05.08-.07.13-.08.35-.14.59c-.21.81-1.6,1.12-1.36,2.3C347.63,108.16,348,108.9,348.1,108.89Z" style="fill:#fff"/><path d="M426.67,93.12a4.74,4.74,0,0,0,.53-1c-.4-.16-.79-.35-1.2-.48a2.64,2.64,0,0,0-.69,0,4.16,4.16,0,0,0-1.37,0,1.49,1.49,0,0,0-.66.82,9.46,9.46,0,0,0,2,1.92C425.39,94.53,426.22,93.62,426.67,93.12Z" style="fill:#fff"/><path d="M296.17,118.06a9.47,9.47,0,0,0-1.31-.25,8.15,8.15,0,0,0-1.4,0c-.74.13-1.27.5-1.15,1.38,0,.23-.08.52,0,.7.41.7.78.68,1.46.13a10.61,10.61,0,0,1,2.38-1c.2-.08.34-.32.5-.48C296.51,118.37,296.37,118.12,296.17,118.06Z" style="fill:#fff"/><path d="M358.33,107.6c.23,0,.45-.58.56-.92,0-.1-.3-.47-.47-.47-1.42,0-2.85-.06-4.27,0-.22,0-.45.57-.56.92,0,.1.29.44.47.47a9.73,9.73,0,0,0,1.43,0A26.87,26.87,0,0,0,358.33,107.6Z" style="fill:#fff"/><path d="M381.66,103.31a8.38,8.38,0,0,0-1.42,0,24.39,24.39,0,0,0-2.84,0c-.23,0-.45.57-.57.91,0,.1.31.47.48.47,1.42,0,2.85.06,4.27,0,.21,0,.44-.57.56-.91C382.17,103.67,381.85,103.33,381.66,103.31Z" style="fill:#fff"/><path d="M383.11,97.48c1.83.45,2.42-1.21,3.49-2-.26-.29-.48-.78-.79-.84-1.77-.35-2.32,1.35-3.42,2.15v.72A2.89,2.89,0,0,1,383.11,97.48Z" style="fill:#fff"/><path d="M238.33,124.57a13.22,13.22,0,0,0-1.89.54c-.27.12-.42.59-.52.94,0,.11.29.43.48.46a10.88,10.88,0,0,0,1.4,0,5.61,5.61,0,0,1,.71,0,1.19,1.19,0,0,0,1.47-1,1.79,1.79,0,0,0-.18-1.31C239,123.08,238.83,124.43,238.33,124.57Z" style="fill:#fff"/><path d="M335.92,102.59c-.11.08,0,.46,0,.69h1.43c.24,0,.64.09.69,0a4.42,4.42,0,0,0,.74-1.8c0-1,.55-2.53-1.41-2.55A3.42,3.42,0,0,1,335.92,102.59Z" style="fill:#fff"/><path d="M355.05,109.58c-.08.07-.06.45,0,.47.61.24,1.24.44,1.92.67.68-.23,1.31-.43,1.92-.67.05,0,.08-.4,0-.47A3.8,3.8,0,0,0,355.05,109.58Z" style="fill:#fff"/><path d="M348,110.79a.7.7,0,0,0-.47.48c0,.17.27.44.47.48.66.15,1.34.22,1.51.25.75,0,1,.08,1.22,0a10.07,10.07,0,0,0,1.12-.71c-.37-.24-.73-.67-1.12-.69A15.77,15.77,0,0,0,348,110.79Z" style="fill:#fff"/><path d="M306.72,113.45a11.31,11.31,0,0,0,2.11,0c.31,0,.55-.51.78-.82,0,0-.29-.43-.47-.45a14.39,14.39,0,0,0-2.7-.1c-.37,0-1,.43-1,.73a1.58,1.58,0,0,0,0,.28v.14C305.49,113.91,306.41,113.15,306.72,113.45Z" style="fill:#fff"/><path d="M278.63,120.86a15.29,15.29,0,0,0-2.7-.11c-.37,0-1,.43-1,.74a2.15,2.15,0,0,0,0,.23c-.06,1,1,.13,1.31.45a12.23,12.23,0,0,0,2.11,0c.31-.06.55-.51.78-.82C279.12,121.28,278.81,120.87,278.63,120.86Z" style="fill:#fff"/><path d="M226.9,127.28c-.29.35-.65.65-1,1a6,6,0,0,0-.39.49l1.3.79a5.75,5.75,0,0,0,1.51-.94,1.5,1.5,0,0,0,0-1.34C228,126.49,227.41,126.66,226.9,127.28Z" style="fill:#fff"/><path d="M190.58,134.54a13.07,13.07,0,0,1-1,1c-.14.15-.25.33-.38.5l1.3.78a5.46,5.46,0,0,0,1.51-.93,1.5,1.5,0,0,0,0-1.34C191.64,133.75,191.09,133.93,190.58,134.54Z" style="fill:#fff"/><path d="M397.22,102.35c-.08.23.65.72.95,1,.63-.26,1-.41,1.42-.61.06,0,0-.36,0-.47C399,101.57,397.47,101.56,397.22,102.35Z" style="fill:#fff"/><path d="M362.33,105.2c-.09.12,0,.33-.05.49a1.59,1.59,0,0,0,2.4,0,.54.54,0,0,0,0-.48A1.57,1.57,0,0,0,362.33,105.2Z" style="fill:#fff"/><path d="M343.44,108.11c-.08.11-.09.44,0,.47.38.2.78.35,1.41.61.3-.31,1-.8.95-1C345.53,107.37,344,107.38,343.44,108.11Z" style="fill:#fff"/><path d="M331.54,109.82l1.28.84,1.63-.84a7.53,7.53,0,0,0-1.81-.68C332.3,109.11,331.91,109.58,331.54,109.82Z" style="fill:#fff"/><path d="M329.44,104.62a4.21,4.21,0,0,0-.42.12,1.29,1.29,0,0,1-.28.06c-.49,0-1,.5-1.43.79l1.1.6a4.61,4.61,0,0,0,.52,0,.24.24,0,0,0,.15,0c.36-.2.92-.46,1-.77a1.73,1.73,0,0,0,0-.38.48.48,0,0,0-.07-.23C329.9,104.58,329.68,104.57,329.44,104.62Z" style="fill:#fff"/><path d="M325.38,96.05a1.12,1.12,0,0,0-1.1,1.42h2.9C327.29,96.11,326.36,95.94,325.38,96.05Z" style="fill:#fff"/><path d="M321.37,114.18c.37.24.76.71,1.1.68a7.53,7.53,0,0,0,1.81-.68,7.53,7.53,0,0,0-1.81-.68C322.13,113.46,321.74,113.94,321.37,114.18Z" style="fill:#fff"/><path d="M277.9,118c-.25-.49-.54-1.06-.84-1.63a7.53,7.53,0,0,0-.68,1.81c0,.33.44.73.68,1.09C277.3,118.9,277.55,118.53,277.9,118Z" style="fill:#fff"/><path d="M247.13,127.11a1.07,1.07,0,0,0-.46-.44l-.2-.06a1.68,1.68,0,0,0-2.09.72,1.29,1.29,0,0,0,0,.62l.35,0h0q.38,0,.75,0h.15a3.78,3.78,0,0,0,.76-.06C246.69,127.89,246.92,127.43,247.13,127.11Z" style="fill:#fff"/><path d="M439.09,141.2a.23.23,0,0,0-.06-.12h0a.53.53,0,0,0-.34-.08l-.15,0a.33.33,0,0,0-.12,0,3.08,3.08,0,0,0-.66.86s0,0,0,0a4.6,4.6,0,0,0,.44.43,5,5,0,0,0,.82-.7.49.49,0,0,0,.08-.31v0C439.1,141.28,439.1,141.24,439.09,141.2Z" style="fill:#fff"/><path d="M425,143.92a.81.81,0,0,0-.27,0,.36.36,0,0,0-.2.07h0a.53.53,0,0,0-.08.38l0,.12a.23.23,0,0,0,0,.1,2.78,2.78,0,0,0,.86.66c.05,0,.29-.27.46-.44a5.69,5.69,0,0,0-.7-.83A.26.26,0,0,0,425,143.92Z" style="fill:#fff"/><path d="M389.18,102.1a4.57,4.57,0,0,0-1,.46l.52.51.94-.51C389.49,102.39,389.3,102.07,389.18,102.1Z" style="fill:#fff"/><path d="M387,98a4.77,4.77,0,0,0,.46,1l.51-.51c-.16-.31-.34-.62-.51-.94C387.32,97.63,387,97.83,387,98Z" style="fill:#fff"/><path d="M363.83,101.77a.47.47,0,0,0-.3.08h0a.2.2,0,0,0,0,.08.42.42,0,0,0,0,.13h0a.57.57,0,0,0,0,.13.15.15,0,0,0,0,.07.22.22,0,0,0,0,.08.33.33,0,0,0,0,.12,3,3,0,0,0,.86.66s0,0,0,0a3,3,0,0,0,.43-.44,5,5,0,0,0-.7-.82A.49.49,0,0,0,363.83,101.77Z" style="fill:#fff"/><path d="M360.64,100.52a.67.67,0,0,0-.06-.12h0a.63.63,0,0,0-.61,0,3,3,0,0,0-.24.26,3.08,3.08,0,0,0-.42.6s0,0,0,0a4.28,4.28,0,0,0,.43.43,5.12,5.12,0,0,0,.83-.7.57.57,0,0,0,.08-.31s0-.07,0-.1A.22.22,0,0,1,360.64,100.52Z" style="fill:#fff"/><path d="M340.26,101.1l.94.52.51-.52a4.25,4.25,0,0,0-1-.45C340.62,100.62,340.42,100.94,340.26,101.1Z" style="fill:#fff"/><path d="M320.86,110.76l-.94.51c.16.16.36.48.48.46a4.77,4.77,0,0,0,1-.46h0Z" style="fill:#fff"/><path d="M304.76,113.47a3,3,0,0,0-.66.86v0a3.54,3.54,0,0,0,.44.44,5.1,5.1,0,0,0,.82-.71.26.26,0,0,0,.06-.14.59.59,0,0,0,0-.23v0a.45.45,0,0,0-.07-.18A.6.6,0,0,0,304.76,113.47Z" style="fill:#fff"/><path d="M298.4,113.93a4.72,4.72,0,0,0,.45,1c.17-.16.48-.35.46-.47a4.36,4.36,0,0,0-.46-1C298.69,113.61,298.37,113.81,298.4,113.93Z" style="fill:#fff"/><path d="M291.84,115.18a4.52,4.52,0,0,0-1,.45l.52.52.94-.52C292.15,115.47,292,115.15,291.84,115.18Z" style="fill:#fff"/><path d="M282.42,121.69c0,.12.29.32.45.48l.52-.94-.52-.51A4.25,4.25,0,0,0,282.42,121.69Z" style="fill:#fff"/><path d="M281.67,116.63a5.06,5.06,0,0,0-1,.45l.52.52.94-.52C282,116.92,281.79,116.6,281.67,116.63Z" style="fill:#fff"/><path d="M263.26,121.44a4.13,4.13,0,0,0-1-.45c-.12,0-.31.29-.47.45l.93.52Z" style="fill:#fff"/><path d="M258.17,120.72c-.16.16-.48.35-.45.47a4.56,4.56,0,0,0,.45,1l.52-.52C258.52,121.35,258.35,121,258.17,120.72Z" style="fill:#fff"/><path d="M255.72,121.69a4.25,4.25,0,0,0-.45-1c-.16.16-.48.35-.46.47a4.6,4.6,0,0,0,.46,1C255.43,122,255.75,121.81,255.72,121.69Z" style="fill:#fff"/><path d="M250.22,128.15a.34.34,0,0,0-.06-.15.63.63,0,0,0-.61,0,3,3,0,0,0-.66.85v0c0,.07.28.28.44.44a4.6,4.6,0,0,0,.82-.7s0-.07.05-.11a.3.3,0,0,0,0-.13.67.67,0,0,0,0-.2Z" style="fill:#fff"/><path d="M246.8,129.71a4.52,4.52,0,0,0-1,.45c.17.16.36.48.48.45a4.52,4.52,0,0,0,1-.45c-.12-.12-.27-.33-.38-.42A.11.11,0,0,0,246.8,129.71Z" style="fill:#fff"/><path d="M245.82,124.35a4.77,4.77,0,0,0-1-.46c-.12,0-.32.3-.48.46l.94.52Z" style="fill:#fff"/><path d="M221.13,128.71c.16.16.35.48.47.45a4.56,4.56,0,0,0,1-.45l-.52-.52Z" style="fill:#fff"/><path d="M218.22,130.16l.94.52.51-.52a4.25,4.25,0,0,0-1-.45C218.58,129.68,218.38,130,218.22,130.16Z" style="fill:#fff"/><path d="M204.42,132.34c-.18.31-.35.63-.52.93l.52.52a4.25,4.25,0,0,0,.45-1C204.9,132.7,204.58,132.5,204.42,132.34Z" style="fill:#fff"/><path d="M182.22,135.19h0l-.14,0a.15.15,0,0,0-.08,0l-.05,0a.39.39,0,0,0-.07.25.61.61,0,0,0,0,.19h0a.34.34,0,0,0,.06.16,2.9,2.9,0,0,0,.85.66l0,0a3.4,3.4,0,0,0,.43-.43,5,5,0,0,0-.7-.83A.48.48,0,0,0,182.22,135.19Z" style="fill:#fff"/><path d="M464,76.15c-.09.11,0,.32,0,.48a1.59,1.59,0,0,0,2.4,0,.58.58,0,0,0,0-.48A1.57,1.57,0,0,0,464,76.15Z" style="fill:#fff"/></svg>