<svg xmlns="http://www.w3.org/2000/svg" width="512" height="512" viewBox="0 0 512 512"><path d="M230.58,463.9l97.56-99.56L303,256l40.25,48-15.09-81.48L451.9,333.16,388.54,213.47l94.18,82.27,4-34.13v0l.21-1.87-.14-.11L387.5,189.34l-12.07,9L335.18,157.1l8.05,48.3L280.86,144l10.05,179.1Zm10.91-212-98.2,176,36.52-9.71ZM256,512C114.85,512,0,397.15,0,256S114.85,0,256,0,512,114.83,512,256,397.17,512,256,512Zm0-491C128.68,21,25.09,124.52,25.09,251.85l.48,14.71,111.88-97.12L176,218,277.75,112.15l33.91,36.23v0l19.88-19.88,39.77,45.58v0l9.36-8.18,106.24,85.91C486.91,124.52,383.34,21,256,21ZM155,313.26l11.69-83L132.77,194v46.77L74.29,321.46l59.65-54.9-15.2,130.88L241.51,209.2Z" style="fill:#1572a1"/></svg>