<svg xmlns="http://www.w3.org/2000/svg" width="98.72" height="515.12" viewBox="0 0 98.72 515.12"><path d="M27.51,438.64c-10.31,0-18.69,9-18.69,20.16S17.2,479,27.51,479,46.2,469.92,46.2,458.8,37.81,438.64,27.51,438.64Z" style="fill:#fff"/><path d="M49,490.89a1.54,1.54,0,0,1-.52-.09,1.81,1.81,0,0,1-1.06-2.26L60.67,445,52,404.34a1.79,1.79,0,0,1,1.25-2.15,1.67,1.67,0,0,1,2,1.35L64,444.68a2,2,0,0,1,0,1l-13.41,44A1.69,1.69,0,0,1,49,490.89Z" style="fill:#dbdbda"/><path d="M1,477.87v16.67L8.54,498v13.83h37l.87-14.15,7.14-3.61L54.14,481s-5.24-1.1-5.24-6.45H8.54S9,477.87,1,477.87Z" style="fill:#a1a1a2"/><path d="M9.44,476.47a2.5,2.5,0,0,1-2.4,2.6,2.6,2.6,0,0,1,0-5.19A2.5,2.5,0,0,1,9.44,476.47Z" style="fill:#302923"/><path d="M14.78,512.52a2.51,2.51,0,0,1-2.41,2.6,2.6,2.6,0,0,1,0-5.19A2.51,2.51,0,0,1,14.78,512.52Z" style="fill:#302923"/><path d="M20.86,512.52a2.51,2.51,0,0,1-2.41,2.6,2.6,2.6,0,0,1,0-5.19A2.51,2.51,0,0,1,20.86,512.52Z" style="fill:#302923"/><path d="M26.94,512.52a2.41,2.41,0,1,1-2.41-2.59A2.51,2.51,0,0,1,26.94,512.52Z" style="fill:#302923"/><path d="M33,512.52a2.41,2.41,0,1,1-2.41-2.59A2.51,2.51,0,0,1,33,512.52Z" style="fill:#302923"/><path d="M39.1,512.52a2.41,2.41,0,1,1-2.41-2.59A2.51,2.51,0,0,1,39.1,512.52Z" style="fill:#302923"/><path d="M45.18,512.52a2.41,2.41,0,1,1-2.4-2.59A2.51,2.51,0,0,1,45.18,512.52Z" style="fill:#302923"/><ellipse cx="48.06" cy="476.47" rx="2.41" ry="2.6" style="fill:#302923"/><path d="M51.71,458.13a2.17,2.17,0,0,1-2.08,2.24H5.39a2.17,2.17,0,0,1-2.08-2.24v-5.46a2.16,2.16,0,0,1,2.08-2.24H49.63a2.16,2.16,0,0,1,2.08,2.24Z" style="fill:#1f1011"/><path d="M48.06,464.69A2.16,2.16,0,0,1,46,466.93H9.85a2.16,2.16,0,0,1-2.08-2.24V445.62a2.16,2.16,0,0,1,2.08-2.24H46a2.16,2.16,0,0,1,2.08,2.24Z" style="fill:#371a0f"/><path d="M41.64,445.08H13.33a5.37,5.37,0,0,0,0,10.7H41.64a5.37,5.37,0,0,0,0-10.7Z" style="fill:#f2e7d4"/><path d="M14.12,449.87a1.4,1.4,0,1,1-1.39-1.5A1.45,1.45,0,0,1,14.12,449.87Z" style="fill:#cbccd0"/><ellipse cx="18.62" cy="449.87" rx="1.39" ry="1.51" style="fill:#cbccd0"/><ellipse cx="24.52" cy="449.87" rx="1.39" ry="1.51" style="fill:#cbccd0"/><ellipse cx="30.42" cy="449.87" rx="1.39" ry="1.51" style="fill:#cbccd0"/><ellipse cx="36.32" cy="449.87" rx="1.39" ry="1.51" style="fill:#cbccd0"/><ellipse cx="42.21" cy="449.87" rx="1.39" ry="1.51" style="fill:#cbccd0"/><path d="M14.12,461a1.4,1.4,0,1,1-1.39-1.51A1.45,1.45,0,0,1,14.12,461Z" style="fill:#cbccd0"/><ellipse cx="18.62" cy="460.99" rx="1.39" ry="1.51" style="fill:#cbccd0"/><ellipse cx="24.52" cy="460.99" rx="1.39" ry="1.51" style="fill:#cbccd0"/><ellipse cx="30.42" cy="460.99" rx="1.39" ry="1.51" style="fill:#cbccd0"/><ellipse cx="36.32" cy="460.99" rx="1.39" ry="1.51" style="fill:#cbccd0"/><ellipse cx="42.21" cy="460.99" rx="1.39" ry="1.51" style="fill:#cbccd0"/><path d="M51.71,396a2.16,2.16,0,0,1-2.08,2.24H5.39A2.16,2.16,0,0,1,3.31,396v-5.46a2.17,2.17,0,0,1,2.08-2.24H49.63a2.17,2.17,0,0,1,2.08,2.24Z" style="fill:#1f1011"/><path d="M48.06,402.56A2.17,2.17,0,0,1,46,404.81H9.85a2.17,2.17,0,0,1-2.08-2.25V383.5a2.17,2.17,0,0,1,2.08-2.25H46a2.17,2.17,0,0,1,2.08,2.25Z" style="fill:#371a0f"/><path d="M41.64,383H13.33a5.37,5.37,0,0,0,0,10.7H41.64a5.37,5.37,0,0,0,0-10.7Z" style="fill:#f2e7d4"/><path d="M14.12,387.75a1.4,1.4,0,1,1-1.39-1.51A1.45,1.45,0,0,1,14.12,387.75Z" style="fill:#cbccd0"/><ellipse cx="18.62" cy="387.75" rx="1.39" ry="1.51" style="fill:#cbccd0"/><ellipse cx="24.52" cy="387.75" rx="1.39" ry="1.51" style="fill:#cbccd0"/><ellipse cx="30.42" cy="387.75" rx="1.39" ry="1.51" style="fill:#cbccd0"/><ellipse cx="36.32" cy="387.75" rx="1.39" ry="1.51" style="fill:#cbccd0"/><ellipse cx="42.21" cy="387.75" rx="1.39" ry="1.51" style="fill:#cbccd0"/><path d="M14.12,398.86a1.4,1.4,0,1,1-1.39-1.51A1.45,1.45,0,0,1,14.12,398.86Z" style="fill:#cbccd0"/><ellipse cx="18.62" cy="398.86" rx="1.39" ry="1.51" style="fill:#cbccd0"/><ellipse cx="24.52" cy="398.86" rx="1.39" ry="1.51" style="fill:#cbccd0"/><ellipse cx="30.42" cy="398.86" rx="1.39" ry="1.51" style="fill:#cbccd0"/><ellipse cx="36.32" cy="398.86" rx="1.39" ry="1.51" style="fill:#cbccd0"/><ellipse cx="42.21" cy="398.86" rx="1.39" ry="1.51" style="fill:#cbccd0"/><path d="M77.33,464.44a7,7,0,1,1-7-7.53A7.27,7.27,0,0,1,77.33,464.44Z" style="fill:#f2e7d4"/><path d="M98.72,465.79a4.88,4.88,0,1,1-4.87-5.26A5.07,5.07,0,0,1,98.72,465.79Z" style="fill:#8a7770"/><path d="M96.88,465.79a3,3,0,1,1-3-3.28A3.16,3.16,0,0,1,96.88,465.79Z" style="fill:#1d1d1d"/><path d="M17.23,80.79l-5.9,290.12s-.66,5.68,5.9,5.68H37.71s5.23,1,5.23-6.4-4.08-289.4-4.08-289.4Z" style="fill:#e8e8e8"/><path d="M23.56,9.08,19.49,8h-.08l.22-1a2.26,2.26,0,0,0-1.5-2.72l-2.4-.66A2.07,2.07,0,0,0,13.2,5.23L11.84,11a2.27,2.27,0,0,0,1.5,2.73l2.4.65a2.07,2.07,0,0,0,2.53-1.62l.22-1,.08,0L22.65,13a1.85,1.85,0,0,0,2.26-1.45A2,2,0,0,0,23.56,9.08Z" style="fill:#e0e0e2"/><path d="M19.19,24.79l-4.07-1.11-.08,0,.22-1A2.26,2.26,0,0,0,13.76,20l-2.4-.65a2.07,2.07,0,0,0-2.53,1.62l-1.36,5.8A2.26,2.26,0,0,0,9,29.47l2.4.66A2.08,2.08,0,0,0,13.9,28.5l.23-1,.07,0,4.08,1.11a1.84,1.84,0,0,0,2.26-1.45A2,2,0,0,0,19.19,24.79Z" style="fill:#e0e0e2"/><path d="M15.8,39.11,11.72,38h-.08l.23-1a2.26,2.26,0,0,0-1.51-2.72L8,33.63a2.08,2.08,0,0,0-2.53,1.63l-1.36,5.8a2.27,2.27,0,0,0,1.51,2.73l2.4.65a2.06,2.06,0,0,0,2.52-1.62l.23-1,.07,0L14.88,43a1.85,1.85,0,0,0,2.26-1.45A2,2,0,0,0,15.8,39.11Z" style="fill:#e0e0e2"/><path d="M44.34,47.55l4.08-1.11.08,0-.22-1a2.26,2.26,0,0,1,1.5-2.73l2.4-.65a2.07,2.07,0,0,1,2.53,1.62l1.36,5.8a2.27,2.27,0,0,1-1.5,2.73l-2.4.66a2.08,2.08,0,0,1-2.53-1.63l-.23-1-.07,0-4.08,1.11A1.85,1.85,0,0,1,43,50,2,2,0,0,1,44.34,47.55Z" style="fill:#e0e0e2"/><path d="M40.3,31.84l4.08-1.12.08,0-.23-1A2.25,2.25,0,0,1,45.74,27l2.4-.66A2.07,2.07,0,0,1,50.66,28L52,33.79a2.28,2.28,0,0,1-1.51,2.73l-2.4.65a2.06,2.06,0,0,1-2.52-1.62l-.23-1-.08,0-4.08,1.12A1.86,1.86,0,0,1,39,34.28,2,2,0,0,1,40.3,31.84Z" style="fill:#e0e0e2"/><path d="M11.79,54.82,7.71,53.71l-.08,0,.23-1A2.27,2.27,0,0,0,6.35,50L4,49.35A2.06,2.06,0,0,0,1.43,51L.06,56.77A2.27,2.27,0,0,0,1.57,59.5l2.4.66a2.08,2.08,0,0,0,2.52-1.63l.23-1,.08,0,4.08,1.11a1.85,1.85,0,0,0,2.26-1.45A2,2,0,0,0,11.79,54.82Z" style="fill:#e0e0e2"/><path d="M17.23,80.79s0-4.07-4.89-5.89S5.6,70.66,7.1,65.4,23.21,6.79,23.21,6.79,25.64-3.32,38.94,1.13C46,5.41,46.81,14.27,44,17.7s-4.31,3-4.31,7.68,1.87,12.53,4.5,19.41,7.3,17,2.24,22.63-7.6,11.18-7.57,13.37Z" style="fill:#3b4346"/><path d="M38.86,80.79H27.13v295.8H37.71s5.23,1,5.23-6.4S38.86,80.79,38.86,80.79Z" style="fill:#e8cfc4"/></svg>