<svg xmlns="http://www.w3.org/2000/svg" width="50" height="50" viewBox="0 0 50 50"><path d="M47,40.2a.74.74,0,0,1-.65.79.78.78,0,0,1-.82-.74.76.76,0,0,1,.72-.73A.7.7,0,0,1,47,40.2Z" style="fill:#3b4346"/><path d="M41.07,41a.79.79,0,0,1-.78-.67.75.75,0,0,1,.75-.8.7.7,0,0,1,.72.72A.75.75,0,0,1,41.07,41Z" style="fill:#3b4346"/><path d="M35.85,41a.78.78,0,0,1-.78-.67.74.74,0,0,1,.74-.8.69.69,0,0,1,.72.71A.73.73,0,0,1,35.85,41Z" style="fill:#3b4346"/><path d="M30.63,39.53a.69.69,0,0,1,.68.74.76.76,0,0,1-.72.73.79.79,0,0,1-.75-.82A.74.74,0,0,1,30.63,39.53Z" style="fill:#3b4346"/><path d="M26.08,40.2a.73.73,0,0,1-.64.79.79.79,0,0,1-.83-.74.76.76,0,0,1,.72-.73A.7.7,0,0,1,26.08,40.2Z" style="fill:#3b4346"/><path d="M20.1,39.52a.7.7,0,0,1,.76.67.74.74,0,0,1-.64.8.78.78,0,0,1-.83-.73A.75.75,0,0,1,20.1,39.52Z" style="fill:#3b4346"/><path d="M14.94,39.53a.68.68,0,0,1,.7.72.74.74,0,0,1-.7.74.77.77,0,0,1-.77-.79A.75.75,0,0,1,14.94,39.53Z" style="fill:#3b4346"/><path d="M9.67,39.52a.69.69,0,0,1,.74.68.74.74,0,0,1-.65.79.78.78,0,0,1-.82-.74A.76.76,0,0,1,9.67,39.52Z" style="fill:#3b4346"/><path d="M4.42,41a.79.79,0,0,1-.7-.76.75.75,0,0,1,.84-.7.69.69,0,0,1,.63.79A.74.74,0,0,1,4.42,41Z" style="fill:#3b4346"/><path d="M1.86,42.11a.8.8,0,0,1,.75.71.76.76,0,0,1-.8.76.7.7,0,0,1-.68-.75A.76.76,0,0,1,1.86,42.11Z" style="fill:#3b4346"/><path d="M48.9,38.36a.71.71,0,0,1-.75-.68.74.74,0,0,1,.65-.79.78.78,0,0,1,.82.74A.76.76,0,0,1,48.9,38.36Z" style="fill:#3b4346"/><path d="M43.66,38.36a.69.69,0,0,1-.73-.7.73.73,0,0,1,.66-.77.77.77,0,0,1,.8.76A.74.74,0,0,1,43.66,38.36Z" style="fill:#3b4346"/><path d="M38.45,38.36a.71.71,0,0,1-.75-.68.74.74,0,0,1,.65-.79.78.78,0,0,1,.82.74A.75.75,0,0,1,38.45,38.36Z" style="fill:#3b4346"/><path d="M34,37.64a.76.76,0,0,1-.74.72.69.69,0,0,1-.73-.69.73.73,0,0,1,.76-.78A.79.79,0,0,1,34,37.64Z" style="fill:#3b4346"/><path d="M28.72,37.66a.75.75,0,0,1-.74.7.7.7,0,0,1-.73-.71.75.75,0,0,1,.79-.76A.78.78,0,0,1,28.72,37.66Z" style="fill:#3b4346"/><path d="M23.5,37.66a.75.75,0,0,1-.75.7.7.7,0,0,1-.72-.71.73.73,0,0,1,.78-.76A.79.79,0,0,1,23.5,37.66Z" style="fill:#3b4346"/><path d="M18.28,37.6a.74.74,0,0,1-.69.75.69.69,0,0,1-.78-.64.75.75,0,0,1,.72-.83A.81.81,0,0,1,18.28,37.6Z" style="fill:#3b4346"/><path d="M12.27,36.89a.79.79,0,0,1,.78.67.75.75,0,0,1-.75.8.7.7,0,0,1-.72-.72A.75.75,0,0,1,12.27,36.89Z" style="fill:#3b4346"/><path d="M7.08,36.88a.81.81,0,0,1,.75.72.74.74,0,0,1-.79.75.69.69,0,0,1-.68-.74A.75.75,0,0,1,7.08,36.88Z" style="fill:#3b4346"/><path d="M1.83,36.89a.78.78,0,0,1,.77.68.73.73,0,0,1-.75.78.68.68,0,0,1-.71-.71A.72.72,0,0,1,1.83,36.89Z" style="fill:#3b4346"/><path d="M47,45.44a.73.73,0,0,1-.67.77.77.77,0,0,1-.8-.76.74.74,0,0,1,.74-.7A.68.68,0,0,1,47,45.44Z" style="fill:#3b4346"/><path d="M41.75,45.42a.72.72,0,0,1-.64.79.77.77,0,0,1-.82-.73.74.74,0,0,1,.71-.73A.68.68,0,0,1,41.75,45.42Z" style="fill:#3b4346"/><path d="M36.53,45.5a.74.74,0,0,1-.72.72.77.77,0,0,1-.74-.82.73.73,0,0,1,.78-.65A.69.69,0,0,1,36.53,45.5Z" style="fill:#3b4346"/><path d="M48.86,48.8a.68.68,0,0,1-.71-.71.75.75,0,0,1,.69-.76.79.79,0,0,1,.78.79A.74.74,0,0,1,48.86,48.8Z" style="fill:#3b4346"/><path d="M44.39,48.11a.74.74,0,0,1-.74.69.68.68,0,0,1-.72-.7.73.73,0,0,1,.78-.76A.78.78,0,0,1,44.39,48.11Z" style="fill:#3b4346"/><path d="M39.17,48a.74.74,0,0,1-.68.76.68.68,0,0,1-.78-.63.75.75,0,0,1,.7-.84A.8.8,0,0,1,39.17,48Z" style="fill:#3b4346"/><path d="M32.48,48.12a.73.73,0,0,1,.66-.78.77.77,0,0,1,.81.74.75.75,0,0,1-.73.72A.69.69,0,0,1,32.48,48.12Z" style="fill:#3b4346"/><path d="M28.72,48.11a.74.74,0,0,1-.75.69.69.69,0,0,1-.72-.71.73.73,0,0,1,.79-.75A.78.78,0,0,1,28.72,48.11Z" style="fill:#3b4346"/><path d="M23.5,48a.74.74,0,0,1-.68.76.68.68,0,0,1-.78-.63.75.75,0,0,1,.7-.84A.8.8,0,0,1,23.5,48Z" style="fill:#3b4346"/><path d="M18.28,48.05a.76.76,0,0,1-.7.75.69.69,0,0,1-.77-.65.74.74,0,0,1,.72-.82A.81.81,0,0,1,18.28,48.05Z" style="fill:#3b4346"/><path d="M13.05,48.11a.74.74,0,0,1-.75.69.69.69,0,0,1-.72-.7.74.74,0,0,1,.79-.76A.78.78,0,0,1,13.05,48.11Z" style="fill:#3b4346"/><path d="M7.83,48.08a.74.74,0,0,1-.72.72.69.69,0,0,1-.75-.68.74.74,0,0,1,.76-.79A.8.8,0,0,1,7.83,48.08Z" style="fill:#3b4346"/><path d="M1.89,48.8a.68.68,0,0,1-.75-.67.74.74,0,0,1,.64-.79.78.78,0,0,1,.83.74A.75.75,0,0,1,1.89,48.8Z" style="fill:#3b4346"/><path d="M49.62,42.9a.75.75,0,0,1-.77.68.69.69,0,0,1-.7-.73.73.73,0,0,1,.8-.73A.78.78,0,0,1,49.62,42.9Z" style="fill:#3b4346"/><path d="M44.39,42.88a.74.74,0,0,1-.74.7.68.68,0,0,1-.72-.7.74.74,0,0,1,.78-.77A.78.78,0,0,1,44.39,42.88Z" style="fill:#3b4346"/><path d="M38.45,43.58a.7.7,0,0,1-.75-.67.75.75,0,0,1,.65-.8.78.78,0,0,1,.82.74A.75.75,0,0,1,38.45,43.58Z" style="fill:#3b4346"/><path d="M34,42.89a.75.75,0,0,1-.76.69.69.69,0,0,1-.71-.71.74.74,0,0,1,.79-.76A.8.8,0,0,1,34,42.89Z" style="fill:#3b4346"/><path d="M28,42.11a.78.78,0,0,1,.74.71.74.74,0,0,1-.79.76.7.7,0,0,1-.68-.75A.76.76,0,0,1,28,42.11Z" style="fill:#3b4346"/><path d="M22.72,42.11a.79.79,0,0,1,.78.68.74.74,0,0,1-.76.79.69.69,0,0,1-.71-.71A.75.75,0,0,1,22.72,42.11Z" style="fill:#3b4346"/><path d="M18.28,42.87a.75.75,0,0,1-.74.71.68.68,0,0,1-.73-.69.73.73,0,0,1,.77-.78A.8.8,0,0,1,18.28,42.87Z" style="fill:#3b4346"/><path d="M13.05,42.86a.75.75,0,0,1-.72.72.69.69,0,0,1-.74-.68.74.74,0,0,1,.75-.79A.79.79,0,0,1,13.05,42.86Z" style="fill:#3b4346"/><path d="M7.83,42.81a.74.74,0,0,1-.68.76A.69.69,0,0,1,6.36,43a.75.75,0,0,1,.71-.84A.79.79,0,0,1,7.83,42.81Z" style="fill:#3b4346"/><path d="M31.31,45.47a.75.75,0,0,1-.7.75.79.79,0,0,1-.77-.79.73.73,0,0,1,.76-.68A.69.69,0,0,1,31.31,45.47Z" style="fill:#3b4346"/><path d="M25.34,44.75a.68.68,0,0,1,.74.68.73.73,0,0,1-.65.78.78.78,0,0,1-.82-.74A.75.75,0,0,1,25.34,44.75Z" style="fill:#3b4346"/><path d="M20.86,45.43a.73.73,0,0,1-.65.78.77.77,0,0,1-.82-.74.74.74,0,0,1,.72-.72A.69.69,0,0,1,20.86,45.43Z" style="fill:#3b4346"/><path d="M14.91,46.22a.79.79,0,0,1-.74-.72.75.75,0,0,1,.79-.75.7.7,0,0,1,.68.75A.76.76,0,0,1,14.91,46.22Z" style="fill:#3b4346"/><path d="M10.42,45.48a.76.76,0,0,1-.72.74A.78.78,0,0,1,9,45.41a.74.74,0,0,1,.77-.66A.7.7,0,0,1,10.42,45.48Z" style="fill:#3b4346"/><path d="M4.42,46.22a.79.79,0,0,1-.7-.76.75.75,0,0,1,.84-.71.69.69,0,0,1,.63.79A.75.75,0,0,1,4.42,46.22Z" style="fill:#3b4346"/><path d="M46.22,29.08a.69.69,0,0,1,.76.66.74.74,0,0,1-.64.8.78.78,0,0,1-.83-.73A.75.75,0,0,1,46.22,29.08Z" style="fill:#3b4346"/><path d="M41,30.55a.79.79,0,0,1-.75-.71.74.74,0,0,1,.78-.76.7.7,0,0,1,.69.74A.75.75,0,0,1,41,30.55Z" style="fill:#3b4346"/><path d="M35.79,30.55a.8.8,0,0,1-.73-.74.74.74,0,0,1,.82-.73.69.69,0,0,1,.65.77A.74.74,0,0,1,35.79,30.55Z" style="fill:#3b4346"/><path d="M30.57,29.08a.69.69,0,0,1,.74.69.74.74,0,0,1-.67.77.77.77,0,0,1-.8-.75A.74.74,0,0,1,30.57,29.08Z" style="fill:#3b4346"/><path d="M25.38,29.08a.69.69,0,0,1,.71.72.76.76,0,0,1-.7.75.78.78,0,0,1-.77-.8A.73.73,0,0,1,25.38,29.08Z" style="fill:#3b4346"/><path d="M20.12,30.55a.8.8,0,0,1-.73-.74.74.74,0,0,1,.82-.73.69.69,0,0,1,.65.77A.75.75,0,0,1,20.12,30.55Z" style="fill:#3b4346"/><path d="M14.89,29.08a.69.69,0,0,1,.75.68.74.74,0,0,1-.66.78.77.77,0,0,1-.81-.74A.74.74,0,0,1,14.89,29.08Z" style="fill:#3b4346"/><path d="M9.71,29.08a.68.68,0,0,1,.7.72.75.75,0,0,1-.69.75.78.78,0,0,1-.77-.8A.73.73,0,0,1,9.71,29.08Z" style="fill:#3b4346"/><path d="M4.43,29.08a.69.69,0,0,1,.76.66.74.74,0,0,1-.64.8.78.78,0,0,1-.83-.73A.75.75,0,0,1,4.43,29.08Z" style="fill:#3b4346"/><path d="M49.62,27.14a.74.74,0,0,1-.68.76.69.69,0,0,1-.79-.63.74.74,0,0,1,.71-.83A.79.79,0,0,1,49.62,27.14Z" style="fill:#3b4346"/><path d="M44.39,27.14a.73.73,0,0,1-.67.76.69.69,0,0,1-.79-.63.73.73,0,0,1,.71-.83A.78.78,0,0,1,44.39,27.14Z" style="fill:#3b4346"/><path d="M38.39,26.44a.79.79,0,0,1,.78.68.74.74,0,0,1-.75.79.69.69,0,0,1-.72-.71A.75.75,0,0,1,38.39,26.44Z" style="fill:#3b4346"/><path d="M33.23,26.44a.8.8,0,0,1,.72.75.74.74,0,0,1-.83.71.68.68,0,0,1-.64-.77A.74.74,0,0,1,33.23,26.44Z" style="fill:#3b4346"/><path d="M28.72,27.2a.74.74,0,0,1-.73.71.68.68,0,0,1-.73-.69.73.73,0,0,1,.76-.78A.78.78,0,0,1,28.72,27.2Z" style="fill:#3b4346"/><path d="M23.5,27.2a.75.75,0,0,1-.73.71.7.7,0,0,1-.74-.69.74.74,0,0,1,.77-.78A.79.79,0,0,1,23.5,27.2Z" style="fill:#3b4346"/><path d="M17.51,27.91a.69.69,0,0,1-.7-.72.74.74,0,0,1,.69-.75.77.77,0,0,1,.77.79A.75.75,0,0,1,17.51,27.91Z" style="fill:#3b4346"/><path d="M12.29,27.91a.7.7,0,0,1-.71-.72.75.75,0,0,1,.69-.75.77.77,0,0,1,.78.78A.75.75,0,0,1,12.29,27.91Z" style="fill:#3b4346"/><path d="M6.36,27.23A.74.74,0,0,1,7,26.44a.77.77,0,0,1,.81.75.75.75,0,0,1-.73.72A.69.69,0,0,1,6.36,27.23Z" style="fill:#3b4346"/><path d="M1.9,27.91a.69.69,0,0,1-.76-.66.74.74,0,0,1,.63-.81.8.8,0,0,1,.84.72A.76.76,0,0,1,1.9,27.91Z" style="fill:#3b4346"/><path d="M47,35a.74.74,0,0,1-.65.79.78.78,0,0,1-.82-.75.74.74,0,0,1,.72-.72A.69.69,0,0,1,47,35Z" style="fill:#3b4346"/><path d="M41.76,35.06a.75.75,0,0,1-.74.71.78.78,0,0,1-.73-.83.74.74,0,0,1,.8-.64A.7.7,0,0,1,41.76,35.06Z" style="fill:#3b4346"/><path d="M35.8,35.77a.8.8,0,0,1-.74-.72.75.75,0,0,1,.8-.75.7.7,0,0,1,.67.75A.74.74,0,0,1,35.8,35.77Z" style="fill:#3b4346"/><path d="M30.54,34.3a.7.7,0,0,1,.77.66.73.73,0,0,1-.63.8.77.77,0,0,1-.84-.72A.75.75,0,0,1,30.54,34.3Z" style="fill:#3b4346"/><path d="M26.08,35a.74.74,0,0,1-.65.79.79.79,0,0,1-.82-.75.75.75,0,0,1,.73-.72A.69.69,0,0,1,26.08,35Z" style="fill:#3b4346"/><path d="M20.86,35a.75.75,0,0,1-.71.73.77.77,0,0,1-.75-.8.74.74,0,0,1,.77-.67A.69.69,0,0,1,20.86,35Z" style="fill:#3b4346"/><path d="M15.64,35a.75.75,0,0,1-.7.75.79.79,0,0,1-.77-.79.74.74,0,0,1,.76-.68A.7.7,0,0,1,15.64,35Z" style="fill:#3b4346"/><path d="M9.69,34.3a.68.68,0,0,1,.72.7.75.75,0,0,1-.67.77A.77.77,0,0,1,9,35,.74.74,0,0,1,9.69,34.3Z" style="fill:#3b4346"/><path d="M4.5,35.77a.78.78,0,0,1-.77-.68.73.73,0,0,1,.75-.79.69.69,0,0,1,.71.71A.75.75,0,0,1,4.5,35.77Z" style="fill:#3b4346"/><path d="M49.62,32.42a.75.75,0,0,1-.73.71.69.69,0,0,1-.74-.69.74.74,0,0,1,.77-.78A.8.8,0,0,1,49.62,32.42Z" style="fill:#3b4346"/><path d="M44.39,32.43a.74.74,0,0,1-.74.7.68.68,0,0,1-.72-.7.73.73,0,0,1,.78-.76A.77.77,0,0,1,44.39,32.43Z" style="fill:#3b4346"/><path d="M39.17,32.37a.74.74,0,0,1-.68.76.69.69,0,0,1-.78-.64.73.73,0,0,1,.71-.83A.79.79,0,0,1,39.17,32.37Z" style="fill:#3b4346"/><path d="M33.2,31.66a.8.8,0,0,1,.75.72.74.74,0,0,1-.79.75.69.69,0,0,1-.68-.75A.74.74,0,0,1,33.2,31.66Z" style="fill:#3b4346"/><path d="M28,33.13a.7.7,0,0,1-.72-.71.75.75,0,0,1,.69-.76.78.78,0,0,1,.78.79A.74.74,0,0,1,28,33.13Z" style="fill:#3b4346"/><path d="M23.5,32.37a.74.74,0,0,1-.68.76.69.69,0,0,1-.78-.64.73.73,0,0,1,.71-.83A.79.79,0,0,1,23.5,32.37Z" style="fill:#3b4346"/><path d="M18.28,32.38a.76.76,0,0,1-.7.75.69.69,0,0,1-.77-.65.74.74,0,0,1,.72-.82A.8.8,0,0,1,18.28,32.38Z" style="fill:#3b4346"/><path d="M12.31,31.66a.8.8,0,0,1,.74.72.74.74,0,0,1-.79.75.7.7,0,0,1-.68-.75A.76.76,0,0,1,12.31,31.66Z" style="fill:#3b4346"/><path d="M7.83,32.38a.74.74,0,0,1-.69.75.7.7,0,0,1-.78-.65.75.75,0,0,1,.73-.82A.79.79,0,0,1,7.83,32.38Z" style="fill:#3b4346"/><path d="M1.83,33.13a.7.7,0,0,1-.7-.73.76.76,0,0,1,.72-.74.77.77,0,0,1,.75.81A.74.74,0,0,1,1.83,33.13Z" style="fill:#3b4346"/><path d="M7.91,1.07a.7.7,0,0,1-.71.72.73.73,0,0,1-.76-.68A.78.78,0,0,1,7.21.32.75.75,0,0,1,7.91,1.07Z" style="fill:#3b4346"/><path d="M2.68,1.11a.69.69,0,0,1-.74.68.75.75,0,0,1-.73-.72A.78.78,0,0,1,2,.32.74.74,0,0,1,2.68,1.11Z" style="fill:#3b4346"/><path d="M49.69,6.25A.68.68,0,0,1,49,7a.74.74,0,0,1-.81-.63A.8.8,0,0,1,49,5.54.75.75,0,0,1,49.69,6.25Z" style="fill:#3b4346"/><path d="M43.76,7A.74.74,0,0,1,43,6.32a.77.77,0,0,1,.79-.77.72.72,0,0,1,.68.75A.68.68,0,0,1,43.76,7Z" style="fill:#3b4346"/><path d="M39.25,6.25a.7.7,0,0,1-.66.76.74.74,0,0,1-.81-.63.78.78,0,0,1,.73-.84A.76.76,0,0,1,39.25,6.25Z" style="fill:#3b4346"/><path d="M34,6.32a.68.68,0,0,1-.73.69.74.74,0,0,1-.73-.71.77.77,0,0,1,.8-.75A.72.72,0,0,1,34,6.32Z" style="fill:#3b4346"/><path d="M28.8,6.32a.68.68,0,0,1-.73.69.75.75,0,0,1-.74-.71.77.77,0,0,1,.81-.75A.74.74,0,0,1,28.8,6.32Z" style="fill:#3b4346"/><path d="M23.58,6.31a.69.69,0,0,1-.73.7.74.74,0,0,1-.74-.7.77.77,0,0,1,.79-.76A.73.73,0,0,1,23.58,6.31Z" style="fill:#3b4346"/><path d="M18.35,6.31a.68.68,0,0,1-.72.7.74.74,0,0,1-.74-.69.76.76,0,0,1,.78-.77A.73.73,0,0,1,18.35,6.31Z" style="fill:#3b4346"/><path d="M13.13,6.28a.68.68,0,0,1-.69.73.73.73,0,0,1-.78-.66.79.79,0,0,1,.76-.81A.75.75,0,0,1,13.13,6.28Z" style="fill:#3b4346"/><path d="M7.91,6.28A.68.68,0,0,1,7.22,7a.73.73,0,0,1-.78-.66.79.79,0,0,1,.76-.81A.75.75,0,0,1,7.91,6.28Z" style="fill:#3b4346"/><path d="M1.92,5.54a.75.75,0,0,1,.76.69A.69.69,0,0,1,2,7a.74.74,0,0,1-.83-.71A.81.81,0,0,1,1.92,5.54Z" style="fill:#3b4346"/><path d="M49,1.79a.75.75,0,0,1-.75-.69A.78.78,0,0,1,49,.32a.75.75,0,0,1,.69.76A.7.7,0,0,1,49,1.79Z" style="fill:#3b4346"/><path d="M43.72.32a.74.74,0,0,1,.75.69.7.7,0,0,1-.65.78A.75.75,0,0,1,43,1.06.79.79,0,0,1,43.72.32Z" style="fill:#3b4346"/><path d="M39.25,1.05a.69.69,0,0,1-.69.74.73.73,0,0,1-.78-.66.78.78,0,0,1,.76-.81A.75.75,0,0,1,39.25,1.05Z" style="fill:#3b4346"/><path d="M34,1.08a.7.7,0,0,1-.72.71.74.74,0,0,1-.75-.69.78.78,0,0,1,.78-.78A.75.75,0,0,1,34,1.08Z" style="fill:#3b4346"/><path d="M28.8,1.05a.69.69,0,0,1-.69.74.74.74,0,0,1-.78-.66.78.78,0,0,1,.76-.81A.75.75,0,0,1,28.8,1.05Z" style="fill:#3b4346"/><path d="M23.58,1.11a.7.7,0,0,1-.75.68.74.74,0,0,1-.72-.72.77.77,0,0,1,.81-.75A.74.74,0,0,1,23.58,1.11Z" style="fill:#3b4346"/><path d="M17.64.32a.76.76,0,0,1,.72.74.7.7,0,0,1-.7.73A.73.73,0,0,1,16.89,1,.78.78,0,0,1,17.64.32Z" style="fill:#3b4346"/><path d="M13.13,1a.69.69,0,0,1-.68.75.74.74,0,0,1-.79-.65.78.78,0,0,1,.75-.82A.74.74,0,0,1,13.13,1Z" style="fill:#3b4346"/><path d="M47.11,3.65a.78.78,0,0,1-.68.77.73.73,0,0,1-.79-.75A.69.69,0,0,1,46.35,3,.75.75,0,0,1,47.11,3.65Z" style="fill:#3b4346"/><path d="M41.09,4.43a.75.75,0,0,1-.67-.77.69.69,0,0,1,.72-.7.73.73,0,0,1,.74.8A.78.78,0,0,1,41.09,4.43Z" style="fill:#3b4346"/><path d="M35.89,4.43a.76.76,0,0,1-.7-.75A.7.7,0,0,1,35.9,3a.73.73,0,0,1,.76.78A.79.79,0,0,1,35.89,4.43Z" style="fill:#3b4346"/><path d="M31.44,3.67a.79.79,0,0,1-.7.76A.74.74,0,0,1,30,3.65.69.69,0,0,1,30.7,3,.75.75,0,0,1,31.44,3.67Z" style="fill:#3b4346"/><path d="M26.22,3.69a.81.81,0,0,1-.72.74.74.74,0,0,1-.75-.8A.68.68,0,0,1,25.5,3,.75.75,0,0,1,26.22,3.69Z" style="fill:#3b4346"/><path d="M21,3.7a.82.82,0,0,1-.74.73.73.73,0,0,1-.73-.82A.68.68,0,0,1,20.29,3,.75.75,0,0,1,21,3.7Z" style="fill:#3b4346"/><path d="M15.77,3.67a.79.79,0,0,1-.7.76.74.74,0,0,1-.77-.78A.68.68,0,0,1,15,3,.75.75,0,0,1,15.77,3.67Z" style="fill:#3b4346"/><path d="M9.08,3.73A.69.69,0,0,1,9.73,3a.74.74,0,0,1,.81.63.78.78,0,0,1-.72.84A.74.74,0,0,1,9.08,3.73Z" style="fill:#3b4346"/><path d="M5.32,3.65a.77.77,0,0,1-.68.77.73.73,0,0,1-.79-.75A.69.69,0,0,1,4.57,3,.75.75,0,0,1,5.32,3.65Z" style="fill:#3b4346"/><path d="M4.53,18.63a.74.74,0,0,1,.79.66.77.77,0,0,1-.75.81.75.75,0,0,1-.72-.73A.69.69,0,0,1,4.53,18.63Z" style="fill:#3b4346"/><path d="M9.8,18.63a.74.74,0,0,1,.74.7.77.77,0,0,1-.78.77.75.75,0,0,1-.68-.77A.68.68,0,0,1,9.8,18.63Z" style="fill:#3b4346"/><path d="M15,18.63a.75.75,0,0,1,.75.7.79.79,0,0,1-.79.77.76.76,0,0,1-.68-.77A.69.69,0,0,1,15,18.63Z" style="fill:#3b4346"/><path d="M21,19.35a.79.79,0,0,1-.71.75.74.74,0,0,1-.75-.79.68.68,0,0,1,.74-.68A.74.74,0,0,1,21,19.35Z" style="fill:#3b4346"/><path d="M26.22,19.4a.79.79,0,0,1-.76.7.75.75,0,0,1-.71-.84.69.69,0,0,1,.79-.63A.75.75,0,0,1,26.22,19.4Z" style="fill:#3b4346"/><path d="M31.44,19.35a.79.79,0,0,1-.71.75.75.75,0,0,1-.76-.79.69.69,0,0,1,.75-.68A.74.74,0,0,1,31.44,19.35Z" style="fill:#3b4346"/><path d="M36.66,19.39a.78.78,0,0,1-.74.71.74.74,0,0,1-.72-.83.69.69,0,0,1,.78-.64A.74.74,0,0,1,36.66,19.39Z" style="fill:#3b4346"/><path d="M41.14,20.1a.74.74,0,0,1-.72-.72.69.69,0,0,1,.68-.75.74.74,0,0,1,.79.76A.79.79,0,0,1,41.14,20.1Z" style="fill:#3b4346"/><path d="M47.11,19.32a.78.78,0,0,1-.68.77.73.73,0,0,1-.79-.75.69.69,0,0,1,.71-.71A.75.75,0,0,1,47.11,19.32Z" style="fill:#3b4346"/><path d="M49.69,16.82a.69.69,0,0,1-.78.64.74.74,0,0,1-.68-.76.78.78,0,0,1,.85-.7A.74.74,0,0,1,49.69,16.82Z" style="fill:#3b4346"/><path d="M44.47,16.77a.68.68,0,0,1-.73.69.75.75,0,0,1-.74-.71.79.79,0,0,1,.81-.76A.75.75,0,0,1,44.47,16.77Z" style="fill:#3b4346"/><path d="M39.25,16.71a.7.7,0,0,1-.67.75.75.75,0,0,1-.8-.65.78.78,0,0,1,.74-.82A.75.75,0,0,1,39.25,16.71Z" style="fill:#3b4346"/><path d="M34,16.76a.68.68,0,0,1-.72.7.74.74,0,0,1-.74-.7.77.77,0,0,1,.79-.77A.75.75,0,0,1,34,16.76Z" style="fill:#3b4346"/><path d="M28.11,16a.75.75,0,0,1,.69.76.69.69,0,0,1-.71.71.73.73,0,0,1-.75-.79A.78.78,0,0,1,28.11,16Z" style="fill:#3b4346"/><path d="M23.58,16.74a.7.7,0,0,1-.71.72.73.73,0,0,1-.76-.68.78.78,0,0,1,.77-.79A.75.75,0,0,1,23.58,16.74Z" style="fill:#3b4346"/><path d="M18.35,16.77a.68.68,0,0,1-.73.69.76.76,0,0,1-.74-.71.8.8,0,0,1,.81-.76A.75.75,0,0,1,18.35,16.77Z" style="fill:#3b4346"/><path d="M13.13,16.76a.69.69,0,0,1-.72.7.75.75,0,0,1-.75-.7.79.79,0,0,1,.79-.77A.76.76,0,0,1,13.13,16.76Z" style="fill:#3b4346"/><path d="M46.23,23.85a.7.7,0,0,1,.75.68.74.74,0,0,1-.65.79.78.78,0,0,1-.82-.74A.76.76,0,0,1,46.23,23.85Z" style="fill:#3b4346"/><path d="M41.76,24.55a.75.75,0,0,1-.67.77.78.78,0,0,1-.8-.76.75.75,0,0,1,.73-.71A.71.71,0,0,1,41.76,24.55Z" style="fill:#3b4346"/><path d="M36.53,24.6a.74.74,0,0,1-.72.72.76.76,0,0,1-.74-.81.72.72,0,0,1,.78-.65A.68.68,0,0,1,36.53,24.6Z" style="fill:#3b4346"/><path d="M31.31,24.59a.74.74,0,0,1-.71.73.77.77,0,0,1-.76-.8.74.74,0,0,1,.78-.67A.7.7,0,0,1,31.31,24.59Z" style="fill:#3b4346"/><path d="M25.34,25.33a.82.82,0,0,1-.73-.74.74.74,0,0,1,.82-.73.68.68,0,0,1,.65.76A.75.75,0,0,1,25.34,25.33Z" style="fill:#3b4346"/><path d="M20.86,24.53a.74.74,0,0,1-.65.79.78.78,0,0,1-.82-.74.76.76,0,0,1,.72-.73A.7.7,0,0,1,20.86,24.53Z" style="fill:#3b4346"/><path d="M14.87,25.32a.79.79,0,0,1-.7-.76.74.74,0,0,1,.84-.7.68.68,0,0,1,.62.79A.72.72,0,0,1,14.87,25.32Z" style="fill:#3b4346"/><path d="M10.42,24.59a.75.75,0,0,1-.72.73.77.77,0,0,1-.75-.8.74.74,0,0,1,.77-.67A.71.71,0,0,1,10.42,24.59Z" style="fill:#3b4346"/><path d="M4.44,23.85a.7.7,0,0,1,.75.68.74.74,0,0,1-.65.79.78.78,0,0,1-.82-.74A.76.76,0,0,1,4.44,23.85Z" style="fill:#3b4346"/><path d="M49,21.21a.76.76,0,0,1,.74.72.7.7,0,0,1-.67.75.75.75,0,0,1-.81-.74A.82.82,0,0,1,49,21.21Z" style="fill:#3b4346"/><path d="M43.7,21.22a.74.74,0,0,1,.77.67.69.69,0,0,1-.63.79A.75.75,0,0,1,43,22,.79.79,0,0,1,43.7,21.22Z" style="fill:#3b4346"/><path d="M38.53,22.68a.74.74,0,0,1-.75-.68.77.77,0,0,1,.78-.78.75.75,0,0,1,.69.75A.69.69,0,0,1,38.53,22.68Z" style="fill:#3b4346"/><path d="M33.35,22.68a.74.74,0,0,1-.79-.65.79.79,0,0,1,.74-.82.76.76,0,0,1,.73.73A.69.69,0,0,1,33.35,22.68Z" style="fill:#3b4346"/><path d="M28.05,22.69a.76.76,0,0,1-.72-.73.78.78,0,0,1,.82-.74.74.74,0,0,1,.65.79A.7.7,0,0,1,28.05,22.69Z" style="fill:#3b4346"/><path d="M23.58,22a.71.71,0,0,1-.74.7.75.75,0,0,1-.73-.72.77.77,0,0,1,.8-.75A.74.74,0,0,1,23.58,22Z" style="fill:#3b4346"/><path d="M17.64,22.68a.72.72,0,0,1-.75-.68.77.77,0,0,1,.78-.78.72.72,0,0,1,.68.75A.68.68,0,0,1,17.64,22.68Z" style="fill:#3b4346"/><path d="M12.36,21.22a.74.74,0,0,1,.77.67.69.69,0,0,1-.63.79.75.75,0,0,1-.84-.7A.79.79,0,0,1,12.36,21.22Z" style="fill:#3b4346"/><path d="M7.22,21.22a.74.74,0,0,1,.69.75.69.69,0,0,1-.71.71.73.73,0,0,1-.76-.78A.79.79,0,0,1,7.22,21.22Z" style="fill:#3b4346"/><path d="M2.68,22a.68.68,0,0,1-.71.71A.74.74,0,0,1,1.21,22,.78.78,0,0,1,2,21.22.73.73,0,0,1,2.68,22Z" style="fill:#3b4346"/><path d="M23.57,11.6a.68.68,0,0,1-.78.63.73.73,0,0,1-.68-.75.78.78,0,0,1,.85-.71A.74.74,0,0,1,23.57,11.6Z" style="fill:#3b4346"/><path d="M17.59,10.77a.74.74,0,0,1,.76.68.69.69,0,0,1-.64.78.74.74,0,0,1-.83-.71A.79.79,0,0,1,17.59,10.77Z" style="fill:#3b4346"/><path d="M13.13,11.47a.68.68,0,0,1-.66.76.73.73,0,0,1-.8-.63.77.77,0,0,1,.72-.83A.75.75,0,0,1,13.13,11.47Z" style="fill:#3b4346"/><path d="M7.91,11.53a.7.7,0,0,1-.72.71.75.75,0,0,1-.75-.7.77.77,0,0,1,.79-.77A.75.75,0,0,1,7.91,11.53Z" style="fill:#3b4346"/><path d="M2,12.24a.75.75,0,0,1-.76-.69A.78.78,0,0,1,2,10.77a.73.73,0,0,1,.69.75A.69.69,0,0,1,2,12.24Z" style="fill:#3b4346"/><path d="M49.7,11.48a.69.69,0,0,1-.67.75.74.74,0,0,1-.8-.63.78.78,0,0,1,.73-.83A.75.75,0,0,1,49.7,11.48Z" style="fill:#3b4346"/><path d="M44.47,11.51a.69.69,0,0,1-.7.73.75.75,0,0,1-.76-.68.77.77,0,0,1,.76-.79A.74.74,0,0,1,44.47,11.51Z" style="fill:#3b4346"/><path d="M38.57,12.23a.73.73,0,0,1-.79-.65.77.77,0,0,1,.75-.81.75.75,0,0,1,.72.72A.69.69,0,0,1,38.57,12.23Z" style="fill:#3b4346"/><path d="M34,11.47a.68.68,0,0,1-.65.76.74.74,0,0,1-.81-.63.8.8,0,0,1,.72-.84A.75.75,0,0,1,34,11.47Z" style="fill:#3b4346"/><path d="M28,10.77a.74.74,0,0,1,.76.68.69.69,0,0,1-.64.78.73.73,0,0,1-.83-.71A.79.79,0,0,1,28,10.77Z" style="fill:#3b4346"/><path d="M10.55,8.93a.8.8,0,0,1-.74.72.73.73,0,0,1-.73-.81.7.7,0,0,1,.77-.66A.76.76,0,0,1,10.55,8.93Z" style="fill:#3b4346"/><path d="M5.32,8.87a.79.79,0,0,1-.68.78.74.74,0,0,1-.79-.75.7.7,0,0,1,.71-.72A.75.75,0,0,1,5.32,8.87Z" style="fill:#3b4346"/><path d="M47.11,8.89a.78.78,0,0,1-.7.76.74.74,0,0,1-.77-.77.7.7,0,0,1,.73-.7A.75.75,0,0,1,47.11,8.89Z" style="fill:#3b4346"/><path d="M41.15,8.18a.75.75,0,0,1,.74.71.78.78,0,0,1-.81.76.74.74,0,0,1-.66-.78A.69.69,0,0,1,41.15,8.18Z" style="fill:#3b4346"/><path d="M35.2,9a.68.68,0,0,1,.65-.76.73.73,0,0,1,.81.62.78.78,0,0,1-.72.84A.74.74,0,0,1,35.2,9Z" style="fill:#3b4346"/><path d="M31.44,8.9a.79.79,0,0,1-.71.75A.75.75,0,0,1,30,8.86a.7.7,0,0,1,.75-.68A.75.75,0,0,1,31.44,8.9Z" style="fill:#3b4346"/><path d="M26.22,8.91a.79.79,0,0,1-.72.74.74.74,0,0,1-.75-.79.69.69,0,0,1,.75-.68A.76.76,0,0,1,26.22,8.91Z" style="fill:#3b4346"/><path d="M20.2,9.65a.76.76,0,0,1-.68-.77.7.7,0,0,1,.73-.7A.73.73,0,0,1,21,9,.79.79,0,0,1,20.2,9.65Z" style="fill:#3b4346"/><path d="M15.77,8.87a.79.79,0,0,1-.68.78.74.74,0,0,1-.79-.75A.7.7,0,0,1,15,8.18.75.75,0,0,1,15.77,8.87Z" style="fill:#3b4346"/><path d="M36,14.88a.74.74,0,0,1-.75-.69.69.69,0,0,1,.64-.78.73.73,0,0,1,.82.72A.79.79,0,0,1,36,14.88Z" style="fill:#3b4346"/><path d="M41.89,14.1a.79.79,0,0,1-.68.77.73.73,0,0,1-.79-.75.68.68,0,0,1,.71-.71A.74.74,0,0,1,41.89,14.1Z" style="fill:#3b4346"/><path d="M46.34,14.87a.74.74,0,0,1-.7-.74.69.69,0,0,1,.7-.72.74.74,0,0,1,.77.78A.78.78,0,0,1,46.34,14.87Z" style="fill:#3b4346"/><path d="M2.68,16.76a.68.68,0,0,1-.72.7.75.75,0,0,1-.75-.7A.79.79,0,0,1,2,16,.75.75,0,0,1,2.68,16.76Z" style="fill:#3b4346"/><path d="M7.91,16.69a.71.71,0,0,1-.66.77.74.74,0,0,1-.81-.63A.78.78,0,0,1,7.16,16,.76.76,0,0,1,7.91,16.69Z" style="fill:#3b4346"/><path d="M4.59,13.4a.75.75,0,0,1,.73.72.77.77,0,0,1-.8.75.74.74,0,0,1-.67-.77A.71.71,0,0,1,4.59,13.4Z" style="fill:#3b4346"/><path d="M9.76,13.41a.73.73,0,0,1,.78.65.74.74,0,1,1-1.47.09A.7.7,0,0,1,9.76,13.41Z" style="fill:#3b4346"/><path d="M15,13.4A.74.74,0,1,1,15,14.87a.74.74,0,0,1-.67-.77A.7.7,0,0,1,15,13.4Z" style="fill:#3b4346"/><path d="M21,14.1a.78.78,0,0,1-.68.77.74.74,0,0,1-.79-.75.69.69,0,0,1,.72-.71A.73.73,0,0,1,21,14.1Z" style="fill:#3b4346"/><path d="M25.5,14.88a.74.74,0,0,1-.75-.69.69.69,0,0,1,.64-.78.74.74,0,0,1,.83.72A.8.8,0,0,1,25.5,14.88Z" style="fill:#3b4346"/><path d="M31.44,14.09a.78.78,0,0,1-.67.78.73.73,0,0,1-.8-.74.69.69,0,0,1,.71-.72A.74.74,0,0,1,31.44,14.09Z" style="fill:#3b4346"/><rect width="50" height="50" style="fill:none"/></svg>